<svg width="735" height="735" viewBox="0 0 735 735" fill="none" xmlns="http://www.w3.org/2000/svg">
<path d="M367.092 367.5L396.862 0C442.733 3.61466 486.244 15.6256 525.856 34.4965L367.092 367.5L576.685 63.9034C613.59 89.3795 645.621 121.411 671.097 158.314L367.092 367.5L700.504 209.144C719.375 248.757 731.386 292.267 735 338.138L367.092 367.5L735 396.862C731.386 442.733 719.375 486.243 700.503 525.855L367.092 367.5L671.096 576.685C645.62 613.589 613.589 645.62 576.685 671.096L367.092 367.5L525.856 700.503C486.244 719.374 442.733 731.385 396.862 735L367.092 367.5L338.139 735C292.267 731.385 248.757 719.374 209.144 700.503L367.092 367.5L158.315 671.097C121.41 645.62 89.3798 613.589 63.9033 576.685L367.092 367.5L34.4966 525.856C15.6255 486.243 3.61446 442.733 0 396.862L367.092 367.5L0 338.138C3.61446 292.267 15.6259 248.757 34.4966 209.144L367.092 367.5L63.9033 158.314C89.3798 121.411 121.41 89.3794 158.315 63.9033L367.092 367.5L209.144 34.4965C248.757 15.6256 292.267 3.61466 338.139 0L367.092 367.5Z" fill="url(#paint0_radial_2390_12145)"/>
<defs>
<radialGradient id="paint0_radial_2390_12145" cx="0" cy="0" r="1" gradientUnits="userSpaceOnUse" gradientTransform="translate(367.5 367.5) rotate(90) scale(367.5)">
<stop stop-color="white"/>
<stop offset="1" stop-color="#0047FF" stop-opacity="0"/>
</radialGradient>
</defs>
</svg>
