<svg width="48" height="48" viewBox="0 0 48 48" fill="none" xmlns="http://www.w3.org/2000/svg">
<mask id="mask0_1562_4946" style="mask-type:alpha" maskUnits="userSpaceOnUse" x="1" y="21" width="46" height="25">
<path d="M4.01906 43.6868L1.92132 24.1078C1.79466 22.9257 2.72105 21.8948 3.90993 21.8948H44.09C45.2789 21.8948 46.2053 22.9257 46.0787 24.1078L43.9809 43.6868C43.872 44.7031 43.0144 45.4737 41.9923 45.4737H6.00768C4.98558 45.4737 4.12795 44.7031 4.01906 43.6868Z" fill="black"/>
</mask>
<g mask="url(#mask0_1562_4946)">
<path d="M4.21052 45.4737L1.6842 21.8948H46.3158L43.7895 45.4737H4.21052Z" fill="#00A3FF"/>
<path opacity="0.15" d="M42.1053 36.6316L45.8947 22.3158L43.3684 45.4737H10.9474L34.1053 42.9474C34.1053 42.9474 34.9474 40.8421 37.0526 38.7369C39.1579 36.6316 42.1053 36.6316 42.1053 36.6316Z" fill="#1E2329"/>
<path opacity="0.3" d="M5.61225 24.3705L45.4737 22.3158L2.10526 21.8948L3.36841 38.7369C3.36841 38.7369 7.99999 38.3158 11.3684 44.6316C11.3684 39.579 7.15789 37.8948 5.05262 37.0527L4.66429 25.4025C4.64612 24.8576 5.06778 24.3986 5.61225 24.3705Z" fill="white"/>
<circle cx="3.78946" cy="45.8948" r="7" fill="white" stroke="#1E2329" stroke-width="2"/>
<circle cx="43.3684" cy="45.8948" r="7" fill="white" stroke="#1E2329" stroke-width="2"/>
</g>
<path d="M4.01906 43.6868L1.92132 24.1078C1.79466 22.9257 2.72105 21.8948 3.90993 21.8948H44.09C45.2789 21.8948 46.2053 22.9257 46.0787 24.1078L43.9809 43.6868C43.872 44.7031 43.0144 45.4737 41.9923 45.4737H6.00768C4.98558 45.4737 4.12795 44.7031 4.01906 43.6868Z" stroke="#1E2329" stroke-width="2" stroke-linejoin="round"/>
<path d="M2.61505 7.31281L1.6842 10.1053H46.3158L45.3849 7.31281C44.4321 4.45441 41.7572 2.5264 38.7442 2.5264H9.25583C6.24282 2.5264 3.56785 4.45441 2.61505 7.31281Z" fill="#00A3FF" stroke="#1E2329" stroke-width="2" stroke-linejoin="round"/>
<path opacity="0.3" d="M3.42571 7.78974L3.36841 7.99984L3.41118 7.96182C5.83368 5.80866 8.9282 4.56271 12.1668 4.43653L39.5789 3.36853H9.21427C6.5086 3.36853 4.13766 5.17942 3.42571 7.78974Z" fill="white"/>
<path opacity="0.15" d="M26.5263 32.0001H21.4737C19.3808 32.0001 17.6842 30.3035 17.6842 28.2106C17.6842 26.1177 19.3808 24.4211 21.4737 24.4211H26.5263C28.6192 24.4211 30.3158 26.1177 30.3158 28.2106C30.3158 30.3035 28.6192 32.0001 26.5263 32.0001Z" fill="#1E2329"/>
<path d="M26.5263 30.1579H21.4737C19.9331 30.1579 18.6842 28.909 18.6842 27.3685C18.6842 25.8279 19.9331 24.579 21.4737 24.579H26.5263C28.0669 24.579 29.3158 25.8279 29.3158 27.3685C29.3158 28.909 28.0669 30.1579 26.5263 30.1579Z" fill="white" stroke="#1E2329" stroke-width="2" stroke-linejoin="round"/>
<ellipse cx="24" cy="27.3685" rx="1.26316" ry="1.26316" fill="#1E2329"/>
<path d="M40.421 21.8948L46.3158 10.1053H1.6842L8.42105 21.8948H40.421Z" fill="white" stroke="#1E2329" stroke-width="2" stroke-linejoin="round"/>
<path opacity="0.3" d="M36.7031 21.8948L41.2631 12.6316H6.73683L11.9484 21.8948H36.7031Z" fill="url(#paint0_linear_1562_4946)"/>
<defs>
<linearGradient id="paint0_linear_1562_4946" x1="24" y1="12.6316" x2="24" y2="21.8948" gradientUnits="userSpaceOnUse">
<stop stop-color="#1E2329"/>
<stop offset="1" stop-color="#1E2329" stop-opacity="0"/>
</linearGradient>
</defs>
</svg>
