<svg width="48" height="48" viewBox="0 0 48 48" fill="none" xmlns="http://www.w3.org/2000/svg">
<path d="M25.2041 45.6316C31.2287 45.6316 35.6711 42.3642 38.5659 38.0719C41.446 33.8015 42.8541 28.4456 42.8541 24C42.8541 19.331 41.3515 13.9713 38.4224 9.75467C35.4809 5.52013 31.0406 2.36841 25.2041 2.36841L21.2225 2.36843C11.103 2.36843 3.21054 12.2423 3.21054 24C3.21054 35.7577 11.103 45.6316 21.2225 45.6316H25.2041Z" fill="#00A3FF" stroke="#1E2329" stroke-width="2"/>
<path d="M26.2899 45.6316C36.4095 45.6316 44.3019 35.7576 44.3019 24C44.3019 12.2423 36.4095 2.36841 26.2899 2.36841C16.1704 2.36841 8.27792 12.2423 8.27792 24C8.27792 35.7576 16.1704 45.6316 26.2899 45.6316Z" fill="#00A3FF" stroke="#1E2329" stroke-width="2"/>
<path opacity="0.3" d="M15.3214 39.3785C12.3181 36.2408 10.3303 31.9164 9.71069 27.1727C9.09109 22.429 9.87983 17.5729 11.9369 13.4664C13.994 9.35999 17.1863 6.2688 20.9472 4.74156C24.7081 3.21432 28.7944 3.34982 32.4806 5.12403C24.1619 4.74156 20.3207 7.6968 16.2774 11.4032C12.2341 15.1096 7.5832 31.294 15.3214 39.3785Z" fill="white"/>
<path opacity="0.15" d="M37.2157 8.69049C40.219 11.8281 42.2068 16.1526 42.8264 20.8963C43.446 25.64 42.6573 30.4961 40.6002 34.6025C38.5432 38.709 35.3508 41.8002 31.5899 43.3274C27.829 44.8547 23.7427 44.7191 20.0565 42.9449C28.3752 43.3274 32.2164 40.3722 36.2597 36.6658C40.3031 32.9594 44.9539 16.775 37.2157 8.69049Z" fill="#1E2329"/>
<path d="M39.4063 23.9999C39.4063 33.0259 33.3673 40.0119 26.2899 40.0119C19.2125 40.0119 13.1736 33.0259 13.1736 23.9999C13.1736 14.974 19.2125 7.98792 26.2899 7.98792C33.3673 7.98792 39.4063 14.974 39.4063 23.9999Z" fill="white" stroke="#1E2329" stroke-width="2"/>
<path d="M31.1477 24.735C29.8747 24.4255 27.2225 26.669 26.0556 27.8294C24.8886 26.669 22.2364 24.4255 20.9634 24.7349C20.3268 28.6031 23.1912 33.6316 23.1912 33.6316C14.2799 26.2823 18.099 16.2253 18.099 16.2253C21.9182 16.999 26.0556 23.1879 26.0556 23.1879C26.0556 23.1879 30.193 16.999 34.0121 16.2253C34.0121 16.2253 35.9217 19.3198 34.9669 23.9615C34.9669 23.9615 35.6034 23.9615 36.2399 23.1879C36.2399 23.1879 34.9669 31.0345 29.5564 34.792C29.5564 34.792 31.6836 30.1504 32.1025 28.2163C32.1025 28.2163 31.7843 28.6031 30.8295 28.99C30.8295 28.99 31.466 26.6691 31.1477 24.735Z" fill="#00A3FF"/>
</svg>
