<svg width="48" height="48" viewBox="0 0 48 48" fill="none" xmlns="http://www.w3.org/2000/svg">
<g clip-path="url(#clip0_1562_5063)">
<path d="M44.7749 31.2441L44.7799 31.2315L44.7844 31.2188C45.3961 29.5227 45.4388 27.4217 44.6064 26.0151C44.1623 25.2647 43.439 24.68 42.4406 24.5803C41.4915 24.4855 40.4751 24.8488 39.4319 25.5594L39.0963 25.7879L39.015 26.1857L37.4662 33.7689L37.3747 34.217L37.6538 34.5793C38.171 35.2507 38.8421 35.6857 39.6251 35.7908C40.39 35.8935 41.1245 35.6631 41.758 35.2758C43.003 34.5145 44.0781 33.024 44.7749 31.2441Z" fill="white" stroke="#1E2329" stroke-width="2"/>
<g opacity="0.3">
<path opacity="0.3" d="M43.9827 30.4789C43.9395 30.608 43.8929 30.7432 43.8437 30.8796C42.5426 34.2031 39.9909 35.9744 38.446 33.969L39.3678 29.4547L39.713 29.4285C40.6503 32.3514 42.0117 32.611 43.7971 30.2074C43.7971 30.2074 43.8645 30.3068 43.9827 30.4789Z" fill="#1E2329"/>
</g>
<path d="M3.70656 30.7902L3.70655 30.7902L3.70846 30.7959C4.05725 31.8394 4.9815 33.5595 6.16082 34.6841C6.74634 35.2425 7.51705 35.7719 8.41773 35.8547C9.40843 35.9457 10.2927 35.4793 10.9861 34.5794L11.2653 34.2172L11.1739 33.7692L9.6272 26.1873L9.54602 25.7893L9.21035 25.5607C7.85834 24.6397 5.97493 24.1749 4.57672 25.1121C3.07756 26.1171 2.85743 28.1979 3.70656 30.7902Z" fill="white" stroke="#1E2329" stroke-width="2"/>
<g opacity="0.55">
<path opacity="0.55" d="M8.11241 34.7599C6.92005 34.3631 5.69015 32.9288 4.90905 30.9345C4.86029 30.7981 4.81368 30.6651 4.77009 30.5339C3.13324 25.5366 6.34739 24.799 8.75843 26.4408L8.76965 26.4972C6.58992 25.6752 4.3912 26.8152 5.80278 31.1278C5.84594 31.2569 5.89298 31.3916 5.94174 31.5284C6.49584 32.9456 7.27867 34.0804 8.11241 34.7599Z" fill="white"/>
</g>
<path d="M40.1904 15.8048L40.1628 14.8333H39.1908H9.05566H8.05566V15.8333V32.1624C8.05566 41.1245 16.0209 47.3144 24.3563 47.3144C32.691 47.3144 40.6553 41.1257 40.6553 32.1642V32.15L40.6549 32.1357L40.1904 15.8048Z" fill="white" stroke="#1E2329" stroke-width="2"/>
<g opacity="0.3">
<path opacity="0.3" d="M39.6552 29.5692V32.1642C39.6552 36.6282 37.5125 40.8616 33.8233 43.3894C33.7706 43.4252 33.718 43.4587 33.6675 43.4944C30.9121 45.3329 27.6715 46.3144 24.3563 46.3144C21.041 46.3144 17.8004 45.3329 15.045 43.4944C14.9946 43.4587 14.9419 43.4234 14.8893 43.3877C14.7727 43.3074 14.6569 43.2251 14.5419 43.1407C17.1717 44.4139 20.09 44.978 23.0064 44.777C25.9227 44.5759 28.7354 43.6167 31.1645 41.9947C31.215 41.959 31.2677 41.9254 31.3203 41.8897C35.0096 39.3618 37.1522 35.1284 37.1522 30.6644L37.3749 27.3938C39.7967 20.4303 37.3175 16.2529 33.1492 13.231C38.8214 16.0205 42.5258 21.3116 39.6552 29.5692Z" fill="#1E2329"/>
</g>
<g opacity="0.3">
<path opacity="0.3" d="M39.6552 29.569V30.623C37.9722 28.1515 37.6477 21.407 37.6477 21.407C36.177 22.9993 27.9164 24.8365 22.119 21.7651C22.0508 21.7289 21.9729 21.7153 21.8964 21.7261C21.82 21.7369 21.7489 21.7716 21.6935 21.8252C21.638 21.8788 21.6011 21.9485 21.5879 22.0244C21.5747 22.1003 21.586 22.1784 21.6201 22.2475C21.6909 22.3899 21.7194 22.4381 21.7194 22.4381C20.9569 22.9089 17.3651 22.4502 15.4167 21.3192C14.8751 21.0046 14.1838 21.3451 14.0871 21.9648C13.6504 24.7427 12.2634 26.6762 9.29698 29.5703C9.22361 29.415 9.15241 29.2596 9.08466 29.1038C9.22361 26.7369 9.85281 16.1073 9.95422 15.8361C13.303 6.84356 46.7917 9.04738 39.6552 29.569Z" fill="#1E2329"/>
</g>
<g opacity="0.55">
<path opacity="0.55" d="M30.7045 45.0691C28.165 46.1068 25.4086 46.506 22.6779 46.2318C19.9473 45.9575 17.3261 45.018 15.0451 43.4961C14.9946 43.4604 14.9419 43.4251 14.8893 43.3894C11.1978 40.8633 9.05566 36.6299 9.05566 32.1642V29.5692C9.05566 29.5692 9.83848 16.1401 9.95328 15.835C10.6571 13.9458 12.6906 12.5506 15.4002 11.7157C13.3629 12.5639 11.8663 13.7904 11.2824 15.3556C11.1681 15.6629 10.3848 29.0898 10.3848 29.0898V31.6848C10.3848 36.1505 12.5274 40.3843 16.2189 42.9117C16.2741 42.9425 16.3268 42.9776 16.3764 43.0167C20.0298 46.3158 25.9429 46.5611 30.7045 45.0691Z" fill="white"/>
</g>
<path d="M39.1374 30.8666L39.911 31.2922L40.4292 30.5773C42.3568 27.9176 43.4173 24.1334 43.4675 20.3511C43.5065 17.4113 42.9359 14.3822 41.6051 11.8074L42.3338 11.9632L43.9652 12.3119L43.5037 10.7087C42.7075 7.9427 40.6665 5.7328 38.104 4.11687C35.5374 2.49829 32.3766 1.42704 29.1798 0.957111C25.9842 0.487357 22.6919 0.609643 19.8576 1.43639C17.7529 2.05032 15.8512 3.06974 14.4568 4.56741C14.251 4.14098 14.0091 3.78188 13.7373 3.49397C13.1188 2.83879 12.1547 2.4149 11.2404 2.90556C10.3779 3.36835 10.1086 4.3676 10.1823 5.29285C10.1936 5.43402 10.2126 5.57899 10.2396 5.72751C9.57583 5.4623 8.95585 5.30111 8.38933 5.23524C7.15002 5.09113 5.88026 5.4009 5.30813 6.4675C4.73005 7.54518 5.19673 8.76681 6.02312 9.69288C6.59779 10.3369 7.42729 10.9531 8.51649 11.4972C6.52702 13.2243 5.66747 15.8852 5.56357 18.7352C5.43363 22.2995 6.45867 26.3788 8.14994 29.993L8.90082 31.5976L9.88658 30.1255C11.557 27.6311 12.457 25.9267 13.0154 23.9486C13.3877 22.63 13.6026 21.2028 13.8193 19.3714C15.2057 20.894 17.1268 21.8079 19.3682 21.8565L21.6896 21.9067L20.133 20.1875L20.1325 20.187L20.1324 20.1869L20.1319 20.1863L20.1316 20.1859L20.1249 20.1783C20.1169 20.1692 20.1035 20.1535 20.0853 20.1318C20.0488 20.0882 19.9939 20.0206 19.9269 19.9321C19.8813 19.8719 19.8305 19.8028 19.7766 19.7256C24.8815 23.0845 30.3609 23.8534 35.7943 22.6627C35.8565 23.37 35.9677 24.3236 36.1658 25.3301C36.3663 26.3487 36.6627 27.459 37.1077 28.4329C37.5438 29.3871 38.181 30.3404 39.1374 30.8666Z" fill="#00A3FF" stroke="#1E2329" stroke-width="2"/>
<g opacity="0.3">
<path opacity="0.3" d="M12.3634 15.242C12.6761 15.8319 12.9129 16.4589 13.0681 17.108C12.3863 23.2667 12.2305 24.8263 9.05476 29.5692C8.68277 28.7735 8.34487 27.9588 8.0484 27.133C10.6554 23.1002 10.96 20.8223 11.5625 15.3887C11.6095 14.9713 12.1697 14.8671 12.3634 15.242Z" fill="#1E2329"/>
</g>
<g opacity="0.55">
<path opacity="0.55" d="M11.1529 7.28345C7.01828 5.53664 5.52168 8.55686 9.54929 10.8747C3.73638 8.34728 5.80909 4.23138 11.1529 7.28345Z" fill="white"/>
</g>
<g opacity="0.55">
<path opacity="0.55" d="M10.5109 11.3636L10.5225 11.3688C11.0429 11.5982 11.153 12.2794 10.715 12.6418C6.97395 15.7347 7.11636 22.6943 9.5852 28.7623C9.41992 29.0205 9.24342 29.2903 9.0557 29.5692C5.79628 22.6035 5.17486 14.0279 10.5109 11.3636Z" fill="white"/>
</g>
<g opacity="0.55">
<path opacity="0.55" d="M12.1369 8.00829L12.124 8.0014C9.94249 4.65153 11.9276 2.72226 13.2529 4.26723C12.5193 4.37482 12.0877 5.50406 12.899 7.29089C13.1152 7.76643 12.5948 8.25789 12.1369 8.00829Z" fill="white"/>
</g>
<g opacity="0.55">
<path opacity="0.55" d="M38.399 5.93006C34.8017 4.27451 29.9839 3.16808 25.6106 3.14743C24.9365 4.43847 22.6645 4.37392 21.709 3.45642C19.2492 3.89623 17.167 4.82492 15.8676 6.37375C15.4956 6.81744 14.7693 6.78731 14.4763 6.28768C14.4595 6.26027 14.4451 6.23147 14.4332 6.20161C18.5057 1.02022 32.2499 0.593311 38.399 5.93006Z" fill="white"/>
</g>
<g opacity="0.3">
<path opacity="0.3" d="M39.6195 29.9905C36.8968 28.4924 36.7165 21.4072 36.7165 21.4072C30.2726 23.1561 23.7515 22.0888 17.8389 17.009C17.7134 19.005 19.3899 20.8567 19.3899 20.8567C18.6942 20.8417 18.0036 20.7353 17.3358 20.5404C14.2528 15.4735 15.5664 14.2789 19.9984 15.8367C32.3004 19.7959 41.2567 20.4148 39.4788 10.3282C43.7032 15.7132 43.1775 25.0811 39.6195 29.9905Z" fill="#1E2329"/>
</g>
<g opacity="0.2">
<path opacity="0.2" d="M36.4962 15.0112C36.4962 15.8624 34.8253 16.5523 32.7647 16.5523C30.7041 16.5523 29.0331 15.8637 29.0331 15.0112C29.0331 14.1587 30.7036 14.1384 32.7647 14.1384C34.8257 14.1384 36.4962 14.1604 36.4962 15.0112Z" fill="#FAFAFA"/>
</g>
<path d="M26.3295 39.9564C26.3295 39.9564 25.5217 40.4728 23.4157 40.4728C22.9592 40.5042 21.652 40.4328 20.0001 38.9287C20.0001 38.9287 20.763 41.1235 23.3661 41.1235C23.3665 41.1184 24.848 41.2544 26.3295 39.9564Z" fill="#1E2329"/>
<path d="M14.3745 30.2081C14.5514 29.6349 14.9747 29.1585 15.4965 28.834C16.0311 28.5098 16.6466 28.3424 17.2723 28.3508C17.8945 28.3552 18.5037 28.5299 19.0334 28.8556C19.5512 29.1788 19.9733 29.6422 20.1714 30.2081C19.6047 30.0141 19.1223 29.8587 18.6459 29.7589C18.1906 29.6598 17.7265 29.6068 17.2606 29.6005C16.7967 29.5942 16.3335 29.6393 15.8797 29.7352C15.4089 29.8324 14.932 29.9912 14.3745 30.2081Z" fill="#1E2329"/>
<path d="M34.5629 30.2082C34.0058 29.993 33.5272 29.8325 33.0568 29.7348C32.603 29.639 32.1398 29.5938 31.6759 29.6001C31.21 29.6059 30.7459 29.6586 30.2906 29.7572C29.8159 29.857 29.3318 30.0123 28.7651 30.2064C28.9628 29.6405 29.3866 29.177 29.9027 28.8539C30.4326 28.5282 31.0418 28.3536 31.6643 28.3491C32.2898 28.3406 32.9051 28.5081 33.4396 28.8323C33.9622 29.1585 34.3851 29.6349 34.5629 30.2082Z" fill="#1E2329"/>
<path d="M17.8389 36.1771C18.9083 36.1771 19.7752 35.0367 19.7752 33.6299C19.7752 32.2231 18.9083 31.0826 17.8389 31.0826C16.7695 31.0826 15.9025 32.2231 15.9025 33.6299C15.9025 35.0367 16.7695 36.1771 17.8389 36.1771Z" fill="#1E2329"/>
<path d="M18.3339 33.8946C18.6571 33.8946 18.919 33.5115 18.919 33.039C18.919 32.5665 18.6571 32.1835 18.3339 32.1835C18.0107 32.1835 17.7487 32.5665 17.7487 33.039C17.7487 33.5115 18.0107 33.8946 18.3339 33.8946Z" fill="white"/>
<path d="M31.228 36.1771C32.2974 36.1771 33.1643 35.0367 33.1643 33.6299C33.1643 32.2231 32.2974 31.0826 31.228 31.0826C30.1586 31.0826 29.2917 32.2231 29.2917 33.6299C29.2917 35.0367 30.1586 36.1771 31.228 36.1771Z" fill="#1E2329"/>
<path d="M30.733 33.8946C31.0562 33.8946 31.3182 33.5115 31.3182 33.039C31.3182 32.5665 31.0562 32.1835 30.733 32.1835C30.4098 32.1835 30.1478 32.5665 30.1478 33.039C30.1478 33.5115 30.4098 33.8946 30.733 33.8946Z" fill="white"/>
</g>
<defs>
<clipPath id="clip0_1562_5063">
<rect width="48" height="48" fill="white"/>
</clipPath>
</defs>
</svg>
