<?xml version="1.0" standalone="no"?>
<!DOCTYPE svg PUBLIC "-//W3C//DTD SVG 1.1//EN" "http://www.w3.org/Graphics/SVG/1.1/DTD/svg11.dtd" >
<svg>
<metadata>
Created by FontForge 20090914 at Fri Nov 12 15:25:02 2021
 By www-data
Copyright (c) 2017 by Artegra. All rights reserved.
</metadata>
<defs>
<font id="ArtegraSans-Bold" horiz-adv-x="1276" >
  <font-face 
    font-family="ArtegraSans-Bold"
    font-weight="700"
    font-stretch="normal"
    units-per-em="2048"
    panose-1="2 0 8 3 5 0 0 2 0 4"
    ascent="1524"
    descent="-524"
    x-height="1030"
    cap-height="1434"
    bbox="-220 -880.002 3247 2230"
    underline-thickness="102"
    underline-position="-307"
    unicode-range="U+000D-U+FE65"
  />
<missing-glyph horiz-adv-x="922" 
 />
    <glyph glyph-name="ff" unicode="ff" horiz-adv-x="1619" 
d="M1392 1294c-22 0 -40.6738 -1.83203 -56.0068 -5.49902s-28.166 -10.834 -38.499 -21.501s-18.333 -21.667 -24 -33s-10 -28.5 -13 -51.5s-4.83301 -44.833 -5.5 -65.5s-1 -49.667 -1 -87h284v-252h-284v-778h-328v778h-370v-778h-328v778h-188v252h188
c0.666992 53.333 3.83398 100.166 9.50098 140.499s17.5 82.666 35.5 126.999s41.833 80.833 71.5 109.5s70.667 52.334 123 71.001s114.5 28 186.5 28c94.667 0 180.334 -14.667 257.001 -44l-85 -229c-47.333 14 -91.333 21 -132 21c-22 0 -40.667 -1.83301 -56 -5.5
s-28.166 -10.167 -38.499 -19.5s-18.333 -19.166 -24 -29.499s-10 -25.333 -13 -45s-4.83301 -38 -5.5 -55s-1 -40.167 -1 -69.5h370c0.666992 43.333 2.5 81.833 5.5 115.5s8.33301 69 16 106s17.834 69.333 30.501 97s29.834 54.5 51.501 80.5s47 47.167 76 63.5
s64.333 29.333 106 39s88.5 14.5 140.5 14.5c94.667 0 180.334 -14.667 257.001 -44l-85 -229c-47.333 14 -91.333 21 -132 21z" />
    <glyph glyph-name="fi" unicode="fi" horiz-adv-x="1340" 
d="M542 1030h697.997v-1030h-328v778h-370v-778h-328v778h-174v252h174c1.33301 42 4.33301 80.333 9 115s12.667 70.167 24 106.5s25.666 68.666 42.999 96.999s40.333 55.166 69 80.499s61.834 46.333 99.501 63s82.834 29.834 135.501 39.501s111.334 14.5 176.001 14.5
c198.667 0 352.334 -40.667 461.001 -122l-169 -198c-79.333 45.333 -170 68 -272 68c-95.333 0 -160.5 -19.667 -195.5 -59s-52.5 -107.666 -52.5 -204.999z" />
    <glyph glyph-name="fl" unicode="fl" horiz-adv-x="1419" 
d="M912 778l-370.003 0.000976562v-778h-328v778h-174v252h174c1.33301 42 4.33301 80.333 9 115s12.667 70.167 24 106.5s25.666 68.666 42.999 96.999s40.333 55.166 69 80.499s61.834 46.333 99.501 63s82.834 29.834 135.501 39.501s111.334 14.5 176.001 14.5
c98 0 187.833 -10 269.5 -30s148.5 -48.667 200.5 -86v-1010v-36c0 -7.33301 0.5 -18.333 1.5 -33s2.5 -25.667 4.5 -33s4.83301 -16 8.5 -26s8.33398 -17.333 14.001 -22s12.834 -8.83398 21.501 -12.501s18.667 -5.5 30 -5.5h39v-252h-106c-64.667 0 -120 10 -166 30
s-80 42.333 -102 67s-38.833 58.167 -50.5 100.5s-18.334 75.333 -20.001 99s-2.5 54.834 -2.5 93.501v388zM789.997 1294c-95.333 0 -160.499 -19.668 -195.499 -59.001s-52.5 -107.666 -52.5 -204.999h370v251c-30.667 8.66699 -71.334 13 -122.001 13z" />
    <glyph glyph-name="ffi" unicode="ffi" horiz-adv-x="2052" 
d="M1254 1030l697.996 -0.00195312v-1030h-328v778h-370v-778h-328v778h-370v-778h-328v778h-188v252h188c0.666992 53.333 3.83398 100.166 9.50098 140.499s17.5 82.666 35.5 126.999s41.833 80.833 71.5 109.5s70.667 52.334 123 71.001s114.5 28 186.5 28
c94.667 0 180.334 -14.667 257.001 -44l-85 -229c-47.333 14 -91.333 21 -132 21c-22 0 -40.667 -1.83301 -56 -5.5s-28.166 -10.167 -38.499 -19.5s-18.333 -19.166 -24 -29.499s-10 -25.333 -13 -45s-4.83301 -38 -5.5 -55s-1 -40.167 -1 -69.5h370
c0.666992 59.333 5.5 112.5 14.5 159.5s25.833 93.5 50.5 139.5s57 84.333 97 115s93.333 55.334 160 74.001s144.667 28 234 28c198.667 0 352.334 -40.667 461.001 -122l-169 -198c-79.333 45.333 -170 68 -272 68c-95.333 0 -160.5 -19.667 -195.5 -59
s-52.5 -107.666 -52.5 -204.999z" />
    <glyph glyph-name="ffl" unicode="ffl" horiz-adv-x="2131" 
d="M1624 778l-370.004 -0.000976562v-778h-328v778h-370v-778h-328v778h-188v252h188c0.666992 53.333 3.83398 100.166 9.50098 140.499s17.5 82.666 35.5 126.999s41.833 80.833 71.5 109.5s70.667 52.334 123 71.001s114.5 28 186.5 28
c94.667 0 180.334 -14.667 257.001 -44l-85 -229c-47.333 14 -91.333 21 -132 21c-22 0 -40.667 -1.83301 -56 -5.5s-28.166 -10.167 -38.499 -19.5s-18.333 -19.166 -24 -29.499s-10 -25.333 -13 -45s-4.83301 -38 -5.5 -55s-1 -40.167 -1 -69.5h370
c0.666992 59.333 5.5 112.5 14.5 159.5s25.833 93.5 50.5 139.5s57 84.333 97 115s93.333 55.334 160 74.001s144.667 28 234 28c98 0 187.833 -10 269.5 -30s148.5 -48.667 200.5 -86v-1010v-36c0 -7.33301 0.5 -18.333 1.5 -33s2.5 -25.667 4.5 -33s4.83301 -16 8.5 -26
s8.33398 -17.333 14.001 -22s12.834 -8.83398 21.501 -12.501s18.667 -5.5 30 -5.5h39v-252h-106c-64.667 0 -120 10 -166 30s-80 42.333 -102 67s-38.833 58.167 -50.5 100.5s-18.334 75.333 -20.001 99s-2.5 54.834 -2.5 93.501v388zM1502 1294
c-95.333 0 -160.499 -19.668 -195.499 -59.001s-52.5 -107.666 -52.5 -204.999h370v251c-30.667 8.66699 -71.334 13 -122.001 13z" />
    <glyph glyph-name=".notdef" horiz-adv-x="922" 
 />
    <glyph glyph-name="null" horiz-adv-x="0" 
 />
    <glyph glyph-name="null" horiz-adv-x="0" 
 />
    <glyph glyph-name="nonmarkingreturn" unicode="&#xd;" horiz-adv-x="922" 
 />
    <glyph glyph-name="space" unicode=" " horiz-adv-x="573" 
 />
    <glyph glyph-name="exclam" unicode="!" horiz-adv-x="626" 
d="M187 422l-40 1012h333l-40 -1012h-253zM140 163c0 48 16.833 88.833 50.5 122.5s74.5 50.5 122.5 50.5s88.833 -16.833 122.5 -50.5s50.5 -74.5 50.5 -122.5s-16.833 -88.833 -50.5 -122.5s-74.5 -50.5 -122.5 -50.5s-88.833 16.833 -122.5 50.5s-50.5 74.5 -50.5 122.5z
" />
    <glyph glyph-name="quotedbl" unicode="&#x22;" horiz-adv-x="818" 
d="M101 927l-21 507h293l-20 -507h-252zM466 927l-21 507h293l-20 -507h-252z" />
    <glyph glyph-name="numbersign" unicode="#" horiz-adv-x="1541" 
d="M928 1112l52 322h317l-52 -322h216v-286h-262l-35 -218h216v-286h-262l-51 -322h-317l51 322h-188l-51 -322h-318l51 322h-215v286h261l35 218h-215v286h261l52 322h318l-52 -322h188zM694 826l-35 -218h188l35 218h-188z" />
    <glyph glyph-name="dollar" unicode="$" horiz-adv-x="1356" 
d="M1228 1330l-161.998 -234.998c-120.667 60 -252 90 -394 90c-72.667 0 -127.334 -12 -164.001 -36s-55 -58.333 -55 -103c0 -46 21.667 -82.5 65 -109.5s110.666 -49.833 201.999 -68.5c94.667 -20 175.5 -42.833 242.5 -68.5s125.5 -57 175.5 -94
s87.167 -80.833 111.5 -131.5s36.5 -109.334 36.5 -176.001c0 -124.667 -40.167 -222.834 -120.5 -294.501s-193.5 -116.5 -339.5 -134.5v-229h-265v224c-201.333 14.667 -365 70.667 -491 168l162 235c125.333 -78.667 272 -118 440 -118c97.333 0 167.833 12.667 211.5 38
s65.5 62.333 65.5 111c0 45.333 -22.333 80.333 -67 105s-119.667 47.667 -225 69c-186 39.333 -322.667 98.5 -410 177.5s-131 177.833 -131 296.5c0 52 8 100.667 24 146s41 87.5 75 126.5s80.333 71.5 139 97.5s127.667 43.333 207 52v226h265v-229
c163.333 -19.333 297.333 -64.333 402 -135z" />
    <glyph glyph-name="uni0025" unicode="%" horiz-adv-x="1805" 
d="M329 0l802 1434h345l-802 -1434h-345zM331 1109c0 -30 9.16699 -54.833 27.5 -74.5s43.833 -29.5 76.5 -29.5s58.167 9.83301 76.5 29.5s27.5 44.5 27.5 74.5s-9.16699 54.833 -27.5 74.5s-43.833 29.5 -76.5 29.5s-58.167 -9.83301 -76.5 -29.5s-27.5 -44.5 -27.5 -74.5
zM80 1109c0 99.333 33.667 183.333 101 252s152 103 254 103c101.333 0 185.833 -34.333 253.5 -103s101.5 -152.667 101.5 -252s-33.833 -183.333 -101.5 -252s-152.167 -103 -253.5 -103c-102 0 -186.667 34.333 -254 103s-101 152.667 -101 252zM1266 325
c0 -30 9.16699 -54.833 27.5 -74.5s43.833 -29.5 76.5 -29.5s58.167 9.83301 76.5 29.5s27.5 44.5 27.5 74.5s-9.16699 54.833 -27.5 74.5s-43.833 29.5 -76.5 29.5s-58.167 -9.83301 -76.5 -29.5s-27.5 -44.5 -27.5 -74.5zM1015 325c0 99.333 33.667 183.333 101 252
s152 103 254 103c101.333 0 185.833 -34.333 253.5 -103s101.5 -152.667 101.5 -252s-33.833 -183.333 -101.5 -252s-152.167 -103 -253.5 -103c-102 0 -186.667 34.333 -254 103s-101 152.667 -101 252z" />
    <glyph glyph-name="ampersand" unicode="&#x26;" horiz-adv-x="1624" 
d="M686 1464c138 0 244 -33.832 318 -101.499s111 -157.834 111 -270.501c0 -32.667 -4.33301 -63.667 -13 -93s-22.167 -56.833 -40.5 -82.5s-36.166 -48.167 -53.499 -67.5s-40.833 -40 -70.5 -62s-53.5 -39 -71.5 -51l-75 -48l-16 -10
c44.667 -54 95.667 -107.333 153 -160c28.667 48 57 107.667 85 179l300 -100c-43.333 -118.667 -90.666 -215 -141.999 -289c68 -55.333 164 -125 288 -209c48.667 -33.333 100.334 -66.333 155.001 -99h-496l-20.5 12l-24.5 14c-40 23.333 -72.333 44 -97 62
c-51.333 -39.333 -107.166 -68.833 -167.499 -88.5s-137.5 -29.5 -231.5 -29.5c-70 0 -133.833 6.83301 -191.5 20.5s-109.834 35 -156.501 64s-83.167 68.5 -109.5 118.5s-39.5 109 -39.5 177c0 86.667 22.667 161.5 68 224.5s110.666 119.5 195.999 169.5
c-70 87.333 -105 190 -105 308c0 66 12.167 125.5 36.5 178.5s57.166 96.167 98.499 129.5s88.666 59 141.999 77s110 27 170 27zM413 370.001c0 -32.667 13.833 -59.334 41.5 -80.001s67.5 -31 119.5 -31c67.333 0 119.666 15.333 156.999 46
c-58 44.667 -130 114.334 -216 209.001c-37.333 -20.667 -63.666 -42.167 -78.999 -64.5s-23 -48.833 -23 -79.5zM782 1092c0 55.333 -32.001 83.001 -96.001 83.001c-29.333 0 -55.666 -11.5 -78.999 -34.5s-35 -59.167 -35 -108.5c0 -40 15 -82.667 45 -128l52 31
c8.66699 5.33301 22.667 15.166 42 29.499s32.5 26.5 39.5 36.5s14 23.167 21 39.5s10.5 33.5 10.5 51.5z" />
    <glyph glyph-name="quotesingle" unicode="'" horiz-adv-x="453" 
d="M101 927l-21 507h293l-20 -507h-252z" />
    <glyph glyph-name="parenleft" unicode="(" horiz-adv-x="903" 
d="M433 580c0 -232 68.333 -410.998 205 -536.998c60.667 -56.667 129 -97.334 205 -122.001l-100 -278c-119.333 36.667 -226.666 95.667 -321.999 177c-43.333 37.333 -83 78.666 -119 123.999s-69.833 98.833 -101.5 160.5s-56.334 133.167 -74.001 214.5
s-26.5 168.333 -26.5 261c0 324 107 577 321 759c94.667 80.667 202 140 322 178l100 -278c-76.667 -26 -145 -67 -205 -123c-136.667 -126 -205 -304.667 -205 -536z" />
    <glyph glyph-name="parenright" unicode=")" horiz-adv-x="903" 
d="M470 580c0 227.333 -68.334 405.999 -205.001 535.999c-61.333 56 -129.666 97 -204.999 123l100 278c119.333 -38 226.333 -97.333 321 -178c214.667 -182.667 322 -435.667 322 -759c0 -324 -107.333 -577.333 -322 -760c-95.333 -81.333 -202.333 -140.333 -321 -177
l-100 278c74.667 24.667 143 65.334 205 122.001c136.667 130 205 309 205 537z" />
    <glyph glyph-name="asterisk" unicode="*" horiz-adv-x="1020" 
d="M663 616l-153 212l-153 -212l-214 178l176 171l-259 75l91 258l225 -106l-20 242h308l-20 -242l225 106l91 -258l-259 -75l176 -171z" />
    <glyph glyph-name="plus" unicode="+" horiz-adv-x="1110" 
d="M1030 823v-289h-326v-331h-298v331h-326v289h326v330h298v-330h326z" />
    <glyph glyph-name="comma" unicode="," horiz-adv-x="670" 
d="M60 -278l211 542h319l-249 -542h-281z" />
    <glyph glyph-name="hyphen" unicode="-" horiz-adv-x="930" 
d="M850 706v-252h-770v252h770z" />
    <glyph glyph-name="period" unicode="." horiz-adv-x="506" 
d="M80 163c0 48 16.833 88.833 50.5 122.5s74.5 50.5 122.5 50.5s88.833 -16.833 122.5 -50.5s50.5 -74.5 50.5 -122.5s-16.833 -88.833 -50.5 -122.5s-74.5 -50.5 -122.5 -50.5s-88.833 16.833 -122.5 50.5s-50.5 74.5 -50.5 122.5z" />
    <glyph glyph-name="slash" unicode="/" horiz-adv-x="1153" 
d="M80 0l660 1434h333l-659 -1434h-334z" />
    <glyph glyph-name="zero" unicode="0" horiz-adv-x="1392" 
d="M1332 717c0 -106.667 -13 -205.334 -39 -296.001s-64.5 -170.5 -115.5 -239.5s-117.667 -123.167 -200 -162.5s-176.166 -59 -281.499 -59s-199.166 19.667 -281.499 59s-149 93.5 -200 162.5s-89.5 148.833 -115.5 239.5s-39 189.334 -39 296.001s13 205.334 39 296.001
s64.5 170.5 115.5 239.5s117.667 123.167 200 162.5s176.166 59 281.499 59c84.667 0 162 -12.833 232 -38.5s129.667 -61.334 179 -107.001s91.166 -100.167 125.499 -163.5s59.5 -132.5 75.5 -207.5s24 -155.167 24 -240.5zM999 717c0 148.667 -24.833 264 -74.5 346
s-125.834 123 -228.501 123s-178.834 -41 -228.501 -123s-74.5 -197.333 -74.5 -346s24.833 -264 74.5 -346s125.834 -123 228.501 -123s178.834 41 228.501 123s74.5 197.333 74.5 346z" />
    <glyph glyph-name="one" unicode="1" horiz-adv-x="807" 
d="M218 829l-208 220l432 385h265v-1434h-333v966z" />
    <glyph glyph-name="two" unicode="2" horiz-adv-x="1242" 
d="M377 989l-297.001 99.999c11.333 35.333 25.833 69.5 43.5 102.5s42 67.167 73 102.5s66 65.833 105 91.5s87.333 46.834 145 63.501s120.167 25 187.5 25c156.667 0 282.834 -38.5 378.501 -115.5s143.5 -189.833 143.5 -338.5c0 -34 -4.83301 -67.667 -14.5 -101
s-21.167 -62.666 -34.5 -87.999s-32.833 -54 -58.5 -86s-48.167 -58.167 -67.5 -78.5l-80 -81.5l-303 -296h564v-289h-1064v226l590 576c48 47.333 82.5 87.5 103.5 120.5s31.5 65.5 31.5 97.5c0 49.333 -16 89.166 -48 119.499s-79 45.5 -141 45.5
c-37.333 0 -70.833 -5.83301 -100.5 -17.5s-54.5 -28.5 -74.5 -50.5s-35.667 -42.167 -47 -60.5s-23 -40.833 -35 -67.5z" />
    <glyph glyph-name="three" unicode="3" horiz-adv-x="1283" 
d="M60 285l297.001 100c52.667 -90.667 147.667 -136 285 -136c81.333 0 143 14 185 42s63 68.333 63 121c0 68.667 -34 115.834 -102 141.501s-177.333 38.5 -328 38.5v279c127.333 0 224.166 13.667 290.499 41s99.5 74.333 99.5 141c0 41.333 -17.5 73.666 -52.5 96.999
s-86.833 35 -155.5 35c-112 0 -193.667 -38.667 -245 -116l-297 100c8.66699 22 20.167 44.667 34.5 68s36.333 49.666 66 78.999s63.5 55.166 101.5 77.499s86.667 41.333 146 57s124 23.5 194 23.5c54 0 106.167 -4.66699 156.5 -14s99 -24.666 146 -45.999
s88 -47.833 123 -79.5s63 -71.667 84 -120s31.5 -102.166 31.5 -161.499c0 -70 -18.833 -131.833 -56.5 -185.5s-93.167 -94.5 -166.5 -122.5c34 -10 65.167 -23 93.5 -39s56 -36.667 83 -62s48.167 -57.833 63.5 -97.5s23 -84.5 23 -134.5c0 -141.333 -53 -252 -159 -332
s-246.667 -120 -422 -120c-306.667 0 -500.667 108.333 -582 325z" />
    <glyph glyph-name="four" unicode="4" horiz-adv-x="1346" 
d="M1107 0h-333v292h-694v253l739 889h288v-853h179v-289h-179v-292zM487 581h287v346z" />
    <glyph glyph-name="five" unicode="5" horiz-adv-x="1330" 
d="M1144 1434v-289h-623l-13 -227c43.333 8.66699 94.666 13 153.999 13c392 0 588 -160 588 -480c0 -56 -7 -108.167 -21 -156.5s-36.167 -93.333 -66.5 -135s-68.166 -77 -113.499 -106s-100.833 -51.833 -166.5 -68.5s-139.167 -25 -220.5 -25
c-137.333 0 -249.833 16 -337.5 48s-162.5 77.333 -224.5 136l212 219c92 -76 208.667 -114 350 -114c78.667 0 140.834 16.333 186.501 49s68.5 83.667 68.5 153c0 134 -85 201 -255 201c-115.333 0 -234 -17.333 -356 -52c-50.667 -14 -102.334 -31.333 -155.001 -52
l54 886h939z" />
    <glyph glyph-name="six" unicode="6" horiz-adv-x="1343" 
d="M1127 1395l-122.999 -243.999c-113.333 37.333 -211 48.833 -293 34.5s-147 -45.333 -195 -93s-76.333 -106.167 -85 -175.5c19.333 18 50.666 34 93.999 48s92 21 146 21c184.667 0 329.5 -47.333 434.5 -142s157.5 -218.334 157.5 -371.001
s-52.5 -276.334 -157.5 -371.001s-249.833 -142 -434.5 -142c-88.667 0 -168.5 13 -239.5 39s-130 62.5 -177 109.5s-84.333 101 -112 162s-45.5 128.167 -53.5 201.5c-12 123.333 -11.333 237 2 341s37.166 193.167 71.499 267.5s77 138.833 128 193.5
s108.5 96.834 172.5 126.501s132.333 49.5 205 59.5s147.834 9.33301 225.501 -2s155.5 -32.333 233.5 -63zM930.001 473.001c0 72 -23.167 127.333 -69.5 166s-109.5 58 -189.5 58s-143.167 -19.333 -189.5 -58s-69.5 -94 -69.5 -166s23 -127.333 69 -166
s109.333 -58 190 -58c80 0 143.167 19.333 189.5 58s69.5 94 69.5 166z" />
    <glyph glyph-name="seven" unicode="7" horiz-adv-x="1151" 
d="M80 1145v289h991v-235l-547 -1199h-353l530 1145h-621z" />
    <glyph glyph-name="eight" unicode="8" horiz-adv-x="1294" 
d="M647 -40c-115.333 0 -216.335 16.333 -303.002 49s-155.667 84.334 -207 155.001s-77 157 -77 259c0 151.333 66 260.666 198 327.999c-49.333 27.333 -89.166 65.833 -119.499 115.5s-45.5 103.167 -45.5 160.5c0 132.667 48.167 240.334 144.5 323.001
s232.833 124 409.5 124s313.167 -41.333 409.5 -124s144.5 -190.334 144.5 -323.001c0 -57.333 -15.167 -110.833 -45.5 -160.5s-70.166 -88.167 -119.499 -115.5c132 -67.333 198 -176.666 198 -327.999c0 -102 -25.667 -188.333 -77 -259s-120.333 -122.334 -207 -155.001
s-187.667 -49 -303 -49zM646.998 249c82.667 0 145.667 14.667 189 44s65 72.666 65 129.999s-21.667 100.666 -65 129.999s-106.333 44 -189 44s-145.667 -14.667 -189 -44s-65 -72.666 -65 -129.999s21.667 -100.666 65 -129.999s106.333 -44 189 -44zM867.998 1027
c0 48.667 -17.667 87.167 -53 115.5s-91.333 42.5 -168 42.5s-132.667 -14.167 -168 -42.5s-53 -66.833 -53 -115.5c0 -105.333 73.667 -158 221 -158s221 52.667 221 158z" />
    <glyph glyph-name="nine" unicode="9" horiz-adv-x="1343" 
d="M216 39l122.999 243.999c113.333 -37.333 211 -48.833 293 -34.5s146.833 45.333 194.5 93s76.167 106.167 85.5 175.5c-21.333 -18 -53.166 -34 -95.499 -48s-90.5 -21 -144.5 -21c-184.667 0 -329.5 47.333 -434.5 142s-157.5 218.334 -157.5 371.001
s52.5 276.334 157.5 371.001s249.833 142 434.5 142c88.667 0 168.5 -13 239.5 -39s130 -62.5 177 -109.5s84.333 -101 112 -162s45.5 -128.167 53.5 -201.5c12 -123.333 11.333 -237 -2 -341s-37.166 -193.167 -71.499 -267.5s-77 -138.833 -128 -193.5
s-108.5 -96.834 -172.5 -126.501s-132.333 -49.5 -205 -59.5s-147.834 -9.33301 -225.501 2s-155.5 32.333 -233.5 63zM412.999 960.999c0 -72 23 -127.333 69 -166s109.333 -58 190 -58c80 0 143.167 19.333 189.5 58s69.5 94 69.5 166s-23.167 127.333 -69.5 166
s-109.5 58 -189.5 58c-80.667 0 -144 -19.333 -190 -58s-69 -94 -69 -166z" />
    <glyph glyph-name="colon" unicode=":" horiz-adv-x="506" 
d="M80 163c0 48 16.833 88.833 50.5 122.5s74.5 50.5 122.5 50.5s88.833 -16.833 122.5 -50.5s50.5 -74.5 50.5 -122.5s-16.833 -88.833 -50.5 -122.5s-74.5 -50.5 -122.5 -50.5s-88.833 16.833 -122.5 50.5s-50.5 74.5 -50.5 122.5zM80 867c0 48 16.833 88.833 50.5 122.5
s74.5 50.5 122.5 50.5s88.833 -16.833 122.5 -50.5s50.5 -74.5 50.5 -122.5s-16.833 -88.833 -50.5 -122.5s-74.5 -50.5 -122.5 -50.5s-88.833 16.833 -122.5 50.5s-50.5 74.5 -50.5 122.5z" />
    <glyph glyph-name="semicolon" unicode=";" horiz-adv-x="600" 
d="M174 867c0 48 16.833 88.833 50.5 122.5s74.5 50.5 122.5 50.5s88.833 -16.833 122.5 -50.5s50.5 -74.5 50.5 -122.5s-16.833 -88.833 -50.5 -122.5s-74.5 -50.5 -122.5 -50.5s-88.833 16.833 -122.5 50.5s-50.5 74.5 -50.5 122.5zM-20 -278l211 542h319l-249 -542h-281z
" />
    <glyph glyph-name="less" unicode="&#x3c;" horiz-adv-x="1114" 
d="M1014 88l-934 479v204l934 479v-340l-534 -241l534 -241v-340z" />
    <glyph glyph-name="equal" unicode="=" horiz-adv-x="1069" 
d="M989 608v-289h-909v289h909zM989 1030v-289h-909v289h909z" />
    <glyph glyph-name="greater" unicode="&#x3e;" horiz-adv-x="1114" 
d="M1034 567l-934 -479v340l534 241l-534 241v340l934 -479v-204z" />
    <glyph glyph-name="question" unicode="?" horiz-adv-x="1198" 
d="M327 1038l-266.997 145.001c20 38 44.667 73.167 74 105.5s65.166 63 107.499 92s93.666 51.833 153.999 68.5s126.166 25 197.499 25c90 0 170.333 -11.333 241 -34s127.834 -54 171.501 -94s76.667 -86 99 -138s33.5 -108.667 33.5 -170
c0 -33.333 -3.66699 -65.833 -11 -97.5s-20.5 -64.167 -39.5 -97.5s-43 -63.166 -72 -89.499s-67.5 -49.833 -115.5 -70.5s-102.333 -35.334 -163 -44.001v-217h-333v412c124 1.33301 221.833 19.666 293.5 54.999s107.5 85 107.5 149
c0 48.667 -16.833 85.334 -50.5 110.001s-87.5 37 -161.5 37c-63.333 0 -115.333 -12.833 -156 -38.5s-77.334 -61.834 -110.001 -108.501zM397.003 163.001c0 48 16.833 88.833 50.5 122.5s74.5 50.5 122.5 50.5s88.833 -16.833 122.5 -50.5s50.5 -74.5 50.5 -122.5
s-16.833 -88.833 -50.5 -122.5s-74.5 -50.5 -122.5 -50.5s-88.833 16.833 -122.5 50.5s-50.5 74.5 -50.5 122.5z" />
    <glyph glyph-name="at" unicode="@" horiz-adv-x="1660" 
d="M1255 385c-60 0 -110.167 14.168 -150.5 42.501s-65.5 62.166 -75.5 101.499c-13.333 -56 -43.166 -103.667 -89.499 -143s-105.166 -59 -176.499 -59c-30 0 -59.833 3.83301 -89.5 11.5s-59.5 21.334 -89.5 41.001s-56 44.167 -78 73.5s-38.667 67.666 -50 114.999
s-14.333 100.333 -9 159c6.66699 60 21.667 113.5 45 160.5s49.666 84 78.999 111s62 49.167 98 66.5s68.5 28.833 97.5 34.5s56.833 8.5 83.5 8.5c109.333 0 209 -23 299 -69c-10 -125.333 -16.333 -229.333 -19 -312c-1.33301 -49.333 7.5 -89.333 26.5 -120
s48.5 -46 88.5 -46c38.667 0 69.334 12.5 92.001 37.5s34 64.5 34 118.5c0 113.333 -24.5 212.166 -73.5 296.499s-114 147.833 -195 190.5s-171.833 64 -272.5 64s-191.5 -21.333 -272.5 -64s-146 -106.167 -195 -190.5s-73.5 -183.166 -73.5 -296.499
s24.5 -212.166 73.5 -296.499s114 -147.833 195 -190.5s171.833 -64 272.5 -64c163.333 0 310.666 46 441.999 138l150 -152c-74 -56.667 -157 -101.167 -249 -133.5s-206.333 -48.5 -343 -48.5c-84 0 -165 11.5 -243 34.5s-148.667 56.5 -212 100.5
s-118.666 96 -165.999 156s-84 129.167 -110 207.5s-39 161.166 -39 248.499s13 170.166 39 248.499s62.667 147.5 110 207.5s102.666 112 165.999 156s134 77.5 212 100.5s159 34.5 243 34.5s165 -11.5 243 -34.5s148.667 -56.5 212 -100.5s118.666 -96 165.999 -156
s84 -129.167 110 -207.5s39 -161.166 39 -248.499c0 -100 -30.5 -180.333 -91.5 -241s-145.5 -91 -253.5 -91zM643 716.001c-7.33301 -68 1.33301 -120.497 26 -157.497s63.334 -55.5 116.001 -55.5c47.333 0 84.833 18.333 112.5 55s46.167 98 55.5 184
c3.33301 39.333 7.66602 79.666 12.999 120.999c2.66699 18.667 4.66699 37 6 55c-81.333 27.333 -154 24.166 -218 -9.50098s-101 -97.834 -111 -192.501z" />
    <glyph glyph-name="A" unicode="A" horiz-adv-x="1536" 
d="M479 281l-110 -281h-359l593 1434h330l593 -1434h-359l-110 281h-578zM768 1014l-179 -454h358z" />
    <glyph glyph-name="B" unicode="B" horiz-adv-x="1432" 
d="M793 0h-692.999v1434h677c362.667 0 544 -127.667 544 -383c0 -72.667 -23.333 -136 -70 -190s-105 -88 -175 -102c94.667 -20 167.667 -58.5 219 -115.5s77 -128.167 77 -213.5c0 -43.333 -5.33301 -84.333 -16 -123s-29.834 -77.167 -57.501 -115.5
s-62.667 -71.333 -105 -99s-97.833 -50 -166.5 -67s-146.667 -25.5 -234 -25.5zM433.001 278l352 -0.000976562c92.667 0 157 13 193 39s54 67 54 123c0 56.667 -18 97.834 -54 123.501s-100.333 38.5 -193 38.5h-352v-324zM433.001 870.999h352
c133.333 0 200 47.333 200 142s-66.667 142 -200 142h-352v-284z" />
    <glyph glyph-name="C" unicode="C" horiz-adv-x="1457" 
d="M60 717c0 82 9.50098 159.672 28.501 233.005s49 142.166 90 206.499s91.333 119.833 151 166.5s132.667 83.5 219 110.5s182.166 40.5 287.499 40.5c134 0 246 -14.833 336 -44.5s171.667 -75.834 245 -138.501l-165 -226c-55.333 36.667 -114.833 65.834 -178.5 87.501
s-142.834 32.5 -237.501 32.5c-73.333 0 -138 -11.833 -194 -35.5s-101.167 -56.834 -135.5 -99.501s-60.166 -92 -77.499 -148s-26 -117.667 -26 -185s8.66699 -129 26 -185s43.166 -105.333 77.499 -148s79.5 -75.834 135.5 -99.501s120.667 -35.5 194 -35.5
c163.333 0 302 40 416 120l165 -226c-73.333 -62.667 -155 -108.834 -245 -138.501s-202 -44.5 -336 -44.5c-105.333 0 -201.166 13.5 -287.499 40.5s-159.333 63.833 -219 110.5s-110 102.167 -151 166.5s-71 133.166 -90 206.499s-28.5 151 -28.5 233z" />
    <glyph glyph-name="D" unicode="D" horiz-adv-x="1483" 
d="M1423 717c0 -104.667 -14.833 -200.165 -44.5 -286.498s-73.5 -161.833 -131.5 -226.5s-133 -114.834 -225 -150.501s-197 -53.5 -315 -53.5h-607v1434h607c118 0 223 -17.833 315 -53.5s167 -85.834 225 -150.501s101.833 -140.167 131.5 -226.5
s44.5 -181.833 44.5 -286.5zM433 1145v-856h274c66.667 0 124.667 11.667 174 35s88.166 55.5 116.499 96.5s49.166 86.167 62.499 135.5s20 103 20 161s-6.66699 111.667 -20 161s-34.166 94.5 -62.499 135.5s-67.166 73.167 -116.499 96.5s-107.333 35 -174 35h-274z" />
    <glyph glyph-name="E" unicode="E" horiz-adv-x="1256" 
d="M433 876h690v-289h-690v-298h743v-289h-1076v1434h1066v-289h-733v-269z" />
    <glyph glyph-name="F" unicode="F" horiz-adv-x="1246" 
d="M433 856h690v-289h-690v-567h-333v1434h1066v-289h-733v-289z" />
    <glyph glyph-name="G" unicode="G" horiz-adv-x="1507" 
d="M836 249c110 0 200.999 18.3359 272.999 55.0029v263h-277v279h586v-716c-135.333 -113.333 -329.333 -170 -582 -170c-105.333 0 -201.166 13.5 -287.499 40.5s-159.333 63.833 -219 110.5s-110 102.167 -151 166.5s-71 133.166 -90 206.499s-28.5 151 -28.5 233
s9.5 159.667 28.5 233s49 142.166 90 206.499s91.333 119.833 151 166.5s132.667 83.5 219 110.5s182.166 40.5 287.499 40.5c110 0 214 -13.167 312 -39.5s191 -74.166 279 -143.499l-170 -222c-115.333 77.333 -255.666 116 -420.999 116
c-73.333 0 -138 -11.833 -194 -35.5s-101.167 -56.834 -135.5 -99.501s-60.166 -92 -77.499 -148s-26 -117.667 -26 -185s8.66699 -129 26 -185s43.166 -105.333 77.499 -148s79.5 -75.834 135.5 -99.501s120.667 -35.5 194 -35.5z" />
    <glyph glyph-name="H" unicode="H" horiz-adv-x="1491" 
d="M1058 876v558h333v-1434h-333v587h-625v-587h-333v1434h333v-558h625z" />
    <glyph glyph-name="I" unicode="I" horiz-adv-x="533" 
d="M100 0v1434h333v-1434h-333z" />
    <glyph glyph-name="J" unicode="J" horiz-adv-x="1194" 
d="M40 318l307.998 85.001c22 -50 49.833 -88.167 83.5 -114.5s79.834 -39.5 138.501 -39.5c68.667 0 117.667 18.667 147 56s44 95.666 44 174.999v954h333v-954c0 -346.667 -174.667 -520 -524 -520c-81.333 0 -153.166 9 -215.499 27s-113.833 44 -154.5 78
s-73.5 71.333 -98.5 112s-45.5 87.667 -61.5 141z" />
    <glyph glyph-name="K" unicode="K" horiz-adv-x="1441" 
d="M433 852l571 582h407l-610 -621l630 -813h-395l-454 587l-149 -153v-434h-333v1434h333v-582z" />
    <glyph glyph-name="L" unicode="L" horiz-adv-x="1191" 
d="M433 1434v-1145h698v-289h-1031v1434h333z" />
    <glyph glyph-name="M" unicode="M" horiz-adv-x="1842" 
d="M557 1434l364 -908l364 908h457v-1434h-333v900l-359 -900h-258l-359 900v-900h-333v1434h457z" />
    <glyph glyph-name="N" unicode="N" horiz-adv-x="1513" 
d="M100 0v1434h422l558 -956v956h333v-1434h-422l-558 956v-956h-333z" />
    <glyph glyph-name="O" unicode="O" horiz-adv-x="1672" 
d="M836 1474c105.333 0 201.166 -13.5 287.499 -40.5s159.333 -63.833 219 -110.5s110 -102.167 151 -166.5s71 -133.166 90 -206.499s28.5 -151 28.5 -233s-9.5 -159.667 -28.5 -233s-49 -142.166 -90 -206.499s-91.333 -119.833 -151 -166.5s-132.667 -83.5 -219 -110.5
s-182.166 -40.5 -287.499 -40.5s-201.166 13.5 -287.499 40.5s-159.333 63.833 -219 110.5s-110 102.167 -151 166.5s-71 133.166 -90 206.499s-28.5 151 -28.5 233s9.5 159.667 28.5 233s49 142.166 90 206.499s91.333 119.833 151 166.5s132.667 83.5 219 110.5
s182.166 40.5 287.499 40.5zM836 1185c-73.333 0 -138 -11.833 -194 -35.5s-101.167 -56.834 -135.5 -99.501s-60.166 -92 -77.499 -148s-26 -117.667 -26 -185s8.66699 -129 26 -185s43.166 -105.333 77.499 -148s79.5 -75.834 135.5 -99.501s120.667 -35.5 194 -35.5
s138 11.833 194 35.5s101.167 56.834 135.5 99.501s60.166 92 77.499 148s26 117.667 26 185s-8.66699 129 -26 185s-43.166 105.333 -77.499 148s-79.5 75.834 -135.5 99.501s-120.667 35.5 -194 35.5z" />
    <glyph glyph-name="P" unicode="P" horiz-adv-x="1398" 
d="M742 1145l-309 -0.00195312v-426h309c79.333 0 139 18.333 179 55s60 89.334 60 158.001s-20 121.334 -60 158.001s-99.667 55 -179 55zM433 -0.00195312h-333v1434h642c178.667 0 319.334 -44 422.001 -132s154 -211.333 154 -370s-51.333 -282 -154 -370
s-243.334 -132 -422.001 -132h-309v-430z" />
    <glyph glyph-name="Q" unicode="Q" horiz-adv-x="1672" 
d="M836 1474c105.333 0 201.167 -13.498 287.5 -40.498s159.333 -63.833 219 -110.5s110 -102.167 151 -166.5s71 -133.166 90 -206.499s28.5 -151 28.5 -233c0 -116.667 -19.667 -224.834 -59 -324.501s-98.333 -184.167 -177 -253.5l210 -227h-361l-83 94
c-93.333 -30.667 -195.333 -46 -306 -46c-105.333 0 -201.166 13.5 -287.499 40.5s-159.333 63.833 -219 110.5s-110 102.167 -151 166.5s-71 133.166 -90 206.499s-28.5 151 -28.5 233s9.5 159.667 28.5 233s49 142.166 90 206.499s91.333 119.833 151 166.5
s132.667 83.5 219 110.5s182.166 40.5 287.499 40.5zM836.001 1185c-72.667 0 -137.169 -12.834 -193.502 -38.501s-101.666 -60.5 -135.999 -104.5s-60.166 -93.5 -77.499 -148.5s-26 -113.833 -26 -176.5s8.66699 -121.5 26 -176.5s43.166 -104.5 77.499 -148.5
s79.666 -78.833 135.999 -104.5s120.833 -38.5 193.5 -38.5c33.333 0 63 2.33301 89 7l-190 218h333l87 -95c76 84.667 114 197.334 114 338.001c0 62.667 -8.66699 121.5 -26 176.5s-43.166 104.5 -77.499 148.5s-79.666 78.833 -135.999 104.5s-120.833 38.5 -193.5 38.5z
" />
    <glyph glyph-name="R" unicode="R" horiz-adv-x="1380" 
d="M433 0l-333 -0.000976562v1434h642c94.667 0 178.5 -12.833 251.5 -38.5s132 -61 177 -106s78.833 -96.167 101.5 -153.5s34 -119.666 34 -186.999c0 -54 -7.66699 -103.833 -23 -149.5s-36.833 -85 -64.5 -118s-57.667 -61 -90 -84s-68.5 -43.167 -108.5 -60.5l300 -537
h-357l-276 494h-254v-494zM742 1145h-309v-392h309c80.667 0 138.667 18.167 174 54.5s53 83.5 53 141.5s-17.667 105.167 -53 141.5s-93.333 54.5 -174 54.5z" />
    <glyph glyph-name="S" unicode="S" horiz-adv-x="1296" 
d="M1198 1330l-161.998 -235.001c-120.667 60 -252 90 -394 90c-72.667 0 -127.334 -12 -164.001 -36s-55 -58.333 -55 -103c0 -46 21.667 -82.5 65 -109.5s110.666 -49.833 201.999 -68.5c94.667 -20 175.5 -42.833 242.5 -68.5s125.5 -57 175.5 -94
s87.167 -80.833 111.5 -131.5s36.5 -109.334 36.5 -176.001c0 -145.333 -54.333 -254.666 -163 -327.999s-259 -110 -451 -110c-253.333 0 -454 57.333 -602 172l162 235c125.333 -78.667 272 -118 440 -118c97.333 0 167.833 12.667 211.5 38s65.5 62.333 65.5 111
c0 45.333 -22.333 80.333 -67 105s-119.667 47.667 -225 69c-186 39.333 -322.667 98.5 -410 177.5s-131 177.833 -131 296.5c0 45.333 6 88.333 18 129s31.833 79.5 59.5 116.5s62.5 68.833 104.5 95.5s94.833 47.834 158.5 63.501s135.5 23.5 215.5 23.5
c228 0 413.333 -48 556 -144z" />
    <glyph glyph-name="T" unicode="T" horiz-adv-x="1365" 
d="M40 1434h1285v-289h-476v-1145h-333v1145h-476v289z" />
    <glyph glyph-name="U" unicode="U" horiz-adv-x="1477" 
d="M739 249c60 0 110 8.5 150 25.5s71.333 43.333 94 79s38.5 77.167 47.5 124.5s13.5 105 13.5 173v783h333v-783c0 -460.667 -212.667 -691 -638 -691c-426 0 -639 230.333 -639 691v783h333v-783c0 -68 4.5 -125.667 13.5 -173s24.833 -88.833 47.5 -124.5
s54.167 -62 94.5 -79s90.5 -25.5 150.5 -25.5z" />
    <glyph glyph-name="V" unicode="V" horiz-adv-x="1496" 
d="M369 1434l379 -1014l379 1014h359l-573 -1434h-340l-563 1434h359z" />
    <glyph glyph-name="W" unicode="W" horiz-adv-x="2028" 
d="M619 550l253 884h284l253 -884l251 884h358l-437 -1434h-323l-244 838l-244 -838h-323l-437 1434h358z" />
    <glyph glyph-name="X" unicode="X" horiz-adv-x="1520" 
d="M976 738l534 -738h-393l-357 496l-357 -496h-393l533 738l-501 696h393l325 -454l325 454h393z" />
    <glyph glyph-name="Y" unicode="Y" horiz-adv-x="1464" 
d="M392 1434l340 -542l340 542h382l-555 -858v-576h-334v576l-555 858h382z" />
    <glyph glyph-name="Z" unicode="Z" horiz-adv-x="1311" 
d="M555 289h676v-289h-1151v176l677 969h-637v289h1111v-176z" />
    <glyph glyph-name="bracketleft" unicode="[" horiz-adv-x="797" 
d="M707 1146h-244v-1232h244v-288h-577v1808h577v-288z" />
    <glyph glyph-name="backslash" unicode="\" horiz-adv-x="1136" 
d="M423 1434l623 -1434h-334l-622 1434h333z" />
    <glyph glyph-name="bracketright" unicode="]" horiz-adv-x="797" 
d="M334 1146h-244v288h577v-1808h-577v288h244v1232z" />
    <glyph glyph-name="asciicircum" unicode="^" horiz-adv-x="1162" 
d="M672 1434l410 -594h-295l-206 250l-206 -250h-295l410 594h182z" />
    <glyph glyph-name="underscore" unicode="_" horiz-adv-x="1500" 
d="M80 -532v252h1340v-252h-1340z" />
    <glyph glyph-name="grave" unicode="`" horiz-adv-x="704" 
d="M393 1434l251 -310h-270l-314 310h333z" />
    <glyph glyph-name="a" unicode="a" horiz-adv-x="1194" 
d="M60 319c0 51.333 9.49902 97.499 28.499 138.499s45 74.667 78 101s72 48.833 117 67.5s93.667 31.334 146 38.001s107.166 11 164.499 13s114.666 -0.333008 171.999 -7c0 25.333 -2 46.166 -6 62.499s-12.167 31.5 -24.5 45.5s-31 24.167 -56 30.5
s-57.167 9.5 -96.5 9.5c-116 0 -225.333 -21.667 -328 -65l-109 210c66 33.333 140 57.833 222 73.5s160.333 23.5 235 23.5c95.333 0 175 -8.83301 239 -26.5s114.5 -45 151.5 -82s63 -80.667 78 -131s22.5 -112.166 22.5 -185.499v-635h-329v135
c-48 -106 -151.333 -159 -310 -159c-53.333 0 -103.166 6.66699 -149.499 20s-88.166 33.333 -125.499 60s-66.666 62.5 -87.999 107.5s-32 96.833 -32 155.5zM387.999 348.999c0 -37.333 12 -66.832 36 -88.499s61 -32.5 111 -32.5c70.667 0 126.667 16.667 168 50
s62 73.666 62 120.999v89c-25.333 0.666992 -53.833 1.66699 -85.5 3s-64.667 -0.666992 -99 -6s-65.833 -12.5 -94.5 -21.5s-52.167 -23.333 -70.5 -43s-27.5 -43.5 -27.5 -71.5z" />
    <glyph glyph-name="b" unicode="b" horiz-adv-x="1352" 
d="M1292 515c0 -168 -48.667 -300.833 -146 -398.5s-224 -146.5 -380 -146.5c-78 0 -145.667 15.167 -203 45.5s-102.333 70.5 -135 120.5v-136h-328v1516h328v-622c33.333 50 78.5 90.167 135.5 120.5s124.5 45.5 202.5 45.5c156 0 282.667 -48.833 380 -146.5
s146 -230.5 146 -398.5zM964 515c0 86.667 -23.5 157.167 -70.5 211.5s-112.833 81.5 -197.5 81.5s-150.5 -27.167 -197.5 -81.5s-70.5 -124.833 -70.5 -211.5s23.5 -157.167 70.5 -211.5s112.833 -81.5 197.5 -81.5s150.5 27.167 197.5 81.5s70.5 124.833 70.5 211.5z" />
    <glyph glyph-name="c" unicode="c" horiz-adv-x="1153" 
d="M388 515c0 -90 24.833 -161.333 74.5 -214s117.5 -79 203.5 -79c110.667 0 207.334 34.333 290.001 103l157 -191c-100.667 -109.333 -249.667 -164 -447 -164c-183.333 0 -330.166 50.167 -440.499 150.5s-165.5 231.833 -165.5 394.5s55.167 294.167 165.5 394.5
s257.166 150.5 440.499 150.5c197.333 0 346.333 -54.667 447 -164l-157 -191c-82.667 68.667 -179.334 103 -290.001 103c-86 0 -153.833 -26.333 -203.5 -79s-74.5 -124 -74.5 -214z" />
    <glyph glyph-name="d" unicode="d" horiz-adv-x="1352" 
d="M60 515c0 168 48.667 300.833 146 398.5s224 146.5 380 146.5c78 0 145.5 -15.167 202.5 -45.5s102.167 -70.5 135.5 -120.5v622h328v-1516h-328v136c-32.667 -50 -77.667 -90.167 -135 -120.5s-125 -45.5 -203 -45.5c-156 0 -282.667 48.833 -380 146.5
s-146 230.5 -146 398.5zM388 515c0 -86.667 23.5 -157.167 70.5 -211.5s112.833 -81.5 197.5 -81.5s150.5 27.167 197.5 81.5s70.5 124.833 70.5 211.5s-23.5 157.167 -70.5 211.5s-112.833 81.5 -197.5 81.5s-150.5 -27.167 -197.5 -81.5s-70.5 -124.833 -70.5 -211.5z" />
    <glyph glyph-name="e" unicode="e" horiz-adv-x="1246" 
d="M959 306l161.997 -183.998c-126 -101.333 -289.667 -152 -491 -152c-99.333 0 -186.666 15 -261.999 45s-134.833 70.833 -178.5 122.5s-76.167 109.167 -97.5 172.5s-32 131.666 -32 204.999c0 58 6.66699 113.167 20 165.5s35 101.666 65 147.999
s66.667 86.666 110 120.999s97.166 61.333 161.499 81s135.5 29.5 213.5 29.5c194.667 0 340 -58.667 436 -176s134 -280.666 114 -489.999h-779c0 -23.333 3.83301 -45.333 11.5 -66s19.834 -40 36.501 -58s40.334 -32.167 71.001 -42.5s67.334 -15.5 110.001 -15.5
c131.333 0 241 31.333 329 94zM401.997 606.002h455.998c0 24.667 -3.66699 48.5 -11 71.5s-19.166 45.5 -35.499 67.5s-40 39.667 -71 53s-67.833 20 -110.5 20s-79.5 -6.66699 -110.5 -20s-54.667 -31 -71 -53s-28.166 -44.5 -35.499 -67.5s-11 -46.833 -11 -71.5z" />
    <glyph glyph-name="f" unicode="f" horiz-adv-x="921" 
d="M694 1294c-22 0 -40.6709 -1.83203 -56.0039 -5.49902s-28.166 -10.834 -38.499 -21.501s-18.333 -21.667 -24 -33s-10 -28.5 -13 -51.5s-4.83301 -44.833 -5.5 -65.5s-1 -49.667 -1 -87h284v-252h-284v-778h-328v778h-188v252h188c0.666992 43.333 2.5 81.833 5.5 115.5
s8.33301 69 16 106s17.834 69.333 30.501 97s29.834 54.5 51.501 80.5s47 47.167 76 63.5s64.333 29.333 106 39s88.5 14.5 140.5 14.5c94.667 0 180.334 -14.667 257.001 -44l-85 -229c-47.333 14 -91.333 21 -132 21z" />
    <glyph glyph-name="g" unicode="g" horiz-adv-x="1353" 
d="M924 1030l327.998 -0.000976562v-1030c0 -81.333 -12.167 -153.666 -36.5 -216.999s-56.5 -114.333 -96.5 -153s-88.167 -70.5 -144.5 -95.5s-113.666 -42.333 -171.999 -52s-120.833 -14.5 -187.5 -14.5c-189.333 0 -352.333 38.667 -489 116l125 228
c112.667 -61.333 234 -92 364 -92c94.667 0 169.834 23.167 225.501 69.5s83.5 116.5 83.5 210.5v136c-32.667 -50 -77.667 -90.167 -135 -120.5s-125 -45.5 -203 -45.5c-156 0 -282.667 48.833 -380 146.5s-146 230.5 -146 398.5s48.667 300.833 146 398.5
s224 146.5 380 146.5c78 0 145.5 -15.167 202.5 -45.5s102.167 -70.5 135.5 -120.5v136zM387.998 514.999c0 -86.667 23.5 -157.167 70.5 -211.5s112.833 -81.5 197.5 -81.5s150.5 27.167 197.5 81.5s70.5 124.833 70.5 211.5s-23.5 157.167 -70.5 211.5
s-112.833 81.5 -197.5 81.5s-150.5 -27.167 -197.5 -81.5s-70.5 -124.833 -70.5 -211.5z" />
    <glyph glyph-name="h" unicode="h" 
d="M428 534l-0.000976562 -534h-328v1516h328v-595c60.667 92.667 152.334 139 275.001 139c164.667 0 284.667 -45 360 -135s113 -220.333 113 -391v-534h-328v534c0 90 -16 158.167 -48 204.5s-86 69.5 -162 69.5s-130 -23.167 -162 -69.5s-48 -114.5 -48 -204.5z" />
    <glyph glyph-name="i" unicode="i" horiz-adv-x="544" 
d="M108 0v1030h328v-1030h-328zM100 1334c0 47.333 16.833 87.833 50.5 121.5s74.167 50.5 121.5 50.5s87.833 -16.833 121.5 -50.5s50.5 -74.167 50.5 -121.5s-16.833 -87.833 -50.5 -121.5s-74.167 -50.5 -121.5 -50.5s-87.833 16.833 -121.5 50.5
s-50.5 74.167 -50.5 121.5z" />
    <glyph glyph-name="j" unicode="j" horiz-adv-x="560" 
d="M116 1334c0 47.333 16.833 87.833 50.5 121.5s74.167 50.5 121.5 50.5s87.833 -16.833 121.5 -50.5s50.5 -74.167 50.5 -121.5s-16.833 -87.833 -50.5 -121.5s-74.167 -50.5 -121.5 -50.5s-87.833 16.833 -121.5 50.5s-50.5 74.167 -50.5 121.5zM-200 -488l82 229.002
c38.667 -14 78.334 -21 119.001 -21c20 0 37.333 3.16699 52 9.5s26.334 16 35.001 29s15.5 25.5 20.5 37.5s8.66699 28.167 11 48.5s3.66602 36.166 3.99902 47.499s0.5 27.333 0.5 48v1090h328v-1090c0 -78.667 -7.33301 -146.334 -22 -203.001s-38.5 -105.5 -71.5 -146.5
s-77.5 -71.667 -133.5 -92s-124 -30.5 -204 -30.5c-92.667 0 -166.334 14.667 -221.001 44z" />
    <glyph glyph-name="k" unicode="k" horiz-adv-x="1244" 
d="M428 677l391 353h415l-481 -434l481 -596h-385l-318 394l-103 -92v-302h-328v1516h328v-839z" />
    <glyph glyph-name="l" unicode="l" horiz-adv-x="607" 
d="M100 390l-0.000976562 1126h328v-1096v-36c0 -7.33301 0.5 -18.333 1.5 -33s2.5 -25.667 4.5 -33s4.83301 -16 8.5 -26s8.33398 -17.333 14.001 -22s12.834 -8.83398 21.501 -12.501s18.667 -5.5 30 -5.5h39v-252h-106c-64.667 0 -120 10 -166 30s-80 42.333 -102 67
s-38.833 58.167 -50.5 100.5s-18.334 75.333 -20.001 99s-2.5 54.834 -2.5 93.501z" />
    <glyph glyph-name="m" unicode="m" horiz-adv-x="1836" 
d="M100 0v1030h328v-106c13.333 28.667 29.333 52.5 48 71.5s39.334 32.833 62.001 41.5s44.167 14.667 64.5 18s42.833 5 67.5 5c165.333 0 281.666 -62 348.999 -186c57.333 124 159 186 305 186c136 0 238.667 -42.167 308 -126.5s104 -200.833 104 -349.5v-584h-328v584
c0 149.333 -54.333 224 -163 224s-163 -74.667 -163 -224v-584h-328v584c0 149.333 -54.333 224 -163 224s-163 -74.667 -163 -224v-584h-328z" />
    <glyph glyph-name="n" unicode="n" 
d="M428 534l-0.000976562 -534h-328v1030h328v-109c60.667 92.667 152.334 139 275.001 139c164.667 0 284.667 -45 360 -135s113 -220.333 113 -391v-534h-328v534c0 90 -16 158.167 -48 204.5s-86 69.5 -162 69.5s-130 -23.167 -162 -69.5s-48 -114.5 -48 -204.5z" />
    <glyph glyph-name="o" unicode="o" horiz-adv-x="1332" 
d="M666 -30c-182.667 0 -329.33 50.333 -439.997 151s-166 232 -166 394c0 162.667 55.167 294.167 165.5 394.5s257.166 150.5 440.499 150.5s330.166 -50.167 440.499 -150.5s165.5 -231.833 165.5 -394.5c0 -162 -55.333 -293.333 -166 -394s-257.334 -151 -440.001 -151
zM666.004 222c89.333 0 158 27 206 81s72 124.667 72 212s-24 158 -72 212s-116.667 81 -206 81s-158 -27 -206 -81s-72 -124.667 -72 -212s24 -158 72 -212s116.667 -81 206 -81z" />
    <glyph glyph-name="p" unicode="p" horiz-adv-x="1352" 
d="M1292 515c0 -168 -48.667 -300.833 -146 -398.5s-224 -146.5 -380 -146.5c-78 0 -145.667 15.167 -203 45.5s-102.333 70.5 -135 120.5v-668h-328v1562h328v-136c33.333 50 78.5 90.167 135.5 120.5s124.5 45.5 202.5 45.5c156 0 282.667 -48.833 380 -146.5
s146 -230.5 146 -398.5zM964 515c0 86.667 -23.5 157.167 -70.5 211.5s-112.833 81.5 -197.5 81.5s-150.5 -27.167 -197.5 -81.5s-70.5 -124.833 -70.5 -211.5s23.5 -157.167 70.5 -211.5s112.833 -81.5 197.5 -81.5s150.5 27.167 197.5 81.5s70.5 124.833 70.5 211.5z" />
    <glyph glyph-name="q" unicode="q" horiz-adv-x="1352" 
d="M60 515c0 168 48.667 300.833 146 398.5s224 146.5 380 146.5c78 0 145.5 -15.167 202.5 -45.5s102.167 -70.5 135.5 -120.5v136h328v-1562h-328v668c-32.667 -50 -77.667 -90.167 -135 -120.5s-125 -45.5 -203 -45.5c-156 0 -282.667 48.833 -380 146.5
s-146 230.5 -146 398.5zM388 515c0 -86.667 23.5 -157.167 70.5 -211.5s112.833 -81.5 197.5 -81.5s150.5 27.167 197.5 81.5s70.5 124.833 70.5 211.5s-23.5 157.167 -70.5 211.5s-112.833 81.5 -197.5 81.5s-150.5 -27.167 -197.5 -81.5s-70.5 -124.833 -70.5 -211.5z" />
    <glyph glyph-name="r" unicode="r" horiz-adv-x="958" 
d="M948 1012l-144.001 -248c-46 29.333 -101.333 44 -166 44c-76 0 -130 -23.167 -162 -69.5s-48 -114.5 -48 -204.5v-534h-328v1030h328v-109c60.667 92.667 152.334 139 275.001 139c96 0 177.667 -16 245 -48z" />
    <glyph glyph-name="s" unicode="s" horiz-adv-x="1064" 
d="M973 953l-124 -211.002c-101.333 44 -205.333 66 -312 66c-84 0 -126 -24 -126 -72c0 -23.333 14 -41.666 42 -54.999s68.333 -24.666 121 -33.999c74 -14.667 136.667 -30.667 188 -48s97.666 -39.333 138.999 -66s72.166 -59.667 92.499 -99s30.5 -85.333 30.5 -138
c0 -57.333 -13.333 -107.666 -40 -150.999s-63.167 -77.333 -109.5 -102s-97.666 -43 -153.999 -55s-117.5 -18 -183.5 -18c-218 0 -383.667 45 -497 135l124 211c112 -62.667 236.333 -94 373 -94c52.667 0 92.334 5.33301 119.001 16s40 30 40 58s-12.5 48.167 -37.5 60.5
s-71.167 25.166 -138.5 38.499c-148.667 28 -258.667 69.667 -330 125s-107 127.333 -107 216c0 104 39.833 184 119.5 240s191.167 84 334.5 84c172.667 0 318 -35.667 436 -107z" />
    <glyph glyph-name="t" unicode="t" horiz-adv-x="941" 
d="M40 778l-0.00292969 251.998h194v299h328v-299h290v-252h-290v-350c0 -30 1.33301 -55.667 4 -77s8.16699 -42.666 16.5 -63.999s21.333 -37.5 39 -48.5s39.834 -16.5 66.501 -16.5c46.667 0 94.334 8.33301 143.001 25l70 -234c-71.333 -28.667 -149 -43 -233 -43
c-83.333 0 -153.166 9.33301 -209.499 28s-101 48 -134 88s-56.333 87.333 -70 142s-20.5 121.334 -20.5 200.001v350h-194z" />
    <glyph glyph-name="u" unicode="u" 
d="M848 496l0.000976562 534h328v-1030h-328v109c-60.667 -92.667 -152.334 -139 -275.001 -139c-164.667 0 -284.667 45 -360 135s-113 220.333 -113 391v534h328v-534c0 -90 16 -158.167 48 -204.5s86 -69.5 162 -69.5s130 23.167 162 69.5s48 114.5 48 204.5z" />
    <glyph glyph-name="v" unicode="v" horiz-adv-x="1196" 
d="M352 1030l246 -672l246 672h342l-431 -1030h-314l-431 1030h342z" />
    <glyph glyph-name="w" unicode="w" horiz-adv-x="1644" 
d="M1007 0l-185 583l-185 -583h-288l-339 1030h318l176 -635l201 635h234l201 -635l176 635h318l-339 -1030h-288z" />
    <glyph glyph-name="x" unicode="x" horiz-adv-x="1208" 
d="M604 326l-225 -326h-369l383 539l-347 491h369l189 -279l189 279h369l-347 -491l383 -539h-369z" />
    <glyph glyph-name="y" unicode="y" horiz-adv-x="1196" 
d="M352 1030l246.001 -671.999l246 672h342l-441 -1030l-123 -289c-16.667 -38 -34 -70.5 -52 -97.5s-40.333 -52.167 -67 -75.5s-58.834 -40.833 -96.501 -52.5s-81.167 -17.5 -130.5 -17.5c-95.333 0 -174.333 16.667 -237 50l101 223c38.667 -14 76 -21 112 -21
c28.667 0 52.667 9.16699 72 27.5s37.333 47.166 54 86.499l73 166l-441 1030h342z" />
    <glyph glyph-name="z" unicode="z" horiz-adv-x="1085" 
d="M80 0v149l496 629h-467v252h896v-150l-496 -628h496v-252h-925z" />
    <glyph glyph-name="braceleft" unicode="{" horiz-adv-x="852" 
d="M422 555c56.667 -28 101.499 -72.833 134.499 -134.5s49.5 -137.5 49.5 -227.5c0 -52 2.5 -95.833 7.5 -131.5s11.5 -63.667 19.5 -84s19.667 -36 35 -47s30.5 -18 45.5 -21s34.5 -4.5 58.5 -4.5v-289c-56 0 -107.5 5.33301 -154.5 16s-92.167 29.5 -135.5 56.5
s-80.166 61.5 -110.499 103.5s-54.5 96.667 -72.5 164s-27 144.333 -27 231c0 38 -3.66699 70.5 -11 97.5s-16.166 48 -26.499 63s-24.833 27.333 -43.5 37s-35.667 16 -51 19s-35.333 5.83301 -60 8.5v286c24.667 2.66699 44.667 5.5 60 8.5s32.333 9.33301 51 19
s33.167 22 43.5 37s19.166 36 26.499 63s11 59.5 11 97.5c0 380.667 166.667 571 500 571v-289c-24 0 -43.5 -1.5 -58.5 -4.5s-30.167 -10 -45.5 -21s-27 -26.667 -35 -47s-14.5 -48.333 -19.5 -84s-7.5 -79.5 -7.5 -131.5c0 -90.667 -16.5 -166.667 -49.5 -228
s-77.833 -106 -134.5 -134z" />
    <glyph glyph-name="bar" unicode="|" horiz-adv-x="533" 
d="M100 -532v1966h333v-1966h-333z" />
    <glyph glyph-name="braceright" unicode="}" horiz-adv-x="852" 
d="M430 555c-56.667 28 -101.5 72.667 -134.5 134s-49.5 137.333 -49.5 228c0 52 -2.5 95.833 -7.5 131.5s-11.5 63.667 -19.5 84s-19.667 36 -35 47s-30.5 18 -45.5 21s-34.5 4.5 -58.5 4.5v289c56 0 107.5 -5.33301 154.5 -16s92.167 -29.5 135.5 -56.5
s80.166 -61.5 110.499 -103.5s54.5 -96.667 72.5 -164s27 -144.333 27 -231c0 -38 3.66699 -70.5 11 -97.5s16.166 -48 26.499 -63s24.833 -27.333 43.5 -37s35.667 -16 51 -19s35.333 -5.83301 60 -8.5v-286c-24.667 -2.66699 -44.667 -5.5 -60 -8.5
s-32.333 -9.33301 -51 -19s-33.167 -22 -43.5 -37s-19.166 -36 -26.499 -63s-11 -59.5 -11 -97.5c0 -86.667 -9 -163.667 -27 -231s-42.167 -122 -72.5 -164s-67.166 -76.5 -110.499 -103.5s-88.5 -45.833 -135.5 -56.5s-98.5 -16 -154.5 -16v289c24 0 43.5 1.5 58.5 4.5
s30.167 10 45.5 21s27 26.667 35 47s14.5 48.333 19.5 84s7.5 79.5 7.5 131.5c0 90 16.5 165.833 49.5 227.5s77.833 106.5 134.5 134.5z" />
    <glyph glyph-name="asciitilde" unicode="~" horiz-adv-x="1330" 
d="M737 852c28.667 -28.667 53.5 -50.167 74.5 -64.5s43.167 -21.5 66.5 -21.5c26.667 0 47.167 12.333 61.5 37s21.5 49.334 21.5 74.001h289c0 -30.667 -3.16699 -62.667 -9.5 -96s-18.333 -69.166 -36 -107.499s-39.834 -72.333 -66.501 -102s-62.5 -54.5 -107.5 -74.5
s-95.833 -30 -152.5 -30c-36.667 0 -69.667 3.33301 -99 10s-56.166 17.667 -80.499 33s-42.666 28.166 -54.999 38.499s-29.166 25.833 -50.499 46.5c-28.667 28.667 -53.5 50.167 -74.5 64.5s-43.167 21.5 -66.5 21.5c-26.667 0 -47.167 -12.333 -61.5 -37
s-21.5 -49.334 -21.5 -74.001h-289c0 30.667 3.16699 62.667 9.5 96s18.333 69.166 36 107.499s39.834 72.333 66.501 102s62.5 54.5 107.5 74.5s95.833 30 152.5 30c36.667 0 69.667 -3.33301 99 -10s56.166 -17.667 80.499 -33s42.666 -28.166 54.999 -38.499
s29.166 -25.833 50.499 -46.5z" />
    <glyph glyph-name="uni00A0" unicode="&#xa0;" horiz-adv-x="573" 
 />
    <glyph glyph-name="exclamdown" unicode="&#xa1;" horiz-adv-x="546" 
d="M107 -532l40 1012h253l40 -1012h-333zM100 739c0 48 16.833 88.833 50.5 122.5s74.5 50.5 122.5 50.5s88.833 -16.833 122.5 -50.5s50.5 -74.5 50.5 -122.5s-16.833 -88.833 -50.5 -122.5s-74.5 -50.5 -122.5 -50.5s-88.833 16.833 -122.5 50.5s-50.5 74.5 -50.5 122.5z
" />
    <glyph glyph-name="cent" unicode="&#xa2;" horiz-adv-x="1153" 
d="M388 515c0 -90 24.833 -161.329 74.5 -213.996s117.5 -79 203.5 -79c110.667 0 207.334 34.333 290.001 103l157 -191c-76.667 -84.667 -185 -136.667 -325 -156v-238h-265v242c-143.333 25.333 -256.333 85.666 -339 180.999s-124 212.666 -124 351.999
s41.333 256.666 124 351.999s195.667 155.666 339 180.999v242h265v-238c140 -19.333 248.333 -71.333 325 -156l-157 -191c-82.667 68.667 -179.334 103 -290.001 103c-86 0 -153.833 -26.333 -203.5 -79s-74.5 -124 -74.5 -214z" />
    <glyph glyph-name="sterling" unicode="&#xa3;" horiz-adv-x="1419" 
d="M80 564v288.002h137c-3.33301 30 -5 58 -5 84c0 165.333 51.833 296.333 155.5 393s251.5 145 443.5 145c135.333 0 248 -29.5 338 -88.5s153.333 -135.5 190 -229.5l-259 -121c-35.333 57.333 -72 96.666 -110 117.999s-91 32 -159 32c-90 0 -155.667 -22.5 -197 -67.5
s-62 -105.5 -62 -181.5c0 -30 2 -58 6 -84h452v-288h-384c4 -26.667 6 -54.667 6 -84c0 -55.333 -13 -104.333 -39 -147c-12 -18 -25 -33 -39 -45h728v-288h-1119v235c24 20.667 45.333 44 64 70c43.333 59.333 65 119.666 65 180.999c0 23.333 -2.66699 49.333 -8 78h-204z
" />
    <glyph glyph-name="currency" unicode="&#xa4;" horiz-adv-x="1207" 
d="M780 1393l159 159l188 -188l-159 -159c27.333 -56 41 -115 41 -177s-13.667 -121 -41 -177l159 -159l-188 -188l-159 159c-56.667 -27.333 -115.667 -40.833 -177 -40.5s-120.333 13.833 -177 40.5l-158 -159l-188 188l158 158c-27.333 56.667 -41 116 -41 178
s13.667 121.333 41 178l-158 158l188 188l158 -159c56 27.333 115 41 177 41s121 -13.667 177 -41zM495 1137c-29.333 -30 -44.168 -66.165 -44.501 -108.498s14.5 -78.5 44.5 -108.5s66.167 -44.833 108.5 -44.5s78.5 15.166 108.5 44.499c30 30 44.833 66.167 44.5 108.5
s-15.166 78.5 -44.499 108.5c-30 29.333 -66.167 44.166 -108.5 44.499s-78.5 -14.5 -108.5 -44.5z" />
    <glyph glyph-name="yen" unicode="&#xa5;" horiz-adv-x="1464" 
d="M300 126v203h265v44h-265v203h265l-555 858h382l340 -542l340 542h382l-555 -858h265v-203h-265v-44h265v-203h-265v-126h-334v126h-265z" />
    <glyph glyph-name="brokenbar" unicode="&#xa6;" horiz-adv-x="533" 
d="M100 603v831h333v-831h-333zM100 -532v831h333v-831h-333z" />
    <glyph glyph-name="section" unicode="&#xa7;" horiz-adv-x="1376" 
d="M126 1046c0 45.333 6.00195 88.3369 18.002 129.004s31.833 79.5 59.5 116.5s62.5 68.833 104.5 95.5s94.833 47.834 158.5 63.501s135.5 23.5 215.5 23.5c228 0 413.333 -48 556 -144l-162 -235c-120.667 60 -252 90 -394 90c-72.667 0 -127.334 -12 -164.001 -36
s-55 -58.333 -55 -103c0 -46 21.667 -82.5 65 -109.5s110.666 -49.833 201.999 -68.5c94.667 -20 175.5 -42.833 242.5 -68.5s125.5 -57 175.5 -94s87.167 -80.833 111.5 -131.5s36.5 -109.334 36.5 -176.001c0 -131.333 -45.333 -234 -136 -308c60 -71.333 90 -156 90 -254
c0 -45.333 -6 -88.333 -18 -129s-31.833 -79.5 -59.5 -116.5s-62.5 -68.833 -104.5 -95.5s-94.833 -47.834 -158.5 -63.501s-135.5 -23.5 -215.5 -23.5c-228 0 -413.333 48 -556 144l162 235c120.667 -60 252 -90 394 -90c72.667 0 127.334 12 164.001 36s55 58.333 55 103
c0 46.667 -21.333 83 -64 109s-110.334 49 -203.001 69c-190.667 39.333 -332.667 95.166 -426 167.499s-140 173.166 -140 302.499c0 131.333 45 233.666 135 306.999c-59.333 70 -89 155 -89 255zM959.002 398.004c0 45.333 -22.333 80.333 -67 105
s-119.667 47.667 -225 69c-48 9.33301 -98 22.333 -150 39c-66.667 -23.333 -100 -65.666 -100 -126.999c0 -45.333 22.333 -80.333 67 -105s119.667 -47.667 225 -69c48 -9.33301 97.667 -22.333 149 -39c67.333 23.333 101 65.666 101 126.999z" />
    <glyph glyph-name="dieresis" unicode="&#xa8;" horiz-adv-x="981" 
d="M80 1334c0 47.333 16.833 87.833 50.5 121.5s74.167 50.5 121.5 50.5s87.833 -16.833 121.5 -50.5s50.5 -74.167 50.5 -121.5s-16.833 -87.833 -50.5 -121.5s-74.167 -50.5 -121.5 -50.5s-87.833 16.833 -121.5 50.5s-50.5 74.167 -50.5 121.5zM557 1334
c0 47.333 16.833 87.833 50.5 121.5s74.167 50.5 121.5 50.5s87.833 -16.833 121.5 -50.5s50.5 -74.167 50.5 -121.5s-16.833 -87.833 -50.5 -121.5s-74.167 -50.5 -121.5 -50.5s-87.833 16.833 -121.5 50.5s-50.5 74.167 -50.5 121.5z" />
    <glyph glyph-name="copyright" unicode="&#xa9;" horiz-adv-x="1634" 
d="M636 717c0 -62.667 17.835 -112.002 53.502 -148.002s79.834 -54 132.501 -54c43.333 0 79.5 5.33301 108.5 16s58.5 29 88.5 55l105 -150c-80.667 -78.667 -181.334 -118 -302.001 -118c-117.333 0 -214.166 37.333 -290.499 112s-114.5 170.334 -114.5 287.001
s38.167 212.334 114.5 287.001s173.166 112 290.499 112c121.333 0 222.666 -39.667 303.999 -119l-52.5 -75.5l-52.5 -74.5c-30 26 -59.833 44.5 -89.5 55.5s-66.167 16.5 -109.5 16.5c-52.667 0 -96.834 -18 -132.501 -54s-53.5 -85.333 -53.5 -148zM276.002 716.998
c0 -98 24.167 -188.5 72.5 -271.5s114 -148.667 197 -197s173.5 -72.5 271.5 -72.5s188.5 24.167 271.5 72.5s148.667 114 197 197s72.5 173.5 72.5 271.5s-24.167 188.5 -72.5 271.5s-114 148.667 -197 197s-173.5 72.5 -271.5 72.5s-188.5 -24.167 -271.5 -72.5
s-148.667 -114 -197 -197s-72.5 -173.5 -72.5 -271.5zM60.002 716.998c0 137.333 33.833 264 101.5 380s159.5 207.833 275.5 275.5s242.667 101.5 380 101.5s264 -33.833 380 -101.5s207.833 -159.5 275.5 -275.5s101.5 -242.667 101.5 -380s-33.833 -264 -101.5 -380
s-159.5 -207.833 -275.5 -275.5s-242.667 -101.5 -380 -101.5s-264 33.833 -380 101.5s-207.833 159.5 -275.5 275.5s-101.5 242.667 -101.5 380z" />
    <glyph glyph-name="ordfeminine" unicode="&#xaa;" horiz-adv-x="639" 
d="M334 1305c-69.333 0 -130.666 -13.332 -183.999 -39.999l-62 131c72.667 37.333 154.667 56 246 56c102 0 173.333 -21.833 214 -65.5s61 -115.167 61 -214.5v-366h-168v78c-28.667 -60 -82 -90 -160 -90c-76 0 -136.833 19.167 -182.5 57.5s-68.5 92.833 -68.5 163.5
c0 43.333 11.667 80.666 35 111.999s54.833 54.833 94.5 70.5s83.167 26.167 130.5 31.5s97.666 6 150.999 2c0 27.333 -8.33301 46.5 -25 57.5s-44 16.5 -82 16.5zM201 1015c0 -42 26.667 -63.0039 80 -63.0039c46.667 0 85 16 115 48s45 67.333 45 106
c-14 2.66699 -34.5 2.83398 -61.5 0.500977s-53.667 -5.66602 -80 -9.99902s-49.333 -13.666 -69 -27.999s-29.5 -32.166 -29.5 -53.499z" />
    <glyph glyph-name="guillemotleft" unicode="&#xab;" horiz-adv-x="1550" 
d="M785 943l-339 -244l339 -244v-390l-705 548v172l705 548v-390zM1450 943l-339 -244l339 -244v-390l-705 548v172l705 548v-390z" />
    <glyph glyph-name="logicalnot" unicode="&#xac;" horiz-adv-x="1232" 
d="M80 553v289h1072v-616h-333v327h-739z" />
    <glyph glyph-name="uni00AD" unicode="&#xad;" horiz-adv-x="976" 
d="M80 548v252h816v-252h-816z" />
    <glyph glyph-name="registered" unicode="&#xae;" horiz-adv-x="1060" 
d="M477 792l-108 0.000976562v424h214c42 0 76.167 -12.833 102.5 -38.5s39.5 -60.167 39.5 -103.5c0 -31.333 -8 -57.333 -24 -78s-36 -35.334 -60 -44.001l86 -160h-113l-78 145h-59v-145zM573 1113h-96v-78h96c29.333 0 44 13 44 39s-14.667 39 -44 39zM191 994.001
c0 -94 33 -174 99 -240s146 -99 240 -99s174 33 240 99s99 146 99 240s-33 174 -99 240s-146 99 -240 99s-174 -33 -240 -99s-99 -146 -99 -240zM60 994.001c0 129.333 46 240 138 332s202.667 138 332 138s240 -46 332 -138s138 -202.667 138 -332s-46 -240 -138 -332
s-202.667 -138 -332 -138s-240 46 -332 138s-138 202.667 -138 332z" />
    <glyph glyph-name="overscore" unicode="&#xaf;" horiz-adv-x="994" 
d="M60 1182v252h874v-252h-874z" />
    <glyph glyph-name="degree" unicode="&#xb0;" horiz-adv-x="592" 
d="M10 1188c0 78.667 28 146 84 202s123.333 84 202 84s146 -28 202 -84s84 -123.333 84 -202s-28 -146 -84 -202s-123.333 -84 -202 -84s-146 28 -202 84s-84 123.333 -84 202zM204 1188c0 -26 8.83301 -47.833 26.5 -65.5s39.5 -26.5 65.5 -26.5s47.833 8.83301 65.5 26.5
s26.5 39.5 26.5 65.5s-8.83301 47.833 -26.5 65.5s-39.5 26.5 -65.5 26.5s-47.833 -8.83301 -65.5 -26.5s-26.5 -39.5 -26.5 -65.5z" />
    <glyph glyph-name="plusminus" unicode="&#xb1;" horiz-adv-x="1190" 
d="M1110 1056v-289h-366v-371h-298v371h-366v289h366v370h298v-370h366zM1110 289v-289h-1030v289h1030z" />
    <glyph glyph-name="twosuperior" unicode="&#xb2;" horiz-adv-x="533" 
d="M164 1220l-134.001 69.999c4 13.333 11.167 27.666 21.5 42.999s24.333 31.833 42 49.5s41.5 32.334 71.5 44.001s63 17.5 99 17.5c72.667 0 129.334 -18.167 170.001 -54.5s61 -84.5 61 -144.5c0 -12 -0.833008 -23.333 -2.5 -34s-5 -21.667 -10 -33l-11.5 -26.5
c-2.66699 -6.33301 -8.66699 -15.666 -18 -27.999l-17.5 -23c-2.33301 -3 -9.5 -11.5 -21.5 -25.5s-18.667 -21.667 -20 -23l-96 -99h205v-147h-457v109l230 239c12.667 13.333 21.5 23 26.5 29s10.167 14.833 15.5 26.5s8 23.5 8 35.5c0 16 -5.33301 28.667 -16 38
s-26 14 -46 14c-26 0 -47.333 -8 -64 -24s-28.667 -33.667 -36 -53z" />
    <glyph glyph-name="threesuperior" unicode="&#xb3;" horiz-adv-x="547" 
d="M30 910l127 77c7.33301 -8 16 -15.333 26 -22c25.333 -14.667 53.333 -22 84 -22c53.333 0 80 18.667 80 56c0 13.333 -3.5 24.166 -10.5 32.499s-18.667 14.5 -35 18.5s-33.166 6.5 -50.499 7.5s-41.666 1.5 -72.999 1.5v130c53.333 0 92.166 4.5 116.499 13.5
s36.5 24.833 36.5 47.5c0 31.333 -21.333 47 -64 47c-26 0 -49 -7.33301 -69 -22c-10.667 -8 -18.334 -15.333 -23.001 -22l-127 77c10.667 20.667 26.334 39.667 47.001 57c47.333 38 104.666 57 171.999 57c64 0 119 -15.167 165 -45.5s69 -73.166 69 -128.499
c0 -32 -9 -60.167 -27 -84.5s-41 -42.833 -69 -55.5c33.333 -10.667 60.333 -28.5 81 -53.5s31 -57.5 31 -97.5c0 -62 -24.333 -108 -73 -138s-107.667 -45 -177 -45c-82 0 -146 19 -192 57c-20.667 16.667 -35.667 35.667 -45 57z" />
    <glyph glyph-name="acute" unicode="&#xb4;" horiz-adv-x="704" 
d="M60 1124l251 310h333l-314 -310h-270z" />
    <glyph glyph-name="mu" unicode="&#xb5;" horiz-adv-x="1366" 
d="M683 -30c-54.667 0 -105.667 14.168 -153 42.501s-81.333 67.166 -102 116.499v-661h-328v1562h328v-514c0 -90 21 -161.5 63 -214.5s106 -79.5 192 -79.5s150 26.5 192 79.5s63 124.5 63 214.5v514h328v-1030h-328v129c-22.667 -50 -57.167 -89 -103.5 -117
s-96.833 -42 -151.5 -42z" />
    <glyph glyph-name="paragraph" unicode="&#xb6;" horiz-adv-x="1603" 
d="M1523 1434l-0.000976562 -288.999h-155v-1145h-333v1145h-71v-1145h-333v457h-49c-81.333 0 -154.666 13.5 -219.999 40.5s-118.166 63.333 -158.499 109s-71 97.5 -92 155.5s-31.5 119.333 -31.5 184c0 51.333 6.5 100.833 19.5 148.5s33.167 92.167 60.5 133.5
s60.5 77.166 99.5 107.499s86.167 54.333 141.5 72s115.666 26.5 180.999 26.5h941zM630.999 1145h-49c-58 0 -102.333 -19.333 -133 -58s-46 -85.667 -46 -141c0 -56 15.5 -103.333 46.5 -142s75.167 -58 132.5 -58h49v399z" />
    <glyph glyph-name="middot" unicode="&#xb7;" horiz-adv-x="506" 
d="M80 773c0 48 16.833 88.833 50.5 122.5s74.5 50.5 122.5 50.5s88.833 -16.833 122.5 -50.5s50.5 -74.5 50.5 -122.5s-16.833 -88.833 -50.5 -122.5s-74.5 -50.5 -122.5 -50.5s-88.833 16.833 -122.5 50.5s-50.5 74.5 -50.5 122.5z" />
    <glyph glyph-name="cedilla" unicode="&#xb8;" horiz-adv-x="639" 
d="M60 -497l52.998 127.004c20 -8.66699 44.5 -15.834 73.5 -21.501s58.833 -8.5 89.5 -8.5s57.5 7 80.5 21s35.833 35 38.5 63c2 14.667 -0.666992 27.167 -8 37.5s-18.666 17.666 -33.999 21.999s-31.333 7.5 -48 9.5s-36.667 2.16699 -60 0.5s-43.5 -3.5 -60.5 -5.5
s-36.167 -4.66699 -57.5 -8l107 333h189l-64 -198c31.333 -0.666992 60.5 -5.33398 87.5 -14.001s51 -20.834 72 -36.501s36.833 -36.167 47.5 -61.5s14.667 -54 12 -86c-4 -49.333 -19.333 -90.833 -46 -124.5s-59.5 -57.5 -98.5 -71.5s-81.5 -22 -127.5 -24
s-90.167 1.16699 -132.5 9.5s-80.166 20.5 -113.499 36.5z" />
    <glyph glyph-name="onesuperior" unicode="&#xb9;" horiz-adv-x="401" 
d="M134 1131l-104 113l216 190h125v-628h-168v385z" />
    <glyph glyph-name="ordmasculine" unicode="&#xba;" horiz-adv-x="705" 
d="M30 1120c0 95.333 29.333 173.166 88 233.499s136.667 90.5 234 90.5c96.667 0 174.667 -30.167 234 -90.5s89 -138.166 89 -233.499s-29.667 -173.166 -89 -233.499s-137.333 -90.5 -234 -90.5c-97.333 0 -175.333 30.167 -234 90.5s-88 138.166 -88 233.499zM189 1120
c0 -52 14.167 -94.5 42.5 -127.5s68.5 -49.5 120.5 -49.5s92.167 16.5 120.5 49.5s42.5 75.5 42.5 127.5s-14.167 94.5 -42.5 127.5s-68.5 49.5 -120.5 49.5s-92.167 -16.5 -120.5 -49.5s-42.5 -75.5 -42.5 -127.5z" />
    <glyph glyph-name="guillemotright" unicode="&#xbb;" horiz-adv-x="1550" 
d="M1104 699l-339 244v390l705 -548v-172l-705 -548v390zM439 699l-339 244v390l705 -548v-172l-705 -548v390z" />
    <glyph glyph-name="onequarter" unicode="&#xbc;" horiz-adv-x="1475" 
d="M1293 0h-176v136h-342v132l359 453h159v-421h102v-164h-102v-136zM996 300h121v152zM204 1088l-124 133l227 213h160v-721h-186v448zM213 0l823 1434h239l-823 -1434h-239z" />
    <glyph glyph-name="onehalf" unicode="&#xbd;" horiz-adv-x="1562" 
d="M1092 471l-160.998 60.002c7.33301 24 17.666 47.333 30.999 70s31 45 53 67s50 39.667 84 53s71.667 20 113 20c84 0 150 -20.5 198 -61.5s72 -95.833 72 -164.5c0 -50 -11 -93.5 -33 -130.5s-55 -73.833 -99 -110.5l-108 -100h239v-174h-530v136l272 249
c26.667 23.333 45.5 43.666 56.5 60.999s16.5 37 16.5 59c0 41.333 -28 62 -84 62c-34.667 0 -61.334 -9.83301 -80.001 -29.5s-32 -41.834 -40 -66.501zM213.002 0.00195312l823 1434h239l-823 -1434h-239zM204.002 1088l-124 133l227 213h160v-721h-186v448z" />
    <glyph glyph-name="threequarters" unicode="&#xbe;" horiz-adv-x="1554" 
d="M80 833l149 79.998c33.333 -38 81.666 -57 144.999 -57c34 0 59.333 5.33301 76 16s25 28.334 25 53.001c0 11.333 -2 21 -6 29s-10.5 14.333 -19.5 19s-18 8.33398 -27 11.001s-21.167 4.33398 -36.5 5.00098s-28.333 1 -39 1s-25.167 -0.166992 -43.5 -0.5
s-32.5 -0.5 -42.5 -0.5v164h12c29.333 0 51.833 0.5 67.5 1.5s34.167 3.5 55.5 7.5s37 11.333 47 22s15 24.667 15 42c0 18.667 -6.66699 34 -20 46s-34.666 18 -63.999 18c-30.667 0 -56.334 -6 -77.001 -18s-34.667 -24.667 -42 -38l-149 80
c54 93.333 143.333 140 268 140c80.667 0 145.834 -19.5 195.501 -58.5s74.5 -88.833 74.5 -149.5c0 -76.667 -37.333 -131 -112 -163c86 -24 129 -80 129 -168c0 -66.667 -26.5 -120.334 -79.5 -161.001s-122.167 -61 -207.5 -61c-144.667 0 -242.667 46.667 -294 140z
M292 -0.00195312l823 1434h239l-823 -1434h-239zM1372 -0.00195312h-176v136h-342v132l359 453h159v-421h102v-164h-102v-136zM1075 299.998h121v152z" />
    <glyph glyph-name="questiondown" unicode="&#xbf;" horiz-adv-x="1038" 
d="M791 -136l266.997 -145c-20 -38 -44.667 -73.167 -74 -105.5s-65.166 -63 -107.499 -92s-93.666 -51.833 -153.999 -68.5s-126.166 -25 -197.499 -25c-90 0 -170.333 11.333 -241 34s-127.834 54 -171.501 94s-76.667 86 -99 138s-33.5 108.667 -33.5 170
c0 33.333 3.66699 65.833 11 97.5s20.5 64.167 39.5 97.5s43 63.166 72 89.499s67.5 49.833 115.5 70.5s102.333 35.334 163 44.001v217h333v-412c-124.667 -2.66699 -222.667 -21.167 -294 -55.5s-107 -83.833 -107 -148.5c0 -48.667 16.833 -85.334 50.5 -110.001
s87.5 -37 161.5 -37c63.333 0 115.333 12.833 156 38.5s77.334 61.834 110.001 108.501zM720.997 739c0 -48 -16.833 -88.833 -50.5 -122.5s-74.5 -50.5 -122.5 -50.5s-88.833 16.833 -122.5 50.5s-50.5 74.5 -50.5 122.5s16.833 88.833 50.5 122.5s74.5 50.5 122.5 50.5
s88.833 -16.833 122.5 -50.5s50.5 -74.5 50.5 -122.5z" />
    <glyph glyph-name="Agrave" unicode="&#xc0;" horiz-adv-x="1536" 
d="M479 281l-110 -281h-359l593 1434h330l593 -1434h-359l-110 281h-578zM768 1014l-179 -454h358zM651 1846l251 -310h-270l-314 310h333z" />
    <glyph glyph-name="Aacute" unicode="&#xc1;" horiz-adv-x="1536" 
d="M479 281l-110 -281h-359l593 1434h330l593 -1434h-359l-110 281h-578zM768 1014l-179 -454h358zM640 1536l251 310h333l-314 -310h-270z" />
    <glyph glyph-name="Acircumflex" unicode="&#xc2;" horiz-adv-x="1536" 
d="M479 281l-110 -281h-359l593 1434h330l593 -1434h-359l-110 281h-578zM768 1014l-179 -454h358zM871 1827l301 -291h-248l-156 109l-156 -109h-248l301 291h206z" />
    <glyph glyph-name="Atilde" unicode="&#xc3;" horiz-adv-x="1536" 
d="M479 281l-110 -281h-359l593 1434h330l593 -1434h-359l-110 281h-578zM768 1014l-179 -454h358zM740 1590c-36 30.667 -66.999 46.001 -92.999 46.001c-24 0 -42 -13 -54 -39c-5.33301 -13.333 -9 -26.333 -11 -39h-205c3.33301 52 14.333 98.333 33 139
c43.333 93.333 120.666 140 231.999 140c58 0 109.667 -18 155 -54c36 -30.667 67 -46 93 -46c24 0 42 13 54 39c5.33301 12 9 25 11 39h205c-2.66699 -50.667 -14 -97.334 -34 -140.001c-42.667 -92.667 -119.667 -139 -231 -139c-58 0 -109.667 18 -155 54z" />
    <glyph glyph-name="Adieresis" unicode="&#xc4;" horiz-adv-x="1536" 
d="M479 281l-110 -281h-359l593 1434h330l593 -1434h-359l-110 281h-578zM768 1014l-179 -454h358zM358 1708c0 47.333 16.833 87.833 50.5 121.5s74.167 50.5 121.5 50.5s87.833 -16.833 121.5 -50.5s50.5 -74.167 50.5 -121.5s-16.833 -87.833 -50.5 -121.5
s-74.167 -50.5 -121.5 -50.5s-87.833 16.833 -121.5 50.5s-50.5 74.167 -50.5 121.5zM835 1708c0 47.333 16.833 87.833 50.5 121.5s74.167 50.5 121.5 50.5s87.833 -16.833 121.5 -50.5s50.5 -74.167 50.5 -121.5s-16.833 -87.833 -50.5 -121.5s-74.167 -50.5 -121.5 -50.5
s-87.833 16.833 -121.5 50.5s-50.5 74.167 -50.5 121.5z" />
    <glyph glyph-name="Aring" unicode="&#xc5;" horiz-adv-x="1536" 
d="M479 281l-110 -281h-359l593 1434h330l593 -1434h-359l-110 281h-578zM768 1014l-179 -454h358zM522 1782c0 68 24 126 72 174s106 72 174 72s126 -24 174 -72s72 -106 72 -174s-24 -126 -72 -174s-106 -72 -174 -72s-126 24 -174 72s-72 106 -72 174zM684 1782
c0 -23.333 8.16699 -43.166 24.5 -59.499s36.166 -24.5 59.499 -24.5s43.166 8.16699 59.499 24.5s24.5 36.166 24.5 59.499s-8.16699 43.166 -24.5 59.499s-36.166 24.5 -59.499 24.5s-43.166 -8.16699 -59.499 -24.5s-24.5 -36.166 -24.5 -59.499z" />
    <glyph glyph-name="AE" unicode="&#xc6;" horiz-adv-x="2180" 
d="M1357 876h690v-289h-690v-298h743v-289h-1076v306h-438l-202 -306h-374l944 1434h1136v-289h-733v-269zM1024 972l-248 -377h248v377z" />
    <glyph glyph-name="Ccedilla" unicode="&#xc7;" horiz-adv-x="1457" 
d="M569 -497l53.001 127.007c20 -8.66699 44.5 -15.834 73.5 -21.501s58.833 -8.5 89.5 -8.5s57.5 7 80.5 21s35.833 35 38.5 63c2 14.667 -0.666992 27.167 -8 37.5s-18.666 17.666 -33.999 21.999s-31.333 7.5 -48 9.5s-36.667 2.16699 -60 0.5s-43.5 -3.5 -60.5 -5.5
s-36.167 -4.66699 -57.5 -8l73 228c-109.333 12.667 -206.333 41.5 -291 86.5s-152.5 101.667 -203.5 170s-89.5 144 -115.5 227s-39 171.5 -39 265.5c0 82 9.5 159.667 28.5 233s49 142.166 90 206.499s91.333 119.833 151 166.5s132.667 83.5 219 110.5
s182.166 40.5 287.499 40.5c134 0 246 -14.833 336 -44.5s171.667 -75.834 245 -138.501l-165 -226c-55.333 36.667 -114.833 65.834 -178.5 87.501s-142.834 32.5 -237.501 32.5c-73.333 0 -138 -11.833 -194 -35.5s-101.167 -56.834 -135.5 -99.501
s-60.166 -92 -77.499 -148s-26 -117.667 -26 -185s8.66699 -129 26 -185s43.166 -105.333 77.499 -148s79.5 -75.834 135.5 -99.501s120.667 -35.5 194 -35.5c163.333 0 302 40 416 120l165 -226c-68.667 -57.333 -143.834 -101 -225.501 -131s-180.167 -47 -295.5 -51
l-28 -86c31.333 -0.666992 60.5 -5.33398 87.5 -14.001s51 -20.834 72 -36.501s36.833 -36.167 47.5 -61.5s14.667 -54 12 -86c-4 -49.333 -19.333 -90.833 -46 -124.5s-59.5 -57.5 -98.5 -71.5s-81.5 -22 -127.5 -24s-90.167 1.16699 -132.5 9.5
s-80.166 20.5 -113.499 36.5z" />
    <glyph glyph-name="Egrave" unicode="&#xc8;" horiz-adv-x="1256" 
d="M433 876h690v-289h-690v-298h743v-289h-1076v1434h1066v-289h-733v-269zM537 1846l251 -310h-270l-314 310h333z" />
    <glyph glyph-name="Eacute" unicode="&#xc9;" horiz-adv-x="1256" 
d="M433 876h690v-289h-690v-298h743v-289h-1076v1434h1066v-289h-733v-269zM508 1536l251 310h333l-314 -310h-270z" />
    <glyph glyph-name="Ecircumflex" unicode="&#xca;" horiz-adv-x="1256" 
d="M433 876h690v-289h-690v-298h743v-289h-1076v1434h1066v-289h-733v-269zM741 1827l301 -291h-248l-156 109l-156 -109h-248l301 291h206z" />
    <glyph glyph-name="Edieresis" unicode="&#xcb;" horiz-adv-x="1256" 
d="M433 876h690v-289h-690v-298h743v-289h-1076v1434h1066v-289h-733v-269zM228 1708c0 47.333 16.833 87.833 50.5 121.5s74.167 50.5 121.5 50.5s87.833 -16.833 121.5 -50.5s50.5 -74.167 50.5 -121.5s-16.833 -87.833 -50.5 -121.5s-74.167 -50.5 -121.5 -50.5
s-87.833 16.833 -121.5 50.5s-50.5 74.167 -50.5 121.5zM705 1708c0 47.333 16.833 87.833 50.5 121.5s74.167 50.5 121.5 50.5s87.833 -16.833 121.5 -50.5s50.5 -74.167 50.5 -121.5s-16.833 -87.833 -50.5 -121.5s-74.167 -50.5 -121.5 -50.5s-87.833 16.833 -121.5 50.5
s-50.5 74.167 -50.5 121.5z" />
    <glyph glyph-name="Igrave" unicode="&#xcc;" horiz-adv-x="514" 
d="M81 0v1434h333v-1434h-333zM133 1846l251 -310h-270l-314 310h333z" />
    <glyph glyph-name="Iacute" unicode="&#xcd;" horiz-adv-x="547" 
d="M100 0v1434h333v-1434h-333zM133 1536l251 310h333l-314 -310h-270z" />
    <glyph glyph-name="Icircumflex" unicode="&#xce;" horiz-adv-x="708" 
d="M188 0v1434h333v-1434h-333zM457 1827l301 -291h-248l-156 109l-156 -109h-248l301 291h206z" />
    <glyph glyph-name="Idieresis" unicode="&#xcf;" horiz-adv-x="841" 
d="M254 0v1434h333v-1434h-333zM10 1728c0 47.333 16.833 87.833 50.5 121.5s74.167 50.5 121.5 50.5s87.833 -16.833 121.5 -50.5s50.5 -74.167 50.5 -121.5s-16.833 -87.833 -50.5 -121.5s-74.167 -50.5 -121.5 -50.5s-87.833 16.833 -121.5 50.5
s-50.5 74.167 -50.5 121.5zM487 1728c0 47.333 16.833 87.833 50.5 121.5s74.167 50.5 121.5 50.5s87.833 -16.833 121.5 -50.5s50.5 -74.167 50.5 -121.5s-16.833 -87.833 -50.5 -121.5s-74.167 -50.5 -121.5 -50.5s-87.833 16.833 -121.5 50.5s-50.5 74.167 -50.5 121.5z
" />
    <glyph glyph-name="Eth" unicode="&#xd0;" horiz-adv-x="1613" 
d="M10 573v289.002h220v572h607c118 0 223 -17.833 315 -53.5s167 -85.834 225 -150.501s101.833 -140.167 131.5 -226.5s44.5 -181.833 44.5 -286.5s-14.833 -200.167 -44.5 -286.5s-73.5 -161.833 -131.5 -226.5s-133 -114.834 -225 -150.501s-197 -53.5 -315 -53.5h-607
v573h-220zM563 573.002v-284h274c66.667 0 124.667 11.667 174 35s88.166 55.5 116.499 96.5s49.166 86.167 62.499 135.5s20 103 20 161s-6.66699 111.667 -20 161s-34.166 94.5 -62.499 135.5s-67.166 73.167 -116.499 96.5s-107.333 35 -174 35h-274v-283h293v-289h-293z
" />
    <glyph glyph-name="Ntilde" unicode="&#xd1;" horiz-adv-x="1513" 
d="M100 0v1434h422l558 -956v956h333v-1434h-422l-558 956v-956h-333zM728 1590c-36 30.667 -66.999 46.001 -92.999 46.001c-24 0 -42 -13 -54 -39c-5.33301 -13.333 -9 -26.333 -11 -39h-205c3.33301 52 14.333 98.333 33 139c43.333 93.333 120.666 140 231.999 140
c58 0 109.667 -18 155 -54c36 -30.667 67 -46 93 -46c24 0 42 13 54 39c5.33301 12 9 25 11 39h205c-2.66699 -50.667 -14 -97.334 -34 -140.001c-42.667 -92.667 -119.667 -139 -231 -139c-58 0 -109.667 18 -155 54z" />
    <glyph glyph-name="Ograve" unicode="&#xd2;" horiz-adv-x="1672" 
d="M836 1474c105.333 0 201.166 -13.5 287.499 -40.5s159.333 -63.833 219 -110.5s110 -102.167 151 -166.5s71 -133.166 90 -206.499s28.5 -151 28.5 -233s-9.5 -159.667 -28.5 -233s-49 -142.166 -90 -206.499s-91.333 -119.833 -151 -166.5s-132.667 -83.5 -219 -110.5
s-182.166 -40.5 -287.499 -40.5s-201.166 13.5 -287.499 40.5s-159.333 63.833 -219 110.5s-110 102.167 -151 166.5s-71 133.166 -90 206.499s-28.5 151 -28.5 233s9.5 159.667 28.5 233s49 142.166 90 206.499s91.333 119.833 151 166.5s132.667 83.5 219 110.5
s182.166 40.5 287.499 40.5zM836 1185c-73.333 0 -138 -11.833 -194 -35.5s-101.167 -56.834 -135.5 -99.501s-60.166 -92 -77.499 -148s-26 -117.667 -26 -185s8.66699 -129 26 -185s43.166 -105.333 77.499 -148s79.5 -75.834 135.5 -99.501s120.667 -35.5 194 -35.5
s138 11.833 194 35.5s101.167 56.834 135.5 99.501s60.166 92 77.499 148s26 117.667 26 185s-8.66699 129 -26 185s-43.166 105.333 -77.499 148s-79.5 75.834 -135.5 99.501s-120.667 35.5 -194 35.5zM731 1845l251 -310h-270l-314 310h333z" />
    <glyph glyph-name="Oacute" unicode="&#xd3;" horiz-adv-x="1672" 
d="M836 1474c105.333 0 201.166 -13.5 287.499 -40.5s159.333 -63.833 219 -110.5s110 -102.167 151 -166.5s71 -133.166 90 -206.499s28.5 -151 28.5 -233s-9.5 -159.667 -28.5 -233s-49 -142.166 -90 -206.499s-91.333 -119.833 -151 -166.5s-132.667 -83.5 -219 -110.5
s-182.166 -40.5 -287.499 -40.5s-201.166 13.5 -287.499 40.5s-159.333 63.833 -219 110.5s-110 102.167 -151 166.5s-71 133.166 -90 206.499s-28.5 151 -28.5 233s9.5 159.667 28.5 233s49 142.166 90 206.499s91.333 119.833 151 166.5s132.667 83.5 219 110.5
s182.166 40.5 287.499 40.5zM836 1185c-73.333 0 -138 -11.833 -194 -35.5s-101.167 -56.834 -135.5 -99.501s-60.166 -92 -77.499 -148s-26 -117.667 -26 -185s8.66699 -129 26 -185s43.166 -105.333 77.499 -148s79.5 -75.834 135.5 -99.501s120.667 -35.5 194 -35.5
s138 11.833 194 35.5s101.167 56.834 135.5 99.501s60.166 92 77.499 148s26 117.667 26 185s-8.66699 129 -26 185s-43.166 105.333 -77.499 148s-79.5 75.834 -135.5 99.501s-120.667 35.5 -194 35.5zM706 1536l251 310h333l-314 -310h-270z" />
    <glyph glyph-name="Ocircumflex" unicode="&#xd4;" horiz-adv-x="1672" 
d="M836 1474c105.333 0 201.166 -13.5 287.499 -40.5s159.333 -63.833 219 -110.5s110 -102.167 151 -166.5s71 -133.166 90 -206.499s28.5 -151 28.5 -233s-9.5 -159.667 -28.5 -233s-49 -142.166 -90 -206.499s-91.333 -119.833 -151 -166.5s-132.667 -83.5 -219 -110.5
s-182.166 -40.5 -287.499 -40.5s-201.166 13.5 -287.499 40.5s-159.333 63.833 -219 110.5s-110 102.167 -151 166.5s-71 133.166 -90 206.499s-28.5 151 -28.5 233s9.5 159.667 28.5 233s49 142.166 90 206.499s91.333 119.833 151 166.5s132.667 83.5 219 110.5
s182.166 40.5 287.499 40.5zM836 1185c-73.333 0 -138 -11.833 -194 -35.5s-101.167 -56.834 -135.5 -99.501s-60.166 -92 -77.499 -148s-26 -117.667 -26 -185s8.66699 -129 26 -185s43.166 -105.333 77.499 -148s79.5 -75.834 135.5 -99.501s120.667 -35.5 194 -35.5
s138 11.833 194 35.5s101.167 56.834 135.5 99.501s60.166 92 77.499 148s26 117.667 26 185s-8.66699 129 -26 185s-43.166 105.333 -77.499 148s-79.5 75.834 -135.5 99.501s-120.667 35.5 -194 35.5zM939 1826l301 -291h-248l-156 109l-156 -109h-248l301 291h206z" />
    <glyph glyph-name="Otilde" unicode="&#xd5;" horiz-adv-x="1672" 
d="M836 1474c105.333 0 201.166 -13.5 287.499 -40.5s159.333 -63.833 219 -110.5s110 -102.167 151 -166.5s71 -133.166 90 -206.499s28.5 -151 28.5 -233s-9.5 -159.667 -28.5 -233s-49 -142.166 -90 -206.499s-91.333 -119.833 -151 -166.5s-132.667 -83.5 -219 -110.5
s-182.166 -40.5 -287.499 -40.5s-201.166 13.5 -287.499 40.5s-159.333 63.833 -219 110.5s-110 102.167 -151 166.5s-71 133.166 -90 206.499s-28.5 151 -28.5 233s9.5 159.667 28.5 233s49 142.166 90 206.499s91.333 119.833 151 166.5s132.667 83.5 219 110.5
s182.166 40.5 287.499 40.5zM836 1185c-73.333 0 -138 -11.833 -194 -35.5s-101.167 -56.834 -135.5 -99.501s-60.166 -92 -77.499 -148s-26 -117.667 -26 -185s8.66699 -129 26 -185s43.166 -105.333 77.499 -148s79.5 -75.834 135.5 -99.501s120.667 -35.5 194 -35.5
s138 11.833 194 35.5s101.167 56.834 135.5 99.501s60.166 92 77.499 148s26 117.667 26 185s-8.66699 129 -26 185s-43.166 105.333 -77.499 148s-79.5 75.834 -135.5 99.501s-120.667 35.5 -194 35.5zM807 1590c-36 30.667 -66.999 46.001 -92.999 46.001
c-24 0 -42 -13 -54 -39c-5.33301 -13.333 -9 -26.333 -11 -39h-205c3.33301 52 14.333 98.333 33 139c43.333 93.333 120.666 140 231.999 140c58 0 109.667 -18 155 -54c36 -30.667 67 -46 93 -46c24 0 42 13 54 39c5.33301 12 9 25 11 39h205
c-2.66699 -50.667 -14 -97.334 -34 -140.001c-42.667 -92.667 -119.667 -139 -231 -139c-58 0 -109.667 18 -155 54z" />
    <glyph glyph-name="Odieresis" unicode="&#xd6;" horiz-adv-x="1672" 
d="M836 1474c105.333 0 201.166 -13.5 287.499 -40.5s159.333 -63.833 219 -110.5s110 -102.167 151 -166.5s71 -133.166 90 -206.499s28.5 -151 28.5 -233s-9.5 -159.667 -28.5 -233s-49 -142.166 -90 -206.499s-91.333 -119.833 -151 -166.5s-132.667 -83.5 -219 -110.5
s-182.166 -40.5 -287.499 -40.5s-201.166 13.5 -287.499 40.5s-159.333 63.833 -219 110.5s-110 102.167 -151 166.5s-71 133.166 -90 206.499s-28.5 151 -28.5 233s9.5 159.667 28.5 233s49 142.166 90 206.499s91.333 119.833 151 166.5s132.667 83.5 219 110.5
s182.166 40.5 287.499 40.5zM836 1185c-73.333 0 -138 -11.833 -194 -35.5s-101.167 -56.834 -135.5 -99.501s-60.166 -92 -77.499 -148s-26 -117.667 -26 -185s8.66699 -129 26 -185s43.166 -105.333 77.499 -148s79.5 -75.834 135.5 -99.501s120.667 -35.5 194 -35.5
s138 11.833 194 35.5s101.167 56.834 135.5 99.501s60.166 92 77.499 148s26 117.667 26 185s-8.66699 129 -26 185s-43.166 105.333 -77.499 148s-79.5 75.834 -135.5 99.501s-120.667 35.5 -194 35.5zM426 1708c0 47.333 16.833 87.833 50.5 121.5s74.167 50.5 121.5 50.5
s87.833 -16.833 121.5 -50.5s50.5 -74.167 50.5 -121.5s-16.833 -87.833 -50.5 -121.5s-74.167 -50.5 -121.5 -50.5s-87.833 16.833 -121.5 50.5s-50.5 74.167 -50.5 121.5zM903 1708c0 47.333 16.833 87.833 50.5 121.5s74.167 50.5 121.5 50.5s87.833 -16.833 121.5 -50.5
s50.5 -74.167 50.5 -121.5s-16.833 -87.833 -50.5 -121.5s-74.167 -50.5 -121.5 -50.5s-87.833 16.833 -121.5 50.5s-50.5 74.167 -50.5 121.5z" />
    <glyph glyph-name="multiply" unicode="&#xd7;" horiz-adv-x="1148" 
d="M1068 351l-203 -203l-291 290l-291 -290l-203 203l290 290l-290 291l203 204l291 -291l291 291l203 -204l-291 -291z" />
    <glyph glyph-name="Oslash" unicode="&#xd8;" horiz-adv-x="1672" 
d="M836 1474c66 0 130.334 -5.66699 193.001 -17l19 38h328l-71 -146c102 -66.667 178.667 -155.5 230 -266.5s77 -232.833 77 -365.5c0 -82 -9.5 -159.667 -28.5 -233s-49 -142.166 -90 -206.499s-91.333 -119.833 -151 -166.5s-132.667 -83.5 -219 -110.5
s-182.166 -40.5 -287.499 -40.5c-68.667 0 -135.334 6.33301 -200.001 19l-19 -40h-328l73 149c-100 66.667 -175.333 155.167 -226 265.5s-76 231.5 -76 363.5c0 82 9.5 159.667 28.5 233s49 142.166 90 206.499s91.333 119.833 151 166.5s132.667 83.5 219 110.5
s182.166 40.5 287.499 40.5zM836.001 249c73.333 0 138.001 11.832 194.001 35.499s101.167 56.834 135.5 99.501s60.166 92 77.499 148s26 117.667 26 185c0 144 -36 256.667 -108 338l-391 -803c21.333 -2 43.333 -3 66 -3zM836.002 1185
c-73.333 0 -138.001 -11.832 -194.001 -35.499s-101.167 -56.834 -135.5 -99.501s-60.166 -92 -77.499 -148s-26 -117.667 -26 -185c0 -140.667 34.333 -251.667 103 -333l389 798c-19.333 2 -39 3 -59 3z" />
    <glyph glyph-name="Ugrave" unicode="&#xd9;" horiz-adv-x="1477" 
d="M739 249c60 0 110 8.5 150 25.5s71.333 43.333 94 79s38.5 77.167 47.5 124.5s13.5 105 13.5 173v783h333v-783c0 -460.667 -212.667 -691 -638 -691c-426 0 -639 230.333 -639 691v783h333v-783c0 -68 4.5 -125.667 13.5 -173s24.833 -88.833 47.5 -124.5
s54.167 -62 94.5 -79s90.5 -25.5 150.5 -25.5zM642 1846l251 -310h-270l-314 310h333z" />
    <glyph glyph-name="Uacute" unicode="&#xda;" horiz-adv-x="1477" 
d="M739 249c60 0 110 8.5 150 25.5s71.333 43.333 94 79s38.5 77.167 47.5 124.5s13.5 105 13.5 173v783h333v-783c0 -460.667 -212.667 -691 -638 -691c-426 0 -639 230.333 -639 691v783h333v-783c0 -68 4.5 -125.667 13.5 -173s24.833 -88.833 47.5 -124.5
s54.167 -62 94.5 -79s90.5 -25.5 150.5 -25.5zM589 1536l251 310h333l-314 -310h-270z" />
    <glyph glyph-name="Ucircumflex" unicode="&#xdb;" horiz-adv-x="1477" 
d="M739 249c60 0 110 8.5 150 25.5s71.333 43.333 94 79s38.5 77.167 47.5 124.5s13.5 105 13.5 173v783h333v-783c0 -460.667 -212.667 -691 -638 -691c-426 0 -639 230.333 -639 691v783h333v-783c0 -68 4.5 -125.667 13.5 -173s24.833 -88.833 47.5 -124.5
s54.167 -62 94.5 -79s90.5 -25.5 150.5 -25.5zM841 1827l301 -291h-248l-156 109l-156 -109h-248l301 291h206z" />
    <glyph glyph-name="Udieresis" unicode="&#xdc;" horiz-adv-x="1477" 
d="M739 249c60 0 110 8.5 150 25.5s71.333 43.333 94 79s38.5 77.167 47.5 124.5s13.5 105 13.5 173v783h333v-783c0 -460.667 -212.667 -691 -638 -691c-426 0 -639 230.333 -639 691v783h333v-783c0 -68 4.5 -125.667 13.5 -173s24.833 -88.833 47.5 -124.5
s54.167 -62 94.5 -79s90.5 -25.5 150.5 -25.5zM328 1698c0 47.333 16.833 87.833 50.5 121.5s74.167 50.5 121.5 50.5s87.833 -16.833 121.5 -50.5s50.5 -74.167 50.5 -121.5s-16.833 -87.833 -50.5 -121.5s-74.167 -50.5 -121.5 -50.5s-87.833 16.833 -121.5 50.5
s-50.5 74.167 -50.5 121.5zM805 1698c0 47.333 16.833 87.833 50.5 121.5s74.167 50.5 121.5 50.5s87.833 -16.833 121.5 -50.5s50.5 -74.167 50.5 -121.5s-16.833 -87.833 -50.5 -121.5s-74.167 -50.5 -121.5 -50.5s-87.833 16.833 -121.5 50.5s-50.5 74.167 -50.5 121.5z
" />
    <glyph glyph-name="Yacute" unicode="&#xdd;" horiz-adv-x="1464" 
d="M392 1434l340 -542l340 542h382l-555 -858v-576h-334v576l-555 858h382zM579 1536l251 310h333l-314 -310h-270z" />
    <glyph glyph-name="Thorn" unicode="&#xde;" horiz-adv-x="1166" 
d="M100 0v1434h333v-271h208c78 0 147 -11.333 207 -34s108.5 -54.167 145.5 -94.5s65 -87.166 84 -140.499s28.5 -112.333 28.5 -177s-9.5 -123.667 -28.5 -177s-47 -100.166 -84 -140.499s-85.5 -71.833 -145.5 -94.5s-129 -34 -207 -34h-208v-271h-333zM641 873.998h-208
v-314h208c46.667 0 80.334 14.667 101.001 44s31 67 31 113s-10.333 83.667 -31 113s-54.334 44 -101.001 44z" />
    <glyph glyph-name="germandbls" unicode="&#xdf;" horiz-adv-x="1372" 
d="M428 861l-0.000976562 -860.995h-328v861c0 78 7.16699 148.333 21.5 211s32.5 114.5 54.5 155.5s50 76.667 84 107s67.167 53.666 99.5 69.999s69.5 29.166 111.5 38.499s78.5 15.166 109.5 17.499s65.5 3.5 103.5 3.5c112.667 0 211.834 -15.333 297.501 -46
s154 -78.167 205 -142.5s76.5 -142.5 76.5 -234.5c0 -72 -20.833 -135.5 -62.5 -190.5s-92.5 -92.167 -152.5 -111.5c76 -21.333 139 -60.833 189 -118.5s75 -128.167 75 -211.5c0 -63.333 -9.33301 -120 -28 -170s-44.167 -91.667 -76.5 -125s-71.666 -61 -117.999 -83
s-96 -37.667 -149 -47s-110.833 -14 -173.5 -14c-100.667 0 -184.334 14 -251.001 42v260c77.333 -33.333 161 -50 251 -50c77.333 0 132.833 18 166.5 54s50.5 83.667 50.5 143c0 68.667 -22.167 118.167 -66.5 148.5s-102.166 45.5 -173.499 45.5h-165v252h161
c63.333 1.33301 111.666 17.666 144.999 48.999s50 73.666 50 126.999c0 54 -21.833 96 -65.5 126s-105.5 45 -185.5 45c-39.333 0 -73 -4.33301 -101 -13s-54.5 -25 -79.5 -49s-43.833 -60 -56.5 -108s-19 -108.333 -19 -181z" />
    <glyph glyph-name="agrave" unicode="&#xe0;" horiz-adv-x="1194" 
d="M60 319c0 51.333 9.49902 97.499 28.499 138.499s45 74.667 78 101s72 48.833 117 67.5s93.667 31.334 146 38.001s107.166 11 164.499 13s114.666 -0.333008 171.999 -7c0 25.333 -2 46.166 -6 62.499s-12.167 31.5 -24.5 45.5s-31 24.167 -56 30.5
s-57.167 9.5 -96.5 9.5c-116 0 -225.333 -21.667 -328 -65l-109 210c66 33.333 140 57.833 222 73.5s160.333 23.5 235 23.5c95.333 0 175 -8.83301 239 -26.5s114.5 -45 151.5 -82s63 -80.667 78 -131s22.5 -112.166 22.5 -185.499v-635h-329v135
c-48 -106 -151.333 -159 -310 -159c-53.333 0 -103.166 6.66699 -149.499 20s-88.166 33.333 -125.499 60s-66.666 62.5 -87.999 107.5s-32 96.833 -32 155.5zM387.999 348.999c0 -37.333 12 -66.832 36 -88.499s61 -32.5 111 -32.5c70.667 0 126.667 16.667 168 50
s62 73.666 62 120.999v89c-25.333 0.666992 -53.833 1.66699 -85.5 3s-64.667 -0.666992 -99 -6s-65.833 -12.5 -94.5 -21.5s-52.167 -23.333 -70.5 -43s-27.5 -43.5 -27.5 -71.5zM503.999 1434l251 -310h-270l-314 310h333z" />
    <glyph glyph-name="aacute" unicode="&#xe1;" horiz-adv-x="1194" 
d="M60 319c0 51.333 9.49902 97.499 28.499 138.499s45 74.667 78 101s72 48.833 117 67.5s93.667 31.334 146 38.001s107.166 11 164.499 13s114.666 -0.333008 171.999 -7c0 25.333 -2 46.166 -6 62.499s-12.167 31.5 -24.5 45.5s-31 24.167 -56 30.5
s-57.167 9.5 -96.5 9.5c-116 0 -225.333 -21.667 -328 -65l-109 210c66 33.333 140 57.833 222 73.5s160.333 23.5 235 23.5c95.333 0 175 -8.83301 239 -26.5s114.5 -45 151.5 -82s63 -80.667 78 -131s22.5 -112.166 22.5 -185.499v-635h-329v135
c-48 -106 -151.333 -159 -310 -159c-53.333 0 -103.166 6.66699 -149.499 20s-88.166 33.333 -125.499 60s-66.666 62.5 -87.999 107.5s-32 96.833 -32 155.5zM387.999 348.999c0 -37.333 12 -66.832 36 -88.499s61 -32.5 111 -32.5c70.667 0 126.667 16.667 168 50
s62 73.666 62 120.999v89c-25.333 0.666992 -53.833 1.66699 -85.5 3s-64.667 -0.666992 -99 -6s-65.833 -12.5 -94.5 -21.5s-52.167 -23.333 -70.5 -43s-27.5 -43.5 -27.5 -71.5zM475.999 1124l251 310h333l-314 -310h-270z" />
    <glyph glyph-name="acircumflex" unicode="&#xe2;" horiz-adv-x="1194" 
d="M60 319c0 51.333 9.49902 97.499 28.499 138.499s45 74.667 78 101s72 48.833 117 67.5s93.667 31.334 146 38.001s107.166 11 164.499 13s114.666 -0.333008 171.999 -7c0 25.333 -2 46.166 -6 62.499s-12.167 31.5 -24.5 45.5s-31 24.167 -56 30.5
s-57.167 9.5 -96.5 9.5c-116 0 -225.333 -21.667 -328 -65l-109 210c66 33.333 140 57.833 222 73.5s160.333 23.5 235 23.5c95.333 0 175 -8.83301 239 -26.5s114.5 -45 151.5 -82s63 -80.667 78 -131s22.5 -112.166 22.5 -185.499v-635h-329v135
c-48 -106 -151.333 -159 -310 -159c-53.333 0 -103.166 6.66699 -149.499 20s-88.166 33.333 -125.499 60s-66.666 62.5 -87.999 107.5s-32 96.833 -32 155.5zM387.999 348.999c0 -37.333 12 -66.832 36 -88.499s61 -32.5 111 -32.5c70.667 0 126.667 16.667 168 50
s62 73.666 62 120.999v89c-25.333 0.666992 -53.833 1.66699 -85.5 3s-64.667 -0.666992 -99 -6s-65.833 -12.5 -94.5 -21.5s-52.167 -23.333 -70.5 -43s-27.5 -43.5 -27.5 -71.5zM723.999 1434l301 -291h-248l-156 109l-156 -109h-248l301 291h206z" />
    <glyph glyph-name="atilde" unicode="&#xe3;" horiz-adv-x="1194" 
d="M60 319c0 51.333 9.49902 97.499 28.499 138.499s45 74.667 78 101s72 48.833 117 67.5s93.667 31.334 146 38.001s107.166 11 164.499 13s114.666 -0.333008 171.999 -7c0 25.333 -2 46.166 -6 62.499s-12.167 31.5 -24.5 45.5s-31 24.167 -56 30.5
s-57.167 9.5 -96.5 9.5c-116 0 -225.333 -21.667 -328 -65l-109 210c66 33.333 140 57.833 222 73.5s160.333 23.5 235 23.5c95.333 0 175 -8.83301 239 -26.5s114.5 -45 151.5 -82s63 -80.667 78 -131s22.5 -112.166 22.5 -185.499v-635h-329v135
c-48 -106 -151.333 -159 -310 -159c-53.333 0 -103.166 6.66699 -149.499 20s-88.166 33.333 -125.499 60s-66.666 62.5 -87.999 107.5s-32 96.833 -32 155.5zM387.999 348.999c0 -37.333 12 -66.832 36 -88.499s61 -32.5 111 -32.5c70.667 0 126.667 16.667 168 50
s62 73.666 62 120.999v89c-25.333 0.666992 -53.833 1.66699 -85.5 3s-64.667 -0.666992 -99 -6s-65.833 -12.5 -94.5 -21.5s-52.167 -23.333 -70.5 -43s-27.5 -43.5 -27.5 -71.5zM595.999 1207c-36 30.667 -66.999 46.001 -92.999 46.001c-24 0 -42 -13 -54 -39
c-5.33301 -13.333 -9 -26.333 -11 -39h-205c3.33301 52 14.333 98.333 33 139c43.333 93.333 120.666 140 231.999 140c58 0 109.667 -18 155 -54c36 -30.667 67 -46 93 -46c24 0 42 13 54 39c5.33301 12 9 25 11 39h205c-2.66699 -50.667 -14 -97.334 -34 -140.001
c-42.667 -92.667 -119.667 -139 -231 -139c-58 0 -109.667 18 -155 54z" />
    <glyph glyph-name="adieresis" unicode="&#xe4;" horiz-adv-x="1194" 
d="M60 319c0 51.333 9.49902 97.499 28.499 138.499s45 74.667 78 101s72 48.833 117 67.5s93.667 31.334 146 38.001s107.166 11 164.499 13s114.666 -0.333008 171.999 -7c0 25.333 -2 46.166 -6 62.499s-12.167 31.5 -24.5 45.5s-31 24.167 -56 30.5
s-57.167 9.5 -96.5 9.5c-116 0 -225.333 -21.667 -328 -65l-109 210c66 33.333 140 57.833 222 73.5s160.333 23.5 235 23.5c95.333 0 175 -8.83301 239 -26.5s114.5 -45 151.5 -82s63 -80.667 78 -131s22.5 -112.166 22.5 -185.499v-635h-329v135
c-48 -106 -151.333 -159 -310 -159c-53.333 0 -103.166 6.66699 -149.499 20s-88.166 33.333 -125.499 60s-66.666 62.5 -87.999 107.5s-32 96.833 -32 155.5zM387.999 348.999c0 -37.333 12 -66.832 36 -88.499s61 -32.5 111 -32.5c70.667 0 126.667 16.667 168 50
s62 73.666 62 120.999v89c-25.333 0.666992 -53.833 1.66699 -85.5 3s-64.667 -0.666992 -99 -6s-65.833 -12.5 -94.5 -21.5s-52.167 -23.333 -70.5 -43s-27.5 -43.5 -27.5 -71.5zM225.999 1334c0 47.333 16.833 87.833 50.5 121.5s74.167 50.5 121.5 50.5
s87.833 -16.833 121.5 -50.5s50.5 -74.167 50.5 -121.5s-16.833 -87.833 -50.5 -121.5s-74.167 -50.5 -121.5 -50.5s-87.833 16.833 -121.5 50.5s-50.5 74.167 -50.5 121.5zM702.999 1334c0 47.333 16.833 87.833 50.5 121.5s74.167 50.5 121.5 50.5
s87.833 -16.833 121.5 -50.5s50.5 -74.167 50.5 -121.5s-16.833 -87.833 -50.5 -121.5s-74.167 -50.5 -121.5 -50.5s-87.833 16.833 -121.5 50.5s-50.5 74.167 -50.5 121.5z" />
    <glyph glyph-name="aring" unicode="&#xe5;" horiz-adv-x="1194" 
d="M60 319c0 51.333 9.49902 97.499 28.499 138.499s45 74.667 78 101s72 48.833 117 67.5s93.667 31.334 146 38.001s107.166 11 164.499 13s114.666 -0.333008 171.999 -7c0 25.333 -2 46.166 -6 62.499s-12.167 31.5 -24.5 45.5s-31 24.167 -56 30.5
s-57.167 9.5 -96.5 9.5c-116 0 -225.333 -21.667 -328 -65l-109 210c66 33.333 140 57.833 222 73.5s160.333 23.5 235 23.5c95.333 0 175 -8.83301 239 -26.5s114.5 -45 151.5 -82s63 -80.667 78 -131s22.5 -112.166 22.5 -185.499v-635h-329v135
c-48 -106 -151.333 -159 -310 -159c-53.333 0 -103.166 6.66699 -149.499 20s-88.166 33.333 -125.499 60s-66.666 62.5 -87.999 107.5s-32 96.833 -32 155.5zM387.999 348.999c0 -37.333 12 -66.832 36 -88.499s61 -32.5 111 -32.5c70.667 0 126.667 16.667 168 50
s62 73.666 62 120.999v89c-25.333 0.666992 -53.833 1.66699 -85.5 3s-64.667 -0.666992 -99 -6s-65.833 -12.5 -94.5 -21.5s-52.167 -23.333 -70.5 -43s-27.5 -43.5 -27.5 -71.5zM395.999 1370c0 68 24 126 72 174s106 72 174 72s126 -24 174 -72s72 -106 72 -174
s-24 -126 -72 -174s-106 -72 -174 -72s-126 24 -174 72s-72 106 -72 174zM557.999 1370c0 -23.333 8.16699 -43.166 24.5 -59.499s36.166 -24.5 59.499 -24.5s43.166 8.16699 59.499 24.5s24.5 36.166 24.5 59.499s-8.16699 43.166 -24.5 59.499s-36.166 24.5 -59.499 24.5
s-43.166 -8.16699 -59.499 -24.5s-24.5 -36.166 -24.5 -59.499z" />
    <glyph glyph-name="ae" unicode="&#xe6;" horiz-adv-x="1951" 
d="M1664 306l161.996 -184.001c-126 -101.333 -289.667 -152 -491 -152c-174 0 -310.333 45 -409 135c-128 -86 -285 -129 -471 -129c-53.333 0 -103.166 6.66699 -149.499 20s-88.166 33.333 -125.499 60s-66.666 62.5 -87.999 107.5s-32 96.833 -32 155.5
c0 51.333 9.5 97.5 28.5 138.5s45 74.667 78 101s72 48.833 117 67.5s93.667 31.334 146 38.001s107.166 11 164.499 13s114.666 -0.333008 171.999 -7c0 25.333 -2 46.166 -6 62.499s-12.167 31.5 -24.5 45.5s-31 24.167 -56 30.5s-57.167 9.5 -96.5 9.5
c-116 0 -225.333 -21.667 -328 -65l-109 210c66 33.333 140 57.833 222 73.5s160.333 23.5 235 23.5c175.333 0 301 -32 377 -96c94 64 212.333 96 355 96c194.667 0 340 -58.667 436 -176s134 -280.666 114 -489.999h-779c0 -23.333 3.83301 -45.333 11.5 -66
s19.834 -40 36.501 -58s40.334 -32.167 71.001 -42.5s67.334 -15.5 110.001 -15.5c131.333 0 241 31.333 329 94zM387.996 348.999c0 -37.333 12 -66.832 36 -88.499s61 -32.5 111 -32.5c70.667 0 126.667 16.667 168 50s62 73.666 62 120.999v89
c-25.333 0.666992 -53.833 1.66699 -85.5 3s-64.667 -0.666992 -99 -6s-65.833 -12.5 -94.5 -21.5s-52.167 -23.333 -70.5 -43s-27.5 -43.5 -27.5 -71.5zM1107 606h455.998c0 24.667 -3.66699 48.5 -11 71.5s-19.166 45.5 -35.499 67.5s-40 39.667 -71 53
s-67.833 20 -110.5 20s-79.5 -6.66699 -110.5 -20s-54.667 -31 -71 -53s-28.166 -44.5 -35.499 -67.5s-11 -46.833 -11 -71.5z" />
    <glyph glyph-name="ccedilla" unicode="&#xe7;" horiz-adv-x="1153" 
d="M391 -497l52.999 127.004c20 -8.66699 44.5 -15.834 73.5 -21.501s58.833 -8.5 89.5 -8.5s57.5 7 80.5 21s35.833 35 38.5 63c2 14.667 -0.666992 27.167 -8 37.5s-18.666 17.666 -33.999 21.999s-31.333 7.5 -48 9.5s-36.667 2.16699 -60 0.5s-43.5 -3.5 -60.5 -5.5
s-36.167 -4.66699 -57.5 -8l77 240c-146.667 24 -262.5 83.667 -347.5 179s-127.5 214 -127.5 356c0 162.667 55.167 294.167 165.5 394.5s257.166 150.5 440.499 150.5c197.333 0 346.333 -54.667 447 -164l-157 -191c-82.667 68.667 -179.334 103 -290.001 103
c-86 0 -153.833 -26.333 -203.5 -79s-74.5 -124 -74.5 -214s24.833 -161.333 74.5 -214s117.5 -79 203.5 -79c110.667 0 207.334 34.333 290.001 103l157 -191c-91.333 -98.667 -222 -152.667 -392 -162l-31 -97c31.333 -0.666992 60.5 -5.33398 87.5 -14.001
s51 -20.834 72 -36.501s36.833 -36.167 47.5 -61.5s14.667 -54 12 -86c-4 -49.333 -19.333 -90.833 -46 -124.5s-59.5 -57.5 -98.5 -71.5s-81.5 -22 -127.5 -24s-90.167 1.16699 -132.5 9.5s-80.166 20.5 -113.499 36.5z" />
    <glyph glyph-name="egrave" unicode="&#xe8;" horiz-adv-x="1246" 
d="M959 306l161.997 -183.998c-126 -101.333 -289.667 -152 -491 -152c-99.333 0 -186.666 15 -261.999 45s-134.833 70.833 -178.5 122.5s-76.167 109.167 -97.5 172.5s-32 131.666 -32 204.999c0 58 6.66699 113.167 20 165.5s35 101.666 65 147.999
s66.667 86.666 110 120.999s97.166 61.333 161.499 81s135.5 29.5 213.5 29.5c194.667 0 340 -58.667 436 -176s134 -280.666 114 -489.999h-779c0 -23.333 3.83301 -45.333 11.5 -66s19.834 -40 36.501 -58s40.334 -32.167 71.001 -42.5s67.334 -15.5 110.001 -15.5
c131.333 0 241 31.333 329 94zM401.997 606.002h455.998c0 24.667 -3.66699 48.5 -11 71.5s-19.166 45.5 -35.499 67.5s-40 39.667 -71 53s-67.833 20 -110.5 20s-79.5 -6.66699 -110.5 -20s-54.667 -31 -71 -53s-28.166 -44.5 -35.499 -67.5s-11 -46.833 -11 -71.5z
M528.995 1434l251 -310h-270l-314 310h333z" />
    <glyph glyph-name="eacute" unicode="&#xe9;" horiz-adv-x="1246" 
d="M959 306l161.997 -183.998c-126 -101.333 -289.667 -152 -491 -152c-99.333 0 -186.666 15 -261.999 45s-134.833 70.833 -178.5 122.5s-76.167 109.167 -97.5 172.5s-32 131.666 -32 204.999c0 58 6.66699 113.167 20 165.5s35 101.666 65 147.999
s66.667 86.666 110 120.999s97.166 61.333 161.499 81s135.5 29.5 213.5 29.5c194.667 0 340 -58.667 436 -176s134 -280.666 114 -489.999h-779c0 -23.333 3.83301 -45.333 11.5 -66s19.834 -40 36.501 -58s40.334 -32.167 71.001 -42.5s67.334 -15.5 110.001 -15.5
c131.333 0 241 31.333 329 94zM401.997 606.002h455.998c0 24.667 -3.66699 48.5 -11 71.5s-19.166 45.5 -35.499 67.5s-40 39.667 -71 53s-67.833 20 -110.5 20s-79.5 -6.66699 -110.5 -20s-54.667 -31 -71 -53s-28.166 -44.5 -35.499 -67.5s-11 -46.833 -11 -71.5z
M481.995 1124l251 310h333l-314 -310h-270z" />
    <glyph glyph-name="ecircumflex" unicode="&#xea;" horiz-adv-x="1246" 
d="M959 306l161.997 -183.998c-126 -101.333 -289.667 -152 -491 -152c-99.333 0 -186.666 15 -261.999 45s-134.833 70.833 -178.5 122.5s-76.167 109.167 -97.5 172.5s-32 131.666 -32 204.999c0 58 6.66699 113.167 20 165.5s35 101.666 65 147.999
s66.667 86.666 110 120.999s97.166 61.333 161.499 81s135.5 29.5 213.5 29.5c194.667 0 340 -58.667 436 -176s134 -280.666 114 -489.999h-779c0 -23.333 3.83301 -45.333 11.5 -66s19.834 -40 36.501 -58s40.334 -32.167 71.001 -42.5s67.334 -15.5 110.001 -15.5
c131.333 0 241 31.333 329 94zM401.997 606.002h455.998c0 24.667 -3.66699 48.5 -11 71.5s-19.166 45.5 -35.499 67.5s-40 39.667 -71 53s-67.833 20 -110.5 20s-79.5 -6.66699 -110.5 -20s-54.667 -31 -71 -53s-28.166 -44.5 -35.499 -67.5s-11 -46.833 -11 -71.5z
M736.995 1434l301 -291h-248l-156 109l-156 -109h-248l301 291h206z" />
    <glyph glyph-name="edieresis" unicode="&#xeb;" horiz-adv-x="1246" 
d="M959 306l161.997 -183.998c-126 -101.333 -289.667 -152 -491 -152c-99.333 0 -186.666 15 -261.999 45s-134.833 70.833 -178.5 122.5s-76.167 109.167 -97.5 172.5s-32 131.666 -32 204.999c0 58 6.66699 113.167 20 165.5s35 101.666 65 147.999
s66.667 86.666 110 120.999s97.166 61.333 161.499 81s135.5 29.5 213.5 29.5c194.667 0 340 -58.667 436 -176s134 -280.666 114 -489.999h-779c0 -23.333 3.83301 -45.333 11.5 -66s19.834 -40 36.501 -58s40.334 -32.167 71.001 -42.5s67.334 -15.5 110.001 -15.5
c131.333 0 241 31.333 329 94zM401.997 606.002h455.998c0 24.667 -3.66699 48.5 -11 71.5s-19.166 45.5 -35.499 67.5s-40 39.667 -71 53s-67.833 20 -110.5 20s-79.5 -6.66699 -110.5 -20s-54.667 -31 -71 -53s-28.166 -44.5 -35.499 -67.5s-11 -46.833 -11 -71.5z
M223.995 1334c0 47.333 16.833 87.833 50.5 121.5s74.167 50.5 121.5 50.5s87.833 -16.833 121.5 -50.5s50.5 -74.167 50.5 -121.5s-16.833 -87.833 -50.5 -121.5s-74.167 -50.5 -121.5 -50.5s-87.833 16.833 -121.5 50.5s-50.5 74.167 -50.5 121.5zM700.995 1334
c0 47.333 16.833 87.833 50.5 121.5s74.167 50.5 121.5 50.5s87.833 -16.833 121.5 -50.5s50.5 -74.167 50.5 -121.5s-16.833 -87.833 -50.5 -121.5s-74.167 -50.5 -121.5 -50.5s-87.833 16.833 -121.5 50.5s-50.5 74.167 -50.5 121.5z" />
    <glyph glyph-name="igrave" unicode="&#xec;" horiz-adv-x="624" 
d="M196 0v1030h328v-1030h-328zM253 1434l251 -310h-270l-314 310h333z" />
    <glyph glyph-name="iacute" unicode="&#xed;" horiz-adv-x="718" 
d="M100 0v1030h328v-1030h-328zM124 1124l251 310h333l-314 -310h-270z" />
    <glyph glyph-name="icircumflex" unicode="&#xee;" horiz-adv-x="708" 
d="M190 0v1030h328v-1030h-328zM457 1434l301 -291h-248l-156 109l-156 -109h-248l301 291h206z" />
    <glyph glyph-name="idieresis" unicode="&#xef;" horiz-adv-x="781" 
d="M226 0v1030h328v-1030h-328zM-20 1334c0 47.333 16.833 87.833 50.5 121.5s74.167 50.5 121.5 50.5s87.833 -16.833 121.5 -50.5s50.5 -74.167 50.5 -121.5s-16.833 -87.833 -50.5 -121.5s-74.167 -50.5 -121.5 -50.5s-87.833 16.833 -121.5 50.5
s-50.5 74.167 -50.5 121.5zM457 1334c0 47.333 16.833 87.833 50.5 121.5s74.167 50.5 121.5 50.5s87.833 -16.833 121.5 -50.5s50.5 -74.167 50.5 -121.5s-16.833 -87.833 -50.5 -121.5s-74.167 -50.5 -121.5 -50.5s-87.833 16.833 -121.5 50.5s-50.5 74.167 -50.5 121.5z
" />
    <glyph glyph-name="eth" unicode="&#xf0;" horiz-adv-x="1314" 
d="M599 1095l-127 169l76 57c-54 18.667 -116.667 33 -188 43l76 244c39.333 -2 90.833 -11.5 154.5 -28.5s128.5 -43.167 194.5 -78.5l164 124l128 -169l-109 -83c147.333 -138 232 -311 254 -519c16.667 -152.667 15 -285.667 -5 -399s-57 -205.333 -111 -276
s-121.667 -123.167 -203 -157.5s-177 -51.5 -287 -51.5c-169.333 0 -304.333 48.5 -405 145.5s-151 230.167 -151 399.5s47.667 302.5 143 399.5s223 145.5 383 145.5c78 0 145.5 -15.167 202.5 -45.5s102.167 -70.5 135.5 -120.5c-8 126.667 -64.333 232.667 -169 318z
M924 515c0 86.667 -23.5 157.167 -70.5 211.5s-112.833 81.5 -197.5 81.5s-150.5 -27.167 -197.5 -81.5s-70.5 -124.833 -70.5 -211.5s23.5 -157.167 70.5 -211.5s112.833 -81.5 197.5 -81.5s150.5 27.167 197.5 81.5s70.5 124.833 70.5 211.5z" />
    <glyph glyph-name="ntilde" unicode="&#xf1;" 
d="M428 534l-0.000976562 -534h-328v1030h328v-109c60.667 92.667 152.334 139 275.001 139c164.667 0 284.667 -45 360 -135s113 -220.333 113 -391v-534h-328v534c0 90 -16 158.167 -48 204.5s-86 69.5 -162 69.5s-130 -23.167 -162 -69.5s-48 -114.5 -48 -204.5z
M609.999 1207c-36 30.667 -66.999 46.001 -92.999 46.001c-24 0 -42 -13 -54 -39c-5.33301 -13.333 -9 -26.333 -11 -39h-205c3.33301 52 14.333 98.333 33 139c43.333 93.333 120.666 140 231.999 140c58 0 109.667 -18 155 -54c36 -30.667 67 -46 93 -46c24 0 42 13 54 39
c5.33301 12 9 25 11 39h205c-2.66699 -50.667 -14 -97.334 -34 -140.001c-42.667 -92.667 -119.667 -139 -231 -139c-58 0 -109.667 18 -155 54z" />
    <glyph glyph-name="ograve" unicode="&#xf2;" horiz-adv-x="1332" 
d="M666 -30c-182.667 0 -329.33 50.333 -439.997 151s-166 232 -166 394c0 162.667 55.167 294.167 165.5 394.5s257.166 150.5 440.499 150.5s330.166 -50.167 440.499 -150.5s165.5 -231.833 165.5 -394.5c0 -162 -55.333 -293.333 -166 -394s-257.334 -151 -440.001 -151
zM666.004 222c89.333 0 158 27 206 81s72 124.667 72 212s-24 158 -72 212s-116.667 81 -206 81s-158 -27 -206 -81s-72 -124.667 -72 -212s24 -158 72 -212s116.667 -81 206 -81zM556.004 1434l251 -310h-270l-314 310h333z" />
    <glyph glyph-name="oacute" unicode="&#xf3;" horiz-adv-x="1332" 
d="M666 -30c-182.667 0 -329.33 50.333 -439.997 151s-166 232 -166 394c0 162.667 55.167 294.167 165.5 394.5s257.166 150.5 440.499 150.5s330.166 -50.167 440.499 -150.5s165.5 -231.833 165.5 -394.5c0 -162 -55.333 -293.333 -166 -394s-257.334 -151 -440.001 -151
zM666.004 222c89.333 0 158 27 206 81s72 124.667 72 212s-24 158 -72 212s-116.667 81 -206 81s-158 -27 -206 -81s-72 -124.667 -72 -212s24 -158 72 -212s116.667 -81 206 -81zM539.004 1124l251 310h333l-314 -310h-270z" />
    <glyph glyph-name="ocircumflex" unicode="&#xf4;" horiz-adv-x="1332" 
d="M666 -30c-182.667 0 -329.33 50.333 -439.997 151s-166 232 -166 394c0 162.667 55.167 294.167 165.5 394.5s257.166 150.5 440.499 150.5s330.166 -50.167 440.499 -150.5s165.5 -231.833 165.5 -394.5c0 -162 -55.333 -293.333 -166 -394s-257.334 -151 -440.001 -151
zM666.004 222c89.333 0 158 27 206 81s72 124.667 72 212s-24 158 -72 212s-116.667 81 -206 81s-158 -27 -206 -81s-72 -124.667 -72 -212s24 -158 72 -212s116.667 -81 206 -81zM769.004 1434l301 -291h-248l-156 109l-156 -109h-248l301 291h206z" />
    <glyph glyph-name="otilde" unicode="&#xf5;" horiz-adv-x="1332" 
d="M666 -30c-182.667 0 -329.33 50.333 -439.997 151s-166 232 -166 394c0 162.667 55.167 294.167 165.5 394.5s257.166 150.5 440.499 150.5s330.166 -50.167 440.499 -150.5s165.5 -231.833 165.5 -394.5c0 -162 -55.333 -293.333 -166 -394s-257.334 -151 -440.001 -151
zM666.004 222c89.333 0 158 27 206 81s72 124.667 72 212s-24 158 -72 212s-116.667 81 -206 81s-158 -27 -206 -81s-72 -124.667 -72 -212s24 -158 72 -212s116.667 -81 206 -81zM638.004 1207c-36 30.667 -66.999 46.001 -92.999 46.001c-24 0 -42 -13 -54 -39
c-5.33301 -13.333 -9 -26.333 -11 -39h-205c3.33301 52 14.333 98.333 33 139c43.333 93.333 120.666 140 231.999 140c58 0 109.667 -18 155 -54c36 -30.667 67 -46 93 -46c24 0 42 13 54 39c5.33301 12 9 25 11 39h205c-2.66699 -50.667 -14 -97.334 -34 -140.001
c-42.667 -92.667 -119.667 -139 -231 -139c-58 0 -109.667 18 -155 54z" />
    <glyph glyph-name="odieresis" unicode="&#xf6;" horiz-adv-x="1332" 
d="M666 -30c-182.667 0 -329.33 50.333 -439.997 151s-166 232 -166 394c0 162.667 55.167 294.167 165.5 394.5s257.166 150.5 440.499 150.5s330.166 -50.167 440.499 -150.5s165.5 -231.833 165.5 -394.5c0 -162 -55.333 -293.333 -166 -394s-257.334 -151 -440.001 -151
zM666.004 222c89.333 0 158 27 206 81s72 124.667 72 212s-24 158 -72 212s-116.667 81 -206 81s-158 -27 -206 -81s-72 -124.667 -72 -212s24 -158 72 -212s116.667 -81 206 -81zM256.004 1314c0 47.333 16.833 87.833 50.5 121.5s74.167 50.5 121.5 50.5
s87.833 -16.833 121.5 -50.5s50.5 -74.167 50.5 -121.5s-16.833 -87.833 -50.5 -121.5s-74.167 -50.5 -121.5 -50.5s-87.833 16.833 -121.5 50.5s-50.5 74.167 -50.5 121.5zM733.004 1314c0 47.333 16.833 87.833 50.5 121.5s74.167 50.5 121.5 50.5
s87.833 -16.833 121.5 -50.5s50.5 -74.167 50.5 -121.5s-16.833 -87.833 -50.5 -121.5s-74.167 -50.5 -121.5 -50.5s-87.833 16.833 -121.5 50.5s-50.5 74.167 -50.5 121.5z" />
    <glyph glyph-name="divide" unicode="&#xf7;" horiz-adv-x="1090" 
d="M80 534v289h930v-289h-930zM369 1059c0 48 17.333 89.333 52 124s76 52 124 52s89.333 -17.333 124 -52s52 -76 52 -124s-17.333 -89.333 -52 -124s-76 -52 -124 -52s-89.333 17.333 -124 52s-52 76 -52 124zM369 298c0 48 17.333 89.333 52 124s76 52 124 52
s89.333 -17.333 124 -52s52 -76 52 -124s-17.333 -89.333 -52 -124s-76 -52 -124 -52s-89.333 17.333 -124 52s-52 76 -52 124z" />
    <glyph glyph-name="oslash" unicode="&#xf8;" horiz-adv-x="1332" 
d="M666 -30c-41.333 0 -81.665 2.99902 -120.998 8.99902l-19 -40h-282l60 123c-78.667 48 -139 110.833 -181 188.5s-63 165.834 -63 264.501c0 162.667 55.167 294.167 165.5 394.5s257.166 150.5 440.499 150.5c42 0 82 -3 120 -9l20 40h282l-61 -124
c78.667 -48 139.167 -110.667 181.5 -188s63.5 -165.333 63.5 -264c0 -162 -55.333 -293.333 -166 -394s-257.334 -151 -440.001 -151zM664.001 221.999l2 0.000976562c89.333 0 158 27 206 81s72 124.667 72 212c0 71.333 -16.333 131.666 -49 180.999zM388.001 515
c0 -71.333 16 -131.667 48 -181l232 474h-2c-89.333 0 -158 -27 -206 -81s-72 -124.667 -72 -212z" />
    <glyph glyph-name="ugrave" unicode="&#xf9;" 
d="M848 496l0.000976562 534h328v-1030h-328v109c-60.667 -92.667 -152.334 -139 -275.001 -139c-164.667 0 -284.667 45 -360 135s-113 220.333 -113 391v534h328v-534c0 -90 16 -158.167 48 -204.5s86 -69.5 162 -69.5s130 23.167 162 69.5s48 114.5 48 204.5z
M541.001 1434l251 -310h-270l-314 310h333z" />
    <glyph glyph-name="uacute" unicode="&#xfa;" 
d="M848 496l0.000976562 534h328v-1030h-328v109c-60.667 -92.667 -152.334 -139 -275.001 -139c-164.667 0 -284.667 45 -360 135s-113 220.333 -113 391v534h328v-534c0 -90 16 -158.167 48 -204.5s86 -69.5 162 -69.5s130 23.167 162 69.5s48 114.5 48 204.5z
M487.001 1124l251 310h333l-314 -310h-270z" />
    <glyph glyph-name="ucircumflex" unicode="&#xfb;" 
d="M848 496l0.000976562 534h328v-1030h-328v109c-60.667 -92.667 -152.334 -139 -275.001 -139c-164.667 0 -284.667 45 -360 135s-113 220.333 -113 391v534h328v-534c0 -90 16 -158.167 48 -204.5s86 -69.5 162 -69.5s130 23.167 162 69.5s48 114.5 48 204.5z
M741.001 1434l301 -291h-248l-156 109l-156 -109h-248l301 291h206z" />
    <glyph glyph-name="udieresis" unicode="&#xfc;" 
d="M848 496l0.000976562 534h328v-1030h-328v109c-60.667 -92.667 -152.334 -139 -275.001 -139c-164.667 0 -284.667 45 -360 135s-113 220.333 -113 391v534h328v-534c0 -90 16 -158.167 48 -204.5s86 -69.5 162 -69.5s130 23.167 162 69.5s48 114.5 48 204.5z
M229.001 1334c0 47.333 16.833 87.833 50.5 121.5s74.167 50.5 121.5 50.5s87.833 -16.833 121.5 -50.5s50.5 -74.167 50.5 -121.5s-16.833 -87.833 -50.5 -121.5s-74.167 -50.5 -121.5 -50.5s-87.833 16.833 -121.5 50.5s-50.5 74.167 -50.5 121.5zM706.001 1334
c0 47.333 16.833 87.833 50.5 121.5s74.167 50.5 121.5 50.5s87.833 -16.833 121.5 -50.5s50.5 -74.167 50.5 -121.5s-16.833 -87.833 -50.5 -121.5s-74.167 -50.5 -121.5 -50.5s-87.833 16.833 -121.5 50.5s-50.5 74.167 -50.5 121.5z" />
    <glyph glyph-name="yacute" unicode="&#xfd;" horiz-adv-x="1196" 
d="M352 1030l246.001 -671.999l246 672h342l-441 -1030l-123 -289c-16.667 -38 -34 -70.5 -52 -97.5s-40.333 -52.167 -67 -75.5s-58.834 -40.833 -96.501 -52.5s-81.167 -17.5 -130.5 -17.5c-95.333 0 -174.333 16.667 -237 50l101 223c38.667 -14 76 -21 112 -21
c28.667 0 52.667 9.16699 72 27.5s37.333 47.166 54 86.499l73 166l-441 1030h342zM447.001 1124l251 310h333l-314 -310h-270z" />
    <glyph glyph-name="thorn" unicode="&#xfe;" horiz-adv-x="1352" 
d="M1292 515c0 -169.333 -47.833 -302.5 -143.5 -399.5s-223.167 -145.5 -382.5 -145.5c-78 0 -145.667 15.167 -203 45.5s-102.333 70.5 -135 120.5v-668h-328v2048h328v-622c33.333 50 78.5 90.167 135.5 120.5s124.5 45.5 202.5 45.5
c159.333 0 286.833 -48.5 382.5 -145.5s143.5 -230.167 143.5 -399.5zM964 515c0 86.667 -23.5 157.167 -70.5 211.5s-112.833 81.5 -197.5 81.5s-150.5 -27.167 -197.5 -81.5s-70.5 -124.833 -70.5 -211.5s23.5 -157.167 70.5 -211.5s112.833 -81.5 197.5 -81.5
s150.5 27.167 197.5 81.5s70.5 124.833 70.5 211.5z" />
    <glyph glyph-name="ydieresis" unicode="&#xff;" horiz-adv-x="1196" 
d="M352 1030l246.001 -671.999l246 672h342l-441 -1030l-123 -289c-16.667 -38 -34 -70.5 -52 -97.5s-40.333 -52.167 -67 -75.5s-58.834 -40.833 -96.501 -52.5s-81.167 -17.5 -130.5 -17.5c-95.333 0 -174.333 16.667 -237 50l101 223c38.667 -14 76 -21 112 -21
c28.667 0 52.667 9.16699 72 27.5s37.333 47.166 54 86.499l73 166l-441 1030h342zM188.001 1334c0 47.333 16.833 87.833 50.5 121.5s74.167 50.5 121.5 50.5s87.833 -16.833 121.5 -50.5s50.5 -74.167 50.5 -121.5s-16.833 -87.833 -50.5 -121.5
s-74.167 -50.5 -121.5 -50.5s-87.833 16.833 -121.5 50.5s-50.5 74.167 -50.5 121.5zM665.001 1334c0 47.333 16.833 87.833 50.5 121.5s74.167 50.5 121.5 50.5s87.833 -16.833 121.5 -50.5s50.5 -74.167 50.5 -121.5s-16.833 -87.833 -50.5 -121.5
s-74.167 -50.5 -121.5 -50.5s-87.833 16.833 -121.5 50.5s-50.5 74.167 -50.5 121.5z" />
    <glyph glyph-name="Amacron" unicode="&#x100;" horiz-adv-x="1536" 
d="M479 281l-110 -281h-359l593 1434h330l593 -1434h-359l-110 281h-578zM768 1014l-179 -454h358zM332 1536v252h874v-252h-874z" />
    <glyph glyph-name="amacron" unicode="&#x101;" horiz-adv-x="1194" 
d="M60 319c0 51.333 9.49902 97.499 28.499 138.499s45 74.667 78 101s72 48.833 117 67.5s93.667 31.334 146 38.001s107.166 11 164.499 13s114.666 -0.333008 171.999 -7c0 25.333 -2 46.166 -6 62.499s-12.167 31.5 -24.5 45.5s-31 24.167 -56 30.5
s-57.167 9.5 -96.5 9.5c-116 0 -225.333 -21.667 -328 -65l-109 210c66 33.333 140 57.833 222 73.5s160.333 23.5 235 23.5c95.333 0 175 -8.83301 239 -26.5s114.5 -45 151.5 -82s63 -80.667 78 -131s22.5 -112.166 22.5 -185.499v-635h-329v135
c-48 -106 -151.333 -159 -310 -159c-53.333 0 -103.166 6.66699 -149.499 20s-88.166 33.333 -125.499 60s-66.666 62.5 -87.999 107.5s-32 96.833 -32 155.5zM387.999 348.999c0 -37.333 12 -66.832 36 -88.499s61 -32.5 111 -32.5c70.667 0 126.667 16.667 168 50
s62 73.666 62 120.999v89c-25.333 0.666992 -53.833 1.66699 -85.5 3s-64.667 -0.666992 -99 -6s-65.833 -12.5 -94.5 -21.5s-52.167 -23.333 -70.5 -43s-27.5 -43.5 -27.5 -71.5zM195.999 1182v252h874v-252h-874z" />
    <glyph glyph-name="Abreve" unicode="&#x102;" horiz-adv-x="1536" 
d="M479 281l-110 -281h-359l593 1434h330l593 -1434h-359l-110 281h-578zM768 1014l-179 -454h358zM768 1556c-59.333 0 -112.67 8.16699 -160.003 24.5s-85.333 38 -114 65s-51.167 55.333 -67.5 85s-27.166 60.167 -32.499 91.5h192c26 -65.333 86.667 -98 182 -98
s156 32.667 182 98h192c-5.33301 -31.333 -16.166 -61.833 -32.499 -91.5s-38.833 -58 -67.5 -85s-66.667 -48.667 -114 -65s-100.666 -24.5 -159.999 -24.5z" />
    <glyph glyph-name="abreve" unicode="&#x103;" horiz-adv-x="1194" 
d="M60 319c0 51.333 9.49902 97.499 28.499 138.499s45 74.667 78 101s72 48.833 117 67.5s93.667 31.334 146 38.001s107.166 11 164.499 13s114.666 -0.333008 171.999 -7c0 25.333 -2 46.166 -6 62.499s-12.167 31.5 -24.5 45.5s-31 24.167 -56 30.5
s-57.167 9.5 -96.5 9.5c-116 0 -225.333 -21.667 -328 -65l-109 210c66 33.333 140 57.833 222 73.5s160.333 23.5 235 23.5c95.333 0 175 -8.83301 239 -26.5s114.5 -45 151.5 -82s63 -80.667 78 -131s22.5 -112.166 22.5 -185.499v-635h-329v135
c-48 -106 -151.333 -159 -310 -159c-53.333 0 -103.166 6.66699 -149.499 20s-88.166 33.333 -125.499 60s-66.666 62.5 -87.999 107.5s-32 96.833 -32 155.5zM387.999 348.999c0 -37.333 12 -66.832 36 -88.499s61 -32.5 111 -32.5c70.667 0 126.667 16.667 168 50
s62 73.666 62 120.999v89c-25.333 0.666992 -53.833 1.66699 -85.5 3s-64.667 -0.666992 -99 -6s-65.833 -12.5 -94.5 -21.5s-52.167 -23.333 -70.5 -43s-27.5 -43.5 -27.5 -71.5zM636.999 1168c-59.333 0 -112.67 8.16699 -160.003 24.5s-85.333 38 -114 65
s-51.167 55.333 -67.5 85s-27.166 60.167 -32.499 91.5h192c26 -65.333 86.667 -98 182 -98s156 32.667 182 98h192c-5.33301 -31.333 -16.166 -61.833 -32.499 -91.5s-38.833 -58 -67.5 -85s-66.667 -48.667 -114 -65s-100.666 -24.5 -159.999 -24.5z" />
    <glyph glyph-name="Aogonek" unicode="&#x104;" horiz-adv-x="1588" 
d="M933 1434l593.001 -1434c-24 -6.66699 -45.667 -16.667 -65 -30c-43.333 -30 -65 -67 -65 -111c0 -45.333 30.333 -77.333 91 -96c28 -8.66699 58.333 -13.334 91 -14.001v-247c-38 0 -74.667 2.16699 -110 6.5s-72.5 13 -111.5 26s-72.667 29.5 -101 49.5
s-51.833 47.167 -70.5 81.5s-28 73.5 -28 117.5c0 15.333 1.33301 30.166 4 44.499s6.16699 27.333 10.5 39s9.5 22.667 15.5 33s12.333 19.5 19 27.5s13.667 15.667 21 23s14.333 13.333 21 18l20 13.5c6.66699 4.33301 12.167 7.66602 16.5 9.99902
s8.16602 4.5 11.499 6.5l6 2h-135l-110 281h-578l-110 -281h-359l593 1434h330zM768.001 1014l-179 -454h358z" />
    <glyph glyph-name="aogonek" unicode="&#x105;" horiz-adv-x="1246" 
d="M1094 635v-634.998c-24 -6.66699 -45.667 -16.667 -65 -30c-43.333 -30 -65 -67 -65 -111c0 -45.333 30.333 -77.333 91 -96c28 -8.66699 58.333 -13.334 91 -14.001v-247c-38 0 -74.667 2.16699 -110 6.5s-72.5 13 -111.5 26s-72.667 29.5 -101 49.5
s-51.833 47.167 -70.5 81.5s-28 73.5 -28 117.5c0 15.333 1.33301 30.166 4 44.499s6.16699 27.333 10.5 39s9.5 22.667 15.5 33s12.333 19.5 19 27.5s13.667 15.667 21 23s14.333 13.333 21 18l20 13.5c6.66699 4.33301 12.167 7.66602 16.5 9.99902
s8.16602 4.5 11.499 6.5l6 2h-105v135c-48 -106 -151.333 -159 -310 -159c-53.333 0 -103.166 6.66699 -149.499 20s-88.166 33.333 -125.499 60s-66.666 62.5 -87.999 107.5s-32 96.833 -32 155.5c0 51.333 9.5 97.5 28.5 138.5s45 74.667 78 101s72 48.833 117 67.5
s93.667 31.334 146 38.001s107.166 11 164.499 13s114.666 -0.333008 171.999 -7c0 25.333 -2 46.166 -6 62.499s-12.167 31.5 -24.5 45.5s-31 24.167 -56 30.5s-57.167 9.5 -96.5 9.5c-116 0 -225.333 -21.667 -328 -65l-109 210c66 33.333 140 57.833 222 73.5
s160.333 23.5 235 23.5c95.333 0 175 -8.83301 239 -26.5s114.5 -45 151.5 -82s63 -80.667 78 -131s22.5 -112.166 22.5 -185.499zM388 349.002c0 -37.333 12 -66.832 36 -88.499s61 -32.5 111 -32.5c70.667 0 126.667 16.667 168 50s62 73.666 62 120.999v89
c-25.333 0.666992 -53.833 1.66699 -85.5 3s-64.667 -0.666992 -99 -6s-65.833 -12.5 -94.5 -21.5s-52.167 -23.333 -70.5 -43s-27.5 -43.5 -27.5 -71.5z" />
    <glyph glyph-name="Cacute" unicode="&#x106;" horiz-adv-x="1457" 
d="M60 717c0 82 9.50098 159.672 28.501 233.005s49 142.166 90 206.499s91.333 119.833 151 166.5s132.667 83.5 219 110.5s182.166 40.5 287.499 40.5c134 0 246 -14.833 336 -44.5s171.667 -75.834 245 -138.501l-165 -226c-55.333 36.667 -114.833 65.834 -178.5 87.501
s-142.834 32.5 -237.501 32.5c-73.333 0 -138 -11.833 -194 -35.5s-101.167 -56.834 -135.5 -99.501s-60.166 -92 -77.499 -148s-26 -117.667 -26 -185s8.66699 -129 26 -185s43.166 -105.333 77.499 -148s79.5 -75.834 135.5 -99.501s120.667 -35.5 194 -35.5
c163.333 0 302 40 416 120l165 -226c-73.333 -62.667 -155 -108.834 -245 -138.501s-202 -44.5 -336 -44.5c-105.333 0 -201.166 13.5 -287.499 40.5s-159.333 63.833 -219 110.5s-110 102.167 -151 166.5s-71 133.166 -90 206.499s-28.5 151 -28.5 233zM714.001 1536
l251 310h333l-314 -310h-270z" />
    <glyph glyph-name="cacute" unicode="&#x107;" horiz-adv-x="1153" 
d="M388 515c0 -90 24.833 -161.333 74.5 -214s117.5 -79 203.5 -79c110.667 0 207.334 34.333 290.001 103l157 -191c-100.667 -109.333 -249.667 -164 -447 -164c-183.333 0 -330.166 50.167 -440.499 150.5s-165.5 231.833 -165.5 394.5s55.167 294.167 165.5 394.5
s257.166 150.5 440.499 150.5c197.333 0 346.333 -54.667 447 -164l-157 -191c-82.667 68.667 -179.334 103 -290.001 103c-86 0 -153.833 -26.333 -203.5 -79s-74.5 -124 -74.5 -214zM521 1124l251 310h333l-314 -310h-270z" />
    <glyph glyph-name="Ccircumflex" unicode="&#x108;" horiz-adv-x="1457" 
d="M929 1827l301 -291h-248l-156 109l-156 -109h-248l301 291h206zM60 717c0 82 9.50098 159.672 28.501 233.005s49 142.166 90 206.499s91.333 119.833 151 166.5s132.667 83.5 219 110.5s182.166 40.5 287.499 40.5c134 0 246 -14.833 336 -44.5
s171.667 -75.834 245 -138.501l-165 -226c-55.333 36.667 -114.833 65.834 -178.5 87.501s-142.834 32.5 -237.501 32.5c-73.333 0 -138 -11.833 -194 -35.5s-101.167 -56.834 -135.5 -99.501s-60.166 -92 -77.499 -148s-26 -117.667 -26 -185s8.66699 -129 26 -185
s43.166 -105.333 77.499 -148s79.5 -75.834 135.5 -99.501s120.667 -35.5 194 -35.5c163.333 0 302 40 416 120l165 -226c-73.333 -62.667 -155 -108.834 -245 -138.501s-202 -44.5 -336 -44.5c-105.333 0 -201.166 13.5 -287.499 40.5s-159.333 63.833 -219 110.5
s-110 102.167 -151 166.5s-71 133.166 -90 206.499s-28.5 151 -28.5 233z" />
    <glyph glyph-name="ccircumflex" unicode="&#x109;" horiz-adv-x="1153" 
d="M388 515c0 -90 24.833 -161.333 74.5 -214s117.5 -79 203.5 -79c110.667 0 207.334 34.333 290.001 103l157 -191c-100.667 -109.333 -249.667 -164 -447 -164c-183.333 0 -330.166 50.167 -440.499 150.5s-165.5 231.833 -165.5 394.5s55.167 294.167 165.5 394.5
s257.166 150.5 440.499 150.5c197.333 0 346.333 -54.667 447 -164l-157 -191c-82.667 68.667 -179.334 103 -290.001 103c-86 0 -153.833 -26.333 -203.5 -79s-74.5 -124 -74.5 -214zM742 1434l301 -291h-248l-156 109l-156 -109h-248l301 291h206z" />
    <glyph glyph-name="Cdotaccent" unicode="&#x10a;" horiz-adv-x="1457" 
d="M60 717c0 82 9.50098 159.672 28.501 233.005s49 142.166 90 206.499s91.333 119.833 151 166.5s132.667 83.5 219 110.5s182.166 40.5 287.499 40.5c134 0 246 -14.833 336 -44.5s171.667 -75.834 245 -138.501l-165 -226c-55.333 36.667 -114.833 65.834 -178.5 87.501
s-142.834 32.5 -237.501 32.5c-73.333 0 -138 -11.833 -194 -35.5s-101.167 -56.834 -135.5 -99.501s-60.166 -92 -77.499 -148s-26 -117.667 -26 -185s8.66699 -129 26 -185s43.166 -105.333 77.499 -148s79.5 -75.834 135.5 -99.501s120.667 -35.5 194 -35.5
c163.333 0 302 40 416 120l165 -226c-73.333 -62.667 -155 -108.834 -245 -138.501s-202 -44.5 -336 -44.5c-105.333 0 -201.166 13.5 -287.499 40.5s-159.333 63.833 -219 110.5s-110 102.167 -151 166.5s-71 133.166 -90 206.499s-28.5 151 -28.5 233zM667.001 1708
c0 47.333 16.833 87.833 50.5 121.5s74.167 50.5 121.5 50.5s87.833 -16.833 121.5 -50.5s50.5 -74.167 50.5 -121.5s-16.833 -87.833 -50.5 -121.5s-74.167 -50.5 -121.5 -50.5s-87.833 16.833 -121.5 50.5s-50.5 74.167 -50.5 121.5z" />
    <glyph glyph-name="cdotaccent" unicode="&#x10b;" horiz-adv-x="1153" 
d="M388 515c0 -90 24.833 -161.333 74.5 -214s117.5 -79 203.5 -79c110.667 0 207.334 34.333 290.001 103l157 -191c-100.667 -109.333 -249.667 -164 -447 -164c-183.333 0 -330.166 50.167 -440.499 150.5s-165.5 231.833 -165.5 394.5s55.167 294.167 165.5 394.5
s257.166 150.5 440.499 150.5c197.333 0 346.333 -54.667 447 -164l-157 -191c-82.667 68.667 -179.334 103 -290.001 103c-86 0 -153.833 -26.333 -203.5 -79s-74.5 -124 -74.5 -214zM484 1334c0 47.333 16.833 87.833 50.5 121.5s74.167 50.5 121.5 50.5
s87.833 -16.833 121.5 -50.5s50.5 -74.167 50.5 -121.5s-16.833 -87.833 -50.5 -121.5s-74.167 -50.5 -121.5 -50.5s-87.833 16.833 -121.5 50.5s-50.5 74.167 -50.5 121.5z" />
    <glyph glyph-name="Ccaron" unicode="&#x10c;" horiz-adv-x="1457" 
d="M60 717c0 82 9.50098 159.672 28.501 233.005s49 142.166 90 206.499s91.333 119.833 151 166.5s132.667 83.5 219 110.5s182.166 40.5 287.499 40.5c134 0 246 -14.833 336 -44.5s171.667 -75.834 245 -138.501l-165 -226c-55.333 36.667 -114.833 65.834 -178.5 87.501
s-142.834 32.5 -237.501 32.5c-73.333 0 -138 -11.833 -194 -35.5s-101.167 -56.834 -135.5 -99.501s-60.166 -92 -77.499 -148s-26 -117.667 -26 -185s8.66699 -129 26 -185s43.166 -105.333 77.499 -148s79.5 -75.834 135.5 -99.501s120.667 -35.5 194 -35.5
c163.333 0 302 40 416 120l165 -226c-73.333 -62.667 -155 -108.834 -245 -138.501s-202 -44.5 -336 -44.5c-105.333 0 -201.166 13.5 -287.499 40.5s-159.333 63.833 -219 110.5s-110 102.167 -151 166.5s-71 133.166 -90 206.499s-28.5 151 -28.5 233zM1243 1827
l-301 -291h-206l-301 291h248l156 -109l156 109h248z" />
    <glyph glyph-name="ccaron" unicode="&#x10d;" horiz-adv-x="1153" 
d="M388 515c0 -90 24.833 -161.333 74.5 -214s117.5 -79 203.5 -79c110.667 0 207.334 34.333 290.001 103l157 -191c-100.667 -109.333 -249.667 -164 -447 -164c-183.333 0 -330.166 50.167 -440.499 150.5s-165.5 231.833 -165.5 394.5s55.167 294.167 165.5 394.5
s257.166 150.5 440.499 150.5c197.333 0 346.333 -54.667 447 -164l-157 -191c-82.667 68.667 -179.334 103 -290.001 103c-86 0 -153.833 -26.333 -203.5 -79s-74.5 -124 -74.5 -214zM1062 1434l-301 -291h-206l-301 291h248l156 -109l156 109h248z" />
    <glyph glyph-name="Dcaron" unicode="&#x10e;" horiz-adv-x="1483" 
d="M1423 717c0 -104.667 -14.833 -200.165 -44.5 -286.498s-73.5 -161.833 -131.5 -226.5s-133 -114.834 -225 -150.501s-197 -53.5 -315 -53.5h-607v1434h607c118 0 223 -17.833 315 -53.5s167 -85.834 225 -150.501s101.833 -140.167 131.5 -226.5
s44.5 -181.833 44.5 -286.5zM433 1145v-856h274c66.667 0 124.667 11.667 174 35s88.166 55.5 116.499 96.5s49.166 86.167 62.499 135.5s20 103 20 161s-6.66699 111.667 -20 161s-34.166 94.5 -62.499 135.5s-67.166 73.167 -116.499 96.5s-107.333 35 -174 35h-274z
M1010 1827l-301 -291h-206l-301 291h248l156 -109l156 109h248z" />
    <glyph glyph-name="dcaron" unicode="&#x10f;" horiz-adv-x="1550" 
d="M60 515c0 168 48.667 300.833 146 398.5s224 146.5 380 146.5c78 0 145.5 -15.167 202.5 -45.5s102.167 -70.5 135.5 -120.5v622h328v-1516h-328v136c-32.667 -50 -77.667 -90.167 -135 -120.5s-125 -45.5 -203 -45.5c-156 0 -282.667 48.833 -380 146.5
s-146 230.5 -146 398.5zM388 515c0 -86.667 23.5 -157.167 70.5 -211.5s112.833 -81.5 197.5 -81.5s150.5 27.167 197.5 81.5s70.5 124.833 70.5 211.5s-23.5 157.167 -70.5 211.5s-112.833 81.5 -197.5 81.5s-150.5 -27.167 -197.5 -81.5s-70.5 -124.833 -70.5 -211.5z
M1290 974l211 542h319l-249 -542h-281z" />
    <glyph glyph-name="Dcroat" unicode="&#x110;" horiz-adv-x="1613" 
d="M10 573v289.002h220v572h607c118 0 223 -17.833 315 -53.5s167 -85.834 225 -150.501s101.833 -140.167 131.5 -226.5s44.5 -181.833 44.5 -286.5s-14.833 -200.167 -44.5 -286.5s-73.5 -161.833 -131.5 -226.5s-133 -114.834 -225 -150.501s-197 -53.5 -315 -53.5h-607
v573h-220zM563 573.002v-284h274c66.667 0 124.667 11.667 174 35s88.166 55.5 116.499 96.5s49.166 86.167 62.499 135.5s20 103 20 161s-6.66699 111.667 -20 161s-34.166 94.5 -62.499 135.5s-67.166 73.167 -116.499 96.5s-107.333 35 -174 35h-274v-283h293v-289h-293z
" />
    <glyph glyph-name="dslash" unicode="&#x111;" horiz-adv-x="1449" 
d="M60 515c0 168 48.667 300.833 146 398.5s224 146.5 380 146.5c78 0 145.5 -15.167 202.5 -45.5s102.167 -70.5 135.5 -120.5v227h-312v252h312v143h328v-143h217v-252h-217v-1121h-328v136c-32.667 -50 -77.667 -90.167 -135 -120.5s-125 -45.5 -203 -45.5
c-156 0 -282.667 48.833 -380 146.5s-146 230.5 -146 398.5zM388 515c0 -86.667 23.5 -157.167 70.5 -211.5s112.833 -81.5 197.5 -81.5s150.5 27.167 197.5 81.5s70.5 124.833 70.5 211.5s-23.5 157.167 -70.5 211.5s-112.833 81.5 -197.5 81.5
s-150.5 -27.167 -197.5 -81.5s-70.5 -124.833 -70.5 -211.5z" />
    <glyph glyph-name="Emacron" unicode="&#x112;" horiz-adv-x="1256" 
d="M433 876h690v-289h-690v-298h743v-289h-1076v1434h1066v-289h-733v-269zM201 1536v252h874v-252h-874z" />
    <glyph glyph-name="emacron" unicode="&#x113;" horiz-adv-x="1246" 
d="M959 306l161.997 -183.998c-126 -101.333 -289.667 -152 -491 -152c-99.333 0 -186.666 15 -261.999 45s-134.833 70.833 -178.5 122.5s-76.167 109.167 -97.5 172.5s-32 131.666 -32 204.999c0 58 6.66699 113.167 20 165.5s35 101.666 65 147.999
s66.667 86.666 110 120.999s97.166 61.333 161.499 81s135.5 29.5 213.5 29.5c194.667 0 340 -58.667 436 -176s134 -280.666 114 -489.999h-779c0 -23.333 3.83301 -45.333 11.5 -66s19.834 -40 36.501 -58s40.334 -32.167 71.001 -42.5s67.334 -15.5 110.001 -15.5
c131.333 0 241 31.333 329 94zM401.997 606.002h455.998c0 24.667 -3.66699 48.5 -11 71.5s-19.166 45.5 -35.499 67.5s-40 39.667 -71 53s-67.833 20 -110.5 20s-79.5 -6.66699 -110.5 -20s-54.667 -31 -71 -53s-28.166 -44.5 -35.499 -67.5s-11 -46.833 -11 -71.5z
M196.995 1182v252h874v-252h-874z" />
    <glyph glyph-name="Ebreve" unicode="&#x114;" horiz-adv-x="1256" 
d="M433 876h690v-289h-690v-298h743v-289h-1076v1434h1066v-289h-733v-269zM638 1536c-59.333 0 -112.67 8.16699 -160.003 24.5s-85.333 38 -114 65s-51.167 55.333 -67.5 85s-27.166 60.167 -32.499 91.5h192c26 -65.333 86.667 -98 182 -98s156 32.667 182 98h192
c-5.33301 -31.333 -16.166 -61.833 -32.499 -91.5s-38.833 -58 -67.5 -85s-66.667 -48.667 -114 -65s-100.666 -24.5 -159.999 -24.5z" />
    <glyph glyph-name="ebreve" unicode="&#x115;" horiz-adv-x="1246" 
d="M959 306l161.997 -183.998c-126 -101.333 -289.667 -152 -491 -152c-99.333 0 -186.666 15 -261.999 45s-134.833 70.833 -178.5 122.5s-76.167 109.167 -97.5 172.5s-32 131.666 -32 204.999c0 58 6.66699 113.167 20 165.5s35 101.666 65 147.999
s66.667 86.666 110 120.999s97.166 61.333 161.499 81s135.5 29.5 213.5 29.5c194.667 0 340 -58.667 436 -176s134 -280.666 114 -489.999h-779c0 -23.333 3.83301 -45.333 11.5 -66s19.834 -40 36.501 -58s40.334 -32.167 71.001 -42.5s67.334 -15.5 110.001 -15.5
c131.333 0 241 31.333 329 94zM401.997 606.002h455.998c0 24.667 -3.66699 48.5 -11 71.5s-19.166 45.5 -35.499 67.5s-40 39.667 -71 53s-67.833 20 -110.5 20s-79.5 -6.66699 -110.5 -20s-54.667 -31 -71 -53s-28.166 -44.5 -35.499 -67.5s-11 -46.833 -11 -71.5z
M633.995 1168c-59.333 0 -112.67 8.16699 -160.003 24.5s-85.333 38 -114 65s-51.167 55.333 -67.5 85s-27.166 60.167 -32.499 91.5h192c26 -65.333 86.667 -98 182 -98s156 32.667 182 98h192c-5.33301 -31.333 -16.166 -61.833 -32.499 -91.5s-38.833 -58 -67.5 -85
s-66.667 -48.667 -114 -65s-100.666 -24.5 -159.999 -24.5z" />
    <glyph glyph-name="Edotaccent" unicode="&#x116;" horiz-adv-x="1256" 
d="M433 876h690v-289h-690v-298h743v-289h-1076v1434h1066v-289h-733v-269zM466 1708c0 47.333 16.833 87.833 50.5 121.5s74.167 50.5 121.5 50.5s87.833 -16.833 121.5 -50.5s50.5 -74.167 50.5 -121.5s-16.833 -87.833 -50.5 -121.5s-74.167 -50.5 -121.5 -50.5
s-87.833 16.833 -121.5 50.5s-50.5 74.167 -50.5 121.5z" />
    <glyph glyph-name="edotaccent" unicode="&#x117;" horiz-adv-x="1246" 
d="M959 306l161.997 -183.998c-126 -101.333 -289.667 -152 -491 -152c-99.333 0 -186.666 15 -261.999 45s-134.833 70.833 -178.5 122.5s-76.167 109.167 -97.5 172.5s-32 131.666 -32 204.999c0 58 6.66699 113.167 20 165.5s35 101.666 65 147.999
s66.667 86.666 110 120.999s97.166 61.333 161.499 81s135.5 29.5 213.5 29.5c194.667 0 340 -58.667 436 -176s134 -280.666 114 -489.999h-779c0 -23.333 3.83301 -45.333 11.5 -66s19.834 -40 36.501 -58s40.334 -32.167 71.001 -42.5s67.334 -15.5 110.001 -15.5
c131.333 0 241 31.333 329 94zM401.997 606.002h455.998c0 24.667 -3.66699 48.5 -11 71.5s-19.166 45.5 -35.499 67.5s-40 39.667 -71 53s-67.833 20 -110.5 20s-79.5 -6.66699 -110.5 -20s-54.667 -31 -71 -53s-28.166 -44.5 -35.499 -67.5s-11 -46.833 -11 -71.5z
M461.995 1334c0 47.333 16.833 87.833 50.5 121.5s74.167 50.5 121.5 50.5s87.833 -16.833 121.5 -50.5s50.5 -74.167 50.5 -121.5s-16.833 -87.833 -50.5 -121.5s-74.167 -50.5 -121.5 -50.5s-87.833 16.833 -121.5 50.5s-50.5 74.167 -50.5 121.5z" />
    <glyph glyph-name="Eogonek" unicode="&#x118;" horiz-adv-x="1308" 
d="M1176 289l0.000976562 -288.997c-24 -6.66699 -45.667 -16.667 -65 -30c-43.333 -30 -65 -67 -65 -111c0 -45.333 30.333 -77.333 91 -96c28 -8.66699 58.333 -13.334 91 -14.001v-247c-38 0 -74.667 2.16699 -110 6.5s-72.5 13 -111.5 26s-72.667 29.5 -101 49.5
s-51.833 47.167 -70.5 81.5s-28 73.5 -28 117.5c0 15.333 1.33301 30.166 4 44.499s6.16699 27.333 10.5 39s9.5 22.667 15.5 33s12.333 19.5 19 27.5s13.667 15.667 21 23s14.333 13.333 21 18l20 13.5c6.66699 4.33301 12.167 7.66602 16.5 9.99902
s8.16602 4.5 11.499 6.5l6 2h-852v1434h1066v-289h-733v-269h690v-289h-690v-298h743z" />
    <glyph glyph-name="eogonek" unicode="&#x119;" horiz-adv-x="1246" 
d="M959 306l161.997 -183.996c-72 -58.667 -156 -100 -252 -124c-10 -2.66699 -20.5 -6.83398 -31.5 -12.501s-24.167 -13.834 -39.5 -24.501s-27.833 -25 -37.5 -43s-14.5 -37.667 -14.5 -59c0 -45.333 30.333 -77.333 91 -96c28 -8.66699 58.333 -13.334 91 -14.001v-247
c-38 0 -74.667 2.16699 -110 6.5s-72.5 13 -111.5 26s-72.667 29.5 -101 49.5s-51.833 47.167 -70.5 81.5s-28 73.5 -28 117.5c0 79.333 31.333 142 94 188c-94 2.66699 -176.833 19.5 -248.5 50.5s-128.167 72.167 -169.5 123.5s-72.166 108 -92.499 170
s-30.5 128.667 -30.5 200c0 58 6.66699 113.167 20 165.5s35 101.666 65 147.999s66.667 86.666 110 120.999s97.166 61.333 161.499 81s135.5 29.5 213.5 29.5c194.667 0 340 -58.667 436 -176s134 -280.666 114 -489.999h-779c0 -23.333 3.83301 -45.333 11.5 -66
s19.834 -40 36.501 -58s40.334 -32.167 71.001 -42.5s67.334 -15.5 110.001 -15.5c131.333 0 241 31.333 329 94zM401.997 606.004h455.998c0 24.667 -3.66699 48.5 -11 71.5s-19.166 45.5 -35.499 67.5s-40 39.667 -71 53s-67.833 20 -110.5 20s-79.5 -6.66699 -110.5 -20
s-54.667 -31 -71 -53s-28.166 -44.5 -35.499 -67.5s-11 -46.833 -11 -71.5z" />
    <glyph glyph-name="Ecaron" unicode="&#x11a;" horiz-adv-x="1256" 
d="M433 876h690v-289h-690v-298h743v-289h-1076v1434h1066v-289h-733v-269zM1042 1827l-301 -291h-206l-301 291h248l156 -109l156 109h248z" />
    <glyph glyph-name="ecaron" unicode="&#x11b;" horiz-adv-x="1246" 
d="M959 306l161.997 -183.998c-126 -101.333 -289.667 -152 -491 -152c-99.333 0 -186.666 15 -261.999 45s-134.833 70.833 -178.5 122.5s-76.167 109.167 -97.5 172.5s-32 131.666 -32 204.999c0 58 6.66699 113.167 20 165.5s35 101.666 65 147.999
s66.667 86.666 110 120.999s97.166 61.333 161.499 81s135.5 29.5 213.5 29.5c194.667 0 340 -58.667 436 -176s134 -280.666 114 -489.999h-779c0 -23.333 3.83301 -45.333 11.5 -66s19.834 -40 36.501 -58s40.334 -32.167 71.001 -42.5s67.334 -15.5 110.001 -15.5
c131.333 0 241 31.333 329 94zM401.997 606.002h455.998c0 24.667 -3.66699 48.5 -11 71.5s-19.166 45.5 -35.499 67.5s-40 39.667 -71 53s-67.833 20 -110.5 20s-79.5 -6.66699 -110.5 -20s-54.667 -31 -71 -53s-28.166 -44.5 -35.499 -67.5s-11 -46.833 -11 -71.5z
M1038 1434l-301 -291h-206l-301 291h248l156 -109l156 109h248z" />
    <glyph glyph-name="Gcircumflex" unicode="&#x11c;" horiz-adv-x="1507" 
d="M836 249c110 0 200.999 18.3359 272.999 55.0029v263h-277v279h586v-716c-135.333 -113.333 -329.333 -170 -582 -170c-105.333 0 -201.166 13.5 -287.499 40.5s-159.333 63.833 -219 110.5s-110 102.167 -151 166.5s-71 133.166 -90 206.499s-28.5 151 -28.5 233
s9.5 159.667 28.5 233s49 142.166 90 206.499s91.333 119.833 151 166.5s132.667 83.5 219 110.5s182.166 40.5 287.499 40.5c110 0 214 -13.167 312 -39.5s191 -74.166 279 -143.499l-170 -222c-115.333 77.333 -255.666 116 -420.999 116
c-73.333 0 -138 -11.833 -194 -35.5s-101.167 -56.834 -135.5 -99.501s-60.166 -92 -77.499 -148s-26 -117.667 -26 -185s8.66699 -129 26 -185s43.166 -105.333 77.499 -148s79.5 -75.834 135.5 -99.501s120.667 -35.5 194 -35.5zM933.999 1827l301 -291h-248l-156 109
l-156 -109h-248l301 291h206z" />
    <glyph glyph-name="gcircumflex" unicode="&#x11d;" horiz-adv-x="1353" 
d="M924 1030l327.998 -0.000976562v-1030c0 -81.333 -12.167 -153.666 -36.5 -216.999s-56.5 -114.333 -96.5 -153s-88.167 -70.5 -144.5 -95.5s-113.666 -42.333 -171.999 -52s-120.833 -14.5 -187.5 -14.5c-189.333 0 -352.333 38.667 -489 116l125 228
c112.667 -61.333 234 -92 364 -92c94.667 0 169.834 23.167 225.501 69.5s83.5 116.5 83.5 210.5v136c-32.667 -50 -77.667 -90.167 -135 -120.5s-125 -45.5 -203 -45.5c-156 0 -282.667 48.833 -380 146.5s-146 230.5 -146 398.5s48.667 300.833 146 398.5
s224 146.5 380 146.5c78 0 145.5 -15.167 202.5 -45.5s102.167 -70.5 135.5 -120.5v136zM387.998 514.999c0 -86.667 23.5 -157.167 70.5 -211.5s112.833 -81.5 197.5 -81.5s150.5 27.167 197.5 81.5s70.5 124.833 70.5 211.5s-23.5 157.167 -70.5 211.5
s-112.833 81.5 -197.5 81.5s-150.5 -27.167 -197.5 -81.5s-70.5 -124.833 -70.5 -211.5zM758.998 1434l301 -291h-248l-156 109l-156 -109h-248l301 291h206z" />
    <glyph glyph-name="Gbreve" unicode="&#x11e;" horiz-adv-x="1507" 
d="M836 249c110 0 200.999 18.3359 272.999 55.0029v263h-277v279h586v-716c-135.333 -113.333 -329.333 -170 -582 -170c-105.333 0 -201.166 13.5 -287.499 40.5s-159.333 63.833 -219 110.5s-110 102.167 -151 166.5s-71 133.166 -90 206.499s-28.5 151 -28.5 233
s9.5 159.667 28.5 233s49 142.166 90 206.499s91.333 119.833 151 166.5s132.667 83.5 219 110.5s182.166 40.5 287.499 40.5c110 0 214 -13.167 312 -39.5s191 -74.166 279 -143.499l-170 -222c-115.333 77.333 -255.666 116 -420.999 116
c-73.333 0 -138 -11.833 -194 -35.5s-101.167 -56.834 -135.5 -99.501s-60.166 -92 -77.499 -148s-26 -117.667 -26 -185s8.66699 -129 26 -185s43.166 -105.333 77.499 -148s79.5 -75.834 135.5 -99.501s120.667 -35.5 194 -35.5zM831.999 1556
c-59.333 0 -112.67 8.16699 -160.003 24.5s-85.333 38 -114 65s-51.167 55.333 -67.5 85s-27.166 60.167 -32.499 91.5h192c26 -65.333 86.667 -98 182 -98s156 32.667 182 98h192c-5.33301 -31.333 -16.166 -61.833 -32.499 -91.5s-38.833 -58 -67.5 -85
s-66.667 -48.667 -114 -65s-100.666 -24.5 -159.999 -24.5z" />
    <glyph glyph-name="gbreve" unicode="&#x11f;" horiz-adv-x="1353" 
d="M924 1030l327.998 -0.000976562v-1030c0 -81.333 -12.167 -153.666 -36.5 -216.999s-56.5 -114.333 -96.5 -153s-88.167 -70.5 -144.5 -95.5s-113.666 -42.333 -171.999 -52s-120.833 -14.5 -187.5 -14.5c-189.333 0 -352.333 38.667 -489 116l125 228
c112.667 -61.333 234 -92 364 -92c94.667 0 169.834 23.167 225.501 69.5s83.5 116.5 83.5 210.5v136c-32.667 -50 -77.667 -90.167 -135 -120.5s-125 -45.5 -203 -45.5c-156 0 -282.667 48.833 -380 146.5s-146 230.5 -146 398.5s48.667 300.833 146 398.5
s224 146.5 380 146.5c78 0 145.5 -15.167 202.5 -45.5s102.167 -70.5 135.5 -120.5v136zM387.998 514.999c0 -86.667 23.5 -157.167 70.5 -211.5s112.833 -81.5 197.5 -81.5s150.5 27.167 197.5 81.5s70.5 124.833 70.5 211.5s-23.5 157.167 -70.5 211.5
s-112.833 81.5 -197.5 81.5s-150.5 -27.167 -197.5 -81.5s-70.5 -124.833 -70.5 -211.5zM655.998 1168c-59.333 0 -112.67 8.16699 -160.003 24.5s-85.333 38 -114 65s-51.167 55.333 -67.5 85s-27.166 60.167 -32.499 91.5h192c26 -65.333 86.667 -98 182 -98
s156 32.667 182 98h192c-5.33301 -31.333 -16.166 -61.833 -32.499 -91.5s-38.833 -58 -67.5 -85s-66.667 -48.667 -114 -65s-100.666 -24.5 -159.999 -24.5z" />
    <glyph glyph-name="Gdotaccent" unicode="&#x120;" horiz-adv-x="1507" 
d="M836 249c110 0 200.999 18.3359 272.999 55.0029v263h-277v279h586v-716c-135.333 -113.333 -329.333 -170 -582 -170c-105.333 0 -201.166 13.5 -287.499 40.5s-159.333 63.833 -219 110.5s-110 102.167 -151 166.5s-71 133.166 -90 206.499s-28.5 151 -28.5 233
s9.5 159.667 28.5 233s49 142.166 90 206.499s91.333 119.833 151 166.5s132.667 83.5 219 110.5s182.166 40.5 287.499 40.5c110 0 214 -13.167 312 -39.5s191 -74.166 279 -143.499l-170 -222c-115.333 77.333 -255.666 116 -420.999 116
c-73.333 0 -138 -11.833 -194 -35.5s-101.167 -56.834 -135.5 -99.501s-60.166 -92 -77.499 -148s-26 -117.667 -26 -185s8.66699 -129 26 -185s43.166 -105.333 77.499 -148s79.5 -75.834 135.5 -99.501s120.667 -35.5 194 -35.5zM668.999 1708
c0 47.333 16.833 87.833 50.5 121.5s74.167 50.5 121.5 50.5s87.833 -16.833 121.5 -50.5s50.5 -74.167 50.5 -121.5s-16.833 -87.833 -50.5 -121.5s-74.167 -50.5 -121.5 -50.5s-87.833 16.833 -121.5 50.5s-50.5 74.167 -50.5 121.5z" />
    <glyph glyph-name="gdotaccent" unicode="&#x121;" horiz-adv-x="1353" 
d="M924 1030l327.998 -0.000976562v-1030c0 -81.333 -12.167 -153.666 -36.5 -216.999s-56.5 -114.333 -96.5 -153s-88.167 -70.5 -144.5 -95.5s-113.666 -42.333 -171.999 -52s-120.833 -14.5 -187.5 -14.5c-189.333 0 -352.333 38.667 -489 116l125 228
c112.667 -61.333 234 -92 364 -92c94.667 0 169.834 23.167 225.501 69.5s83.5 116.5 83.5 210.5v136c-32.667 -50 -77.667 -90.167 -135 -120.5s-125 -45.5 -203 -45.5c-156 0 -282.667 48.833 -380 146.5s-146 230.5 -146 398.5s48.667 300.833 146 398.5
s224 146.5 380 146.5c78 0 145.5 -15.167 202.5 -45.5s102.167 -70.5 135.5 -120.5v136zM387.998 514.999c0 -86.667 23.5 -157.167 70.5 -211.5s112.833 -81.5 197.5 -81.5s150.5 27.167 197.5 81.5s70.5 124.833 70.5 211.5s-23.5 157.167 -70.5 211.5
s-112.833 81.5 -197.5 81.5s-150.5 -27.167 -197.5 -81.5s-70.5 -124.833 -70.5 -211.5zM483.998 1334c0 47.333 16.833 87.833 50.5 121.5s74.167 50.5 121.5 50.5s87.833 -16.833 121.5 -50.5s50.5 -74.167 50.5 -121.5s-16.833 -87.833 -50.5 -121.5
s-74.167 -50.5 -121.5 -50.5s-87.833 16.833 -121.5 50.5s-50.5 74.167 -50.5 121.5z" />
    <glyph glyph-name="Gcommaaccent" unicode="&#x122;" horiz-adv-x="1507" 
d="M836 249c110 0 200.999 18.3359 272.999 55.0029v263h-277v279h586v-716c-135.333 -113.333 -329.333 -170 -582 -170c-105.333 0 -201.166 13.5 -287.499 40.5s-159.333 63.833 -219 110.5s-110 102.167 -151 166.5s-71 133.166 -90 206.499s-28.5 151 -28.5 233
s9.5 159.667 28.5 233s49 142.166 90 206.499s91.333 119.833 151 166.5s132.667 83.5 219 110.5s182.166 40.5 287.499 40.5c110 0 214 -13.167 312 -39.5s191 -74.166 279 -143.499l-170 -222c-115.333 77.333 -255.666 116 -420.999 116
c-73.333 0 -138 -11.833 -194 -35.5s-101.167 -56.834 -135.5 -99.501s-60.166 -92 -77.499 -148s-26 -117.667 -26 -185s8.66699 -129 26 -185s43.166 -105.333 77.499 -148s79.5 -75.834 135.5 -99.501s120.667 -35.5 194 -35.5zM527.999 -531.997l153 424h299l-191 -424
h-261z" />
    <glyph glyph-name="gcommaaccent" unicode="&#x123;" horiz-adv-x="1353" 
d="M924 1030l327.998 -0.000976562v-1030c0 -81.333 -12.167 -153.666 -36.5 -216.999s-56.5 -114.333 -96.5 -153s-88.167 -70.5 -144.5 -95.5s-113.666 -42.333 -171.999 -52s-120.833 -14.5 -187.5 -14.5c-189.333 0 -352.333 38.667 -489 116l125 228
c112.667 -61.333 234 -92 364 -92c94.667 0 169.834 23.167 225.501 69.5s83.5 116.5 83.5 210.5v136c-32.667 -50 -77.667 -90.167 -135 -120.5s-125 -45.5 -203 -45.5c-156 0 -282.667 48.833 -380 146.5s-146 230.5 -146 398.5s48.667 300.833 146 398.5
s224 146.5 380 146.5c78 0 145.5 -15.167 202.5 -45.5s102.167 -70.5 135.5 -120.5v136zM387.998 514.999c0 -86.667 23.5 -157.167 70.5 -211.5s112.833 -81.5 197.5 -81.5s150.5 27.167 197.5 81.5s70.5 124.833 70.5 211.5s-23.5 157.167 -70.5 211.5
s-112.833 81.5 -197.5 81.5s-150.5 -27.167 -197.5 -81.5s-70.5 -124.833 -70.5 -211.5zM945.998 1556l-153 -424h-299l191 424h261z" />
    <glyph glyph-name="Hcircumflex" unicode="&#x124;" horiz-adv-x="1491" 
d="M1058 876v558h333v-1434h-333v587h-625v-587h-333v1434h333v-558h625zM848 1827l301 -291h-248l-156 109l-156 -109h-248l301 291h206z" />
    <glyph glyph-name="hcircumflex" unicode="&#x125;" 
d="M428 534l-0.000976562 -534h-328v1516h328v-595c60.667 92.667 152.334 139 275.001 139c164.667 0 284.667 -45 360 -135s113 -220.333 113 -391v-534h-328v534c0 90 -16 158.167 -48 204.5s-86 69.5 -162 69.5s-130 -23.167 -162 -69.5s-48 -114.5 -48 -204.5z
M740.999 1827l301 -291h-248l-156 109l-156 -109h-248l301 291h206z" />
    <glyph glyph-name="Hbar" unicode="&#x126;" horiz-adv-x="1739" 
d="M40 1030v238h184v166h333v-166h625v166h333v-166h184v-238h-184v-1030h-333v587h-625v-587h-333v1030h-184zM557 876h625v154h-625v-154z" />
    <glyph glyph-name="hbar" unicode="&#x127;" horiz-adv-x="1373" 
d="M525 534l-0.000976562 -534h-328v1121h-217v252h217v143h328v-143h312v-252h-312v-200c60.667 92.667 152.334 139 275.001 139c164.667 0 284.667 -45 360 -135s113 -220.333 113 -391v-534h-328v534c0 90 -16 158.167 -48 204.5s-86 69.5 -162 69.5
s-130 -23.167 -162 -69.5s-48 -114.5 -48 -204.5z" />
    <glyph glyph-name="Itilde" unicode="&#x128;" horiz-adv-x="623" 
d="M145 0v1434h333v-1434h-333zM283 1590c-36 30.667 -66.999 46.001 -92.999 46.001c-24 0 -42 -13 -54 -39c-5.33301 -13.333 -9 -26.333 -11 -39h-205c3.33301 52 14.333 98.333 33 139c43.333 93.333 120.666 140 231.999 140c58 0 109.667 -18 155 -54
c36 -30.667 67 -46 93 -46c24 0 42 13 54 39c5.33301 12 9 25 11 39h205c-2.66699 -50.667 -14 -97.334 -34 -140.001c-42.667 -92.667 -119.667 -139 -231 -139c-58 0 -109.667 18 -155 54z" />
    <glyph glyph-name="itilde" unicode="&#x129;" horiz-adv-x="643" 
d="M293 1207c-36 30.667 -66.999 46.001 -92.999 46.001c-24 0 -42 -13 -54 -39c-5.33301 -13.333 -9 -26.333 -11 -39h-205c3.33301 52 14.333 98.333 33 139c43.333 93.333 120.666 140 231.999 140c58 0 109.667 -18 155 -54c36 -30.667 67 -46 93 -46c24 0 42 13 54 39
c5.33301 12 9 25 11 39h205c-2.66699 -50.667 -14 -97.334 -34 -140.001c-42.667 -92.667 -119.667 -139 -231 -139c-58 0 -109.667 18 -155 54zM157.001 0.000976562v1030h328v-1030h-328z" />
    <glyph glyph-name="uni012A" unicode="&#x12a;" horiz-adv-x="774" 
d="M221 0v1434h333v-1434h-333zM-50 1536v252h874v-252h-874z" />
    <glyph glyph-name="imacron" unicode="&#x12b;" horiz-adv-x="674" 
d="M173 0v1030h328v-1030h-328zM-100 1182v252h874v-252h-874z" />
    <glyph glyph-name="Ibreve" unicode="&#x12c;" horiz-adv-x="588" 
d="M128 0v1434h333v-1434h-333zM294 1556c-59.333 0 -112.67 8.16699 -160.003 24.5s-85.333 38 -114 65s-51.167 55.333 -67.5 85s-27.166 60.167 -32.499 91.5h192c26 -65.333 86.667 -98 182 -98s156 32.667 182 98h192c-5.33301 -31.333 -16.166 -61.833 -32.499 -91.5
s-38.833 -58 -67.5 -85s-66.667 -48.667 -114 -65s-100.666 -24.5 -159.999 -24.5z" />
    <glyph glyph-name="uni012D" unicode="&#x12d;" horiz-adv-x="648" 
d="M160 0v1030h328v-1030h-328zM324 1168c-59.333 0 -112.67 8.16699 -160.003 24.5s-85.333 38 -114 65s-51.167 55.333 -67.5 85s-27.166 60.167 -32.499 91.5h192c26 -65.333 86.667 -98 182 -98s156 32.667 182 98h192c-5.33301 -31.333 -16.166 -61.833 -32.499 -91.5
s-38.833 -58 -67.5 -85s-66.667 -48.667 -114 -65s-100.666 -24.5 -159.999 -24.5z" />
    <glyph glyph-name="Iogonek" unicode="&#x12e;" horiz-adv-x="621" 
d="M469 1434v-1434c-24 -6.66699 -45.667 -16.667 -65 -30c-43.333 -30 -65 -67 -65 -111c0 -45.333 30.333 -77.333 91 -96c28 -8.66699 58.333 -13.334 91 -14.001v-247c-38 0 -74.667 2.16699 -110 6.5s-72.5 13 -111.5 26s-72.667 29.5 -101 49.5
s-51.833 47.167 -70.5 81.5s-28 73.5 -28 117.5c0 15.333 1.33301 30.166 4 44.499s6.16699 27.333 10.5 39s9.5 22.667 15.5 33s12.333 19.5 19 27.5s13.667 15.667 21 23s14.333 13.333 21 18l20 13.5c6.66699 4.33301 12.167 7.66602 16.5 9.99902l12.5 6.5l5 2h-109
v1434h333z" />
    <glyph glyph-name="iogonek" unicode="&#x12f;" horiz-adv-x="621" 
d="M469 1030v-1030c-24 -6.66699 -45.667 -16.667 -65 -30c-43.333 -30 -65 -67 -65 -111c0 -45.333 30.333 -77.333 91 -96c28 -8.66699 58.333 -13.334 91 -14.001v-247c-38 0 -74.667 2.16699 -110 6.5s-72.5 13 -111.5 26s-72.667 29.5 -101 49.5
s-51.833 47.167 -70.5 81.5s-28 73.5 -28 117.5c0 15.333 1.33301 30.166 4 44.499s6.16699 27.333 10.5 39s9.5 22.667 15.5 33s12.333 19.5 19 27.5s13.667 15.667 21 23s14.333 13.333 21 18l20 13.5c6.66699 4.33301 12.167 7.66602 16.5 9.99902l12.5 6.5l5 2h-103
v1030h327zM133 1334c0 47.333 16.833 87.833 50.5 121.5s74.167 50.5 121.5 50.5s87.833 -16.833 121.5 -50.5s50.5 -74.167 50.5 -121.5s-16.833 -87.833 -50.5 -121.5s-74.167 -50.5 -121.5 -50.5s-87.833 16.833 -121.5 50.5s-50.5 74.167 -50.5 121.5z" />
    <glyph glyph-name="Idot" unicode="&#x130;" horiz-adv-x="544" 
d="M106 0v1434h333v-1434h-333zM100 1708c0 47.333 16.833 87.833 50.5 121.5s74.167 50.5 121.5 50.5s87.833 -16.833 121.5 -50.5s50.5 -74.167 50.5 -121.5s-16.833 -87.833 -50.5 -121.5s-74.167 -50.5 -121.5 -50.5s-87.833 16.833 -121.5 50.5
s-50.5 74.167 -50.5 121.5z" />
    <glyph glyph-name="dotlessi" unicode="&#x131;" horiz-adv-x="528" 
d="M100 0v1030h328v-1030h-328z" />
    <glyph glyph-name="IJ" unicode="&#x132;" horiz-adv-x="1656" 
d="M100 0v1434h333v-1434h-333zM502 318l307.998 85.001c22 -50 49.833 -88.167 83.5 -114.5s79.834 -39.5 138.501 -39.5c68.667 0 117.667 18.667 147 56s44 95.666 44 174.999v954h333v-954c0 -346.667 -174.667 -520 -524 -520c-81.333 0 -153.166 9 -215.499 27
s-113.833 44 -154.5 78s-73.5 71.333 -98.5 112s-45.5 87.667 -61.5 141z" />
    <glyph glyph-name="ij" unicode="&#x133;" horiz-adv-x="1124" 
d="M109 0v1030h327v-1030h-327zM100 1334c0 47.333 16.833 87.833 50.5 121.5s74.167 50.5 121.5 50.5s87.833 -16.833 121.5 -50.5s50.5 -74.167 50.5 -121.5s-16.833 -87.833 -50.5 -121.5s-74.167 -50.5 -121.5 -50.5s-87.833 16.833 -121.5 50.5
s-50.5 74.167 -50.5 121.5zM680 1334c0 47.333 16.833 87.833 50.5 121.5s74.167 50.5 121.5 50.5s87.833 -16.833 121.5 -50.5s50.5 -74.167 50.5 -121.5s-16.833 -87.833 -50.5 -121.5s-74.167 -50.5 -121.5 -50.5s-87.833 16.833 -121.5 50.5s-50.5 74.167 -50.5 121.5z
M364 -488l82 229.002c38.667 -14 78.334 -21 119.001 -21c20 0 37.333 3.16699 52 9.5s26.334 16 35.001 29s15.5 25.5 20.5 37.5s8.66699 28.167 11 48.5s3.66602 36.166 3.99902 47.499s0.5 27.333 0.5 48v1090h328v-1090c0 -78.667 -7.33301 -146.334 -22 -203.001
s-38.5 -105.5 -71.5 -146.5s-77.5 -71.667 -133.5 -92s-124 -30.5 -204 -30.5c-92.667 0 -166.334 14.667 -221.001 44z" />
    <glyph glyph-name="Jcircumflex" unicode="&#x134;" horiz-adv-x="1196" 
d="M40 318l307.998 85.001c22 -50 49.833 -88.167 83.5 -114.5s79.834 -39.5 138.501 -39.5c68.667 0 117.667 18.667 147 56s44 95.666 44 174.999v954h333v-954c0 -346.667 -174.667 -520 -524 -520c-81.333 0 -153.166 9 -215.499 27s-113.833 44 -154.5 78
s-73.5 71.333 -98.5 112s-45.5 87.667 -61.5 141zM1035 1827l301 -291h-248l-156 109l-156 -109h-248l301 291h206z" />
    <glyph glyph-name="jcircumflex" unicode="&#x135;" horiz-adv-x="705" 
d="M454 1434l301 -291h-248l-156 109l-156 -109h-248l301 291h206zM-140 -488l82 229.002c38.667 -14 78.334 -21 119.001 -21c20 0 37.333 3.16699 52 9.5s26.334 16 35.001 29s15.5 25.5 20.5 37.5s8.66699 28.167 11 48.5s3.66602 36.166 3.99902 47.499
s0.5 27.333 0.5 48v1090h328v-1090c0 -78.667 -7.33301 -146.334 -22 -203.001s-38.5 -105.5 -71.5 -146.5s-77.5 -71.667 -133.5 -92s-124 -30.5 -204 -30.5c-92.667 0 -166.334 14.667 -221.001 44z" />
    <glyph glyph-name="Kcommaaccent" unicode="&#x136;" horiz-adv-x="1441" 
d="M433 852l571 582h407l-610 -621l630 -813h-395l-454 587l-149 -153v-434h-333v1434h333v-582zM418 -532l153 424h299l-191 -424h-261z" />
    <glyph glyph-name="kcommaaccent" unicode="&#x137;" horiz-adv-x="1244" 
d="M428 677l391 353h415l-481 -434l481 -596h-385l-318 394l-103 -92v-302h-328v1516h328v-839zM328 -532l153 424h299l-191 -424h-261z" />
    <glyph glyph-name="kgreenlandic" unicode="&#x138;" horiz-adv-x="1414" 
d="M1317 1434v-315c-84.667 0 -169 -24.333 -253 -73s-188.333 -125.334 -313 -230.001c59.333 -32.667 118.5 -73.5 177.5 -122.5s117.667 -107 176 -174s113.666 -145.167 165.999 -234.5s96.833 -184.333 133.5 -285h-366c-140 294 -311 497 -513 609l-92 -80v-529h-333
v1434h333v-511l111.5 101l113 104c31 28 67.667 59.5 110 94.5s82.5 63.833 120.5 86.5s79.833 44.334 125.5 65.001s93.834 36 144.501 46s103.667 14.667 159 14z" />
    <glyph glyph-name="Lacute" unicode="&#x139;" horiz-adv-x="1191" 
d="M433 1434v-1145h698v-289h-1031v1434h333zM130 1536l251 310h333l-314 -310h-270z" />
    <glyph glyph-name="lacute" unicode="&#x13a;" horiz-adv-x="540" 
d="M100 390l-0.000976562 1126h328v-1096v-36c0 -7.33301 0.5 -18.333 1.5 -33s2.5 -25.667 4.5 -33s4.83301 -16 8.5 -26s8.33398 -17.333 14.001 -22s12.834 -8.83398 21.501 -12.501s18.667 -5.5 30 -5.5h39v-252h-106c-64.667 0 -120 10 -166 30s-80 42.333 -102 67
s-38.833 58.167 -50.5 100.5s-18.334 75.333 -20.001 99s-2.5 54.834 -2.5 93.501zM125.999 1596l251 310h333l-314 -310h-270z" />
    <glyph glyph-name="Lcommaaccent" unicode="&#x13b;" horiz-adv-x="1191" 
d="M433 1434v-1145h698v-289h-1031v1434h333zM328 -532l153 424h299l-191 -424h-261z" />
    <glyph glyph-name="lcommaaccent" unicode="&#x13c;" horiz-adv-x="639" 
d="M132 390l-0.000976562 1126h328v-1096v-36c0 -7.33301 0.5 -18.333 1.5 -33s2.5 -25.667 4.5 -33s4.83301 -16 8.5 -26s8.33398 -17.333 14.001 -22s12.834 -8.83398 21.501 -12.501s18.667 -5.5 30 -5.5h39v-252h-106c-64.667 0 -120 10 -166 30s-80 42.333 -102 67
s-38.833 58.167 -50.5 100.5s-18.334 75.333 -20.001 99s-2.5 54.834 -2.5 93.501zM99.999 -532l153 424h299l-191 -424h-261z" />
    <glyph glyph-name="Lcaron" unicode="&#x13d;" horiz-adv-x="1191" 
d="M433 1434v-1145h698v-289h-1031v1434h333zM508 892l211 542h319l-249 -542h-281z" />
    <glyph glyph-name="lcaron" unicode="&#x13e;" horiz-adv-x="991" 
d="M100 390l-0.000976562 1126h328v-1096v-36c0 -7.33301 0.5 -18.333 1.5 -33s2.5 -25.667 4.5 -33s4.83301 -16 8.5 -26s8.33398 -17.333 14.001 -22s12.834 -8.83398 21.501 -12.501s18.667 -5.5 30 -5.5h39v-252h-106c-64.667 0 -120 10 -166 30s-80 42.333 -102 67
s-38.833 58.167 -50.5 100.5s-18.334 75.333 -20.001 99s-2.5 54.834 -2.5 93.501zM480.999 974l211 542h319l-249 -542h-281z" />
    <glyph glyph-name="Ldot" unicode="&#x13f;" horiz-adv-x="1191" 
d="M433 1434v-1145h698v-289h-1031v1434h333zM620 773c0 48 16.833 88.833 50.5 122.5s74.5 50.5 122.5 50.5s88.833 -16.833 122.5 -50.5s50.5 -74.5 50.5 -122.5s-16.833 -88.833 -50.5 -122.5s-74.5 -50.5 -122.5 -50.5s-88.833 16.833 -122.5 50.5
s-50.5 74.5 -50.5 122.5z" />
    <glyph glyph-name="ldot" unicode="&#x140;" horiz-adv-x="902" 
d="M100 390l-0.000976562 1126h328v-1096v-36c0 -7.33301 0.5 -18.333 1.5 -33s2.5 -25.667 4.5 -33s4.83301 -16 8.5 -26s8.33398 -17.333 14.001 -22s12.834 -8.83398 21.501 -12.501s18.667 -5.5 30 -5.5h39v-252h-106c-64.667 0 -120 10 -166 30s-80 42.333 -102 67
s-38.833 58.167 -50.5 100.5s-18.334 75.333 -20.001 99s-2.5 54.834 -2.5 93.501zM515.999 773c0 48 16.833 88.833 50.5 122.5s74.5 50.5 122.5 50.5s88.833 -16.833 122.5 -50.5s50.5 -74.5 50.5 -122.5s-16.833 -88.833 -50.5 -122.5s-74.5 -50.5 -122.5 -50.5
s-88.833 16.833 -122.5 50.5s-50.5 74.5 -50.5 122.5z" />
    <glyph glyph-name="Lslash" unicode="&#x141;" horiz-adv-x="1322" 
d="M564 704v-415h698v-289h-1031v514l-221 -126v289l221 126v631h333v-441l221 126v-289z" />
    <glyph glyph-name="lslash" unicode="&#x142;" horiz-adv-x="795" 
d="M10 445l-0.000976562 289l223 125v657h328v-474l224 126v-289l-224 -126v-333v-36c0 -7.33301 0.5 -18.333 1.5 -33s2.5 -25.667 4.5 -33s4.83301 -16 8.5 -26s8.33398 -17.333 14.001 -22s12.834 -8.83398 21.501 -12.501s18.667 -5.5 30 -5.5h39v-252h-106
c-64.667 0 -120 10 -166 30s-80 42.333 -102 67s-38.833 58.167 -50.5 100.5s-18.334 75.333 -20.001 99s-2.5 54.834 -2.5 93.501v180z" />
    <glyph glyph-name="Nacute" unicode="&#x143;" horiz-adv-x="1573" 
d="M130 0v1434h422l558 -956v956h333v-1434h-422l-558 956v-956h-333zM611 1536l251 310h333l-314 -310h-270z" />
    <glyph glyph-name="nacute" unicode="&#x144;" 
d="M428 534l-0.000976562 -534h-328v1030h328v-109c60.667 92.667 152.334 139 275.001 139c164.667 0 284.667 -45 360 -135s113 -220.333 113 -391v-534h-328v534c0 90 -16 158.167 -48 204.5s-86 69.5 -162 69.5s-130 -23.167 -162 -69.5s-48 -114.5 -48 -204.5z
M470.999 1124l251 310h333l-314 -310h-270z" />
    <glyph glyph-name="Ncommaaccent" unicode="&#x145;" horiz-adv-x="1513" 
d="M100 0v1434h422l558 -956v956h333v-1434h-422l-558 956v-956h-333zM468 -532l153 424h299l-191 -424h-261z" />
    <glyph glyph-name="ncommaaccent" unicode="&#x146;" 
d="M428 534l-0.000976562 -534h-328v1030h328v-109c60.667 92.667 152.334 139 275.001 139c164.667 0 284.667 -45 360 -135s113 -220.333 113 -391v-534h-328v534c0 90 -16 158.167 -48 204.5s-86 69.5 -162 69.5s-130 -23.167 -162 -69.5s-48 -114.5 -48 -204.5z
M339.999 -532l153 424h299l-191 -424h-261z" />
    <glyph glyph-name="Ncaron" unicode="&#x147;" horiz-adv-x="1573" 
d="M130 0v1434h422l558 -956v956h333v-1434h-422l-558 956v-956h-333zM1190 1827l-301 -291h-206l-301 291h248l156 -109l156 109h248z" />
    <glyph glyph-name="ncaron" unicode="&#x148;" 
d="M428 534l-0.000976562 -534h-328v1030h328v-109c60.667 92.667 152.334 139 275.001 139c164.667 0 284.667 -45 360 -135s113 -220.333 113 -391v-534h-328v534c0 90 -16 158.167 -48 204.5s-86 69.5 -162 69.5s-130 -23.167 -162 -69.5s-48 -114.5 -48 -204.5z
M1042 1434l-301 -291h-206l-301 291h248l156 -109l156 109h248z" />
    <glyph glyph-name="napostrophe" unicode="&#x149;" horiz-adv-x="1613" 
d="M765 534l-0.000976562 -534h-328v1030h328v-109c60.667 92.667 152.334 139 275.001 139c164.667 0 284.667 -45 360 -135s113 -220.333 113 -391v-534h-328v534c0 90 -16 158.167 -48 204.5s-86 69.5 -162 69.5s-130 -23.167 -162 -69.5s-48 -114.5 -48 -204.5z
M99.999 1010l153 424h299l-191 -424h-261z" />
    <glyph glyph-name="Eng" unicode="&#x14a;" horiz-adv-x="1513" 
d="M100 0l-0.000976562 1434h422l558 -956v956h333v-1434c0 -179.333 -42.167 -312.833 -126.5 -400.5s-203.5 -131.5 -357.5 -131.5c-102.667 0 -188 16.333 -256 49s-126 88.334 -174 167.001l238 167c26.667 -31.333 54.334 -54.833 83.001 -70.5s65 -23.5 109 -23.5
c57.333 0 96.833 19.667 118.5 59s32.5 100.666 32.5 183.999h-89l-558 956v-956h-333z" />
    <glyph glyph-name="eng" unicode="&#x14b;" 
d="M524 -488l81.999 229.002c38.667 -14 78.334 -21 119.001 -21c20 0 37.333 3.16699 52 9.5s26.334 16 35.001 29s15.5 25.5 20.5 37.5s8.66699 28.167 11 48.5s3.66602 36.166 3.99902 47.499s0.5 27.333 0.5 48v594c0 90 -16 158.167 -48 204.5s-86 69.5 -162 69.5
s-130 -23.167 -162 -69.5s-48 -114.5 -48 -204.5v-534h-328v1030h328v-109c60.667 92.667 152.334 139 275.001 139c164.667 0 284.667 -45 360 -135s113 -220.333 113 -391v-594c0 -78.667 -7.33301 -146.334 -22 -203.001s-38.5 -105.5 -71.5 -146.5
s-77.5 -71.667 -133.5 -92s-124 -30.5 -204 -30.5c-92.667 0 -166.334 14.667 -221.001 44z" />
    <glyph glyph-name="Omacron" unicode="&#x14c;" horiz-adv-x="1672" 
d="M836 1474c105.333 0 201.166 -13.5 287.499 -40.5s159.333 -63.833 219 -110.5s110 -102.167 151 -166.5s71 -133.166 90 -206.499s28.5 -151 28.5 -233s-9.5 -159.667 -28.5 -233s-49 -142.166 -90 -206.499s-91.333 -119.833 -151 -166.5s-132.667 -83.5 -219 -110.5
s-182.166 -40.5 -287.499 -40.5s-201.166 13.5 -287.499 40.5s-159.333 63.833 -219 110.5s-110 102.167 -151 166.5s-71 133.166 -90 206.499s-28.5 151 -28.5 233s9.5 159.667 28.5 233s49 142.166 90 206.499s91.333 119.833 151 166.5s132.667 83.5 219 110.5
s182.166 40.5 287.499 40.5zM836 1185c-73.333 0 -138 -11.833 -194 -35.5s-101.167 -56.834 -135.5 -99.501s-60.166 -92 -77.499 -148s-26 -117.667 -26 -185s8.66699 -129 26 -185s43.166 -105.333 77.499 -148s79.5 -75.834 135.5 -99.501s120.667 -35.5 194 -35.5
s138 11.833 194 35.5s101.167 56.834 135.5 99.501s60.166 92 77.499 148s26 117.667 26 185s-8.66699 129 -26 185s-43.166 105.333 -77.499 148s-79.5 75.834 -135.5 99.501s-120.667 35.5 -194 35.5zM399 1537v252h874v-252h-874z" />
    <glyph glyph-name="omacron" unicode="&#x14d;" horiz-adv-x="1332" 
d="M666 -30c-182.667 0 -329.33 50.333 -439.997 151s-166 232 -166 394c0 162.667 55.167 294.167 165.5 394.5s257.166 150.5 440.499 150.5s330.166 -50.167 440.499 -150.5s165.5 -231.833 165.5 -394.5c0 -162 -55.333 -293.333 -166 -394s-257.334 -151 -440.001 -151
zM666.004 222c89.333 0 158 27 206 81s72 124.667 72 212s-24 158 -72 212s-116.667 81 -206 81s-158 -27 -206 -81s-72 -124.667 -72 -212s24 -158 72 -212s116.667 -81 206 -81zM229.004 1182v252h874v-252h-874z" />
    <glyph glyph-name="Obreve" unicode="&#x14e;" horiz-adv-x="1672" 
d="M836 1474c105.333 0 201.166 -13.5 287.499 -40.5s159.333 -63.833 219 -110.5s110 -102.167 151 -166.5s71 -133.166 90 -206.499s28.5 -151 28.5 -233s-9.5 -159.667 -28.5 -233s-49 -142.166 -90 -206.499s-91.333 -119.833 -151 -166.5s-132.667 -83.5 -219 -110.5
s-182.166 -40.5 -287.499 -40.5s-201.166 13.5 -287.499 40.5s-159.333 63.833 -219 110.5s-110 102.167 -151 166.5s-71 133.166 -90 206.499s-28.5 151 -28.5 233s9.5 159.667 28.5 233s49 142.166 90 206.499s91.333 119.833 151 166.5s132.667 83.5 219 110.5
s182.166 40.5 287.499 40.5zM836 1185c-73.333 0 -138 -11.833 -194 -35.5s-101.167 -56.834 -135.5 -99.501s-60.166 -92 -77.499 -148s-26 -117.667 -26 -185s8.66699 -129 26 -185s43.166 -105.333 77.499 -148s79.5 -75.834 135.5 -99.501s120.667 -35.5 194 -35.5
s138 11.833 194 35.5s101.167 56.834 135.5 99.501s60.166 92 77.499 148s26 117.667 26 185s-8.66699 129 -26 185s-43.166 105.333 -77.499 148s-79.5 75.834 -135.5 99.501s-120.667 35.5 -194 35.5zM836 1536c-59.333 0 -112.67 8.16699 -160.003 24.5
s-85.333 38 -114 65s-51.167 55.333 -67.5 85s-27.166 60.167 -32.499 91.5h192c26 -65.333 86.667 -98 182 -98s156 32.667 182 98h192c-5.33301 -31.333 -16.166 -61.833 -32.499 -91.5s-38.833 -58 -67.5 -85s-66.667 -48.667 -114 -65s-100.666 -24.5 -159.999 -24.5z
" />
    <glyph glyph-name="obreve" unicode="&#x14f;" horiz-adv-x="1332" 
d="M666 -30c-182.667 0 -329.33 50.333 -439.997 151s-166 232 -166 394c0 162.667 55.167 294.167 165.5 394.5s257.166 150.5 440.499 150.5s330.166 -50.167 440.499 -150.5s165.5 -231.833 165.5 -394.5c0 -162 -55.333 -293.333 -166 -394s-257.334 -151 -440.001 -151
zM666.004 222c89.333 0 158 27 206 81s72 124.667 72 212s-24 158 -72 212s-116.667 81 -206 81s-158 -27 -206 -81s-72 -124.667 -72 -212s24 -158 72 -212s116.667 -81 206 -81zM666.004 1168c-59.333 0 -112.67 8.16699 -160.003 24.5s-85.333 38 -114 65
s-51.167 55.333 -67.5 85s-27.166 60.167 -32.499 91.5h192c26 -65.333 86.667 -98 182 -98s156 32.667 182 98h192c-5.33301 -31.333 -16.166 -61.833 -32.499 -91.5s-38.833 -58 -67.5 -85s-66.667 -48.667 -114 -65s-100.666 -24.5 -159.999 -24.5z" />
    <glyph glyph-name="Ohungarumlaut" unicode="&#x150;" horiz-adv-x="1672" 
d="M836 1474c105.333 0 201.166 -13.5 287.499 -40.5s159.333 -63.833 219 -110.5s110 -102.167 151 -166.5s71 -133.166 90 -206.499s28.5 -151 28.5 -233s-9.5 -159.667 -28.5 -233s-49 -142.166 -90 -206.499s-91.333 -119.833 -151 -166.5s-132.667 -83.5 -219 -110.5
s-182.166 -40.5 -287.499 -40.5s-201.166 13.5 -287.499 40.5s-159.333 63.833 -219 110.5s-110 102.167 -151 166.5s-71 133.166 -90 206.499s-28.5 151 -28.5 233s9.5 159.667 28.5 233s49 142.166 90 206.499s91.333 119.833 151 166.5s132.667 83.5 219 110.5
s182.166 40.5 287.499 40.5zM836 1185c-73.333 0 -138 -11.833 -194 -35.5s-101.167 -56.834 -135.5 -99.501s-60.166 -92 -77.499 -148s-26 -117.667 -26 -185s8.66699 -129 26 -185s43.166 -105.333 77.499 -148s79.5 -75.834 135.5 -99.501s120.667 -35.5 194 -35.5
s138 11.833 194 35.5s101.167 56.834 135.5 99.501s60.166 92 77.499 148s26 117.667 26 185s-8.66699 129 -26 185s-43.166 105.333 -77.499 148s-79.5 75.834 -135.5 99.501s-120.667 35.5 -194 35.5zM559 1536l91 342h269l-149 -342h-211zM903 1536l91 342h269l-149 -342
h-211z" />
    <glyph glyph-name="ohungarumlaut" unicode="&#x151;" horiz-adv-x="1332" 
d="M666 -30c-182.667 0 -329.33 50.333 -439.997 151s-166 232 -166 394c0 162.667 55.167 294.167 165.5 394.5s257.166 150.5 440.499 150.5s330.166 -50.167 440.499 -150.5s165.5 -231.833 165.5 -394.5c0 -162 -55.333 -293.333 -166 -394s-257.334 -151 -440.001 -151
zM666.004 222c89.333 0 158 27 206 81s72 124.667 72 212s-24 158 -72 212s-116.667 81 -206 81s-158 -27 -206 -81s-72 -124.667 -72 -212s24 -158 72 -212s116.667 -81 206 -81zM401.004 1174l91 342h269l-149 -342h-211zM745.004 1174l91 342h269l-149 -342h-211z" />
    <glyph glyph-name="OE" unicode="&#x152;" horiz-adv-x="2278" 
d="M1122 1434l1066 0.00195312v-289h-733v-269h690v-289h-690v-298h743v-289h-1076c-89.333 -26.667 -184.666 -40 -285.999 -40c-105.333 0 -201.166 13.5 -287.499 40.5s-159.333 63.833 -219 110.5s-110 102.167 -151 166.5s-71 133.166 -90 206.499s-28.5 151 -28.5 233
s9.5 159.667 28.5 233s49 142.166 90 206.499s91.333 119.833 151 166.5s132.667 83.5 219 110.5s182.166 40.5 287.499 40.5c101.333 0 196.666 -13.333 285.999 -40zM836 1185c-73.333 0 -138 -11.8311 -194 -35.498s-101.167 -56.834 -135.5 -99.501
s-60.166 -92 -77.499 -148s-26 -117.667 -26 -185s8.66699 -129 26 -185s43.166 -105.333 77.499 -148s79.5 -75.834 135.5 -99.501s120.667 -35.5 194 -35.5c118.667 0 214 30.667 286 92v752c-72 61.333 -167.333 92 -286 92z" />
    <glyph glyph-name="oe" unicode="&#x153;" horiz-adv-x="2130" 
d="M1843 306l162 -184.001c-126 -101.333 -289.667 -152 -491 -152c-178.667 0 -317.667 47.667 -417 143c-108.667 -95.333 -252.334 -143 -431.001 -143c-182.667 0 -329.334 50.333 -440.001 151s-166 232 -166 394c0 162.667 55.167 294.167 165.5 394.5
s257.166 150.5 440.499 150.5c178.667 0 323 -48.333 433 -145c102 96.667 240.333 145 415 145c194.667 0 340 -58.667 436 -176s134 -280.666 114 -489.999h-779c0 -23.333 3.83301 -45.333 11.5 -66s19.834 -40 36.501 -58s40.334 -32.167 71.001 -42.5
s67.334 -15.5 110.001 -15.5c131.333 0 241 31.333 329 94zM666 221.999c89.333 0 158 27 206 81s72 124.667 72 212s-24 158 -72 212s-116.667 81 -206 81s-158 -27 -206 -81s-72 -124.667 -72 -212s24 -158 72 -212s116.667 -81 206 -81zM1286 605.999h455.998
c0 24.667 -3.66699 48.5 -11 71.5s-19.166 45.5 -35.499 67.5s-40 39.667 -71 53s-67.833 20 -110.5 20s-79.5 -6.66699 -110.5 -20s-54.667 -31 -71 -53s-28.166 -44.5 -35.499 -67.5s-11 -46.833 -11 -71.5z" />
    <glyph glyph-name="Racute" unicode="&#x154;" horiz-adv-x="1380" 
d="M433 0l-333 -0.000976562v1434h642c94.667 0 178.5 -12.833 251.5 -38.5s132 -61 177 -106s78.833 -96.167 101.5 -153.5s34 -119.666 34 -186.999c0 -54 -7.66699 -103.833 -23 -149.5s-36.833 -85 -64.5 -118s-57.667 -61 -90 -84s-68.5 -43.167 -108.5 -60.5l300 -537
h-357l-276 494h-254v-494zM742 1145h-309v-392h309c80.667 0 138.667 18.167 174 54.5s53 83.5 53 141.5s-17.667 105.167 -53 141.5s-93.333 54.5 -174 54.5zM494 1536l251 310h333l-314 -310h-270z" />
    <glyph glyph-name="racute" unicode="&#x155;" horiz-adv-x="958" 
d="M948 1012l-144.001 -248c-46 29.333 -101.333 44 -166 44c-76 0 -130 -23.167 -162 -69.5s-48 -114.5 -48 -204.5v-534h-328v1030h328v-109c60.667 92.667 152.334 139 275.001 139c96 0 177.667 -16 245 -48zM362.999 1124l251 310h333l-314 -310h-270z" />
    <glyph glyph-name="Rcommaaccent" unicode="&#x156;" horiz-adv-x="1380" 
d="M433 0l-333 -0.000976562v1434h642c94.667 0 178.5 -12.833 251.5 -38.5s132 -61 177 -106s78.833 -96.167 101.5 -153.5s34 -119.666 34 -186.999c0 -54 -7.66699 -103.833 -23 -149.5s-36.833 -85 -64.5 -118s-57.667 -61 -90 -84s-68.5 -43.167 -108.5 -60.5l300 -537
h-357l-276 494h-254v-494zM742 1145h-309v-392h309c80.667 0 138.667 18.167 174 54.5s53 83.5 53 141.5s-17.667 105.167 -53 141.5s-93.333 54.5 -174 54.5zM383 -532.001l153 424h299l-191 -424h-261z" />
    <glyph glyph-name="rcommaaccent" unicode="&#x157;" horiz-adv-x="980" 
d="M970 1012l-144.001 -248c-46 29.333 -101.333 44 -166 44c-76 0 -130 -23.167 -162 -69.5s-48 -114.5 -48 -204.5v-534h-328v1030h328v-109c60.667 92.667 152.334 139 275.001 139c96 0 177.667 -16 245 -48zM-20.001 -532l153 424h299l-191 -424h-261z" />
    <glyph glyph-name="Rcaron" unicode="&#x158;" horiz-adv-x="1380" 
d="M433 0l-333 -0.000976562v1434h642c94.667 0 178.5 -12.833 251.5 -38.5s132 -61 177 -106s78.833 -96.167 101.5 -153.5s34 -119.666 34 -186.999c0 -54 -7.66699 -103.833 -23 -149.5s-36.833 -85 -64.5 -118s-57.667 -61 -90 -84s-68.5 -43.167 -108.5 -60.5l300 -537
h-357l-276 494h-254v-494zM742 1145h-309v-392h309c80.667 0 138.667 18.167 174 54.5s53 83.5 53 141.5s-17.667 105.167 -53 141.5s-93.333 54.5 -174 54.5zM1048 1827l-301 -291h-206l-301 291h248l156 -109l156 109h248z" />
    <glyph glyph-name="rcaron" unicode="&#x159;" horiz-adv-x="962" 
d="M952 1012l-144.001 -248c-46 29.333 -101.333 44 -166 44c-76 0 -130 -23.167 -162 -69.5s-48 -114.5 -48 -204.5v-534h-328v1030h328v-109c60.667 92.667 152.334 139 275.001 139c96 0 177.667 -16 245 -48zM907.999 1434l-301 -291h-206l-301 291h248l156 -109
l156 109h248z" />
    <glyph glyph-name="Sacute" unicode="&#x15a;" horiz-adv-x="1296" 
d="M1198 1330l-161.998 -235.001c-120.667 60 -252 90 -394 90c-72.667 0 -127.334 -12 -164.001 -36s-55 -58.333 -55 -103c0 -46 21.667 -82.5 65 -109.5s110.666 -49.833 201.999 -68.5c94.667 -20 175.5 -42.833 242.5 -68.5s125.5 -57 175.5 -94
s87.167 -80.833 111.5 -131.5s36.5 -109.334 36.5 -176.001c0 -145.333 -54.333 -254.666 -163 -327.999s-259 -110 -451 -110c-253.333 0 -454 57.333 -602 172l162 235c125.333 -78.667 272 -118 440 -118c97.333 0 167.833 12.667 211.5 38s65.5 62.333 65.5 111
c0 45.333 -22.333 80.333 -67 105s-119.667 47.667 -225 69c-186 39.333 -322.667 98.5 -410 177.5s-131 177.833 -131 296.5c0 45.333 6 88.333 18 129s31.833 79.5 59.5 116.5s62.5 68.833 104.5 95.5s94.833 47.834 158.5 63.501s135.5 23.5 215.5 23.5
c228 0 413.333 -48 556 -144zM512.002 1536l251 310h333l-314 -310h-270z" />
    <glyph glyph-name="sacute" unicode="&#x15b;" horiz-adv-x="1064" 
d="M973 953l-124 -211.002c-101.333 44 -205.333 66 -312 66c-84 0 -126 -24 -126 -72c0 -23.333 14 -41.666 42 -54.999s68.333 -24.666 121 -33.999c74 -14.667 136.667 -30.667 188 -48s97.666 -39.333 138.999 -66s72.166 -59.667 92.499 -99s30.5 -85.333 30.5 -138
c0 -57.333 -13.333 -107.666 -40 -150.999s-63.167 -77.333 -109.5 -102s-97.666 -43 -153.999 -55s-117.5 -18 -183.5 -18c-218 0 -383.667 45 -497 135l124 211c112 -62.667 236.333 -94 373 -94c52.667 0 92.334 5.33301 119.001 16s40 30 40 58s-12.5 48.167 -37.5 60.5
s-71.167 25.166 -138.5 38.499c-148.667 28 -258.667 69.667 -330 125s-107 127.333 -107 216c0 104 39.833 184 119.5 240s191.167 84 334.5 84c172.667 0 318 -35.667 436 -107zM388 1124l251 310h333l-314 -310h-270z" />
    <glyph glyph-name="Scircumflex" unicode="&#x15c;" horiz-adv-x="1296" 
d="M1198 1330l-161.998 -235.001c-120.667 60 -252 90 -394 90c-72.667 0 -127.334 -12 -164.001 -36s-55 -58.333 -55 -103c0 -46 21.667 -82.5 65 -109.5s110.666 -49.833 201.999 -68.5c94.667 -20 175.5 -42.833 242.5 -68.5s125.5 -57 175.5 -94
s87.167 -80.833 111.5 -131.5s36.5 -109.334 36.5 -176.001c0 -145.333 -54.333 -254.666 -163 -327.999s-259 -110 -451 -110c-253.333 0 -454 57.333 -602 172l162 235c125.333 -78.667 272 -118 440 -118c97.333 0 167.833 12.667 211.5 38s65.5 62.333 65.5 111
c0 45.333 -22.333 80.333 -67 105s-119.667 47.667 -225 69c-186 39.333 -322.667 98.5 -410 177.5s-131 177.833 -131 296.5c0 45.333 6 88.333 18 129s31.833 79.5 59.5 116.5s62.5 68.833 104.5 95.5s94.833 47.834 158.5 63.501s135.5 23.5 215.5 23.5
c228 0 413.333 -48 556 -144zM767.002 1827l301 -291h-248l-156 109l-156 -109h-248l301 291h206z" />
    <glyph glyph-name="scircumflex" unicode="&#x15d;" horiz-adv-x="1064" 
d="M973 953l-124 -211.002c-101.333 44 -205.333 66 -312 66c-84 0 -126 -24 -126 -72c0 -23.333 14 -41.666 42 -54.999s68.333 -24.666 121 -33.999c74 -14.667 136.667 -30.667 188 -48s97.666 -39.333 138.999 -66s72.166 -59.667 92.499 -99s30.5 -85.333 30.5 -138
c0 -57.333 -13.333 -107.666 -40 -150.999s-63.167 -77.333 -109.5 -102s-97.666 -43 -153.999 -55s-117.5 -18 -183.5 -18c-218 0 -383.667 45 -497 135l124 211c112 -62.667 236.333 -94 373 -94c52.667 0 92.334 5.33301 119.001 16s40 30 40 58s-12.5 48.167 -37.5 60.5
s-71.167 25.166 -138.5 38.499c-148.667 28 -258.667 69.667 -330 125s-107 127.333 -107 216c0 104 39.833 184 119.5 240s191.167 84 334.5 84c172.667 0 318 -35.667 436 -107zM651 1434l301 -291h-248l-156 109l-156 -109h-248l301 291h206z" />
    <glyph glyph-name="Scedilla" unicode="&#x15e;" horiz-adv-x="1296" 
d="M395 -497l53 127.005c20 -8.66699 44.5 -15.834 73.5 -21.501s58.833 -8.5 89.5 -8.5s57.5 7 80.5 21s35.833 35 38.5 63c2 14.667 -0.666992 27.167 -8 37.5s-18.666 17.666 -33.999 21.999s-31.333 7.5 -48 9.5s-36.667 2.16699 -60 0.5s-43.5 -3.5 -60.5 -5.5
s-36.167 -4.66699 -57.5 -8l71 224c-200 12.667 -364.333 68.667 -493 168l162 235c125.333 -78.667 272 -118 440 -118c97.333 0 167.833 12.667 211.5 38s65.5 62.333 65.5 111c0 45.333 -22.333 80.333 -67 105s-119.667 47.667 -225 69
c-186 39.333 -322.667 98.5 -410 177.5s-131 177.833 -131 296.5c0 45.333 6 88.333 18 129s31.833 79.5 59.5 116.5s62.5 68.833 104.5 95.5s94.833 47.834 158.5 63.501s135.5 23.5 215.5 23.5c228 0 413.333 -48 556 -144l-162 -235c-120.667 60 -252 90 -394 90
c-72.667 0 -127.334 -12 -164.001 -36s-55 -58.333 -55 -103c0 -46 21.667 -82.5 65 -109.5s110.666 -49.833 201.999 -68.5c94.667 -20 175.5 -42.833 242.5 -68.5s125.5 -57 175.5 -94s87.167 -80.833 111.5 -131.5s36.5 -109.334 36.5 -176.001
c0 -134.667 -47 -238.334 -141 -311.001s-225 -114 -393 -124l-28 -88c31.333 -0.666992 60.5 -5.33398 87.5 -14.001s51 -20.834 72 -36.501s36.833 -36.167 47.5 -61.5s14.667 -54 12 -86c-4 -49.333 -19.333 -90.833 -46 -124.5s-59.5 -57.5 -98.5 -71.5
s-81.5 -22 -127.5 -24s-90.167 1.16699 -132.5 9.5s-80.166 20.5 -113.499 36.5z" />
    <glyph glyph-name="scedilla" unicode="&#x15f;" horiz-adv-x="1064" 
d="M279 -497l52.999 127.002c20 -8.66699 44.5 -15.834 73.5 -21.501s58.833 -8.5 89.5 -8.5s57.5 7 80.5 21s35.833 35 38.5 63c2 14.667 -0.666992 27.167 -8 37.5s-18.666 17.666 -33.999 21.999s-31.333 7.5 -48 9.5s-36.667 2.16699 -60 0.5s-43.5 -3.5 -60.5 -5.5
s-36.167 -4.66699 -57.5 -8l75 235c-164 12.667 -291 56 -381 130l124 211c112 -62.667 236.333 -94 373 -94c52.667 0 92.334 5.33301 119.001 16s40 30 40 58s-12.5 48.167 -37.5 60.5s-71.167 25.166 -138.5 38.499c-148.667 28 -258.667 69.667 -330 125
s-107 127.333 -107 216c0 104 39.833 184 119.5 240s191.167 84 334.5 84c172.667 0 318 -35.667 436 -107l-124 -211c-101.333 44 -205.333 66 -312 66c-84 0 -126 -24 -126 -72c0 -23.333 14 -41.666 42 -54.999s68.333 -24.666 121 -33.999
c74 -14.667 136.667 -30.667 188 -48s97.666 -39.333 138.999 -66s72.166 -59.667 92.499 -99s30.5 -85.333 30.5 -138c0 -42 -7.33301 -80.333 -22 -115s-34.5 -64 -59.5 -88s-55.333 -44.5 -91 -61.5s-73.5 -30.167 -113.5 -39.5s-83 -15.666 -129 -18.999l-31 -98
c31.333 -0.666992 60.5 -5.33398 87.5 -14.001s51 -20.834 72 -36.501s36.833 -36.167 47.5 -61.5s14.667 -54 12 -86c-4 -49.333 -19.333 -90.833 -46 -124.5s-59.5 -57.5 -98.5 -71.5s-81.5 -22 -127.5 -24s-90.167 1.16699 -132.5 9.5s-80.166 20.5 -113.499 36.5z" />
    <glyph glyph-name="Scaron" unicode="&#x160;" horiz-adv-x="1396" 
d="M1238 1330l-161.998 -235.001c-120.667 60 -252 90 -394 90c-72.667 0 -127.334 -12 -164.001 -36s-55 -58.333 -55 -103c0 -46 21.667 -82.5 65 -109.5s110.666 -49.833 201.999 -68.5c94.667 -20 175.5 -42.833 242.5 -68.5s125.5 -57 175.5 -94
s87.167 -80.833 111.5 -131.5s36.5 -109.334 36.5 -176.001c0 -145.333 -54.333 -254.666 -163 -327.999s-259 -110 -451 -110c-253.333 0 -454 57.333 -602 172l162 235c125.333 -78.667 272 -118 440 -118c97.333 0 167.833 12.667 211.5 38s65.5 62.333 65.5 111
c0 45.333 -22.333 80.333 -67 105s-119.667 47.667 -225 69c-186 39.333 -322.667 98.5 -410 177.5s-131 177.833 -131 296.5c0 45.333 6 88.333 18 129s31.833 79.5 59.5 116.5s62.5 68.833 104.5 95.5s94.833 47.834 158.5 63.501s135.5 23.5 215.5 23.5
c228 0 413.333 -48 556 -144zM1087 1827l-301 -291h-206l-301 291h248l156 -109l156 109h248z" />
    <glyph glyph-name="scaron" unicode="&#x161;" horiz-adv-x="1064" 
d="M973 953l-124 -211.002c-101.333 44 -205.333 66 -312 66c-84 0 -126 -24 -126 -72c0 -23.333 14 -41.666 42 -54.999s68.333 -24.666 121 -33.999c74 -14.667 136.667 -30.667 188 -48s97.666 -39.333 138.999 -66s72.166 -59.667 92.499 -99s30.5 -85.333 30.5 -138
c0 -57.333 -13.333 -107.666 -40 -150.999s-63.167 -77.333 -109.5 -102s-97.666 -43 -153.999 -55s-117.5 -18 -183.5 -18c-218 0 -383.667 45 -497 135l124 211c112 -62.667 236.333 -94 373 -94c52.667 0 92.334 5.33301 119.001 16s40 30 40 58s-12.5 48.167 -37.5 60.5
s-71.167 25.166 -138.5 38.499c-148.667 28 -258.667 69.667 -330 125s-107 127.333 -107 216c0 104 39.833 184 119.5 240s191.167 84 334.5 84c172.667 0 318 -35.667 436 -107zM936 1434l-301 -291h-206l-301 291h248l156 -109l156 109h248z" />
    <glyph glyph-name="Tcommaaccent" unicode="&#x162;" horiz-adv-x="1365" 
d="M40 1434h1285v-289h-476v-1145h-333v1145h-476v289zM378 -532l153 424h299l-191 -424h-261z" />
    <glyph glyph-name="tcommaaccent" unicode="&#x163;" horiz-adv-x="941" 
d="M40 778l-0.00292969 251.998h194v299h328v-299h290v-252h-290v-350c0 -30 1.33301 -55.667 4 -77s8.16699 -42.666 16.5 -63.999s21.333 -37.5 39 -48.5s39.834 -16.5 66.501 -16.5c46.667 0 94.334 8.33301 143.001 25l70 -234c-71.333 -28.667 -149 -43 -233 -43
c-83.333 0 -153.166 9.33301 -209.499 28s-101 48 -134 88s-56.333 87.333 -70 142s-20.5 121.334 -20.5 200.001v350h-194zM296.997 -532.002l153 424h299l-191 -424h-261z" />
    <glyph glyph-name="Tcaron" unicode="&#x164;" horiz-adv-x="1445" 
d="M80 1434h1285v-289h-476v-1145h-333v1145h-476v289zM1126 1827l-301 -291h-206l-301 291h248l156 -109l156 109h248z" />
    <glyph glyph-name="tcaron" unicode="&#x165;" horiz-adv-x="1467" 
d="M40 778l-0.00292969 251.998h194v299h328v-299h290v-252h-290v-350c0 -30 1.33301 -55.667 4 -77s8.16699 -42.666 16.5 -63.999s21.333 -37.5 39 -48.5s39.834 -16.5 66.501 -16.5c46.667 0 94.334 8.33301 143.001 25l70 -234c-71.333 -28.667 -149 -43 -233 -43
c-83.333 0 -153.166 9.33301 -209.499 28s-101 48 -134 88s-56.333 87.333 -70 142s-20.5 121.334 -20.5 200.001v350h-194zM896.997 891.998l211 542h319l-249 -542h-281z" />
    <glyph glyph-name="Tbar" unicode="&#x166;" horiz-adv-x="1365" 
d="M233 701v289h283v155h-476v289h1285v-289h-476v-155h283v-289h-283v-701h-333v701h-283z" />
    <glyph glyph-name="tbar" unicode="&#x167;" horiz-adv-x="941" 
d="M40 419l-0.000976562 252.001h194v107h-194v252h194v299h328v-299h290v-252h-290v-107h290v-252h-290c0 -28.667 1.5 -53.5 4.5 -74.5s8.66699 -41.333 17 -61s21.333 -34.834 39 -45.501s39.5 -16 65.5 -16c46.667 0 94.334 8.33301 143.001 25l70 -234
c-71.333 -28.667 -149 -43 -233 -43c-82.667 0 -152 9.16699 -208 27.5s-100.5 47 -133.5 86s-56.5 85.333 -70.5 139s-21.333 119.167 -22 196.5h-194z" />
    <glyph glyph-name="Utilde" unicode="&#x168;" horiz-adv-x="1477" 
d="M739 249c60 0 110 8.5 150 25.5s71.333 43.333 94 79s38.5 77.167 47.5 124.5s13.5 105 13.5 173v783h333v-783c0 -460.667 -212.667 -691 -638 -691c-426 0 -639 230.333 -639 691v783h333v-783c0 -68 4.5 -125.667 13.5 -173s24.833 -88.833 47.5 -124.5
s54.167 -62 94.5 -79s90.5 -25.5 150.5 -25.5zM710 1590c-36 30.667 -66.999 46.001 -92.999 46.001c-24 0 -42 -13 -54 -39c-5.33301 -13.333 -9 -26.333 -11 -39h-205c3.33301 52 14.333 98.333 33 139c43.333 93.333 120.666 140 231.999 140c58 0 109.667 -18 155 -54
c36 -30.667 67 -46 93 -46c24 0 42 13 54 39c5.33301 12 9 25 11 39h205c-2.66699 -50.667 -14 -97.334 -34 -140.001c-42.667 -92.667 -119.667 -139 -231 -139c-58 0 -109.667 18 -155 54z" />
    <glyph glyph-name="utilde" unicode="&#x169;" 
d="M848 496l0.000976562 534h328v-1030h-328v109c-60.667 -92.667 -152.334 -139 -275.001 -139c-164.667 0 -284.667 45 -360 135s-113 220.333 -113 391v534h328v-534c0 -90 16 -158.167 48 -204.5s86 -69.5 162 -69.5s130 23.167 162 69.5s48 114.5 48 204.5z
M610.001 1207c-36 30.667 -66.999 46.001 -92.999 46.001c-24 0 -42 -13 -54 -39c-5.33301 -13.333 -9 -26.333 -11 -39h-205c3.33301 52 14.333 98.333 33 139c43.333 93.333 120.666 140 231.999 140c58 0 109.667 -18 155 -54c36 -30.667 67 -46 93 -46c24 0 42 13 54 39
c5.33301 12 9 25 11 39h205c-2.66699 -50.667 -14 -97.334 -34 -140.001c-42.667 -92.667 -119.667 -139 -231 -139c-58 0 -109.667 18 -155 54z" />
    <glyph glyph-name="Umacron" unicode="&#x16a;" horiz-adv-x="1477" 
d="M739 249c60 0 110 8.5 150 25.5s71.333 43.333 94 79s38.5 77.167 47.5 124.5s13.5 105 13.5 173v783h333v-783c0 -460.667 -212.667 -691 -638 -691c-426 0 -639 230.333 -639 691v783h333v-783c0 -68 4.5 -125.667 13.5 -173s24.833 -88.833 47.5 -124.5
s54.167 -62 94.5 -79s90.5 -25.5 150.5 -25.5zM301 1536v252h874v-252h-874z" />
    <glyph glyph-name="umacron" unicode="&#x16b;" 
d="M848 496l0.000976562 534h328v-1030h-328v109c-60.667 -92.667 -152.334 -139 -275.001 -139c-164.667 0 -284.667 45 -360 135s-113 220.333 -113 391v534h328v-534c0 -90 16 -158.167 48 -204.5s86 -69.5 162 -69.5s130 23.167 162 69.5s48 114.5 48 204.5z
M200.001 1182v252h874v-252h-874z" />
    <glyph glyph-name="Ubreve" unicode="&#x16c;" horiz-adv-x="1477" 
d="M739 249c60 0 110 8.5 150 25.5s71.333 43.333 94 79s38.5 77.167 47.5 124.5s13.5 105 13.5 173v783h333v-783c0 -460.667 -212.667 -691 -638 -691c-426 0 -639 230.333 -639 691v783h333v-783c0 -68 4.5 -125.667 13.5 -173s24.833 -88.833 47.5 -124.5
s54.167 -62 94.5 -79s90.5 -25.5 150.5 -25.5zM738 1556c-59.333 0 -112.67 8.16699 -160.003 24.5s-85.333 38 -114 65s-51.167 55.333 -67.5 85s-27.166 60.167 -32.499 91.5h192c26 -65.333 86.667 -98 182 -98s156 32.667 182 98h192
c-5.33301 -31.333 -16.166 -61.833 -32.499 -91.5s-38.833 -58 -67.5 -85s-66.667 -48.667 -114 -65s-100.666 -24.5 -159.999 -24.5z" />
    <glyph glyph-name="ubreve" unicode="&#x16d;" 
d="M848 496l0.000976562 534h328v-1030h-328v109c-60.667 -92.667 -152.334 -139 -275.001 -139c-164.667 0 -284.667 45 -360 135s-113 220.333 -113 391v534h328v-534c0 -90 16 -158.167 48 -204.5s86 -69.5 162 -69.5s130 23.167 162 69.5s48 114.5 48 204.5z
M638.001 1168c-59.333 0 -112.67 8.16699 -160.003 24.5s-85.333 38 -114 65s-51.167 55.333 -67.5 85s-27.166 60.167 -32.499 91.5h192c26 -65.333 86.667 -98 182 -98s156 32.667 182 98h192c-5.33301 -31.333 -16.166 -61.833 -32.499 -91.5s-38.833 -58 -67.5 -85
s-66.667 -48.667 -114 -65s-100.666 -24.5 -159.999 -24.5z" />
    <glyph glyph-name="Uring" unicode="&#x16e;" horiz-adv-x="1477" 
d="M739 249c60 0 110 8.5 150 25.5s71.333 43.333 94 79s38.5 77.167 47.5 124.5s13.5 105 13.5 173v783h333v-783c0 -460.667 -212.667 -691 -638 -691c-426 0 -639 230.333 -639 691v783h333v-783c0 -68 4.5 -125.667 13.5 -173s24.833 -88.833 47.5 -124.5
s54.167 -62 94.5 -79s90.5 -25.5 150.5 -25.5zM492 1782c0 68 24 126 72 174s106 72 174 72s126 -24 174 -72s72 -106 72 -174s-24 -126 -72 -174s-106 -72 -174 -72s-126 24 -174 72s-72 106 -72 174zM654 1782c0 -23.333 8.16699 -43.166 24.5 -59.499
s36.166 -24.5 59.499 -24.5s43.166 8.16699 59.499 24.5s24.5 36.166 24.5 59.499s-8.16699 43.166 -24.5 59.499s-36.166 24.5 -59.499 24.5s-43.166 -8.16699 -59.499 -24.5s-24.5 -36.166 -24.5 -59.499z" />
    <glyph glyph-name="uring" unicode="&#x16f;" 
d="M848 496l0.000976562 534h328v-1030h-328v109c-60.667 -92.667 -152.334 -139 -275.001 -139c-164.667 0 -284.667 45 -360 135s-113 220.333 -113 391v534h328v-534c0 -90 16 -158.167 48 -204.5s86 -69.5 162 -69.5s130 23.167 162 69.5s48 114.5 48 204.5z
M392.001 1370c0 68 24 126 72 174s106 72 174 72s126 -24 174 -72s72 -106 72 -174s-24 -126 -72 -174s-106 -72 -174 -72s-126 24 -174 72s-72 106 -72 174zM554.001 1370c0 -23.333 8.16699 -43.166 24.5 -59.499s36.166 -24.5 59.499 -24.5s43.166 8.16699 59.499 24.5
s24.5 36.166 24.5 59.499s-8.16699 43.166 -24.5 59.499s-36.166 24.5 -59.499 24.5s-43.166 -8.16699 -59.499 -24.5s-24.5 -36.166 -24.5 -59.499z" />
    <glyph glyph-name="Uhungarumlaut" unicode="&#x170;" horiz-adv-x="1477" 
d="M739 249c60 0 110 8.5 150 25.5s71.333 43.333 94 79s38.5 77.167 47.5 124.5s13.5 105 13.5 173v783h333v-783c0 -460.667 -212.667 -691 -638 -691c-426 0 -639 230.333 -639 691v783h333v-783c0 -68 4.5 -125.667 13.5 -173s24.833 -88.833 47.5 -124.5
s54.167 -62 94.5 -79s90.5 -25.5 150.5 -25.5zM455 1536l91 342h269l-149 -342h-211zM799 1536l91 342h269l-149 -342h-211z" />
    <glyph glyph-name="uhungarumlaut" unicode="&#x171;" 
d="M848 496l0.000976562 534h328v-1030h-328v109c-60.667 -92.667 -152.334 -139 -275.001 -139c-164.667 0 -284.667 45 -360 135s-113 220.333 -113 391v534h328v-534c0 -90 16 -158.167 48 -204.5s86 -69.5 162 -69.5s130 23.167 162 69.5s48 114.5 48 204.5z
M358.001 1174l91 342h269l-149 -342h-211zM702.001 1174l91 342h269l-149 -342h-211z" />
    <glyph glyph-name="Uogonek" unicode="&#x172;" horiz-adv-x="1477" 
d="M739 249c60 0 110 8.50098 150 25.501s71.333 43.333 94 79s38.5 77.167 47.5 124.5s13.5 105 13.5 173v783h333v-783c0 -358 -129.333 -577 -388 -657c-11.333 -4 -22.333 -9.16699 -33 -15.5s-22.5 -14.833 -35.5 -25.5s-23.5 -24.167 -31.5 -40.5
s-12 -34.166 -12 -53.499c0 -45.333 30.333 -77.333 91 -96c28 -8.66699 58.333 -13.334 91 -14.001v-247c-38 0 -74.667 2.16699 -110 6.5s-72.5 13 -111.5 26s-72.667 29.5 -101 49.5s-51.833 47.167 -70.5 81.5s-28 73.5 -28 117.5c0 75.333 27.333 134.666 82 177.999
c-413.333 7.33301 -620 237.333 -620 690v783h333v-783c0 -68 4.5 -125.667 13.5 -173s24.833 -88.833 47.5 -124.5s54.167 -62 94.5 -79s90.5 -25.5 150.5 -25.5z" />
    <glyph glyph-name="uogonek" unicode="&#x173;" horiz-adv-x="1328" 
d="M1176 1030l0.00195312 -1030c-24 -6.66699 -45.667 -16.667 -65 -30c-43.333 -30 -65 -67 -65 -111c0 -45.333 30.333 -77.333 91 -96c28 -8.66699 58.333 -13.334 91 -14.001v-247c-38 0 -74.667 2.16699 -110 6.5s-72.5 13 -111.5 26s-72.667 29.5 -101 49.5
s-51.833 47.167 -70.5 81.5s-28 73.5 -28 117.5c0 15.333 1.33301 30.166 4 44.499s6.16699 27.333 10.5 39s9.5 22.667 15.5 33s12.333 19.5 19 27.5s13.667 15.667 21 23s14.333 13.333 21 18l20 13.5c6.66699 4.33301 12.167 7.66602 16.5 9.99902
s8.16602 4.5 11.499 6.5l6 2h-104v109c-60.667 -92.667 -152.334 -139 -275.001 -139c-164.667 0 -284.667 45 -360 135s-113 220.333 -113 391v534h328v-534c0 -90 16 -158.167 48 -204.5s86 -69.5 162 -69.5s130 23.167 162 69.5s48 114.5 48 204.5v534h328z" />
    <glyph glyph-name="Wcircumflex" unicode="&#x174;" horiz-adv-x="2028" 
d="M619 550l253 884h284l253 -884l251 884h358l-437 -1434h-323l-244 838l-244 -838h-323l-437 1434h358zM1117 1827l301 -291h-248l-156 109l-156 -109h-248l301 291h206z" />
    <glyph glyph-name="wcircumflex" unicode="&#x175;" horiz-adv-x="1644" 
d="M1007 0l-185 583l-185 -583h-288l-339 1030h318l176 -635l201 635h234l201 -635l176 635h318l-339 -1030h-288zM925 1434l301 -291h-248l-156 109l-156 -109h-248l301 291h206z" />
    <glyph glyph-name="Ycircumflex" unicode="&#x176;" horiz-adv-x="1464" 
d="M392 1434l340 -542l340 542h382l-555 -858v-576h-334v576l-555 858h382zM835 1827l301 -291h-248l-156 109l-156 -109h-248l301 291h206z" />
    <glyph glyph-name="ycircumflex" unicode="&#x177;" horiz-adv-x="1196" 
d="M352 1030l246.001 -671.999l246 672h342l-441 -1030l-123 -289c-16.667 -38 -34 -70.5 -52 -97.5s-40.333 -52.167 -67 -75.5s-58.834 -40.833 -96.501 -52.5s-81.167 -17.5 -130.5 -17.5c-95.333 0 -174.333 16.667 -237 50l101 223c38.667 -14 76 -21 112 -21
c28.667 0 52.667 9.16699 72 27.5s37.333 47.166 54 86.499l73 166l-441 1030h342zM701.001 1434l301 -291h-248l-156 109l-156 -109h-248l301 291h206z" />
    <glyph glyph-name="Ydieresis" unicode="&#x178;" horiz-adv-x="1464" 
d="M392 1434l340 -542l340 542h382l-555 -858v-576h-334v576l-555 858h382zM322 1708c0 47.333 16.833 87.833 50.5 121.5s74.167 50.5 121.5 50.5s87.833 -16.833 121.5 -50.5s50.5 -74.167 50.5 -121.5s-16.833 -87.833 -50.5 -121.5s-74.167 -50.5 -121.5 -50.5
s-87.833 16.833 -121.5 50.5s-50.5 74.167 -50.5 121.5zM799 1708c0 47.333 16.833 87.833 50.5 121.5s74.167 50.5 121.5 50.5s87.833 -16.833 121.5 -50.5s50.5 -74.167 50.5 -121.5s-16.833 -87.833 -50.5 -121.5s-74.167 -50.5 -121.5 -50.5s-87.833 16.833 -121.5 50.5
s-50.5 74.167 -50.5 121.5z" />
    <glyph glyph-name="Zacute" unicode="&#x179;" horiz-adv-x="1221" 
d="M535 289h676v-289h-1151v176l677 969h-637v289h1111v-176zM489 1536l251 310h333l-314 -310h-270z" />
    <glyph glyph-name="zacute" unicode="&#x17a;" horiz-adv-x="1085" 
d="M80 0v149l496 629h-467v252h896v-150l-496 -628h496v-252h-925zM385 1124l251 310h333l-314 -310h-270z" />
    <glyph glyph-name="Zdotaccent" unicode="&#x17b;" horiz-adv-x="1311" 
d="M555 289h676v-289h-1151v176l677 969h-637v289h1111v-176zM482 1698c0 47.333 16.833 87.833 50.5 121.5s74.167 50.5 121.5 50.5s87.833 -16.833 121.5 -50.5s50.5 -74.167 50.5 -121.5s-16.833 -87.833 -50.5 -121.5s-74.167 -50.5 -121.5 -50.5
s-87.833 16.833 -121.5 50.5s-50.5 74.167 -50.5 121.5z" />
    <glyph glyph-name="zdotaccent" unicode="&#x17c;" horiz-adv-x="1085" 
d="M370 1334c0 47.333 16.833 87.833 50.5 121.5s74.167 50.5 121.5 50.5s87.833 -16.833 121.5 -50.5s50.5 -74.167 50.5 -121.5s-16.833 -87.833 -50.5 -121.5s-74.167 -50.5 -121.5 -50.5s-87.833 16.833 -121.5 50.5s-50.5 74.167 -50.5 121.5zM80 0v149l496 629h-467
v252h896v-150l-496 -628h496v-252h-925z" />
    <glyph glyph-name="Zcaron" unicode="&#x17d;" horiz-adv-x="1311" 
d="M555 289h676v-289h-1151v176l677 969h-637v289h1111v-176zM1059 1826l-301 -291h-206l-301 291h248l156 -109l156 109h248z" />
    <glyph glyph-name="zcaron" unicode="&#x17e;" horiz-adv-x="1085" 
d="M80 0v149l496 629h-467v252h896v-150l-496 -628h496v-252h-925zM946 1434l-301 -291h-206l-301 291h248l156 -109l156 109h248z" />
    <glyph glyph-name="longs" unicode="&#x17f;" horiz-adv-x="941" 
d="M714 1294c-22 0 -40.6709 -1.83203 -56.0039 -5.49902s-28.166 -10.834 -38.499 -21.501s-18.333 -21.667 -24 -33s-10 -28.5 -13 -51.5s-4.83301 -44.833 -5.5 -65.5s-1 -49.667 -1 -87v-1030h-328v778h-188v252h188c0.666992 43.333 2.5 81.833 5.5 115.5
s8.33301 69 16 106s17.834 69.333 30.501 97s29.834 54.5 51.501 80.5s47 47.167 76 63.5s64.333 29.333 106 39s88.5 14.5 140.5 14.5c94.667 0 180.334 -14.667 257.001 -44l-85 -229c-47.333 14 -91.333 21 -132 21z" />
    <glyph glyph-name="uni0180" unicode="&#x180;" horiz-adv-x="1489" 
d="M1429 515c0 -168 -48.667 -300.833 -146 -398.5s-224 -146.5 -380 -146.5c-78 0 -145.667 15.167 -203 45.5s-102.333 70.5 -135 120.5v-136h-328v1121h-227v252h227v143h328v-143h302v-252h-302v-227c33.333 50 78.5 90.167 135.5 120.5s124.5 45.5 202.5 45.5
c156 0 282.667 -48.833 380 -146.5s146 -230.5 146 -398.5zM1101 515c0 86.667 -23.5 157.167 -70.5 211.5s-112.833 81.5 -197.5 81.5s-150.5 -27.167 -197.5 -81.5s-70.5 -124.833 -70.5 -211.5s23.5 -157.167 70.5 -211.5s112.833 -81.5 197.5 -81.5
s150.5 27.167 197.5 81.5s70.5 124.833 70.5 211.5z" />
    <glyph glyph-name="uni0181" unicode="&#x181;" horiz-adv-x="1855" 
d="M1216 0h-692.998v1155h-74c-13.333 0 -25.333 -1.83301 -36 -5.5s-21.834 -10.834 -33.501 -21.501s-20.667 -28.167 -27 -52.5s-9.5 -54.833 -9.5 -91.5h-333c0 49.333 3.66699 94.666 11 135.999s17.333 76.333 30 105s27.667 54.834 45 78.501s35.833 42.5 55.5 56.5
s40.167 26.5 61.5 37.5s42.5 18.333 63.5 22l61 11c19.667 3.66699 37.667 4.83398 54 3.50098s30.5 -1.33301 42.5 0h15h751c362.667 0 544 -127.667 544 -383c0 -72.667 -23.333 -136 -70 -190s-105 -88 -175 -102c94.667 -20 167.667 -58.5 219 -115.5
s77 -128.167 77 -213.5c0 -43.333 -5.33301 -84.333 -16 -123s-29.834 -77.167 -57.501 -115.5s-62.667 -71.333 -105 -99s-97.833 -50 -166.5 -67s-146.667 -25.5 -234 -25.5zM856.002 278l352 -0.000976562c92.667 0 157 13 193 39s54 67 54 123
c0 56.667 -18 97.834 -54 123.501s-100.333 38.5 -193 38.5h-352v-324zM856.002 870.999h352c133.333 0 200 47.333 200 142s-66.667 142 -200 142h-352v-284z" />
    <glyph glyph-name="uni0182" unicode="&#x182;" horiz-adv-x="1271" 
d="M100 1434l982 -0.000976562v-289h-649v-240h286c82.667 0 155.834 -11.667 219.501 -35s115.167 -56 154.5 -98s68.833 -90.333 88.5 -145s29.5 -114.667 29.5 -180s-9.83301 -124.833 -29.5 -178.5s-49.167 -100.667 -88.5 -141s-90.833 -71.666 -154.5 -93.999
s-136.834 -33.5 -219.501 -33.5h-619v1434zM433 288.999l286.002 -0.000976562c57.333 0 98.166 13 122.499 39s36.5 65.667 36.5 119c0 54.667 -12.333 96.334 -37 125.001s-65.334 43 -122.001 43h-286v-326z" />
    <glyph glyph-name="uni0183" unicode="&#x183;" horiz-adv-x="1352" 
d="M1292 515c0 -168 -48.667 -300.833 -146 -398.5s-224 -146.5 -380 -146.5c-78 0 -145.667 15.167 -203 45.5s-102.333 70.5 -135 120.5v-136h-328v1434h1038v-252h-710v-288c33.333 50 78.5 90.167 135.5 120.5s124.5 45.5 202.5 45.5c156 0 282.667 -48.833 380 -146.5
s146 -230.5 146 -398.5zM964 515c0 86.667 -23.5 157.167 -70.5 211.5s-112.833 81.5 -197.5 81.5s-150.5 -27.167 -197.5 -81.5s-70.5 -124.833 -70.5 -211.5s23.5 -157.167 70.5 -211.5s112.833 -81.5 197.5 -81.5s150.5 27.167 197.5 81.5s70.5 124.833 70.5 211.5z" />
    <glyph glyph-name="uni0184" unicode="&#x184;" horiz-adv-x="1256" 
d="M1196 504c0 -45.333 -4.66504 -90.6641 -13.998 -135.997s-27 -92.5 -53 -141.5s-58.667 -92 -98 -129s-91.833 -67.5 -157.5 -91.5s-140.5 -36 -224.5 -36s-159 12 -225 36s-118.833 54.5 -158.5 91.5s-72.334 80 -98.001 129s-43.334 96.167 -53.001 141.5
s-14.5 90.666 -14.5 135.999v1012h333v-529c61.333 32 133.333 48 216 48c84 0 158.833 -11.833 224.5 -35.5s118.167 -53.834 157.5 -90.501s72 -79.334 98 -128.001s43.667 -95.5 53 -140.5s14 -90.5 14 -136.5zM863.002 504.002c0 70 -17.332 127.83 -51.999 173.497
s-88.667 68.5 -162 68.5c-74 0 -128.167 -22.833 -162.5 -68.5s-51.5 -103.5 -51.5 -173.5c0 -33.333 3.83301 -64.166 11.5 -92.499s19.667 -54.166 36 -77.499s38.666 -41.666 66.999 -54.999s61.5 -20 99.5 -20c72.667 0 126.5 23.333 161.5 70s52.5 105 52.5 175z" />
    <glyph glyph-name="uni0185" unicode="&#x185;" horiz-adv-x="1352" 
d="M1292 515c0 -171.333 -49.833 -305 -149.5 -401s-238.5 -144 -416.5 -144c-95.333 0 -179.5 11.667 -252.5 35s-132.833 55 -179.5 95s-84.667 89.5 -114 148.5s-50 121.333 -62 187s-18 138.5 -18 218.5v862h328v-622c33.333 50 78.5 90.167 135.5 120.5
s124.5 45.5 202.5 45.5c156 0 282.667 -48.833 380 -146.5s146 -230.5 146 -398.5zM428 515c0 -86.667 23.5 -157.167 70.5 -211.5s112.833 -81.5 197.5 -81.5s150.5 27.167 197.5 81.5s70.5 124.833 70.5 211.5s-23.5 157.167 -70.5 211.5s-112.833 81.5 -197.5 81.5
s-150.5 -27.167 -197.5 -81.5s-70.5 -124.833 -70.5 -211.5z" />
    <glyph glyph-name="uni0186" unicode="&#x186;" horiz-adv-x="1457" 
d="M1397 717c0 -82 -9.49902 -159.672 -28.499 -233.005s-49 -142.166 -90 -206.499s-91.333 -119.833 -151 -166.5s-132.667 -83.5 -219 -110.5s-182.166 -40.5 -287.499 -40.5c-134 0 -246 14.833 -336 44.5s-171.667 75.834 -245 138.501l165 226
c114 -80 252.667 -120 416 -120c73.333 0 138 11.833 194 35.5s101.167 56.834 135.5 99.501s60.166 92 77.499 148s26 117.667 26 185s-8.66699 129 -26 185s-43.166 105.333 -77.499 148s-79.5 75.834 -135.5 99.501s-120.667 35.5 -194 35.5
c-94.667 0 -173.834 -10.833 -237.501 -32.5s-123.167 -50.834 -178.5 -87.501l-165 226c73.333 62.667 155 108.834 245 138.501s202 44.5 336 44.5c105.333 0 201.166 -13.5 287.499 -40.5s159.333 -63.833 219 -110.5s110 -102.167 151 -166.5s71 -133.166 90 -206.499
s28.5 -151 28.5 -233z" />
    <glyph glyph-name="uni0187" unicode="&#x187;" horiz-adv-x="1516" 
d="M403 717c0 -67.333 8.66895 -128.995 26.002 -184.995s43.166 -105.333 77.499 -148s79.5 -75.834 135.5 -99.501s120.667 -35.5 194 -35.5c163.333 0 302 40 416 120l165 -226c-73.333 -62.667 -155 -108.834 -245 -138.501s-202 -44.5 -336 -44.5
c-105.333 0 -201.166 13.5 -287.499 40.5s-159.333 63.833 -219 110.5s-110 102.167 -151 166.5s-71 133.166 -90 206.499s-28.5 151 -28.5 233s9.5 159.667 28.5 233s49 142.166 90 206.499s91.333 119.833 151 166.5s132.667 83.5 219 110.5s182.166 40.5 287.499 40.5
c94.667 0 180 -10.333 256 -31c1.33301 42.667 8.66602 82.167 21.999 118.5s34 70.5 62 102.5s67.667 57.333 119 76s111.666 28 180.999 28v-276c-39.333 0 -67.333 -6.5 -84 -19.5s-25 -33.167 -25 -60.5v-383c-156.667 104 -333.667 156 -531 156
c-73.333 0 -138 -11.833 -194 -35.5s-101.167 -56.834 -135.5 -99.501s-60.166 -92 -77.499 -148s-26 -117.667 -26 -185z" />
    <glyph glyph-name="uni0188" unicode="&#x188;" horiz-adv-x="1201" 
d="M388 515c0 -90 24.833 -161.332 74.5 -213.999s117.5 -79 203.5 -79c110.667 0 207.334 34.333 290.001 103l157 -191c-100.667 -109.333 -249.667 -164 -447 -164c-183.333 0 -330.166 50.167 -440.499 150.5s-165.5 231.833 -165.5 394.5s55.167 294.167 165.5 394.5
s257.166 150.5 440.499 150.5c32 0 69 -2.33301 111 -7c7.33301 107.333 42.166 186.166 104.499 236.499s155.5 75.5 279.5 75.5v-279c-34 0 -59.667 -7 -77 -21s-26 -38.333 -26 -73v-298c-113.333 76 -244 114 -392 114c-86 0 -153.833 -26.333 -203.5 -79
s-74.5 -124 -74.5 -214z" />
    <glyph glyph-name="uni0189" unicode="&#x189;" horiz-adv-x="1613" 
d="M10 573v289.002h220v572h607c118 0 223 -17.833 315 -53.5s167 -85.834 225 -150.501s101.833 -140.167 131.5 -226.5s44.5 -181.833 44.5 -286.5s-14.833 -200.167 -44.5 -286.5s-73.5 -161.833 -131.5 -226.5s-133 -114.834 -225 -150.501s-197 -53.5 -315 -53.5h-607
v573h-220zM563 573.002v-284h274c66.667 0 124.667 11.667 174 35s88.166 55.5 116.499 96.5s49.166 86.167 62.499 135.5s20 103 20 161s-6.66699 111.667 -20 161s-34.166 94.5 -62.499 135.5s-67.166 73.167 -116.499 96.5s-107.333 35 -174 35h-274v-283h293v-289h-293z
" />
    <glyph glyph-name="uni018A" unicode="&#x18a;" horiz-adv-x="1906" 
d="M1846 717c0 -104.667 -14.832 -200.165 -44.499 -286.498s-73.5 -161.833 -131.5 -226.5s-133 -114.834 -225 -150.501s-197 -53.5 -315 -53.5h-607v1155h-74c-13.333 0 -25.333 -1.83301 -36 -5.5s-21.834 -10.834 -33.501 -21.501s-20.667 -28.167 -27 -52.5
s-9.5 -54.833 -9.5 -91.5h-333c0 49.333 3.66699 94.666 11 135.999s17.333 76.333 30 105s27.667 54.834 45 78.501s35.833 42.5 55.5 56.5s40.167 26.5 61.5 37.5s42.5 18.333 63.5 22l61 11c19.667 3.66699 37.667 4.83398 54 3.50098s30.5 -1.33301 42.5 0h15h681
c118 0 223 -17.833 315 -53.5s167 -85.834 225 -150.501s101.833 -140.167 131.5 -226.5s44.5 -181.833 44.5 -286.5zM856.001 1145v-856h274c66.667 0 124.667 11.667 174 35s88.166 55.5 116.499 96.5s49.166 86.167 62.499 135.5s20 103 20 161s-6.66699 111.667 -20 161
s-34.166 94.5 -62.499 135.5s-67.166 73.167 -116.499 96.5s-107.333 35 -174 35h-274z" />
    <glyph glyph-name="uni018B" unicode="&#x18b;" horiz-adv-x="1271" 
d="M189 1434l982 0.000976562v-1434h-619c-82.667 0 -155.834 11.167 -219.501 33.5s-115.167 53.666 -154.5 93.999s-68.833 87.333 -88.5 141s-29.5 113.167 -29.5 178.5s9.83301 125.333 29.5 180s49.167 103 88.5 145s90.833 74.667 154.5 98s136.834 35 219.501 35h286
v240h-649v289zM552 289.001l286.002 0.000976562v326h-286c-56.667 0 -97.334 -14.333 -122.001 -43s-37 -70.334 -37 -125.001c0 -53.333 12.167 -93 36.5 -119s65.166 -39 122.499 -39z" />
    <glyph glyph-name="uni018C" unicode="&#x18c;" horiz-adv-x="1352" 
d="M60 515c0 168 48.667 300.833 146 398.5s224 146.5 380 146.5c78 0 145.5 -15.167 202.5 -45.5s102.167 -70.5 135.5 -120.5v288h-710v252h1038v-1434h-328v136c-32.667 -50 -77.667 -90.167 -135 -120.5s-125 -45.5 -203 -45.5c-156 0 -282.667 48.833 -380 146.5
s-146 230.5 -146 398.5zM388 515c0 -86.667 23.5 -157.167 70.5 -211.5s112.833 -81.5 197.5 -81.5s150.5 27.167 197.5 81.5s70.5 124.833 70.5 211.5s-23.5 157.167 -70.5 211.5s-112.833 81.5 -197.5 81.5s-150.5 -27.167 -197.5 -81.5s-70.5 -124.833 -70.5 -211.5z" />
    <glyph glyph-name="uni018D" unicode="&#x18d;" horiz-adv-x="1332" 
d="M801 -19l330.001 -308v-205h-932v253h453l-442 414c-100 98.667 -150 225.334 -150 380.001c0 162.667 55.167 294.167 165.5 394.5s257.166 150.5 440.499 150.5s330.166 -50.167 440.499 -150.5s165.5 -231.833 165.5 -394.5
c0 -140.667 -42.167 -258.834 -126.5 -354.501s-199.166 -155.5 -344.499 -179.5zM666.001 222c89.333 0 158 27 206 81s72 124.667 72 212s-24 158 -72 212s-116.667 81 -206 81s-158 -27 -206 -81s-72 -124.667 -72 -212s24 -158 72 -212s116.667 -81 206 -81z" />
    <glyph glyph-name="uni018E" unicode="&#x18e;" horiz-adv-x="1256" 
d="M133 876h690v269h-733v289h1066v-1434h-1076v289h743v298h-690v289z" />
    <glyph glyph-name="uni018F" unicode="&#x18f;" horiz-adv-x="1562" 
d="M782 1185c-106 0 -195.998 -12.3311 -269.998 -36.998s-145 -61.334 -213 -110.001l-152 237c76 62 163.833 110.667 263.5 146s223.5 53 371.5 53c146 0 273.667 -32.333 383 -97s192.833 -154 250.5 -268s86.5 -244.667 86.5 -392
c0 -110.667 -16.333 -212.334 -49 -305.001s-79.334 -172.5 -140.001 -239.5s-136.334 -119.167 -227.001 -156.5s-192 -56 -304 -56c-230 0 -409.333 79.5 -538 238.5s-189.667 380.833 -183 665.5h1108c-13.333 102 -54.833 181 -124.5 237s-157.167 84 -262.5 84z
M1169 575.002h-775c13.333 -104 54 -184.333 122 -241s156.667 -85 266 -85s197.833 28.167 265.5 84.5s108.167 136.833 121.5 241.5z" />
    <glyph glyph-name="uni0190" unicode="&#x190;" horiz-adv-x="1273" 
d="M978 365l234.999 -180.998c-48 -64 -117.333 -117.333 -208 -160s-207 -64 -349 -64c-84.667 0 -161.167 8.5 -229.5 25.5s-124.833 39.667 -169.5 68s-82.167 61.666 -112.5 99.999s-52 78.166 -65 119.499s-19.5 84.333 -19.5 129c0 158 72.667 272.333 218 343
c-54 30 -97.5 71.833 -130.5 125.5s-49.5 111.5 -49.5 173.5c0 55.333 11 107.833 33 157.5s54.667 95.167 98 136.5s101.833 74.333 175.5 99s157.5 37 251.5 37c58 0 113.333 -5.5 166 -16.5s97.5 -24.5 134.5 -40.5s71.5 -34.667 103.5 -56s57 -40.833 75 -58.5
s34 -35.167 48 -52.5l-235 -181c-77.333 77.333 -176 116 -296 116c-70.667 0 -125.167 -14.5 -163.5 -43.5s-57.5 -64.833 -57.5 -107.5c0 -55.333 29.833 -95.166 89.5 -119.499s162.834 -36.5 309.501 -36.5v-279c-115.333 0 -204 -5.5 -266 -16.5
s-106 -28.833 -132 -53.5s-39 -60.334 -39 -107.001c0 -54.667 23 -97.167 69 -127.5s110.667 -45.5 194 -45.5c78 0 141.333 10.333 190 31s92.667 49 132 85z" />
    <glyph glyph-name="uni0191" unicode="&#x191;" horiz-adv-x="1273" 
d="M460 856h689.999v-289h-690v-567c0 -42 -1 -78.5 -3 -109.5s-6.66699 -66.167 -14 -105.5s-17.5 -73 -30.5 -101s-31.5 -56.5 -55.5 -85.5s-52.5 -52.333 -85.5 -70s-74.333 -32.167 -124 -43.5s-105.5 -17 -167.5 -17v279c60.667 0 100.334 18.5 119.001 55.5
s28 102.833 28 197.5v1434h1066v-289h-733v-289z" />
    <glyph glyph-name="florin" unicode="&#x192;" horiz-adv-x="1200" 
d="M740 741l-169 -891c-4 -21.333 -7.83301 -39.5 -11.5 -54.5s-10.834 -36.833 -21.501 -65.5s-22.334 -53.5 -35.001 -74.5s-30.834 -44 -54.501 -69s-49.667 -45.5 -78 -61.5s-63.833 -29.5 -106.5 -40.5s-89.334 -16.5 -140.001 -16.5h-234l54 288h186
c22 0 40.667 3.83301 56 11.5s26.833 19.334 34.5 35.001s12.834 27.834 15.501 36.501s5.66699 21.667 9 39l162 863h-263l55 289h253l17 84c4 21.333 7.83301 39.333 11.5 54s10.834 36.5 21.501 65.5s22.334 53.833 35.001 74.5s30.667 43.667 54 69s49.333 46 78 62
s64.334 29.5 107.001 40.5s89.334 16.5 140.001 16.5h234l-54 -288h-186c-22 0 -40.667 -3.83301 -56 -11.5s-26.833 -19.334 -34.5 -35.001s-12.834 -27.834 -15.501 -36.501s-5.66699 -21.667 -9 -39l-12 -56h275l-55 -289h-263z" />
    <glyph glyph-name="uni0193" unicode="&#x193;" horiz-adv-x="1549" 
d="M836 249c110 0 201 18.3369 273 55.0039v263h-277v279h586v-716c-135.333 -113.333 -329.333 -170 -582 -170c-105.333 0 -201.166 13.5 -287.499 40.5s-159.333 63.833 -219 110.5s-110 102.167 -151 166.5s-71 133.166 -90 206.499s-28.5 151 -28.5 233
s9.5 159.667 28.5 233s49 142.166 90 206.499s91.333 119.833 151 166.5s132.667 83.5 219 110.5s182.166 40.5 287.499 40.5c116 0 220.333 -13.333 313 -40c30 217.333 170 326 420 326v-281c-27.333 0 -50.5 -4.33301 -69.5 -13s-33.167 -18.5 -42.5 -29.5
s-16.333 -26.167 -21 -45.5s-7.33398 -34.5 -8.00098 -45.5s-1 -26.167 -1 -45.5v-9l-170 -222c-115.333 77.333 -255.666 116 -420.999 116c-73.333 0 -138 -11.833 -194 -35.5s-101.167 -56.834 -135.5 -99.501s-60.166 -92 -77.499 -148s-26 -117.667 -26 -185
s8.66699 -129 26 -185s43.166 -105.333 77.499 -148s79.5 -75.834 135.5 -99.501s120.667 -35.5 194 -35.5z" />
    <glyph glyph-name="uni0194" unicode="&#x194;" horiz-adv-x="1578" 
d="M789 -532c-40.667 0 -78.6689 4.83301 -114.002 14.5s-68.166 24.5 -98.499 44.5s-54.333 47.833 -72 83.5s-26.5 77.167 -26.5 124.5c0 97.333 39 185.666 117 264.999l-585 1434h330l449 -1158l449 1158h330l-585 -1434c78 -79.333 117 -167.666 117 -264.999
c0 -47.333 -8.83301 -88.833 -26.5 -124.5s-41.667 -63.5 -72 -83.5s-63.166 -34.833 -98.499 -44.5s-73.333 -14.5 -114 -14.5zM788.998 -346c36 0 54 27 54 81c0 48.667 -18 90 -54 124c-36 -34 -54 -75.333 -54 -124c0 -54 18 -81 54 -81z" />
    <glyph glyph-name="uni0195" unicode="&#x195;" horiz-adv-x="2024" 
d="M1386 -30c-100.667 0 -186.329 11.833 -256.996 35.5s-126.334 58.834 -167.001 105.501s-69.834 101.167 -87.501 163.5s-26.5 136.166 -26.5 221.499v38c0 90 -16 158.167 -48 204.5s-86 69.5 -162 69.5s-130 -23.167 -162 -69.5s-48 -114.5 -48 -204.5v-534h-328v1516
h328v-595c60.667 92.667 152.334 139 275.001 139c164.667 0 284.667 -45 360 -135s113 -220.333 113 -391v-38c0 -90 16 -158.167 48 -204.5s86 -69.5 162 -69.5s130 23.167 162 69.5s48 114.5 48 204.5v534h328v-534c0 -85.333 -8.83301 -159.166 -26.5 -221.499
s-46.834 -116.833 -87.501 -163.5s-96.334 -81.834 -167.001 -105.501s-156.334 -35.5 -257.001 -35.5z" />
    <glyph glyph-name="uni0196" unicode="&#x196;" horiz-adv-x="612" 
d="M100 390l-0.000976562 1126h333v-1096v-36c0 -7.33301 0.5 -18.333 1.5 -33s2.5 -25.667 4.5 -33s4.83301 -16 8.5 -26s8.33398 -17.333 14.001 -22s12.834 -8.83398 21.501 -12.501s18.667 -5.5 30 -5.5h39v-252h-106c-46.667 0 -88.667 5.16699 -126 15.5
s-68 23 -92 38s-44.5 34.667 -61.5 59s-29.667 46.833 -38 67.5s-14.833 45.834 -19.5 75.501s-7.33398 53 -8.00098 70s-1 38.5 -1 64.5z" />
    <glyph glyph-name="uni0197" unicode="&#x197;" horiz-adv-x="855" 
d="M60 618v289h201v527h333v-527h201v-289h-201v-618h-333v618h-201z" />
    <glyph glyph-name="uni0198" unicode="&#x198;" horiz-adv-x="1441" 
d="M433 852l571.001 582.001h407l-610 -621l630 -813h-395l-454 587l-149 -153v-434h-333v977c0 30 1 57.167 3 81.5s6.66699 53 14 86s17.5 62.167 30.5 87.5s31.5 51.166 55.5 77.499s52.5 48.166 85.5 65.499s74.333 31.5 124 42.5s105.5 16.5 167.5 16.5v-279
c-58.667 0 -97.834 -14.667 -117.501 -44s-29.5 -71.666 -29.5 -126.999v-132z" />
    <glyph glyph-name="uni0199" unicode="&#x199;" horiz-adv-x="1244" 
d="M752 1502l-82 -229.002c-38.667 14 -78.334 21 -119.001 21c-20 0 -37.333 -3.16699 -52 -9.5s-26.334 -16 -35.001 -29s-15.5 -25.5 -20.5 -37.5s-8.66699 -28.167 -11 -48.5s-3.66602 -36.166 -3.99902 -47.499s-0.5 -27.333 -0.5 -48v-397l391 353h415l-481 -434
l481 -596h-385l-318 394l-103 -92v-302h-328v1074c0 78.667 7.33301 146.334 22 203.001s38.5 105.5 71.5 146.5s77.5 71.667 133.5 92s124 30.5 204 30.5c92.667 0 166.334 -14.667 221.001 -44z" />
    <glyph glyph-name="uni019A" unicode="&#x19a;" horiz-adv-x="720" 
d="M10 742l-0.000976562 252h186v522h328v-522h186v-252h-186v-322v-36c0 -7.33301 0.5 -18.333 1.5 -33s2.5 -25.667 4.5 -33s4.83301 -16 8.5 -26s8.33398 -17.333 14.001 -22s12.834 -8.83398 21.501 -12.501s18.667 -5.5 30 -5.5h39v-252h-106
c-64.667 0 -120 10 -166 30s-80 42.333 -102 67s-38.833 58.167 -50.5 100.5s-18.334 75.333 -20.001 99s-2.5 54.834 -2.5 93.501v352h-186z" />
    <glyph glyph-name="uni019B" unicode="&#x19b;" horiz-adv-x="1256" 
d="M628 672l-245.999 -672h-342l441 1030l-9 20l-206 -94l-105 229l195 90c-25.333 23.333 -53.333 35 -84 35c-38 0 -72.333 -9.66699 -103 -29l-100 231c64 33.333 139.667 50 227 50c56 0 105 -7.5 147 -22.5s75.667 -34.167 101 -57.5s48.666 -53 69.999 -89l183 84
l105 -229l-184 -85l57 -133l441 -1030h-342z" />
    <glyph glyph-name="uni019C" unicode="&#x19c;" horiz-adv-x="1983" 
d="M1883 1434v-1434h-332v71c-15.333 -30.667 -44.833 -55.167 -88.5 -73.5s-89.834 -27.5 -138.501 -27.5c-76 0 -142.667 17.333 -200 52s-101.666 79.667 -132.999 135c-28 -52 -78.167 -96.167 -150.5 -132.5s-152.833 -54.5 -241.5 -54.5
c-158 0 -280.667 49.333 -368 148s-131 247.667 -131 447v869h333v-869c0 -107.333 15.167 -185.166 45.5 -233.499s80.5 -72.5 150.5 -72.5s120.167 24.333 150.5 73s45.5 126.334 45.5 233.001v869h333v-869c0 -107.333 15.167 -185.166 45.5 -233.499
s80.5 -72.5 150.5 -72.5s120.167 24.333 150.5 73s45.5 126.334 45.5 233.001v869h333z" />
    <glyph glyph-name="uni019D" unicode="&#x19d;" horiz-adv-x="1540" 
d="M127 0l-0.000976562 1434h422l558 -956v956h333v-1434h-422l-558 956v-956c0 -42 -1 -78.5 -3 -109.5s-6.66699 -66.167 -14 -105.5s-17.5 -73 -30.5 -101s-31.5 -56.5 -55.5 -85.5s-52.5 -52.333 -85.5 -70s-74.333 -32.167 -124 -43.5s-105.5 -17 -167.5 -17v279
c60.667 0 100.334 18.5 119.001 55.5s28 102.833 28 197.5z" />
    <glyph glyph-name="uni019E" unicode="&#x19e;" 
d="M428 534l-0.000976562 -534h-328v1030h328v-109c60.667 92.667 152.334 139 275.001 139c164.667 0 284.667 -45 360 -135s113 -220.333 113 -391v-1066h-328v1066c0 90 -16 158.167 -48 204.5s-86 69.5 -162 69.5s-130 -23.167 -162 -69.5s-48 -114.5 -48 -204.5z" />
    <glyph glyph-name="uni019F" unicode="&#x19f;" horiz-adv-x="1672" 
d="M836 1474c105.333 0 201.166 -13.5 287.499 -40.5s159.333 -63.833 219 -110.5s110 -102.167 151 -166.5s71 -133.166 90 -206.499s28.5 -151 28.5 -233s-9.5 -159.667 -28.5 -233s-49 -142.166 -90 -206.499s-91.333 -119.833 -151 -166.5s-132.667 -83.5 -219 -110.5
s-182.166 -40.5 -287.499 -40.5s-201.166 13.5 -287.499 40.5s-159.333 63.833 -219 110.5s-110 102.167 -151 166.5s-71 133.166 -90 206.499s-28.5 151 -28.5 233s9.5 159.667 28.5 233s49 142.166 90 206.499s91.333 119.833 151 166.5s132.667 83.5 219 110.5
s182.166 40.5 287.499 40.5zM836 249c117.333 0 210.833 29 280.5 87s115.5 137 137.5 237h-836c22 -100 67.833 -179 137.5 -237s163.167 -87 280.5 -87zM836 1185c-117.333 0 -210.668 -29 -280.001 -87s-115.333 -136.667 -138 -236h836
c-22.667 99.333 -68.667 178 -138 236s-162.666 87 -279.999 87z" />
    <glyph glyph-name="Ohorn" unicode="&#x1a0;" horiz-adv-x="1717" 
d="M836 1474c144 0 269.998 -25 377.998 -75c42.667 12.667 76.834 37.167 102.501 73.5s38.5 83.5 38.5 141.5h302c0 -201.333 -66.333 -336.666 -199 -405.999c102.667 -134 154 -297.667 154 -491c0 -82 -9.5 -159.667 -28.5 -233s-49 -142.166 -90 -206.499
s-91.333 -119.833 -151 -166.5s-132.667 -83.5 -219 -110.5s-182.166 -40.5 -287.499 -40.5s-201.166 13.5 -287.499 40.5s-159.333 63.833 -219 110.5s-110 102.167 -151 166.5s-71 133.166 -90 206.499s-28.5 151 -28.5 233s9.5 159.667 28.5 233s49 142.166 90 206.499
s91.333 119.833 151 166.5s132.667 83.5 219 110.5s182.166 40.5 287.499 40.5zM835.998 1185c-73.333 0 -138 -11.833 -194 -35.5s-101.167 -56.834 -135.5 -99.501s-60.166 -92 -77.499 -148s-26 -117.667 -26 -185s8.66699 -129 26 -185s43.166 -105.333 77.499 -148
s79.5 -75.834 135.5 -99.501s120.667 -35.5 194 -35.5s138 11.833 194 35.5s101.167 56.834 135.5 99.501s60.166 92 77.499 148s26 117.667 26 185s-8.66699 129 -26 185s-43.166 105.333 -77.499 148s-79.5 75.834 -135.5 99.501s-120.667 35.5 -194 35.5z" />
    <glyph glyph-name="ohorn" unicode="&#x1a1;" horiz-adv-x="1373" 
d="M666 -30c-182.667 0 -329.331 50.333 -439.998 151s-166 232 -166 394c0 162.667 55.167 294.167 165.5 394.5s257.166 150.5 440.499 150.5c106 0 200 -17.333 282 -52c38 10.667 67.833 33 89.5 67s32.5 78.667 32.5 134h293c0 -186 -62 -312.333 -186 -379
c63.333 -90 95 -195 95 -315c0 -162 -55.333 -293.333 -166 -394s-257.334 -151 -440.001 -151zM666.003 222c89.333 0 158 27 206 81s72 124.667 72 212s-24 158 -72 212s-116.667 81 -206 81s-158 -27 -206 -81s-72 -124.667 -72 -212s24 -158 72 -212
s116.667 -81 206 -81z" />
    <glyph glyph-name="uni01A2" unicode="&#x1a2;" horiz-adv-x="2287" 
d="M836 1474c196.667 0 361 -47.332 493 -141.999c100.667 94.667 225.334 142 374.001 142c73.333 0 139.166 -10 197.499 -30s109.166 -50.5 152.499 -91.5s76.5 -95.167 99.5 -162.5s34.5 -146 34.5 -236v-954h-333v954c0 73.333 -12.833 130.166 -38.5 170.499
s-63.167 60.5 -112.5 60.5c-71.333 0 -131 -26.667 -179 -80c58.667 -113.333 88 -242.666 88 -387.999c0 -82 -9.5 -159.667 -28.5 -233s-49 -142.166 -90 -206.499s-91.333 -119.833 -151 -166.5s-132.667 -83.5 -219 -110.5s-182.166 -40.5 -287.499 -40.5
s-201.166 13.5 -287.499 40.5s-159.333 63.833 -219 110.5s-110 102.167 -151 166.5s-71 133.166 -90 206.499s-28.5 151 -28.5 233s9.5 159.667 28.5 233s49 142.166 90 206.499s91.333 119.833 151 166.5s132.667 83.5 219 110.5s182.166 40.5 287.499 40.5zM836 1185
c-73.333 0 -138 -11.833 -194 -35.5s-101.167 -56.834 -135.5 -99.501s-60.166 -92 -77.499 -148s-26 -117.667 -26 -185s8.66699 -129 26 -185s43.166 -105.333 77.499 -148s79.5 -75.834 135.5 -99.501s120.667 -35.5 194 -35.5s138 11.833 194 35.5
s101.167 56.834 135.5 99.501s60.166 92 77.499 148s26 117.667 26 185s-8.66699 129 -26 185s-43.166 105.333 -77.499 148s-79.5 75.834 -135.5 99.501s-120.667 35.5 -194 35.5z" />
    <glyph glyph-name="uni01A3" unicode="&#x1a3;" horiz-adv-x="1899" 
d="M666 -30c-182.667 0 -329.331 50.333 -439.998 151s-166 232 -166 394c0 162.667 55.167 294.167 165.5 394.5s257.166 150.5 440.499 150.5c141.333 0 261.666 -30.667 360.999 -92c46 30.667 96.667 52 152 64s105 18 149 18c90 0 165.667 -10 227 -30
s109.833 -50.833 145.5 -92.5s61 -90.5 76 -146.5s22.5 -123.667 22.5 -203v-1110h-328v1110c0 36 -1.83301 65.833 -5.5 89.5s-11 46.167 -22 67.5s-27.667 37.166 -50 47.499s-50.833 15.5 -85.5 15.5c-35.333 0 -67.666 -8 -96.999 -24
c40.667 -79.333 61 -165.666 61 -258.999c0 -162 -55.333 -293.333 -166 -394s-257.334 -151 -440.001 -151zM666.003 222c89.333 0 158 27 206 81s72 124.667 72 212s-24 158 -72 212s-116.667 81 -206 81s-158 -27 -206 -81s-72 -124.667 -72 -212s24 -158 72 -212
s116.667 -81 206 -81z" />
    <glyph glyph-name="uni01A4" unicode="&#x1a4;" horiz-adv-x="1821" 
d="M856 0h-332.999v1155h-74c-13.333 0 -25.333 -1.83301 -36 -5.5s-21.834 -10.834 -33.501 -21.501s-20.667 -28.167 -27 -52.5s-9.5 -54.833 -9.5 -91.5h-333c0 49.333 3.66699 94.666 11 135.999s17.333 76.333 30 105s27.667 54.834 45 78.501s35.833 42.5 55.5 56.5
s40.167 26.5 61.5 37.5s42.5 18.333 63.5 22l61 11c19.667 3.66699 37.667 4.83398 54 3.50098s30.5 -1.33301 42.5 0h15h716c178.667 0 319.334 -44 422.001 -132s154 -211.333 154 -370s-51.333 -282 -154 -370s-243.334 -132 -422.001 -132h-309v-430zM1165 1145
l-309 -0.00195312v-426h309c79.333 0 139 18.333 179 55s60 89.334 60 158.001s-20 121.334 -60 158.001s-99.667 55 -179 55z" />
    <glyph glyph-name="uni01A5" unicode="&#x1a5;" horiz-adv-x="1414" 
d="M1292 515c0 -168 -48.667 -300.833 -146 -398.5s-224 -146.5 -380 -146.5c-78 0 -145.667 15.167 -203 45.5s-102.333 70.5 -135 120.5v-668h-328v1562h328v-136c33.333 50 78.5 90.167 135.5 120.5s124.5 45.5 202.5 45.5c57.333 0 114.333 -8 171 -24
c12.667 38 29.5 73 50.5 105s47.667 62 80 90s73 50 122 66s103.833 24 164.5 24v-289c-52.667 0 -95 -13.333 -127 -40s-50.333 -62.667 -55 -108c80 -96.667 120 -219.667 120 -369zM964 515c0 86.667 -23.5 157.167 -70.5 211.5s-112.833 81.5 -197.5 81.5
s-150.5 -27.167 -197.5 -81.5s-70.5 -124.833 -70.5 -211.5s23.5 -157.167 70.5 -211.5s112.833 -81.5 197.5 -81.5s150.5 27.167 197.5 81.5s70.5 124.833 70.5 211.5z" />
    <glyph glyph-name="uni01A6" unicode="&#x1a6;" horiz-adv-x="1380" 
d="M433 0l-333 -0.000976562v1434h333v-211h309c94.667 0 178.5 -12.833 251.5 -38.5s132 -61 177 -106s78.833 -96.167 101.5 -153.5s34 -119.666 34 -186.999c0 -54 -7.66699 -103.833 -23 -149.5s-36.833 -85 -64.5 -118s-57.667 -61 -90 -84s-68.5 -43.167 -108.5 -60.5
l300 -537h-357l-276 494h-254v-283zM742 933.999h-309v-392h309c80.667 0 138.667 18.167 174 54.5s53 83.5 53 141.5s-17.667 105.167 -53 141.5s-93.333 54.5 -174 54.5z" />
    <glyph glyph-name="uni01A7" unicode="&#x1a7;" horiz-adv-x="1296" 
d="M260 1095l-161.997 235.001c142.667 96 328 144 556 144c80 0 151.833 -7.83301 215.5 -23.5s116.5 -36.834 158.5 -63.501s76.833 -58.5 104.5 -95.5s47.5 -75.833 59.5 -116.5s18 -83.667 18 -129c0 -118.667 -43.667 -217.5 -131 -296.5s-224 -138.167 -410 -177.5
c-105.333 -21.333 -180.333 -44.333 -225 -69s-67 -59.667 -67 -105c0 -48.667 21.833 -85.667 65.5 -111s114.167 -38 211.5 -38c168 0 314.667 39.333 440 118l162 -235c-148.667 -114.667 -349.334 -172 -602.001 -172c-192 0 -342.333 36.667 -451 110
s-163 182.666 -163 327.999c0 66.667 12.167 125.334 36.5 176.001s61.5 94.5 111.5 131.5s108.5 68.333 175.5 94s147.833 48.5 242.5 68.5c91.333 18.667 158.666 41.5 201.999 68.5s65 63.5 65 109.5c0 44.667 -18.333 79 -55 103s-91.334 36 -164.001 36
c-142 0 -273.333 -30 -394 -90z" />
    </font>
</defs>
</svg>
