<svg width="986" height="429" viewBox="0 0 986 429" fill="none" xmlns="http://www.w3.org/2000/svg">
<g filter="url(#filter0_d_200_2196)">
<path d="M192.422 102.712C192.422 104.399 191.054 105.767 189.366 105.767C187.677 105.767 186.309 104.399 186.309 102.712C186.309 101.024 187.677 99.6564 189.366 99.6564C191.054 99.6564 192.422 101.024 192.422 102.712Z" fill="#00BEFA"/>
<path d="M233.179 469.337C233.179 471.025 231.81 472.393 230.122 472.393C228.434 472.393 227.065 471.025 227.065 469.337C227.065 467.65 228.434 466.282 230.122 466.282C231.81 466.282 233.179 467.65 233.179 469.337Z" fill="#00BEFA"/>
<path d="M386.015 601.73C386.015 603.417 384.646 604.785 382.958 604.785C381.27 604.785 379.901 603.417 379.901 601.73C379.901 600.043 381.27 598.675 382.958 598.675C384.646 598.675 386.015 600.043 386.015 601.73Z" fill="#00BEFA"/>
<path d="M650.931 255.472C650.931 257.16 649.562 258.528 647.874 258.528C646.186 258.528 644.817 257.16 644.817 255.472C644.817 253.785 646.186 252.417 647.874 252.417C649.562 252.417 650.931 253.785 650.931 255.472Z" fill="#00BEFA"/>
<path d="M978 184.184C978 185.871 976.631 187.239 974.943 187.239C973.255 187.239 971.887 185.871 971.887 184.184C971.887 182.497 973.255 181.129 974.943 181.129C976.631 181.129 978 182.497 978 184.184Z" fill="#00BEFA"/>
<path d="M907.695 438.785C907.695 440.473 906.327 441.841 904.639 441.841C902.95 441.841 901.582 440.473 901.582 438.785C901.582 437.098 902.95 435.73 904.639 435.73C906.327 435.73 907.695 437.098 907.695 438.785Z" fill="#00BEFA"/>
<path d="M460.395 245.288C460.395 246.976 459.026 248.344 457.338 248.344C455.65 248.344 454.281 246.976 454.281 245.288C454.281 243.601 455.65 242.233 457.338 242.233C459.026 242.233 460.395 243.601 460.395 245.288Z" fill="#00BEFA"/>
<path d="M756.897 163.816C756.897 165.503 755.529 166.871 753.84 166.871C752.152 166.871 750.784 165.503 750.784 163.816C750.784 162.129 752.152 160.761 753.84 160.761C755.529 160.761 756.897 162.129 756.897 163.816Z" fill="#00BEFA"/>
<path d="M784.408 314.54C784.408 315.102 783.951 315.558 783.389 315.558C782.826 315.558 782.37 315.102 782.37 314.54C782.37 313.977 782.826 313.521 783.389 313.521C783.951 313.521 784.408 313.977 784.408 314.54Z" fill="#00BEFA"/>
<path d="M753.84 416.38C753.84 416.943 753.384 417.399 752.821 417.399C752.259 417.399 751.802 416.943 751.802 416.38C751.802 415.818 752.259 415.362 752.821 415.362C753.384 415.362 753.84 415.818 753.84 416.38Z" fill="#00BEFA"/>
<path d="M814.975 558.957C814.975 559.52 814.519 559.975 813.956 559.975C813.393 559.975 812.937 559.52 812.937 558.957C812.937 558.395 813.393 557.939 813.956 557.939C814.519 557.939 814.975 558.395 814.975 558.957Z" fill="#00BEFA"/>
<path d="M529.681 589.509C529.681 590.072 529.224 590.528 528.662 590.528C528.099 590.528 527.643 590.072 527.643 589.509C527.643 588.947 528.099 588.491 528.662 588.491C529.224 588.491 529.681 588.947 529.681 589.509Z" fill="#00BEFA"/>
<path d="M651.95 670.982C651.95 671.544 651.493 672 650.931 672C650.368 672 649.912 671.544 649.912 670.982C649.912 670.419 650.368 669.963 650.931 669.963C651.493 669.963 651.95 670.419 651.95 670.982Z" fill="#00BEFA"/>
<path d="M162.874 416.38C162.874 416.943 162.418 417.399 161.855 417.399C161.292 417.399 160.836 416.943 160.836 416.38C160.836 415.818 161.292 415.362 161.855 415.362C162.418 415.362 162.874 415.818 162.874 416.38Z" fill="#00BEFA"/>
<path d="M10.0378 171.963C10.0378 172.526 9.58163 172.982 9.01891 172.982C8.45618 172.982 8 172.526 8 171.963C8 171.401 8.45618 170.945 9.01891 170.945C9.58163 170.945 10.0378 171.401 10.0378 171.963Z" fill="#00BEFA"/>
<path d="M387.034 110.859C387.034 111.421 386.577 111.877 386.015 111.877C385.452 111.877 384.996 111.421 384.996 110.859C384.996 110.296 385.452 109.84 386.015 109.84C386.577 109.84 387.034 110.296 387.034 110.859Z" fill="#00BEFA"/>
<path d="M376.845 345.092C376.845 345.654 376.388 346.11 375.826 346.11C375.263 346.11 374.807 345.654 374.807 345.092C374.807 344.53 375.263 344.074 375.826 344.074C376.388 344.074 376.845 344.53 376.845 345.092Z" fill="#00BEFA"/>
<path d="M468.546 426.564C468.546 427.127 468.09 427.583 467.527 427.583C466.965 427.583 466.508 427.127 466.508 426.564C466.508 426.002 466.965 425.546 467.527 425.546C468.09 425.546 468.546 426.002 468.546 426.564Z" fill="#00BEFA"/>
<path d="M641.76 9.0184C641.76 9.58085 641.304 10.0368 640.742 10.0368C640.179 10.0368 639.723 9.58085 639.723 9.0184C639.723 8.45596 640.179 8 640.742 8C641.304 8 641.76 8.45596 641.76 9.0184Z" fill="#00BEFA"/>
<path d="M264.765 273.804C264.765 274.366 264.309 274.822 263.746 274.822C263.183 274.822 262.727 274.366 262.727 273.804C262.727 273.241 263.183 272.785 263.746 272.785C264.309 272.785 264.765 273.241 264.765 273.804Z" fill="#00BEFA"/>
</g>
<defs>
<filter id="filter0_d_200_2196" x="0" y="0" width="986" height="680" filterUnits="userSpaceOnUse" color-interpolation-filters="sRGB">
<feFlood flood-opacity="0" result="BackgroundImageFix"/>
<feColorMatrix in="SourceAlpha" type="matrix" values="0 0 0 0 0 0 0 0 0 0 0 0 0 0 0 0 0 0 127 0" result="hardAlpha"/>
<feOffset/>
<feGaussianBlur stdDeviation="4"/>
<feComposite in2="hardAlpha" operator="out"/>
<feColorMatrix type="matrix" values="0 0 0 0 1 0 0 0 0 1 0 0 0 0 1 0 0 0 0.25 0"/>
<feBlend mode="normal" in2="BackgroundImageFix" result="effect1_dropShadow_200_2196"/>
<feBlend mode="normal" in="SourceGraphic" in2="effect1_dropShadow_200_2196" result="shape"/>
</filter>
</defs>
</svg>
