<svg width="30" height="36" viewBox="0 0 30 36" fill="none" xmlns="http://www.w3.org/2000/svg">
<path d="M12.0068 18.0495L29.5 22.9999C29.5 13.0337 25.7832 10.963 25.6475 10.8783C25.6441 10.8758 25.6441 10.8783 25.6441 10.8783C25.4988 12.0608 24.8231 12.9487 23.8164 13.6521C23.6024 13.8015 23.2694 13.6204 23.3985 13.4237C23.8934 12.6694 24.4122 11.4878 24.1537 10.0326C24.1503 10.0225 24.1504 10.0087 24.147 9.9988C23.8851 8.2594 22.2918 6.92319 19.7643 5.77893C21.6723 11.2343 12.0068 11.8895 12.0068 18.0495Z" fill="white"/>
<path fill-rule="evenodd" clip-rule="evenodd" d="M21.9603 35.2222C26.2924 33.2738 29.5606 29.1737 29.5606 22.9015C29.5606 17.3096 25.8521 14.1482 22.3988 11.2043C18.7522 8.09564 15.39 5.22949 16.9793 0C12.8801 2.13561 10.2961 4.62947 9.87137 7.87584C9.86862 7.88516 9.86727 7.89625 9.86592 7.90739C9.86457 7.91844 9.86322 7.92954 9.86049 7.93897C9.44124 10.6549 10.2827 12.8602 11.0853 14.2681C11.2947 14.635 10.7546 14.9731 10.4076 14.6942C8.77491 13.3814 7.67898 11.7243 7.44339 9.5173C7.44339 9.5173 7.44328 9.51256 7.43779 9.5173C7.43178 9.52162 7.42114 9.52895 7.40615 9.53929C6.87287 9.90685 0.824707 14.0756 0.824707 21.9346C0.824707 28.6618 4.40236 33.0775 9.03294 35.1585C9.01116 34.9419 9 34.7223 9 34.5C9 30.9101 11.9101 28 15.5 28C19.0899 28 22 30.9101 22 34.5C22 34.7441 21.9865 34.9851 21.9603 35.2222Z" fill="url(#paint0_radial_476_335)"/>
<defs>
<radialGradient id="paint0_radial_476_335" cx="0" cy="0" r="1" gradientUnits="userSpaceOnUse" gradientTransform="translate(8.74367 3.45623) rotate(61.2233) scale(21.1499 18.5071)">
<stop stop-color="#86D3FF"/>
<stop offset="1" stop-color="#00A3FF"/>
</radialGradient>
</defs>
</svg>
