<svg width="42" height="39" viewBox="0 0 42 39" fill="none" xmlns="http://www.w3.org/2000/svg">
<path d="M7.12016 28.6113C4.64356 28.6113 2.57907 30.415 2.05552 32.6991C1.82872 33.6886 1.09905 34.6298 0.565092 35.4932C0.348047 35.8442 0.222778 36.2579 0.222778 36.7008C0.222778 37.9706 1.25213 39 2.52191 39H24.6616C25.9314 39 26.9608 37.9706 26.9608 36.7008C26.9608 36.2579 26.8355 35.8442 26.6185 35.4932C26.0845 34.6298 25.3548 33.6886 25.128 32.6991C24.6045 30.415 22.54 28.6113 20.0634 28.6113H7.12016Z" fill="#00A3FF"/>
<path d="M7.12016 28.6113C4.64356 28.6113 2.57907 30.415 2.05552 32.6991C1.82872 33.6886 1.09905 34.6298 0.565092 35.4932C0.348047 35.8442 0.222778 36.2579 0.222778 36.7008C0.222778 37.9706 1.25213 39 2.52191 39H24.6616C25.9314 39 26.9608 37.9706 26.9608 36.7008C26.9608 36.2579 26.8355 35.8442 26.6185 35.4932C26.0845 34.6298 25.3548 33.6886 25.128 32.6991C24.6045 30.415 22.54 28.6113 20.0634 28.6113H7.12016Z" fill="url(#paint0_radial_476_481)"/>
<path d="M18.8712 16.8603H8.36335C8.36335 16.8603 8.82318 14.5782 8.82318 12.0065C8.82318 9.43493 8.34631 7.15283 8.34631 7.15283H18.9223C18.9223 9.43493 20.3869 9.43493 20.3869 9.43493L39.1716 9.46899C39.1716 9.46899 41.7773 9.43493 41.7773 12.1598C41.7773 14.8847 39.1716 14.6122 39.1716 14.6122L20.3869 14.6293C20.3869 14.6293 18.8712 14.6293 18.8712 16.8603Z" fill="#00A3FF"/>
<path d="M18.8712 16.8603H8.36335C8.36335 16.8603 8.82318 14.5782 8.82318 12.0065C8.82318 9.43493 8.34631 7.15283 8.34631 7.15283H18.9223C18.9223 9.43493 20.3869 9.43493 20.3869 9.43493L39.1716 9.46899C39.1716 9.46899 41.7773 9.43493 41.7773 12.1598C41.7773 14.8847 39.1716 14.6122 39.1716 14.6122L20.3869 14.6293C20.3869 14.6293 18.8712 14.6293 18.8712 16.8603Z" fill="url(#paint1_radial_476_481)"/>
<rect x="5.16162" y="17.3712" width="16.8603" height="6.64192" rx="3.32096" fill="white"/>
<rect x="5.16162" width="16.8603" height="6.64192" rx="3.32096" fill="white"/>
<defs>
<radialGradient id="paint0_radial_476_481" cx="0" cy="0" r="1" gradientUnits="userSpaceOnUse" gradientTransform="translate(3 27.5) rotate(51.953) scale(14.6031)">
<stop stop-color="#86D3FF"/>
<stop offset="1" stop-color="#00A3FF"/>
</radialGradient>
<radialGradient id="paint1_radial_476_481" cx="0" cy="0" r="1" gradientUnits="userSpaceOnUse" gradientTransform="translate(8 4) rotate(29.7449) scale(16.1245)">
<stop stop-color="#86D3FF"/>
<stop offset="1" stop-color="#00A3FF"/>
</radialGradient>
</defs>
</svg>
