<svg width="36" height="40" viewBox="0 0 36 40" fill="none" xmlns="http://www.w3.org/2000/svg">
<path d="M32.4201 29.3056C32.4201 23.7054 27.5589 14.9536 23.3103 12.2723C22.4637 12.3678 21.5658 12.4429 20.6163 12.496C21.0565 14.3304 21.3157 17.097 23.8787 16.8354C24.3421 16.7871 24.7686 17.1369 24.816 17.6067C24.8633 18.0774 24.5259 18.4966 24.0562 18.5471C20.2214 18.9867 19.6745 15.2794 18.8393 12.5676C18.8213 12.568 18.8028 12.5683 18.7848 12.5687C19.6782 15.9351 14.4914 16.7556 14.832 19.6798C14.8867 20.1516 14.5483 20.5793 14.0755 20.6338C14.0419 20.637 14.0083 20.6391 13.9757 20.6391C13.5449 20.6391 13.1729 20.3165 13.1214 19.8774C12.9574 18.4642 13.7172 17.0341 15.3804 15.6283C15.9811 15.1212 18.0405 13.3961 16.8608 12.5926C15.2556 12.5823 13.7005 12.5088 12.2646 12.3826C6.59773 16.0405 3.08801 23.9755 3.08801 29.3056C3.08801 34.6356 1.89623 35.2896 0 37.6304C4.9888 39.1045 7.1804 39.9105 18.1522 39.9105C29.124 39.9105 35.5 37.6304 35.5 37.6304C33.3927 35.6082 32.4201 34.9058 32.4201 29.3056Z" fill="url(#paint0_radial_482_610)"/>
<path d="M12.6417 9.81157C13.1694 9.85534 13.71 9.89132 14.2691 9.91964C13.029 8.19078 12.1432 5.47506 12.7766 2.69893C12.8817 2.23446 13.3482 1.94343 13.8074 2.05063C14.2708 2.15676 14.5607 2.61799 14.4557 3.08138C13.7319 6.24947 15.5423 9.38535 16.7425 9.99323C16.9934 9.99527 17.2437 9.99771 17.4945 9.99669L17.0951 6.01593C17.0478 5.54314 17.3925 5.12071 17.8653 5.07348C18.3445 5.01783 18.7605 5.37088 18.8078 5.84368L19.2211 9.96286C19.4778 9.95454 19.7301 9.94622 19.9816 9.93477C22.1844 7.08753 21.2432 3.14514 21.2329 3.10439C21.1152 2.64414 21.3926 2.17556 21.8528 2.05679C22.313 1.94116 22.7795 2.21544 22.8993 2.67461C22.9454 2.85271 23.8429 6.51207 22.127 9.79439C22.4629 9.76467 22.7706 9.72598 23.0886 9.69021C26.9693 6.59366 27.9517 4.24018 28.1839 3.08473C25.5855 3.05662 25.0214 0.423052 22.64 0.432391C20.2587 0.44173 20.3706 1.18886 18.1553 1.1813C15.9399 1.17374 16.1849 -0.001244 13.8074 0.000123263C11.4299 0.00149052 10.3189 2.48156 7.84966 2.13979C7.95168 3.81472 8.68361 7.26865 12.6417 9.81157Z" fill="url(#paint1_radial_482_610)"/>
<path d="M22.5586 29.5203C21.3901 29.2898 18.9556 30.9612 17.8844 31.8258C16.8132 30.9612 14.3787 29.2897 13.2101 29.5203C12.6259 32.4022 15.2551 36.1485 15.2551 36.1485C7.07519 30.6731 10.5809 23.1805 10.5809 23.1805C14.0866 23.7568 17.8844 28.3677 17.8844 28.3677C17.8844 28.3677 21.6822 23.7568 25.1879 23.1805C25.1879 23.1805 26.9407 25.4859 26.0643 28.9441C26.0643 28.9441 26.6486 28.9441 27.2329 28.3677C27.2329 28.3677 27.2329 33.9559 21.0979 37.0131C21.0979 37.0131 23.5292 33.3414 23.4351 32.114C23.4351 32.114 23.1429 32.4022 22.2665 32.6904C22.2665 32.6904 22.8508 30.9613 22.5586 29.5203Z" fill="white"/>
<defs>
<radialGradient id="paint0_radial_482_610" cx="0" cy="0" r="1" gradientUnits="userSpaceOnUse" gradientTransform="translate(9.783 3.91639) rotate(59.0866) scale(24.4834)">
<stop stop-color="#86D3FF"/>
<stop offset="1" stop-color="#00A3FF"/>
</radialGradient>
<radialGradient id="paint1_radial_482_610" cx="0" cy="0" r="1" gradientUnits="userSpaceOnUse" gradientTransform="translate(9.783 3.91639) rotate(59.0866) scale(24.4834)">
<stop stop-color="#86D3FF"/>
<stop offset="1" stop-color="#00A3FF"/>
</radialGradient>
</defs>
</svg>
