<svg width="38" height="38" viewBox="0 0 38 38" fill="none" xmlns="http://www.w3.org/2000/svg">
<path d="M29.722 22.4352L35.0725 17.0838C38.9758 13.1814 38.9758 6.83018 35.0725 2.92776C31.1697 -0.975921 24.8189 -0.975921 20.9161 2.92776L13.1944 10.6494C9.29115 14.5518 9.29115 20.903 13.1944 24.8054C13.7707 25.3822 14.4015 25.8711 15.069 26.2772L19.2028 22.143C18.4154 21.9547 17.6685 21.5574 17.0555 20.9448C15.2814 19.1707 15.2814 16.2837 17.0555 14.51L24.7771 6.78838C26.5512 5.01429 29.4382 5.01429 31.2119 6.78838C32.986 8.56248 32.986 11.4491 31.2119 13.2232L28.9434 15.4921C29.8782 17.6922 30.1366 20.1118 29.722 22.4352Z" fill="white"/>
<path d="M8.27956 15.5635L2.92898 20.9145C-0.9747 24.8173 -0.9747 31.1681 2.92898 35.0709C6.8314 38.9742 13.1826 38.9742 17.0854 35.0709L24.8067 27.3493C28.7099 23.4464 28.7095 17.0957 24.8067 13.1932C24.2308 12.6165 23.6 12.1276 22.9325 11.7214L18.7987 15.8556C19.5857 16.0444 20.3326 16.4408 20.9461 17.0539C22.7201 18.8279 22.7201 21.7145 20.9461 23.4886L13.224 31.2103C11.4499 32.9844 8.56327 32.9844 6.78918 31.2103C5.01509 29.4362 5.01509 26.5496 6.78918 24.7755L9.0581 22.507C8.12292 20.3069 7.86453 17.8869 8.27956 15.5635Z" fill="#00A3FF"/>
<path d="M8.27956 15.5635L2.92898 20.9145C-0.9747 24.8173 -0.9747 31.1681 2.92898 35.0709C6.8314 38.9742 13.1826 38.9742 17.0854 35.0709L24.8067 27.3493C28.7099 23.4464 28.7095 17.0957 24.8067 13.1932C24.2308 12.6165 23.6 12.1276 22.9325 11.7214L18.7987 15.8556C19.5857 16.0444 20.3326 16.4408 20.9461 17.0539C22.7201 18.8279 22.7201 21.7145 20.9461 23.4886L13.224 31.2103C11.4499 32.9844 8.56327 32.9844 6.78918 31.2103C5.01509 29.4362 5.01509 26.5496 6.78918 24.7755L9.0581 22.507C8.12292 20.3069 7.86453 17.8869 8.27956 15.5635Z" fill="url(#paint0_radial_476_126)"/>
<defs>
<radialGradient id="paint0_radial_476_126" cx="0" cy="0" r="1" gradientUnits="userSpaceOnUse" gradientTransform="translate(7.64374 14.1114) rotate(52.5288) scale(16.1517 16.1729)">
<stop stop-color="#86D3FF"/>
<stop offset="1" stop-color="#00A3FF"/>
</radialGradient>
</defs>
</svg>
