<svg width="32" height="35" viewBox="0 0 32 35" fill="none" xmlns="http://www.w3.org/2000/svg">
<path d="M16 14.5455C23.7564 14.5455 32 11.9964 32 7.27273C32 2.54909 23.7564 0 16 0C8.24364 0 0 2.54909 0 7.27273C0 11.9964 8.24364 14.5455 16 14.5455Z" fill="#00A3FF"/>
<path d="M16 14.5455C23.7564 14.5455 32 11.9964 32 7.27273C32 2.54909 23.7564 0 16 0C8.24364 0 0 2.54909 0 7.27273C0 11.9964 8.24364 14.5455 16 14.5455Z" fill="url(#paint0_radial_476_11)"/>
<path d="M30.5455 21.8182C29.7425 21.8182 29.0909 22.4698 29.0909 23.2727C29.0909 25.0516 23.9913 27.6364 16 27.6364C8.00873 27.6364 2.90909 25.0516 2.90909 23.2727C2.90909 22.4698 2.25745 21.8182 1.45455 21.8182C0.651636 21.8182 0 22.4698 0 23.2727V27.6364C0 32.36 8.24364 34.9091 16 34.9091C23.7564 34.9091 32 32.36 32 27.6364V23.2727C32 22.4698 31.3484 21.8182 30.5455 21.8182Z" fill="#00A3FF"/>
<path d="M30.5455 21.8182C29.7425 21.8182 29.0909 22.4698 29.0909 23.2727C29.0909 25.0516 23.9913 27.6364 16 27.6364C8.00873 27.6364 2.90909 25.0516 2.90909 23.2727C2.90909 22.4698 2.25745 21.8182 1.45455 21.8182C0.651636 21.8182 0 22.4698 0 23.2727V27.6364C0 32.36 8.24364 34.9091 16 34.9091C23.7564 34.9091 32 32.36 32 27.6364V23.2727C32 22.4698 31.3484 21.8182 30.5455 21.8182Z" fill="url(#paint1_radial_476_11)"/>
<path d="M30.5455 11.6364C29.7425 11.6364 29.0909 12.288 29.0909 13.0909C29.0909 14.8698 23.9913 17.4545 16 17.4545C8.00873 17.4545 2.90909 14.8698 2.90909 13.0909C2.90909 12.288 2.25745 11.6364 1.45455 11.6364C0.651636 11.6364 0 12.288 0 13.0909V17.4545C0 22.1782 8.24364 24.7273 16 24.7273C23.7564 24.7273 32 22.1782 32 17.4545V13.0909C32 12.288 31.3484 11.6364 30.5455 11.6364Z" fill="white"/>
<defs>
<radialGradient id="paint0_radial_476_11" cx="0" cy="0" r="1" gradientUnits="userSpaceOnUse" gradientTransform="translate(8.81848 3.1751) rotate(56.3457) scale(20.4591 19.5722)">
<stop stop-color="#86D3FF"/>
<stop offset="1" stop-color="#00A3FF"/>
</radialGradient>
<radialGradient id="paint1_radial_476_11" cx="0" cy="0" r="1" gradientUnits="userSpaceOnUse" gradientTransform="translate(8.81848 3.1751) rotate(56.3457) scale(20.4591 19.5722)">
<stop stop-color="#86D3FF"/>
<stop offset="1" stop-color="#00A3FF"/>
</radialGradient>
</defs>
</svg>
