<?xml version="1.0" standalone="no"?>
<!DOCTYPE svg PUBLIC "-//W3C//DTD SVG 1.1//EN" "http://www.w3.org/Graphics/SVG/1.1/DTD/svg11.dtd" >
<svg>
<metadata>
Created by FontForge 20090914 at Fri Nov 12 15:25:15 2021
 By www-data
Copyright (c) 2017 by Artegra. All rights reserved.
</metadata>
<defs>
<font id="ArtegraSans-SemiBold" horiz-adv-x="1237" >
  <font-face 
    font-family="ArtegraSans-SemiBold"
    font-weight="600"
    font-stretch="normal"
    units-per-em="2048"
    panose-1="2 0 7 3 4 0 0 2 0 4"
    ascent="1521"
    descent="-527"
    x-height="1022"
    cap-height="1434"
    bbox="-200 -785 3122 2200"
    underline-thickness="102"
    underline-position="-307"
    unicode-range="U+000D-U+FE65"
  />
<missing-glyph horiz-adv-x="922" 
 />
    <glyph glyph-name="ff" unicode="ff" horiz-adv-x="1564" 
d="M653 1277c-20 0 -37.665 -2.5 -52.998 -7.5s-28.166 -10.833 -38.499 -17.5s-19 -17 -26 -31s-12.333 -26.5 -16 -37.5s-6.33398 -27.167 -8.00098 -48.5s-2.66699 -38.833 -3 -52.5s-0.5 -33.834 -0.5 -60.501h413c0.666992 88 6.66699 162 18 222
s30.833 112.833 58.5 158.5s66.167 79.334 115.5 101.001s110.666 32.5 183.999 32.5c84.667 0 163.667 -11.667 237 -35l-72 -194c-48.667 13.333 -97 20 -145 20c-20 0 -37.667 -2.66699 -53 -8s-28.166 -11.833 -38.499 -19.5s-19 -19.5 -26 -35.5
s-12.333 -30.5 -16 -43.5s-6.33398 -32.5 -8.00098 -58.5s-2.66699 -47.5 -3 -64.5s-0.5 -42.167 -0.5 -75.5h292v-209h-292v-813h-251v813h-413v-813h-251v813h-197v209h197c0.666992 78 6.66699 144 18 198s30.833 101.833 58.5 143.5s66.167 72.5 115.5 92.5
s110.666 30 183.999 30c84.667 0 163.667 -11.667 237 -35l-72 -194c-48.667 13.333 -97 20 -145 20z" />
    <glyph glyph-name="fi" unicode="fi" horiz-adv-x="1292" 
d="M508 1022h664.003v-1022h-251v813h-413v-813h-251v813h-197v209h197c0.666992 79.333 9.66699 149.166 27 209.499s44.666 113.833 81.999 160.5s88.5 82.334 153.5 107.001s142.833 37 233.5 37c191.333 0 329.666 -52.333 414.999 -157l-170 -133
c-56.667 54 -135 81 -235 81c-92.667 0 -158.334 -23 -197.001 -69s-58 -124.667 -58 -236z" />
    <glyph glyph-name="fl" unicode="fl" horiz-adv-x="1347" 
d="M921 813l-412.996 0.000976562v-813h-251v813h-197v209h197c0.666992 79.333 9.66699 149.166 27 209.499s44.666 113.833 81.999 160.5s88.5 82.334 153.5 107.001s142.833 37 233.5 37c176.667 0 316.334 -43 419.001 -129v-1043
c0 -21.333 0.166992 -37.666 0.5 -48.999s1.66602 -25 3.99902 -41s5.5 -27.833 9.5 -35.5s10 -14.5 18 -20.5s18 -9 30 -9h33v-209h-129c-26.667 0 -50.5 2.66699 -71.5 8s-39 14 -54 26s-27.833 24.167 -38.5 36.5s-19.334 29 -26.001 50s-11.834 39 -15.501 54
s-6.33398 35.667 -8.00098 62s-2.66699 46.666 -3 60.999s-0.5 35.166 -0.5 62.499v453zM763.004 1327c-92.667 0 -158.333 -23 -197 -69s-58 -124.667 -58 -236h413v274c-40 20.667 -92.667 31 -158 31z" />
    <glyph glyph-name="ffi" unicode="ffi" horiz-adv-x="1956" 
d="M1172 1022l664.004 0.000976562v-1022h-251v813h-413v-813h-251v813h-413v-813h-251v813h-197v209h197c0.666992 78 6.66699 144 18 198s30.833 101.833 58.5 143.5s66.167 72.5 115.5 92.5s110.666 30 183.999 30c84.667 0 163.667 -11.667 237 -35l-72 -194
c-48.667 13.333 -97 20 -145 20c-20 0 -37.667 -2.5 -53 -7.5s-28.166 -10.833 -38.499 -17.5s-19 -17 -26 -31s-12.333 -26.5 -16 -37.5s-6.33398 -27.167 -8.00098 -48.5s-2.66699 -38.833 -3 -52.5s-0.5 -33.834 -0.5 -60.501h413
c0.666992 79.333 9.66699 149.166 27 209.499s44.666 113.833 81.999 160.5s88.5 82.334 153.5 107.001s142.833 37 233.5 37c191.333 0 329.666 -52.333 414.999 -157l-170 -133c-56.667 54 -135 81 -235 81c-92.667 0 -158.334 -23 -197.001 -69s-58 -124.667 -58 -236z
" />
    <glyph glyph-name="ffl" unicode="ffl" horiz-adv-x="2011" 
d="M1585 813l-412.995 0.00195312v-813h-251v813h-413v-813h-251v813h-197v209h197c0.666992 78 6.66699 144 18 198s30.833 101.833 58.5 143.5s66.167 72.5 115.5 92.5s110.666 30 183.999 30c84.667 0 163.667 -11.667 237 -35l-72 -194c-48.667 13.333 -97 20 -145 20
c-20 0 -37.667 -2.5 -53 -7.5s-28.166 -10.833 -38.499 -17.5s-19 -17 -26 -31s-12.333 -26.5 -16 -37.5s-6.33398 -27.167 -8.00098 -48.5s-2.66699 -38.833 -3 -52.5s-0.5 -33.834 -0.5 -60.501h413c0.666992 79.333 9.66699 149.166 27 209.499
s44.666 113.833 81.999 160.5s88.5 82.334 153.5 107.001s142.833 37 233.5 37c176.667 0 316.334 -43 419.001 -129v-1043c0 -21.333 0.166992 -37.666 0.5 -48.999s1.66602 -25 3.99902 -41s5.5 -27.833 9.5 -35.5s10 -14.5 18 -20.5s18 -9 30 -9h33v-209h-129
c-26.667 0 -50.5 2.66699 -71.5 8s-39 14 -54 26s-27.833 24.167 -38.5 36.5s-19.334 29 -26.001 50s-11.834 39 -15.501 54s-6.33398 35.667 -8.00098 62s-2.66699 46.666 -3 60.999s-0.5 35.166 -0.5 62.499v453zM1427 1327c-92.667 0 -158.333 -23 -197 -69
s-58 -124.667 -58 -236h413v274c-40 20.667 -92.667 31 -158 31z" />
    <glyph glyph-name=".notdef" horiz-adv-x="922" 
 />
    <glyph glyph-name="null" horiz-adv-x="0" 
 />
    <glyph glyph-name="null" horiz-adv-x="0" 
 />
    <glyph glyph-name="nonmarkingreturn" unicode="&#xd;" horiz-adv-x="922" 
 />
    <glyph glyph-name="space" unicode=" " horiz-adv-x="573" 
 />
    <glyph glyph-name="exclam" unicode="!" horiz-adv-x="617" 
d="M193 402l-20 1032h270l-20 -1032h-230zM160 138c0 41.333 14.333 76.5 43 105.5s63.667 43.5 105 43.5s76.5 -14.5 105.5 -43.5s43.5 -64.167 43.5 -105.5s-14.5 -76.333 -43.5 -105s-64.167 -43 -105.5 -43s-76.333 14.333 -105 43s-43 63.667 -43 105z" />
    <glyph glyph-name="quotedbl" unicode="&#x22;" horiz-adv-x="802" 
d="M120 932l-20 502h259l-17 -502h-222zM462 932l-18 502h258l-18 -502h-222z" />
    <glyph glyph-name="numbersign" unicode="#" horiz-adv-x="1472" 
d="M907 1072l58 362h257l-58 -362h208v-226h-244l-42 -258h208v-226h-244l-58 -362h-257l58 362h-228l-58 -362h-258l58 362h-207v226h243l42 258h-208v226h244l58 362h258l-58 -362h228zM643 846l-42 -258h228l42 258h-228z" />
    <glyph glyph-name="dollar" unicode="$" horiz-adv-x="1342" 
d="M1181 1331l-132.005 -188.998c-107.333 64 -234.666 96 -381.999 96c-175.333 0 -263 -55.667 -263 -167c0 -56.667 24 -101 72 -133s125.667 -59.333 233 -82c184.667 -39.333 321.334 -95.833 410.001 -169.5s133 -171.834 133 -294.501
c0 -65.333 -10.833 -123.333 -32.5 -174s-52.5 -92.667 -92.5 -126s-86.833 -59.666 -140.5 -78.999s-114.167 -32 -181.5 -38v-223h-232v222c-102 7.33301 -191.667 24.166 -269 50.499s-148.666 64.166 -213.999 113.499l132 189
c140.667 -87.333 300.334 -131 479.001 -131c96 0 166.5 15.167 211.5 45.5s67.5 80.5 67.5 150.5c0 55.333 -25 101.5 -75 138.5s-131.667 67.167 -245 90.5c-184 38.667 -318 95.667 -402 171s-126 168.333 -126 279c0 103.333 36.833 190.333 110.5 261
s183.834 113 330.501 127v223h232v-224c146 -14.667 271.333 -57 376 -127z" />
    <glyph glyph-name="uni0025" unicode="%" horiz-adv-x="1642" 
d="M281 0l802 1434h285l-802 -1434h-285zM100 1147c0 88.667 29.833 163.667 89.5 225s135.5 92 227.5 92c91.333 0 167 -30.667 227 -92s90 -136.333 90 -225c0 -89.333 -30 -164.5 -90 -225.5s-135.667 -91.5 -227 -91.5c-92 0 -167.833 30.5 -227.5 91.5
s-89.5 136.167 -89.5 225.5zM302 1147c0 -32.667 10.333 -60 31 -82s48.667 -33 84 -33s63.333 11 84 33s31 49.333 31 82s-10.333 60 -31 82s-48.667 33 -84 33s-63.333 -11 -84 -33s-31 -49.333 -31 -82zM908 287c0 88.667 29.833 163.667 89.5 225s135.5 92 227.5 92
c91.333 0 167 -30.667 227 -92s90 -136.333 90 -225c0 -89.333 -30 -164.5 -90 -225.5s-135.667 -91.5 -227 -91.5c-92 0 -167.833 30.5 -227.5 91.5s-89.5 136.167 -89.5 225.5zM1110 287c0 -32.667 10.333 -60 31 -82s48.667 -33 84 -33s63.333 11 84 33s31 49.333 31 82
s-10.333 60 -31 82s-48.667 33 -84 33s-63.333 -11 -84 -33s-31 -49.333 -31 -82z" />
    <glyph glyph-name="ampersand" unicode="&#x26;" horiz-adv-x="1611" 
d="M653 1464c66 0 124.335 -10.002 175.002 -30.002s91.167 -47.5 121.5 -82.5s53 -74.333 68 -118s22.5 -90.834 22.5 -141.501c0 -168.667 -105.667 -309.667 -317 -423l25 -28l30 -31l28 -28c7.33301 -7.33301 18.333 -17.666 33 -30.999l29.5 -27l32 -29
c16.333 -14.667 25.5 -23 27.5 -25c22.667 40.667 45 105.334 67 194.001l270 -30c-34.667 -148 -78.334 -260 -131.001 -336c93.333 -68.667 187.666 -132.667 282.999 -192l164 -106h-416c-14.667 6.66699 -34 17.334 -58 32.001c-56.667 32.667 -98 58 -124 76
c-56.667 -46.667 -115.5 -81.334 -176.5 -104.001s-141.833 -34 -242.5 -34c-64 0 -123.333 7.33301 -178 22s-103.667 36.5 -147 65.5s-77.333 67.667 -102 116s-37 103.833 -37 166.5c0 160 90.333 291.333 271 394c-80.667 92.667 -121 205.334 -121 338.001
c0 118 35.667 212.833 107 284.5s170 107.5 296 107.5zM370.002 339.998c0 -44.667 18.002 -79.835 54.002 -105.502s81.667 -38.5 137 -38.5c83.333 0 155.666 25.333 216.999 76c-128.667 116 -217.334 203.333 -266.001 262c-46.667 -25.333 -82 -55.166 -106 -89.499
s-36 -69.166 -36 -104.499zM769.004 1092c0 98 -38.667 147.001 -116 147.001c-42.667 0 -75.667 -16 -99 -48s-35 -71.667 -35 -119c0 -42.667 6.66699 -83 20 -121s30 -68.333 50 -91c120 61.333 180 138.666 180 231.999z" />
    <glyph glyph-name="quotesingle" unicode="'" horiz-adv-x="459" 
d="M120 932l-20 502h259l-17 -502h-222z" />
    <glyph glyph-name="parenleft" unicode="(" horiz-adv-x="880" 
d="M390 580c0 -247.333 68.334 -438 205.001 -572c61.333 -60 129.666 -102.333 204.999 -127l-80 -238c-112 36 -212 94 -300 174c-200 182.667 -300 437 -300 763s100 580.333 300 763c88 80 188 138 300 174l80 -238c-76 -25.333 -144.333 -68 -205 -128
c-136.667 -134 -205 -324.333 -205 -571z" />
    <glyph glyph-name="parenright" unicode=")" horiz-adv-x="880" 
d="M490 580c0 244 -68.333 434.332 -205 570.999c-62 60 -130.333 102.667 -205 128l80 238c112 -36 212 -94 300 -174c200 -182.667 300 -437 300 -763s-100 -580.333 -300 -763c-88 -80 -188 -138 -300 -174l-80 238c74.667 24.667 143 67 205 127
c136.667 136.667 205 327.334 205 572.001z" />
    <glyph glyph-name="asterisk" unicode="*" horiz-adv-x="1000" 
d="M633 636l-133 212l-133 -212l-194 158l166 181l-259 75l81 238l225 -106l-20 252h268l-20 -252l225 106l81 -238l-259 -75l166 -181z" />
    <glyph glyph-name="plus" unicode="+" horiz-adv-x="1151" 
d="M1051 794v-228h-358v-361h-235v361h-358v228h358v361h235v-361h358z" />
    <glyph glyph-name="comma" unicode="," horiz-adv-x="640" 
d="M80 -258l191 502h269l-229 -502h-231z" />
    <glyph glyph-name="hyphen" unicode="-" horiz-adv-x="886" 
d="M100 469v209h686v-209h-686z" />
    <glyph glyph-name="period" unicode="." horiz-adv-x="497" 
d="M100 138c0 41.333 14.333 76.5 43 105.5s63.667 43.5 105 43.5s76.5 -14.5 105.5 -43.5s43.5 -64.167 43.5 -105.5s-14.5 -76.333 -43.5 -105s-64.167 -43 -105.5 -43s-76.333 14.333 -105 43s-43 63.667 -43 105z" />
    <glyph glyph-name="slash" unicode="/" horiz-adv-x="1135" 
d="M100 0l660 1434h275l-659 -1434h-276z" />
    <glyph glyph-name="zero" unicode="0" horiz-adv-x="1366" 
d="M683 1464c99.333 0 187.5 -18.167 264.5 -54.5s140 -87.666 189 -153.999s86.167 -144.833 111.5 -235.5s38 -191.667 38 -303s-12.667 -212.333 -38 -303s-62.5 -169.167 -111.5 -235.5s-112 -117.666 -189 -153.999s-165.167 -54.5 -264.5 -54.5
s-187.5 18.167 -264.5 54.5s-140 87.666 -189 153.999s-86.167 144.833 -111.5 235.5s-38 191.667 -38 303s12.667 212.333 38 303s62.5 169.167 111.5 235.5s112 117.666 189 153.999s165.167 54.5 264.5 54.5zM683 1238c-60.667 0 -113.167 -13.5 -157.5 -40.5
s-79 -65 -104 -114s-43.167 -103.667 -54.5 -164s-17 -127.833 -17 -202.5s5.66699 -142.167 17 -202.5s29.5 -115 54.5 -164s59.667 -87 104 -114s96.833 -40.5 157.5 -40.5s113.167 13.5 157.5 40.5s79 65 104 114s43.167 103.667 54.5 164s17 127.833 17 202.5
s-5.66699 142.167 -17 202.5s-29.5 115 -54.5 164s-59.667 87 -104 114s-96.833 40.5 -157.5 40.5z" />
    <glyph glyph-name="one" unicode="1" horiz-adv-x="768" 
d="M207 868l-177 194l414 372h204v-1434h-272v1018z" />
    <glyph glyph-name="two" unicode="2" horiz-adv-x="1216" 
d="M337 1018l-237.002 82.9961c10.667 32 24.167 63.333 40.5 94s39.166 62.667 68.499 96s62 62.5 98 87.5s80.667 45.5 134 61.5s111 24 173 24c151.333 0 271.5 -36.833 360.5 -110.5s133.5 -174.834 133.5 -303.501c0 -77.333 -18.167 -149.666 -54.5 -216.999
s-88.5 -136.666 -156.5 -207.999c-30 -34.667 -99 -107 -207 -217l-174 -183h600v-225h-1012v162l285 299c192.667 200.667 301 314.334 325 341.001c43.333 45.333 75 87.333 95 126s30 79.334 30 122.001c0 58.667 -19.167 104.667 -57.5 138s-94.166 50 -167.499 50
c-24.667 0 -48.167 -3.16699 -70.5 -9.5s-41.666 -14 -57.999 -23s-32.166 -21 -47.499 -36s-27.5 -28.167 -36.5 -39.5s-18.667 -25.833 -29 -43.5s-17.333 -30.167 -21 -37.5s-8.5 -17.666 -14.5 -30.999z" />
    <glyph glyph-name="three" unicode="3" horiz-adv-x="1257" 
d="M80 255l237 83.0039c56 -94.667 153.333 -142 292 -142c198.667 0 298 68.667 298 206c0 76.667 -33 132 -99 166s-173 51 -321 51v227c126 0 220.833 17.5 284.5 52.5s95.5 89.833 95.5 164.5c0 116.667 -82.667 175 -248 175c-32 0 -61.5 -3.33301 -88.5 -10
s-49.167 -14.667 -66.5 -24s-33.333 -20.833 -48 -34.5s-25.5 -25.334 -32.5 -35.001l-21.5 -30.5c-2 -4 -3.66699 -6.66699 -5 -8l-237 83c6 16.667 15 35 27 55s31.833 44.167 59.5 72.5s58.834 53.666 93.501 75.999s80.167 41.5 136.5 57.5s117.166 24 182.499 24
c159.333 0 285.5 -34.167 378.5 -102.5s139.5 -167.833 139.5 -298.5c0 -70.667 -21.333 -134.5 -64 -191.5s-104.667 -99.167 -186 -126.5c82.667 -18 151.667 -55.5 207 -112.5s83 -133.833 83 -230.5c0 -140.667 -50.5 -247.834 -151.5 -321.501
s-239.833 -110.5 -416.5 -110.5c-148 0 -264.833 25.667 -350.5 77s-145.167 120.666 -178.5 207.999z" />
    <glyph glyph-name="four" unicode="4" horiz-adv-x="1331" 
d="M1070 0h-256v326h-714v189l749 919h221v-883h181v-225h-181v-326zM429 551h385v473z" />
    <glyph glyph-name="five" unicode="5" horiz-adv-x="1295" 
d="M1088 1434v-225.999h-626l-19 -287c50 13.333 119 20 207 20c96.667 0 180.5 -11.667 251.5 -35s127.667 -56.833 170 -100.5s73.5 -94 93.5 -151s30 -121.5 30 -193.5c0 -54.667 -6.16699 -105.667 -18.5 -153s-32.333 -92 -60 -134s-62.167 -77.833 -103.5 -107.5
s-92.833 -53.167 -154.5 -70.5s-131.167 -26 -208.5 -26c-243.333 0 -420 57.667 -530 173l157 172c44 -36 98.167 -64.833 162.5 -86.5s134.5 -32.5 210.5 -32.5c90.667 0 159.167 24 205.5 72s69.5 112.333 69.5 193c0 169.333 -91.667 254 -275 254
c-112 0 -227.667 -17.667 -347 -53c-48 -14.667 -96.667 -32.334 -146 -53.001l54 825h877z" />
    <glyph glyph-name="six" unicode="6" horiz-adv-x="1328" 
d="M1085 1401l-103.002 -205.001c-168.667 52 -306 47.667 -412 -13s-165.667 -168.667 -179 -324c21.333 30.667 56.5 57.834 105.5 81.501s106.5 35.5 172.5 35.5c91.333 0 173.166 -13.667 245.499 -41s131 -64.333 176 -111s79.167 -100 102.5 -160s35 -124 35 -192
c0 -68.667 -11.667 -132.834 -35 -192.501s-57.5 -112.667 -102.5 -159s-103.667 -83 -176 -110s-154.166 -40.5 -245.499 -40.5c-88.667 0 -167 12.5 -235 37.5s-123.833 60.667 -167.5 107s-78 98.833 -103 157.5s-42.833 125 -53.5 199
c-13.333 131.333 -13.333 248 0 350s36.333 190.833 69 266.5s74.334 138.834 125.001 189.501s106.334 90.5 167.001 119.5s125.667 47.667 195 56s139 8 209 -1s140 -25.833 210 -50.5zM957.998 471.999c0 78.667 -24.833 144.334 -74.5 197.001s-121.167 79 -214.5 79
s-164.833 -26.333 -214.5 -79s-74.5 -118.334 -74.5 -197.001s24.833 -144.334 74.5 -197.001s121.167 -79 214.5 -79s164.833 26.333 214.5 79s74.5 118.334 74.5 197.001z" />
    <glyph glyph-name="seven" unicode="7" horiz-adv-x="1151" 
d="M100 1208v226h951v-172l-577 -1262h-283l560 1208h-651z" />
    <glyph glyph-name="eight" unicode="8" horiz-adv-x="1288" 
d="M644 1464c166 0 296 -38 390 -114s141 -178.667 141 -308c0 -136 -60.667 -234 -182 -294c65.333 -30 117.5 -73.5 156.5 -130.5s58.5 -126.833 58.5 -209.5c0 -76.667 -14.167 -143.5 -42.5 -200.5s-68.5 -102.5 -120.5 -136.5s-111.333 -59.333 -178 -76
s-141 -25 -223 -25s-156.333 8.33301 -223 25s-126 42 -178 76s-92.167 79.5 -120.5 136.5s-42.5 123.833 -42.5 200.5c0 82.667 19.5 152.5 58.5 209.5s91.167 100.5 156.5 130.5c-121.333 60 -182 158 -182 294c0 129.333 47 232 141 308s224 114 390 114zM938 408
c0 64 -25.667 115.333 -77 154s-123.666 58 -216.999 58s-165.666 -19.333 -216.999 -58s-77 -90 -77 -154s25.667 -115.333 77 -154s123.666 -58 216.999 -58s165.666 19.333 216.999 58s77 90 77 154zM644 1238c-80.667 0 -144.334 -17.333 -191.001 -52
s-70 -82.667 -70 -144s23.333 -109.333 70 -144s110.334 -52 191.001 -52s144.334 17.333 191.001 52s70 82.667 70 144s-23.333 109.333 -70 144s-110.334 52 -191.001 52z" />
    <glyph glyph-name="nine" unicode="9" horiz-adv-x="1328" 
d="M243 33l102.998 205.001c168.667 -52 306 -47.667 412 13s165.667 168.667 179 324c-21.333 -30.667 -56.666 -57.834 -105.999 -81.501s-106.666 -35.5 -171.999 -35.5c-91.333 0 -173.166 13.667 -245.499 41s-131 64.333 -176 111s-79.167 100 -102.5 160
s-35 124 -35 192s11.667 131.833 35 191.5s57.5 112.834 102.5 159.501s103.667 83.5 176 110.5s154.166 40.5 245.499 40.5c88.667 0 167 -12.5 235 -37.5s123.833 -60.667 167.5 -107s78 -98.833 103 -157.5s42.833 -125 53.5 -199c13.333 -131.333 13.333 -248 0 -350
s-36.333 -190.833 -69 -266.5s-74.334 -138.834 -125.001 -189.501s-106.334 -90.5 -167.001 -119.5s-125.667 -47.833 -195 -56.5s-139.166 -8.5 -209.499 0.5s-140.166 26.167 -209.499 51.5zM369.998 962.001c0 -78.667 24.833 -144.334 74.5 -197.001
s121.167 -79 214.5 -79s164.833 26.333 214.5 79s74.5 118.334 74.5 197.001s-24.833 144.334 -74.5 197.001s-121.167 79 -214.5 79s-164.833 -26.333 -214.5 -79s-74.5 -118.334 -74.5 -197.001z" />
    <glyph glyph-name="colon" unicode=":" horiz-adv-x="497" 
d="M100 138c0 41.333 14.333 76.5 43 105.5s63.667 43.5 105 43.5s76.5 -14.5 105.5 -43.5s43.5 -64.167 43.5 -105.5s-14.5 -76.333 -43.5 -105s-64.167 -43 -105.5 -43s-76.333 14.333 -105 43s-43 63.667 -43 105zM100 883c0 41.333 14.333 76.5 43 105.5
s63.667 43.5 105 43.5s76.5 -14.667 105.5 -44s43.5 -64.333 43.5 -105c0 -41.333 -14.5 -76.333 -43.5 -105s-64.167 -43 -105.5 -43s-76.333 14.333 -105 43s-43 63.667 -43 105z" />
    <glyph glyph-name="semicolon" unicode=";" horiz-adv-x="567" 
d="M170 883c0 41.333 14.333 76.5 43 105.5s63.667 43.5 105 43.5s76.5 -14.667 105.5 -44s43.5 -64.333 43.5 -105c0 -41.333 -14.5 -76.333 -43.5 -105s-64.167 -43 -105.5 -43s-76.333 14.333 -105 43s-43 63.667 -43 105zM0 -258l191 502h269l-229 -502h-231z" />
    <glyph glyph-name="less" unicode="&#x3c;" horiz-adv-x="1149" 
d="M1029 949l-575 -293l575 -293v-270l-929 476v174l929 476v-270z" />
    <glyph glyph-name="equal" unicode="=" horiz-adv-x="1010" 
d="M910 606v-228h-810v228h810zM910 971v-228h-810v228h810z" />
    <glyph glyph-name="greater" unicode="&#x3e;" horiz-adv-x="1149" 
d="M695 656l-575 293v270l929 -476v-174l-929 -476v270z" />
    <glyph glyph-name="question" unicode="?" horiz-adv-x="1159" 
d="M291 1071l-211 116.999c18 36 40.667 69.333 68 100s60.833 59.667 100.5 87s87.667 49 144 65s117.833 24 184.5 24c85.333 0 160.666 -10.667 225.999 -32s117.833 -50.833 157.5 -88.5s69.334 -80.5 89.001 -128.5s29.5 -100.333 29.5 -157
c0 -226 -133 -359 -399 -399v-257h-270v412c266 2.66699 399 84 399 244c0 50.667 -19.833 93.334 -59.5 128.001s-97.167 52 -172.5 52c-122 0 -217.333 -55.667 -286 -167zM396 137.999c0 41.333 14.333 76.5 43 105.5s63.667 43.5 105 43.5s76.5 -14.5 105.5 -43.5
s43.5 -64.167 43.5 -105.5s-14.5 -76.333 -43.5 -105s-64.167 -43 -105.5 -43s-76.333 14.333 -105 43s-43 63.667 -43 105z" />
    <glyph glyph-name="at" unicode="@" horiz-adv-x="1660" 
d="M1255 385c-60 0 -110.003 14.1689 -150.003 42.502s-65 62.166 -75 101.499c-12.667 -54.667 -43.5 -102 -92.5 -142s-107.167 -60 -174.5 -60c-30 0 -59.833 3.83301 -89.5 11.5s-59.5 21.334 -89.5 41.001s-56 44.167 -78 73.5s-38.667 67.666 -50 114.999
s-14.333 100.333 -9 159c6.66699 60 21.667 113.5 45 160.5s49.666 84 78.999 111s62 49.167 98 66.5s68.5 28.833 97.5 34.5s56.833 8.5 83.5 8.5c102 0 200 -23 294 -69c-10 -125.333 -16.333 -229.333 -19 -312c-1.33301 -51.333 7.5 -93.5 26.5 -126.5
s50.167 -49.5 93.5 -49.5c42 0 75.167 13.833 99.5 41.5s36.5 69.167 36.5 124.5c0 87.333 -14.667 166.833 -44 238.5s-69.166 130.834 -119.499 177.501s-108.666 82.5 -174.999 107.5s-137.166 37.5 -212.499 37.5s-146.166 -12.5 -212.499 -37.5
s-124.666 -60.833 -174.999 -107.5s-90.166 -105.834 -119.499 -177.501s-44 -151.167 -44 -238.5s14.667 -166.833 44 -238.5s69.166 -130.834 119.499 -177.501s108.666 -82.5 174.999 -107.5s137.166 -37.5 212.499 -37.5c102.667 0 188 11.167 256 33.5
s131 56.833 189 103.5l129 -133c-68.667 -60 -148 -105 -238 -135s-202 -45 -336 -45c-135.333 0 -259.666 30 -372.999 90s-204.5 146.667 -273.5 260s-103.5 242.333 -103.5 387c0 108.667 20.167 209.5 60.5 302.5s94.5 170.833 162.5 233.5s147.667 111.834 239 147.501
s187.333 53.5 288 53.5s196.667 -17.833 288 -53.5s171 -84.834 239 -147.501s122.167 -140.5 162.5 -233.5s60.5 -193.833 60.5 -302.5c0 -100.667 -28.333 -181.167 -85 -241.5s-136.667 -90.5 -240 -90.5zM632.997 716.002c-8 -68 2.16699 -122.167 30.5 -162.5
s68.833 -60.5 121.5 -60.5c96 0 153.667 83 173 249c3.33301 30.667 7.33301 72.667 12 126c1.33301 21.333 2.33301 41.333 3 60c-89.333 27.333 -165.833 22.833 -229.5 -13.5s-100.5 -102.5 -110.5 -198.5z" />
    <glyph glyph-name="A" unicode="A" horiz-adv-x="1489" 
d="M447 334l-136 -334h-281l604 1434h221l604 -1434h-281l-137 334h-594zM744 1063l-205 -502h410z" />
    <glyph glyph-name="B" unicode="B" horiz-adv-x="1411" 
d="M792 0h-672.002v1434h672c88.667 0 165.667 -9.66699 231 -29s116.666 -46.333 153.999 -81s64.833 -74 82.5 -118s26.5 -93 26.5 -147c0 -43.333 -7.16699 -83.333 -21.5 -120s-33.166 -67.167 -56.499 -91.5s-47.666 -44.5 -72.999 -60.5s-51 -28 -77 -36
c84 -21.333 150.5 -60 199.5 -116s73.5 -129.333 73.5 -220c0 -59.333 -10.667 -113.833 -32 -163.5s-53.166 -93.5 -95.499 -131.5s-98.5 -67.5 -168.5 -88.5s-151 -31.5 -243 -31.5zM389.998 226h402c98.667 0 168 16.667 208 50s60 83 60 149
c0 65.333 -20.833 115 -62.5 149s-110.167 51 -205.5 51h-402v-399zM389.998 852h402c148.667 0 223 59.333 223 178s-74.333 178 -223 178h-402v-356z" />
    <glyph glyph-name="C" unicode="C" horiz-adv-x="1436" 
d="M354 717c0 -76 10 -145.331 30 -207.998s49.667 -117.5 89 -164.5s90.333 -83.5 153 -109.5s134.667 -39 216 -39c151.333 0 286.333 39.333 405 118l129 -178c-128 -110.667 -306 -166 -534 -166c-120.667 0 -229.334 18.667 -326.001 56s-176.667 89.166 -240 155.499
s-111.833 145 -145.5 236s-50.5 190.833 -50.5 299.5s16.833 208.5 50.5 299.5s82.167 169.667 145.5 236s143.333 118.166 240 155.499s205.334 56 326.001 56c228 0 406 -55.333 534 -166l-129 -178c-118.667 78.667 -253.667 118 -405 118
c-81.333 0 -153.333 -13 -216 -39s-113.667 -62.5 -153 -109.5s-69 -101.833 -89 -164.5s-30 -132 -30 -208z" />
    <glyph glyph-name="D" unicode="D" horiz-adv-x="1472" 
d="M1392 717c0 -102.667 -14.499 -196.999 -43.499 -282.999s-71.833 -161.5 -128.5 -226.5s-130.5 -115.833 -221.5 -152.5s-195.5 -55 -313.5 -55h-565v1434h565c117.333 0 221.666 -18.333 312.999 -55s165.333 -87.667 222 -153s99.5 -140.833 128.5 -226.5
s43.5 -179.834 43.5 -282.501zM390.001 1208v-981.998h295c74.667 0 140.667 13.333 198 40s102.666 63.167 135.999 109.5s58.333 98.166 75 155.499s25 119.333 25 186s-8.33301 128.667 -25 186s-41.667 109.166 -75 155.499s-78.666 82.833 -135.999 109.5
s-123.333 40 -198 40h-295z" />
    <glyph glyph-name="E" unicode="E" horiz-adv-x="1247" 
d="M390 844h713v-226h-713v-392h757v-226h-1027v1434h1017v-226h-747v-364z" />
    <glyph glyph-name="F" unicode="F" 
d="M390 844h713v-226h-713v-618h-270v1434h1017v-226h-747v-364z" />
    <glyph glyph-name="G" unicode="G" horiz-adv-x="1527" 
d="M842 -30c-120.667 0 -229.333 18.668 -326 56.001s-176.667 89.166 -240 155.499s-111.833 145 -145.5 236s-50.5 190.833 -50.5 299.5c0 108 16.833 207.5 50.5 298.5s82.167 169.833 145.5 236.5s143.333 118.667 240 156s205.334 56 326.001 56
c240 0 433.667 -60.667 581 -182l-131 -174c-128.667 86.667 -278.667 130 -450 130c-81.333 0 -153.333 -13 -216 -39s-113.667 -62.5 -153 -109.5s-69 -101.833 -89 -164.5s-30 -132 -30 -208s10 -145.333 30 -208s49.667 -117.5 89 -164.5s90.333 -83.5 153 -109.5
s134.667 -39 216 -39c66.667 0 130.167 6.33301 190.5 19s107.166 30 140.499 52v329h-311v226h565v-683c-67.333 -61.333 -153.5 -104.833 -258.5 -130.5s-213.833 -38.5 -326.5 -38.5z" />
    <glyph glyph-name="H" unicode="H" horiz-adv-x="1463" 
d="M1073 844v590h270v-1434h-270v618h-683v-618h-270v1434h270v-590h683z" />
    <glyph glyph-name="I" unicode="I" horiz-adv-x="510" 
d="M120 0v1434h270v-1434h-270z" />
    <glyph glyph-name="J" unicode="J" horiz-adv-x="1159" 
d="M60 294l248 72c20 -50 47.833 -90.833 83.5 -122.5s85.834 -47.5 150.501 -47.5c82.667 0 141.167 20.5 175.5 61.5s51.5 106.5 51.5 196.5v980h270v-980c0 -322.667 -162.333 -484 -487 -484c-62 0 -118.5 6.16699 -169.5 18.5s-94 28.5 -129 48.5
s-65.833 44.167 -92.5 72.5s-47.834 57.5 -63.501 87.5s-28.167 62.333 -37.5 97z" />
    <glyph glyph-name="K" unicode="K" horiz-adv-x="1424" 
d="M390 839l636 595h348l-667 -623l687 -811h-328l-542 640l-134 -125v-515h-270v1434h270v-595z" />
    <glyph glyph-name="L" unicode="L" horiz-adv-x="1173" 
d="M390 1434v-1208h703v-226h-973v1434h270z" />
    <glyph glyph-name="M" unicode="M" horiz-adv-x="1824" 
d="M492 1434l420 -1014l420 1014h372v-1434h-270v1014l-418 -1014h-208l-418 1014v-1014h-270v1434h372z" />
    <glyph glyph-name="N" unicode="N" horiz-adv-x="1497" 
d="M120 0v1434h344l643 -1059v1059h270v-1434h-344l-643 1059v-1059h-270z" />
    <glyph glyph-name="O" unicode="O" horiz-adv-x="1684" 
d="M842 -30c-120.667 0 -229.334 18.667 -326.001 56s-176.667 89.166 -240 155.499s-111.833 145 -145.5 236s-50.5 190.833 -50.5 299.5c0 108 16.833 207.5 50.5 298.5s82.167 169.833 145.5 236.5s143.333 118.667 240 156s205.334 56 326.001 56
s229.334 -18.667 326.001 -56s176.667 -89.333 240 -156s111.833 -145.5 145.5 -236.5s50.5 -190.5 50.5 -298.5c0 -108.667 -16.833 -208.5 -50.5 -299.5s-82.167 -169.667 -145.5 -236s-143.333 -118.166 -240 -155.499s-205.334 -56 -326.001 -56zM842 196
c81.333 0 153.333 13 216 39s113.667 62.5 153 109.5s69 101.833 89 164.5s30 132 30 208s-10 145.333 -30 208s-49.667 117.5 -89 164.5s-90.333 83.5 -153 109.5s-134.667 39 -216 39s-153.333 -13 -216 -39s-113.667 -62.5 -153 -109.5s-69 -101.833 -89 -164.5
s-30 -132 -30 -208s10 -145.333 30 -208s49.667 -117.5 89 -164.5s90.333 -83.5 153 -109.5s134.667 -39 216 -39z" />
    <glyph glyph-name="P" unicode="P" horiz-adv-x="1389" 
d="M756 1208h-366v-508h366c174 0 261 84.667 261 254s-87 254 -261 254zM390 0l-270 0.00195312v1434h636c168 0 298.833 -41.333 392.5 -124s140.5 -201.334 140.5 -356.001s-46.833 -273.334 -140.5 -356.001s-224.5 -124 -392.5 -124h-366v-474z" />
    <glyph glyph-name="Q" unicode="Q" horiz-adv-x="1684" 
d="M842 -30c-120.667 0 -229.335 18.668 -326.002 56.001s-176.667 89.166 -240 155.499s-111.833 145 -145.5 236s-50.5 190.833 -50.5 299.5c0 108 16.833 207.5 50.5 298.5s82.167 169.833 145.5 236.5s143.333 118.667 240 156s205.334 56 326.001 56
s229.334 -18.667 326.001 -56s176.667 -89.333 240 -156s111.833 -145.5 145.5 -236.5s50.5 -190.5 50.5 -298.5c0 -126.667 -22 -240.5 -66 -341.5s-108.333 -184.5 -193 -250.5l196 -215h-296l-94 109c-96.667 -32.667 -199.667 -49 -309 -49zM841.999 196.001
c54 0 102 5.33301 144 16l-190 222h267l113 -124c102.667 92 154 227.667 154 407c0 76 -10 145.333 -30 208s-49.667 117.5 -89 164.5s-90.333 83.5 -153 109.5s-134.667 39 -216 39s-153.333 -13 -216 -39s-113.667 -62.5 -153 -109.5s-69 -101.833 -89 -164.5
s-30 -132 -30 -208s10 -145.333 30 -208s49.667 -117.5 89 -164.5s90.333 -83.5 153 -109.5s134.667 -39 216 -39z" />
    <glyph glyph-name="R" unicode="R" horiz-adv-x="1347" 
d="M390 0h-270v1434h607c180.667 0 315.5 -39.667 404.5 -119s133.5 -190.333 133.5 -333c0 -60.667 -8.66699 -115.167 -26 -163.5s-41.5 -88.833 -72.5 -121.5s-65.5 -59.5 -103.5 -80.5s-80.667 -37.833 -128 -50.5l332 -566h-303l-310 530h-264v-530zM727 1208h-337
v-452h337c94 0 161.833 17.833 203.5 53.5s62.5 93.167 62.5 172.5c0 78.667 -21 136 -63 172s-109.667 54 -203 54z" />
    <glyph glyph-name="S" unicode="S" horiz-adv-x="1282" 
d="M1151 1331l-132.003 -188.999c-107.333 64 -234.666 96 -381.999 96c-175.333 0 -263 -55.667 -263 -167c0 -56.667 24 -101 72 -133s125.667 -59.333 233 -82c184.667 -39.333 321.334 -95.833 410.001 -169.5s133 -171.834 133 -294.501
c0 -73.333 -13.667 -137.5 -41 -192.5s-66 -99 -116 -132s-107.833 -57.5 -173.5 -73.5s-139.167 -24 -220.5 -24c-136 0 -252 13.167 -348 39.5s-183.667 69.166 -263 128.499l132 189c140.667 -87.333 300.334 -131 479.001 -131c96 0 166.5 15.167 211.5 45.5
s67.5 80.5 67.5 150.5c0 55.333 -25 101.5 -75 138.5s-131.667 67.167 -245 90.5c-184 38.667 -318 95.667 -402 171s-126 168.333 -126 279c0 54.667 10.5 105.167 31.5 151.5s52.5 87.833 94.5 124.5s98 65.334 168 86.001s150.333 31 241 31
c112.667 0 209 -10.333 289 -31s155 -54.667 225 -102z" />
    <glyph glyph-name="T" unicode="T" horiz-adv-x="1368" 
d="M60 1434h1248v-226h-489v-1208h-270v1208h-489v226z" />
    <glyph glyph-name="U" unicode="U" horiz-adv-x="1495" 
d="M747 196c128.667 0 220.499 37.167 275.499 111.5s82.5 182.166 82.5 323.499v803h270v-803c0 -211.333 -51.5 -374.333 -154.5 -489s-260.833 -172 -473.5 -172c-212 0 -369.5 57.333 -472.5 172s-154.5 277.667 -154.5 489v803h270v-803
c0 -141.333 27.333 -249.166 82 -323.499s146.334 -111.5 275.001 -111.5z" />
    <glyph glyph-name="V" unicode="V" horiz-adv-x="1457" 
d="M315 1434l413 -1063l414 1063h285l-584 -1434h-229l-584 1434h285z" />
    <glyph glyph-name="W" unicode="W" horiz-adv-x="2026" 
d="M600 452l266 982h294l266 -982l279 982h291l-441 -1434h-260l-282 1062l-282 -1062h-260l-441 1434h291z" />
    <glyph glyph-name="X" unicode="X" horiz-adv-x="1485" 
d="M909 748l546 -748h-314l-399 551l-398 -551h-314l545 748l-499 686h314l352 -488l353 488h314z" />
    <glyph glyph-name="Y" unicode="Y" horiz-adv-x="1424" 
d="M322 1434l390 -606l390 606h292l-547 -837v-597h-270v598l-547 836h292z" />
    <glyph glyph-name="Z" unicode="Z" horiz-adv-x="1357" 
d="M480 226h777v-226h-1157v134l777 1074h-735v226h1115v-134z" />
    <glyph glyph-name="bracketleft" unicode="[" horiz-adv-x="793" 
d="M420 1208v-1338h263v-227h-533v1791h533v-226h-263z" />
    <glyph glyph-name="backslash" unicode="\" horiz-adv-x="1120" 
d="M386 1434l624 -1434h-276l-624 1434h276z" />
    <glyph glyph-name="bracketright" unicode="]" horiz-adv-x="793" 
d="M373 -130v1338h-263v226h533v-1791h-533v227h263z" />
    <glyph glyph-name="asciicircum" unicode="^" horiz-adv-x="1122" 
d="M642 1434l380 -624h-285l-176 290l-176 -290h-285l380 624h162z" />
    <glyph glyph-name="underscore" unicode="_" horiz-adv-x="1500" 
d="M100 -532v209h1300v-209h-1300z" />
    <glyph glyph-name="grave" unicode="`" horiz-adv-x="694" 
d="M363 1434l251 -310h-220l-314 310h283z" />
    <glyph glyph-name="a" unicode="a" horiz-adv-x="1177" 
d="M603 833c-122.667 0 -235.668 -24.0039 -339.001 -72.0039l-95 179c116.667 68 261.334 102 434.001 102c90 0 164.333 -8.5 223 -25.5s105 -45.167 139 -84.5s57.833 -86.666 71.5 -141.999s20.5 -125.333 20.5 -210v-580h-251l-1 161
c-52.667 -120.667 -163 -181 -331 -181c-76.667 0 -143.667 11.167 -201 33.5s-103.833 59.333 -139.5 111s-53.5 115.834 -53.5 192.501c0 50.667 9.5 96.334 28.5 137.001s45.5 74.334 79.5 101.001s74 49.5 120 68.5s95.833 32 149.5 39s110.167 11.333 169.5 13
s119 -1.5 179 -9.5c0 64 -14.333 107.833 -43 131.5s-82 35.5 -160 35.5zM331.999 326.996c0 -92 60.668 -137.998 182.001 -137.998c87.333 0 158.166 21 212.499 63s80.833 91.333 79.5 148v104c-28.667 0 -62.5 1 -101.5 3s-80.333 -0.166992 -124 -6.5
s-84 -14.833 -121 -25.5s-67.5 -28.834 -91.5 -54.501s-36 -56.834 -36 -93.501z" />
    <glyph glyph-name="b" unicode="b" horiz-adv-x="1302" 
d="M120 0v1516h251v-665c30 60.667 78.5 107.667 145.5 141s134.833 50 203.5 50c102.667 0 192.5 -23.5 269.5 -70.5s135 -110.333 174 -190s58.5 -169.834 58.5 -270.501c0 -101.333 -19.5 -191.833 -58.5 -271.5s-97 -142.834 -174 -189.501s-166.833 -70 -269.5 -70
c-68.667 0 -136.5 16.667 -203.5 50s-115.5 80.333 -145.5 141v-171h-251zM668 190.002c99.333 0 173.666 30.5 222.999 91.5s74 137.5 74 229.5s-24.667 168.5 -74 229.5s-123.666 91.5 -222.999 91.5s-173.666 -30.5 -222.999 -91.5s-74 -137.5 -74 -229.5
s24.667 -168.5 74 -229.5s123.666 -91.5 222.999 -91.5z" />
    <glyph glyph-name="c" unicode="c" horiz-adv-x="1132" 
d="M337 511c0 -43.333 6.16406 -83.832 18.4971 -121.499s30.833 -71.667 55.5 -102s57.5 -54.333 98.5 -72s87.833 -26.5 140.5 -26.5c113.333 0 211.333 33 294 99l128 -161c-98.667 -98 -239.334 -147 -422.001 -147c-171.333 0 -309.166 50.167 -413.499 150.5
s-156.5 227.166 -156.5 380.499c0 74.667 13.5 144.5 40.5 209.5s64.833 121.333 113.5 169s108.834 85 180.501 112s150.167 40.5 235.5 40.5c182.667 0 323.334 -49 422.001 -147l-130 -159c-81.333 64.667 -178.666 97 -291.999 97
c-52.667 0 -99.5 -8.83301 -140.5 -26.5s-73.833 -41.667 -98.5 -72s-43.167 -64.333 -55.5 -102s-18.5 -78.167 -18.5 -121.5z" />
    <glyph glyph-name="d" unicode="d" horiz-adv-x="1302" 
d="M1182 1516v-1516h-251v171c-30 -60.667 -78.5 -107.667 -145.5 -141s-134.833 -50 -203.5 -50c-102.667 0 -192.5 23.333 -269.5 70s-135 109.834 -174 189.501s-58.5 170.167 -58.5 271.5c0 100.667 19.5 190.834 58.5 270.501s97 143 174 190s166.833 70.5 269.5 70.5
c68.667 0 136.5 -16.667 203.5 -50s115.5 -80.333 145.5 -141v665h251zM634 189.998c99.333 0 173.666 30.5 222.999 91.5s74 137.5 74 229.5s-24.667 168.5 -74 229.5s-123.666 91.5 -222.999 91.5s-173.666 -30.5 -222.999 -91.5s-74 -137.5 -74 -229.5
s24.667 -168.5 74 -229.5s123.666 -91.5 222.999 -91.5z" />
    <glyph glyph-name="e" unicode="e" horiz-adv-x="1242" 
d="M620 189c126.667 0 232.669 35.667 318.002 107l152 -151c-112 -110 -268.667 -165 -470 -165c-170.667 0 -303.334 49.333 -398.001 148s-142 226.334 -142 383.001c0 102 20.167 192.5 60.5 271.5s101.833 142 184.5 189s181 70.5 295 70.5
c178.667 0 315.667 -54.333 411 -163s138.333 -264 129 -466h-809c0 -16 2.66699 -33.167 8 -51.5s14.666 -37.833 27.999 -58.5s29.833 -39.334 49.5 -56.001s45.5 -30.5 77.5 -41.5s67.333 -16.5 106 -16.5zM351.002 610h538c0 20.667 -4.66699 42.834 -14 66.501
s-23.5 47.667 -42.5 72s-47 44.5 -84 60.5s-79.833 24 -128.5 24s-91.5 -8 -128.5 -24s-65 -36.167 -84 -60.5s-33.167 -48.333 -42.5 -72s-14 -45.834 -14 -66.501z" />
    <glyph glyph-name="f" unicode="f" horiz-adv-x="900" 
d="M653 1327c-20 0 -37.666 -2.66797 -52.999 -8.00098s-28.166 -11.833 -38.499 -19.5s-19 -19.5 -26 -35.5s-12.333 -30.5 -16 -43.5s-6.33398 -32.5 -8.00098 -58.5s-2.66699 -47.5 -3 -64.5s-0.5 -42.167 -0.5 -75.5h292v-209h-292v-813h-251v813h-197v209h197
c0.666992 88 6.66699 162 18 222s30.833 112.833 58.5 158.5s66.167 79.334 115.5 101.001s110.666 32.5 183.999 32.5c84.667 0 163.667 -11.667 237 -35l-72 -194c-48.667 13.333 -97 20 -145 20z" />
    <glyph glyph-name="g" unicode="g" horiz-adv-x="1302" 
d="M931 1022l250.999 -0.00195312v-1022c0 -354.667 -188.667 -532 -566 -532c-193.333 0 -352 44.333 -476 133l129 168c99.333 -60.667 215 -91 347 -91c102.667 0 180.834 23.833 234.501 71.5s80.5 131.167 80.5 250.5v171c-30 -60.667 -78.5 -107.667 -145.5 -141
s-134.833 -50 -203.5 -50c-102.667 0 -192.5 23.333 -269.5 70s-135 109.834 -174 189.501s-58.5 170.167 -58.5 271.5c0 100.667 19.5 190.834 58.5 270.501s97 143 174 190s166.833 70.5 269.5 70.5c68.667 0 136.5 -16.667 203.5 -50s115.5 -80.333 145.5 -141v171z
M633.999 189.998c99.333 0 173.666 30.5 222.999 91.5s74 137.5 74 229.5s-24.667 168.5 -74 229.5s-123.666 91.5 -222.999 91.5s-173.666 -30.5 -222.999 -91.5s-74 -137.5 -74 -229.5s24.667 -168.5 74 -229.5s123.666 -91.5 222.999 -91.5z" />
    <glyph glyph-name="h" unicode="h" 
d="M371 547l-0.000976562 -547h-251v1516h251v-650c20 58.667 57.833 102.667 113.5 132s113.834 44 174.501 44c143.333 0 255.5 -42.5 336.5 -127.5s121.5 -207.5 121.5 -367.5v-547h-251v547c0 90 -21 160.167 -63 210.5s-103.333 75.5 -184 75.5
c-81.333 0 -143 -25.167 -185 -75.5s-63 -120.5 -63 -210.5z" />
    <glyph glyph-name="i" unicode="i" horiz-adv-x="534" 
d="M142 0v1022h251v-1022h-251zM120 1327c0 40.667 14.333 75.334 43 104.001s63.334 43 104.001 43s75.334 -14.333 104.001 -43s43 -63.334 43 -104.001s-14.333 -75.334 -43 -104.001s-63.334 -43 -104.001 -43s-75.334 14.333 -104.001 43s-43 63.334 -43 104.001z" />
    <glyph glyph-name="j" unicode="j" horiz-adv-x="559" 
d="M-180 -485l68.999 191.004c47.333 -19.333 94.333 -29 141 -29c18.667 0 35.167 3.16699 49.5 9.5s26.333 14.166 36 23.499s17.834 22.666 24.501 39.999s11.667 33.666 15 48.999s6 35.666 8 60.999s3.16699 47.333 3.5 66s0.5 43.334 0.5 74.001v1022h251v-1022
c0 -74.667 -3 -138.334 -9 -191.001s-16.833 -101.667 -32.5 -147s-37.167 -81.5 -64.5 -108.5s-62.666 -48 -105.999 -63s-95.333 -22.5 -156 -22.5c-86.667 0 -163.334 15.667 -230.001 47zM144.999 1327c0 40.667 14.333 75.334 43 104.001s63.334 43 104.001 43
s75.334 -14.333 104.001 -43s43 -63.334 43 -104.001s-14.333 -75.334 -43 -104.001s-63.334 -43 -104.001 -43s-75.334 14.333 -104.001 43s-43 63.334 -43 104.001z" />
    <glyph glyph-name="k" unicode="k" horiz-adv-x="1170" 
d="M371 625l437 397h332l-477 -433l477 -589h-306l-347 429l-116 -104v-325h-251v1516h251v-891z" />
    <glyph glyph-name="l" unicode="l" horiz-adv-x="546" 
d="M120 360l0.00390625 1156h251v-1152c0 -21.333 0.166992 -37.666 0.5 -48.999s1.66602 -25 3.99902 -41s5.5 -27.833 9.5 -35.5s10 -14.5 18 -20.5s18 -9 30 -9h33v-209h-129c-26.667 0 -50.5 2.66699 -71.5 8s-39 14 -54 26s-27.833 24.167 -38.5 36.5
s-19.334 29 -26.001 50s-11.834 39 -15.501 54s-6.33398 35.667 -8.00098 62s-2.66699 46.666 -3 60.999s-0.5 35.166 -0.5 62.499z" />
    <glyph glyph-name="m" unicode="m" horiz-adv-x="1789" 
d="M120 0l0.000976562 1022h251v-94c18 31.333 49.667 58.166 95 80.499s92.666 33.5 141.999 33.5c78 0 145.5 -12.5 202.5 -37.5s101.167 -59.5 132.5 -103.5c30.667 39.333 74.167 72.666 130.5 99.999s117.5 41 183.5 41c128.667 0 229.5 -36.5 302.5 -109.5
s109.5 -185.167 109.5 -336.5v-596h-251v596c0 73.333 -16.333 131.166 -49 173.499s-82.667 63.5 -150 63.5s-117.333 -21.167 -150 -63.5s-49 -100.166 -49 -173.499v-596h-251v596c0 73.333 -16.333 131.166 -49 173.499s-82.667 63.5 -150 63.5
s-117.333 -21.167 -150 -63.5s-49 -100.166 -49 -173.499v-596h-251z" />
    <glyph glyph-name="n" unicode="n" 
d="M371 547l-0.000976562 -547h-251v1022h251v-156c20 58.667 57.833 102.667 113.5 132s113.834 44 174.501 44c143.333 0 255.5 -42.5 336.5 -127.5s121.5 -207.5 121.5 -367.5v-547h-251v547c0 90 -21 160.167 -63 210.5s-103.333 75.5 -184 75.5
c-81.333 0 -143 -25.167 -185 -75.5s-63 -120.5 -63 -210.5z" />
    <glyph glyph-name="o" unicode="o" horiz-adv-x="1300" 
d="M1220 511c0 -154 -52.1689 -280.999 -156.502 -380.999s-242.166 -150 -413.499 -150s-309.166 50.167 -413.499 150.5s-156.5 227.166 -156.5 380.499c0 74.667 13.5 144.5 40.5 209.5s64.833 121.333 113.5 169s108.834 85 180.501 112s150.167 40.5 235.5 40.5
c171.333 0 309.166 -50 413.499 -150s156.5 -227 156.5 -381zM962.998 511.001c0 43.333 -6.16699 83.833 -18.5 121.5s-30.833 71.667 -55.5 102s-57.5 54.333 -98.5 72s-87.833 26.5 -140.5 26.5s-99.5 -8.83301 -140.5 -26.5s-73.833 -41.667 -98.5 -72
s-43.167 -64.333 -55.5 -102s-18.5 -78.167 -18.5 -121.5s6.16699 -83.833 18.5 -121.5s30.833 -71.667 55.5 -102s57.5 -54.333 98.5 -72s87.833 -26.5 140.5 -26.5s99.5 8.83301 140.5 26.5s73.833 41.667 98.5 72s43.167 64.333 55.5 102s18.5 78.167 18.5 121.5z" />
    <glyph glyph-name="p" unicode="p" horiz-adv-x="1302" 
d="M120 -532v1554h251v-171c30 60.667 78.5 107.667 145.5 141s134.833 50 203.5 50c102.667 0 192.5 -23.5 269.5 -70.5s135 -110.333 174 -190s58.5 -169.834 58.5 -270.501c0 -101.333 -19.5 -191.833 -58.5 -271.5s-97 -142.834 -174 -189.501s-166.833 -70 -269.5 -70
c-68.667 0 -136.5 16.667 -203.5 50s-115.5 80.333 -145.5 141v-703h-251zM668 190.002c99.333 0 173.666 30.5 222.999 91.5s74 137.5 74 229.5s-24.667 168.5 -74 229.5s-123.666 91.5 -222.999 91.5s-173.666 -30.5 -222.999 -91.5s-74 -137.5 -74 -229.5
s24.667 -168.5 74 -229.5s123.666 -91.5 222.999 -91.5z" />
    <glyph glyph-name="q" unicode="q" horiz-adv-x="1302" 
d="M1182 1022v-1554h-251v703c-30 -60.667 -78.5 -107.667 -145.5 -141s-134.833 -50 -203.5 -50c-102.667 0 -192.5 23.333 -269.5 70s-135 109.834 -174 189.501s-58.5 170.167 -58.5 271.5c0 100.667 19.5 190.834 58.5 270.501s97 143 174 190s166.833 70.5 269.5 70.5
c68.667 0 136.5 -16.667 203.5 -50s115.5 -80.333 145.5 -141v171h251zM634 189.998c99.333 0 173.666 30.5 222.999 91.5s74 137.5 74 229.5s-24.667 168.5 -74 229.5s-123.666 91.5 -222.999 91.5s-173.666 -30.5 -222.999 -91.5s-74 -137.5 -74 -229.5
s24.667 -168.5 74 -229.5s123.666 -91.5 222.999 -91.5z" />
    <glyph glyph-name="r" unicode="r" horiz-adv-x="904" 
d="M874 1001l-116.001 -201c-36 22 -82.333 33 -139 33c-165.333 0 -248 -95.333 -248 -286v-547h-251v1022h251v-156c20 58.667 57.833 102.667 113.5 132s113.834 44 174.501 44c81.333 0 153 -13.667 215 -41z" />
    <glyph glyph-name="s" unicode="s" horiz-adv-x="1047" 
d="M938 941l-105.999 -180.999c-94.667 48.667 -198.667 73 -312 73c-58.667 0 -101.667 -7.5 -129 -22.5s-41 -38.5 -41 -70.5c0 -30 16.667 -53.667 50 -71s84.333 -32.666 153 -45.999c49.333 -9.33301 91.833 -18.666 127.5 -27.999s71 -20.5 106 -33.5
s64 -27.5 87 -43.5s43.5 -34.833 61.5 -56.5s31.167 -46.667 39.5 -75s12.5 -60.5 12.5 -96.5c0 -105.333 -39 -183.333 -117 -234s-187.333 -76 -328 -76c-92.667 0 -182.167 11.167 -268.5 33.5s-157.5 51.166 -213.5 86.499l106 181c54 -28 114.5 -50.333 181.5 -67
s131.833 -25 194.5 -25c70 0 119.667 9.16699 149 27.5s44 46.166 44 83.499c0 12 -2.16699 22.5 -6.5 31.5s-12.333 17.167 -24 24.5s-22.334 13.333 -32.001 18s-25.5 9.5 -47.5 14.5s-39.5 8.83301 -52.5 11.5s-34.5 6.66699 -64.5 12
c-145.333 26.667 -249.833 65.667 -313.5 117s-95.5 121.666 -95.5 210.999c0 92.667 33.667 166.167 101 220.5s174 81.5 320 81.5c170 0 309.333 -33.667 418 -101z" />
    <glyph glyph-name="t" unicode="t" horiz-adv-x="908" 
d="M60 813l-0.00390625 209.002h197v299h251v-299h292v-209h-292v-362c0 -34.667 0.833008 -63.834 2.5 -87.501s5.33398 -47.5 11.001 -71.5s13.834 -42.833 24.501 -56.5s25 -24.834 43 -33.501s40 -13 66 -13c50 0 95.667 9.66699 137 29l56 -193
c-68 -30 -145.667 -45 -233 -45c-70.667 0 -129.667 10 -177 30s-84.166 51.167 -110.499 93.5s-44.666 90.833 -54.999 145.5s-15.5 122 -15.5 202v362h-197z" />
    <glyph glyph-name="u" unicode="u" 
d="M866 475l0.000976562 547h251v-1022h-251v156c-14 -40.667 -37.5 -74.667 -70.5 -102s-67.833 -46.5 -104.5 -57.5s-74.334 -16.5 -113.001 -16.5c-143.333 0 -255.5 42.5 -336.5 127.5s-121.5 207.5 -121.5 367.5v547h251v-547c0 -90 21 -160.167 63 -210.5
s103.333 -75.5 184 -75.5c81.333 0 143 25.167 185 75.5s63 120.5 63 210.5z" />
    <glyph glyph-name="v" unicode="v" horiz-adv-x="1173" 
d="M459 0l-429 1022h271l285 -737l286 737h271l-430 -1022h-254z" />
    <glyph glyph-name="w" unicode="w" horiz-adv-x="1612" 
d="M987 0l-181 671l-181 -671h-266l-329 1022h265l193 -701l191 701h254l191 -701l193 701h265l-329 -1022h-266z" />
    <glyph glyph-name="x" unicode="x" horiz-adv-x="1200" 
d="M761 531l409 -531h-308l-262 349l-262 -349h-308l409 531l-379 491h308l232 -309l232 309h308z" />
    <glyph glyph-name="y" unicode="y" horiz-adv-x="1177" 
d="M467 0l-437 1022h267l291 -727l292 727h267l-565 -1317l-20 -41.5c-4 -8.33301 -10.5 -21 -19.5 -38s-16.667 -29.667 -23 -38l-25.5 -32.5c-10.667 -13.333 -21 -23.333 -31 -30s-22.167 -14.334 -36.5 -23.001s-29.166 -15 -44.499 -19s-32.833 -7.5 -52.5 -10.5
s-40.834 -4.5 -63.501 -4.5c-79.333 0 -150 16.333 -212 49l85 188c40 -18.667 76.667 -28 110 -28c12 0 22.833 0.833008 32.5 2.5s18.5 5.33398 26.5 11.001l19.5 13.5c5 3.33301 10.667 10.5 17 21.5l13.5 23c2.66699 4.33301 7.5 14.333 14.5 30
s11.833 25.834 14.5 30.501z" />
    <glyph glyph-name="z" unicode="z" horiz-adv-x="1122" 
d="M100 0v125l545 688h-513v209h890v-125l-545 -688h545v-209h-922z" />
    <glyph glyph-name="braceleft" unicode="{" horiz-adv-x="872" 
d="M100 442v225.996c22.667 2.66699 43.167 6.33398 61.5 11.001s37.5 12.667 57.5 24s36.833 25.333 50.5 42s24.834 39.334 33.501 68.001s13 62 13 100c0 86 7.33301 162.167 22 228.5s35.167 121.5 61.5 165.5s58.833 80.167 97.5 108.5s80.5 48.5 125.5 60.5
s94.833 18 149.5 18v-249c-28 0 -52.833 -5.33301 -74.5 -16s-41.167 -28.5 -58.5 -53.5s-30.5 -60 -39.5 -105s-13.5 -99.5 -13.5 -163.5c0 -92.667 -13.667 -167.5 -41 -224.5s-68.333 -99.5 -123 -127.5c54.667 -28 95.667 -70.5 123 -127.5s41 -131.833 41 -224.5
c0 -64 4.5 -118.5 13.5 -163.5s22.167 -80 39.5 -105s36.833 -42.833 58.5 -53.5s46.5 -16 74.5 -16v-249c-54.667 0 -104.5 6 -149.5 18s-86.833 32.167 -125.5 60.5s-71.167 64.5 -97.5 108.5s-46.833 99.167 -61.5 165.5s-22 142.5 -22 228.5
c0 38 -4.33301 71.333 -13 100s-19.834 51.334 -33.501 68.001s-30.5 30.667 -50.5 42s-39.167 19.333 -57.5 24s-38.833 8.33398 -61.5 11.001z" />
    <glyph glyph-name="bar" unicode="|" horiz-adv-x="509" 
d="M120 -532v1966h269v-1966h-269z" />
    <glyph glyph-name="braceright" unicode="}" horiz-adv-x="872" 
d="M772 668v-225.996c-22.667 -2.66699 -43.167 -6.33398 -61.5 -11.001s-37.5 -12.667 -57.5 -24s-36.833 -25.333 -50.5 -42s-24.834 -39.334 -33.501 -68.001s-13 -62 -13 -100c0 -86 -7.33301 -162.167 -22 -228.5s-35.167 -121.5 -61.5 -165.5
s-58.833 -80.167 -97.5 -108.5s-80.5 -48.5 -125.5 -60.5s-94.833 -18 -149.5 -18v249c28 0 52.833 5.33301 74.5 16s41.167 28.5 58.5 53.5s30.5 60 39.5 105s13.5 99.5 13.5 163.5c0 92.667 13.667 167.5 41 224.5s68.333 99.5 123 127.5
c-54.667 28 -95.667 70.5 -123 127.5s-41 131.833 -41 224.5c0 64 -4.5 118.5 -13.5 163.5s-22.167 80 -39.5 105s-36.833 42.833 -58.5 53.5s-46.5 16 -74.5 16v249c54.667 0 104.5 -6 149.5 -18s86.833 -32.167 125.5 -60.5s71.167 -64.5 97.5 -108.5
s46.833 -99.167 61.5 -165.5s22 -142.5 22 -228.5c0 -38 4.33301 -71.333 13 -100s19.834 -51.334 33.501 -68.001s30.5 -30.667 50.5 -42s39.167 -19.333 57.5 -24s38.833 -8.33398 61.5 -11.001z" />
    <glyph glyph-name="asciitilde" unicode="~" horiz-adv-x="1200" 
d="M667 822c20 -24.667 36.832 -41.834 50.499 -51.501s30.5 -14.5 50.5 -14.5c26 0 44.667 11.833 56 35.5s17 48.834 17 75.501h259c0 -10.667 -0.833008 -23.5 -2.5 -38.5s-5.5 -34.333 -11.5 -58s-13.667 -46.834 -23 -69.501s-22.5 -46 -39.5 -70s-36.667 -45 -59 -63
s-50.5 -32.667 -84.5 -44s-71.333 -17 -112 -17c-101.333 0 -179.666 36 -234.999 108c-20 24.667 -36.833 41.834 -50.5 51.501s-30.5 14.5 -50.5 14.5c-26 0 -44.667 -11.833 -56 -35.5s-17 -48.834 -17 -75.501h-259c0 10.667 0.833008 23.5 2.5 38.5s5.5 34.333 11.5 58
s13.667 46.834 23 69.501s22.5 46 39.5 70s36.667 45 59 63s50.5 32.667 84.5 44s71.333 17 112 17c98.667 0 177 -36 235 -108z" />
    <glyph glyph-name="uni00A0" unicode="&#xa0;" horiz-adv-x="573" 
 />
    <glyph glyph-name="exclamdown" unicode="&#xa1;" horiz-adv-x="537" 
d="M133 -532l20 1032h230l20 -1032h-270zM120 764c0 41.333 14.333 76.333 43 105s63.667 43 105 43s76.5 -14.333 105.5 -43s43.5 -63.667 43.5 -105s-14.5 -76.5 -43.5 -105.5s-64.167 -43.5 -105.5 -43.5s-76.333 14.5 -105 43.5s-43 64.167 -43 105.5z" />
    <glyph glyph-name="cent" unicode="&#xa2;" horiz-adv-x="1132" 
d="M337 511c0 -43.333 6.16602 -83.833 18.499 -121.5s30.833 -71.667 55.5 -102s57.5 -54.333 98.5 -72s87.833 -26.5 140.5 -26.5c113.333 0 211.333 33 294 99l128 -161c-80.667 -80.667 -188.667 -128 -324 -142v-228h-220v233c-137.333 24 -246.333 83.333 -327 178
s-121 209 -121 343s40.333 248.333 121 343s189.667 154 327 178v233h220v-228c134.667 -14 242.667 -61.333 324 -142l-130 -159c-81.333 64.667 -178.666 97 -291.999 97c-52.667 0 -99.5 -8.83301 -140.5 -26.5s-73.833 -41.667 -98.5 -72s-43.167 -64.333 -55.5 -102
s-18.5 -78.167 -18.5 -121.5z" />
    <glyph glyph-name="sterling" unicode="&#xa3;" horiz-adv-x="1381" 
d="M100 591l0.00195312 225.001h147c-8.66699 48.667 -13 98.667 -13 150c0 68 10.5 131.167 31.5 189.5s52.667 110.833 95 157.5s99.666 83.5 171.999 110.5s155.833 40.5 250.5 40.5c68 0 130.833 -8.33301 188.5 -25s106.5 -39.334 146.5 -68.001s73.5 -60 100.5 -94
s47.833 -70.333 62.5 -109l-207 -102c-35.333 58 -76 101.167 -122 129.5s-102.333 42.5 -169 42.5c-92 0 -161.5 -24.333 -208.5 -73s-70.5 -115 -70.5 -199c0 -45.333 5 -95.333 15 -150h464v-225h-416c11.333 -52.667 17 -103 17 -151c0 -50.667 -9.66699 -101 -29 -151
c-10.667 -26.667 -20.334 -47.667 -29.001 -63h718v-226h-1039v173c20 24.667 38 51.667 54 81c36.667 69.333 55 133.333 55 192c0 40.667 -5.33301 89 -16 145h-198z" />
    <glyph glyph-name="currency" unicode="&#xa4;" horiz-adv-x="1181" 
d="M776 1469l143 143l162 -163l-143 -142c31.333 -58.667 47 -120.667 47 -186s-15.667 -127 -47 -185l143 -143l-162 -162l-143 142c-58.667 -30.667 -120.667 -46 -186 -46s-127 15.333 -185 46l-143 -142l-162 162l143 143c-31.333 58 -47 119.667 -47 185
s15.667 127.333 47 186l-143 142l162 163l143 -143c58 31.333 119.667 47 185 47s127.333 -15.667 186 -47zM395 1121c0 -54 19 -100 57 -138s84 -57 138 -57s100 19 138 57s57 84 57 138s-19 100 -57 138s-84 57 -138 57s-100 -19 -138 -57s-57 -84 -57 -138z" />
    <glyph glyph-name="yen" unicode="&#xa5;" horiz-adv-x="1424" 
d="M294 143v186h283v83h-283v186h283l-547 836h292l390 -606l390 606h292l-547 -836h283v-186h-283v-83h283v-186h-283v-143h-270v143h-283z" />
    <glyph glyph-name="brokenbar" unicode="&#xa6;" horiz-adv-x="510" 
d="M122 619v815h255v-815h-255zM120 -532v792h270v-792h-270z" />
    <glyph glyph-name="section" unicode="&#xa7;" horiz-adv-x="1362" 
d="M142 1071c0 54.667 10.499 105.168 31.499 151.501s52.5 87.833 94.5 124.5s98 65.334 168 86.001s150.333 31 241 31c112.667 0 209 -10.333 289 -31s155 -54.667 225 -102l-132 -189c-107.333 64 -234.666 96 -381.999 96c-175.333 0 -263 -55.667 -263 -167
c0 -56.667 24 -101 72 -133s125.667 -59.333 233 -82c184.667 -39.333 321.334 -95.833 410.001 -169.5s133 -171.834 133 -294.501c0 -127.333 -41.333 -226.666 -124 -297.999c54.667 -66.667 82 -144.334 82 -233.001c0 -54.667 -10.5 -105.167 -31.5 -151.5
s-52.5 -87.833 -94.5 -124.5s-98 -65.334 -168 -86.001s-150.333 -31 -241 -31c-112.667 0 -209.5 10.333 -290.5 31s-155.5 54.667 -223.5 102l132 189c107.333 -64 234.666 -96 381.999 -96c175.333 0 263 55.667 263 167c0 56.667 -23.667 100.667 -71 132
s-125.333 59 -234 83c-184 38 -320.5 94.333 -409.5 169s-133.5 173 -133.5 295c0 127.333 41 226.333 123 297c-54 65.333 -81 143.333 -81 234zM989.999 392.001c0 55.333 -25 101.5 -75 138.5s-131.667 67.167 -245 90.5c-86.667 18 -163.667 41 -231 69
c-44.667 -30.667 -67 -80.667 -67 -150c0 -55.333 25 -101.5 75 -138.5s131.667 -67.167 245 -90.5c89.333 -19.333 166.333 -42.333 231 -69c44.667 30.667 67 80.667 67 150z" />
    <glyph glyph-name="dieresis" unicode="&#xa8;" horiz-adv-x="938" 
d="M100 1327c0 40.667 14.333 75.334 43 104.001s63.334 43 104.001 43s75.334 -14.333 104.001 -43s43 -63.334 43 -104.001s-14.333 -75.334 -43 -104.001s-63.334 -43 -104.001 -43s-75.334 14.333 -104.001 43s-43 63.334 -43 104.001zM544 1327
c0 40.667 14.333 75.334 43 104.001s63.334 43 104.001 43s75.334 -14.333 104.001 -43s43 -63.334 43 -104.001s-14.333 -75.334 -43 -104.001s-63.334 -43 -104.001 -43s-75.334 14.333 -104.001 43s-43 63.334 -43 104.001z" />
    <glyph glyph-name="copyright" unicode="&#xa9;" horiz-adv-x="1654" 
d="M638 717c0 -64 18.5 -115.335 55.5 -154.002s83.833 -58 140.5 -58c43.333 0 79.5 5.33301 108.5 16s58.5 29 88.5 55l95 -140c-80.667 -78.667 -178 -118 -292 -118c-117.333 0 -214.166 37.333 -290.499 112s-114.5 170.334 -114.5 287.001
s38.167 212.334 114.5 287.001s173.166 112 290.499 112c114.667 0 212.667 -39.667 294 -119l-95 -140c-30 26 -59.833 44.5 -89.5 55.5s-66.167 16.5 -109.5 16.5c-56.667 0 -103.5 -19.333 -140.5 -58s-55.5 -90 -55.5 -154zM80 716.998c0 101.333 19.667 198 59 290
s92.5 171.5 159.5 238.5s146.5 120.167 238.5 159.5s188.667 59 290 59s198 -19.667 290 -59s171.5 -92.5 238.5 -159.5s120.167 -146.5 159.5 -238.5s59 -188.667 59 -290s-19.667 -198 -59 -290s-92.5 -171.5 -159.5 -238.5s-146.5 -120.167 -238.5 -159.5
s-188.667 -59 -290 -59s-198 19.667 -290 59s-171.5 92.5 -238.5 159.5s-120.167 146.5 -159.5 238.5s-59 188.667 -59 290zM263 716.998c0 -76.667 14.833 -149.667 44.5 -219s69.834 -129.333 120.501 -180s110.667 -90.834 180 -120.501s142.333 -44.5 219 -44.5
s149.667 14.833 219 44.5s129.333 69.834 180 120.501s90.834 110.667 120.501 180s44.5 142.333 44.5 219s-14.833 149.667 -44.5 219s-69.834 129.333 -120.501 180s-110.667 90.834 -180 120.501s-142.333 44.5 -219 44.5s-149.667 -14.833 -219 -44.5
s-129.333 -69.834 -180 -120.501s-90.834 -110.667 -120.501 -180s-44.5 -142.333 -44.5 -219z" />
    <glyph glyph-name="ordfeminine" unicode="&#xaa;" horiz-adv-x="647" 
d="M348 1315c-25.333 0 -56 -3.83301 -92 -11.5s-68 -17.834 -96 -30.501l-58 121c67.333 38.667 149.333 58 246 58c50.667 0 93 -7.16699 127 -21.5s59.5 -35.166 76.5 -62.499s28.833 -56.333 35.5 -87s10 -67 10 -109v-356h-148v68
c-12.667 -27.333 -33.5 -47.5 -62.5 -60.5s-59.5 -19.5 -91.5 -19.5c-73.333 0 -132.5 17.833 -177.5 53.5s-67.5 88.167 -67.5 157.5c0 44 11 81.333 33 112s52.167 53.5 90.5 68.5s80.5 25 126.5 30s95.667 5.5 149 1.5c0 58.667 -33.667 88 -101 88zM207 1015
c0 -42 29.333 -62.999 88 -62.999c47.333 0 84.833 13.833 112.5 41.5s41.5 60.5 41.5 98.5c-161.333 11.333 -242 -14.334 -242 -77.001z" />
    <glyph glyph-name="guillemotleft" unicode="&#xab;" horiz-adv-x="1544" 
d="M782 959l-395 -302l395 -302v-303l-682 532v146l682 532v-303zM1424 959l-395 -302l395 -302v-303l-682 532v146l682 532v-303z" />
    <glyph glyph-name="logicalnot" unicode="&#xac;" horiz-adv-x="1200" 
d="M100 618v227h1000v-602h-270v375h-730z" />
    <glyph glyph-name="uni00AD" unicode="&#xad;" horiz-adv-x="1002" 
d="M100 524v210h802v-210h-802z" />
    <glyph glyph-name="registered" unicode="&#xae;" horiz-adv-x="1058" 
d="M473 808h-98v424h188c42 0 76.167 -12 102.5 -36s39.5 -57.333 39.5 -100c0 -62 -26 -102.667 -78 -122l86 -166h-104l-78 151h-58v-151zM563 1135h-90v-78h90c29.333 0 44 13 44 39s-14.667 39 -44 39zM190 1015c0 -94 33 -174 99 -240s146 -99 240 -99s174 33 240 99
s99 146 99 240s-33 174 -99 240s-146 99 -240 99s-174 -33 -240 -99s-99 -146 -99 -240zM80 1015c0 124 43.833 229.833 131.5 317.5s193.5 131.5 317.5 131.5s229.833 -43.833 317.5 -131.5s131.5 -193.5 131.5 -317.5s-43.833 -229.833 -131.5 -317.5
s-193.5 -131.5 -317.5 -131.5s-229.833 43.833 -317.5 131.5s-131.5 193.5 -131.5 317.5z" />
    <glyph glyph-name="overscore" unicode="&#xaf;" horiz-adv-x="954" 
d="M80 1245v189h794v-189h-794z" />
    <glyph glyph-name="degree" unicode="&#xb0;" horiz-adv-x="596" 
d="M30 1196c0 74 26.167 137.167 78.5 189.5s115.5 78.5 189.5 78.5s137.167 -26.167 189.5 -78.5s78.5 -115.5 78.5 -189.5s-26.167 -137.167 -78.5 -189.5s-115.5 -78.5 -189.5 -78.5s-137.167 26.167 -189.5 78.5s-78.5 115.5 -78.5 189.5zM181 1196
c0 -32.667 11.333 -60.334 34 -83.001s50.334 -34 83.001 -34s60.334 11.333 83.001 34s34 50.334 34 83.001s-11.333 60.334 -34 83.001s-50.334 34 -83.001 34s-60.334 -11.333 -83.001 -34s-34 -50.334 -34 -83.001z" />
    <glyph glyph-name="plusminus" unicode="&#xb1;" horiz-adv-x="1150" 
d="M1050 962v-228h-358v-361h-235v361h-357v228h357v361h235v-361h358zM1050 228v-228h-950v228h950z" />
    <glyph glyph-name="twosuperior" unicode="&#xb2;" horiz-adv-x="543" 
d="M172 1226l-120.001 62.002c4.66699 13.333 11.167 27.166 19.5 41.499s20.666 31 36.999 50s38.833 34.5 67.5 46.5s60.667 18 96 18c62.667 0 113.5 -17 152.5 -51s58.5 -80 58.5 -138c0 -9.33301 -0.5 -18.333 -1.5 -27s-3 -17.334 -6 -26.001s-5.5 -16.167 -7.5 -22.5
s-5.66699 -13.833 -11 -22.5s-9.16602 -15.167 -11.499 -19.5s-7.16602 -11 -14.499 -20l-14.5 -18c-2.33301 -3 -7.83301 -9.5 -16.5 -19.5s-14 -16 -16 -18l-105 -109h214v-137h-443v99l230 249l11.5 12c5.66699 6 9.5 10.167 11.5 12.5l9.5 11
c4.33301 5 7.33301 9.16699 9 12.5l6 12.5c2.33301 5 4 10 5 15s1.5 10.167 1.5 15.5c0 34.667 -20.667 52 -62 52c-46 0 -79.333 -27 -100 -81z" />
    <glyph glyph-name="threesuperior" unicode="&#xb3;" horiz-adv-x="553" 
d="M50 918l117.003 71.001c4 -6.66699 11.333 -14.334 22 -23.001c20.667 -15.333 48.667 -23 84 -23c24.667 0 44.167 5 58.5 15s21.5 25 21.5 45c0 10.667 -2.16699 20 -6.5 28s-11.333 14.333 -21 19s-18.667 8.33398 -27 11.001s-20.666 4.5 -36.999 5.5
s-28.833 1.66699 -37.5 2s-22 0.5 -40 0.5v119c15.333 0 26.666 0.166992 33.999 0.5s18.166 1 32.499 2s25.5 3 33.5 6s16.667 7 26 12s16.166 11.833 20.499 20.5s6.5 19 6.5 31c0 31.333 -21.333 47 -64 47c-28.667 0 -53.334 -7.66699 -74.001 -23
c-7.33301 -6 -14.666 -13.667 -21.999 -23l-117 71c11.333 20 27.333 38.667 48 56c46.667 37.333 101.667 56 165 56c64.667 0 116.5 -16.167 155.5 -48.5s58.5 -77.5 58.5 -135.5c0 -30.667 -8.5 -56.834 -25.5 -78.501s-37.167 -37.167 -60.5 -46.5
c68 -22 102 -66 102 -132c0 -64 -21 -112.833 -63 -146.5s-97.667 -50.5 -167 -50.5c-70.667 0 -129.334 18.667 -176.001 56c-21.333 18 -37 36.667 -47 56z" />
    <glyph glyph-name="acute" unicode="&#xb4;" horiz-adv-x="694" 
d="M80 1124l251 310h283l-314 -310h-220z" />
    <glyph glyph-name="mu" unicode="&#xb5;" horiz-adv-x="1278" 
d="M639 -20c-32 0 -64.832 5.5 -98.499 16.5s-67 30.333 -100 58s-56.167 61.5 -69.5 101.5v-688h-251v1554h251v-527c0 -95.333 23.167 -170.166 69.5 -224.499s112.5 -81.5 198.5 -81.5s152.167 27.167 198.5 81.5s69.5 129.166 69.5 224.499v527h251v-1022h-251v156
c-14 -40 -37.333 -73.833 -70 -101.5s-65.834 -47 -99.501 -58s-66.5 -16.5 -98.5 -16.5z" />
    <glyph glyph-name="paragraph" unicode="&#xb6;" horiz-adv-x="1508" 
d="M1408 1434l-0.000976562 -225.997h-171v-1208h-270v1208h-99v-1208h-270v537h-49c-61.333 0 -117.333 8 -168 24s-93.167 38 -127.5 66s-63.166 61.167 -86.499 99.5s-40.333 79.166 -51 122.499s-16 89 -16 137c0 60.667 8.66699 117.167 26 169.5
s43.5 99.666 78.5 141.999s82 75.666 141 99.999s126.833 36.5 203.5 36.5h859zM597.999 1208l-49 -0.00195312c-58.667 0 -103.167 -20.667 -133.5 -62s-45.5 -94.666 -45.5 -159.999s15.167 -118.666 45.5 -159.999s74.833 -62 133.5 -62h49v444z" />
    <glyph glyph-name="middot" unicode="&#xb7;" horiz-adv-x="497" 
d="M100 726c0 41.333 14.333 76.5 43 105.5s63.667 43.5 105 43.5s76.5 -14.5 105.5 -43.5s43.5 -64.167 43.5 -105.5s-14.5 -76.333 -43.5 -105s-64.167 -43 -105.5 -43s-76.333 14.333 -105 43s-43 63.667 -43 105z" />
    <glyph glyph-name="cedilla" unicode="&#xb8;" horiz-adv-x="627" 
d="M80 -459l46.001 117.001c21.333 -7.33301 44.5 -13.666 69.5 -18.999s52.667 -8.83301 83 -10.5s56.166 3.66602 77.499 15.999s33.333 32.166 36 59.499c2.66699 20.667 -2.16602 36.834 -14.499 48.501s-31.5 18.5 -57.5 20.5s-52.333 1.83301 -79 -0.5
s-59 -6.5 -97 -12.5l101 313h153l-62 -185c63.333 0 115.5 -15.5 156.5 -46.5s58.5 -79.167 52.5 -144.5c-4.66699 -52 -22.834 -94 -54.501 -126s-70.5 -52.333 -116.5 -61s-94.5 -10.334 -145.5 -5.00098s-100.5 17.333 -148.5 36z" />
    <glyph glyph-name="onesuperior" unicode="&#xb9;" horiz-adv-x="410" 
d="M146 1143l-96 106l205 185h105v-618h-148v385z" />
    <glyph glyph-name="ordmasculine" unicode="&#xba;" horiz-adv-x="725" 
d="M50 1125c0 93.333 29.501 169.833 88.501 229.5s133.833 89.5 224.5 89.5c90 0 164.5 -29.667 223.5 -89s88.5 -136 88.5 -230s-29.5 -170.5 -88.5 -229.5s-133.833 -88.5 -224.5 -88.5s-165.334 29.5 -224.001 88.5s-88 135.5 -88 229.5zM199.001 1125
c0 -53.333 14.834 -95.166 44.501 -125.499s69.167 -45.5 118.5 -45.5s88.833 15.167 118.5 45.5s44.5 72.166 44.5 125.499s-14.833 95.166 -44.5 125.499s-68.834 45.5 -117.501 45.5c-49.333 0 -89 -15.167 -119 -45.5s-45 -72.166 -45 -125.499z" />
    <glyph glyph-name="guillemotright" unicode="&#xbb;" horiz-adv-x="1544" 
d="M1157 657l-395 302v303l682 -532v-146l-682 -532v303zM515 657l-395 302v303l682 -532v-146l-682 -532v303z" />
    <glyph glyph-name="onequarter" unicode="&#xbc;" horiz-adv-x="1376" 
d="M1174 0h-156v147h-342v112l359 462h139v-430h102v-144h-102v-147zM876 291h142v183zM211 1116l-111 118l210 200h138v-721h-166v471zM164 0l823 1434h199l-823 -1434h-199z" />
    <glyph glyph-name="onehalf" unicode="&#xbd;" horiz-adv-x="1452" 
d="M164 0l823 1434h199l-823 -1434h-199zM957 480l-144.002 53.998c8 22.667 18.333 44.5 31 65.5s29.5 43 50.5 66s47.833 41.333 80.5 55s68.667 20.5 108 20.5c82 0 145.667 -20.167 191 -60.5s68 -95.166 68 -164.499c0 -28 -7.5 -57 -22.5 -87s-30.5 -54.333 -46.5 -73
s-37.667 -41.667 -65 -69l-135 -133h279v-154h-530v116l272 269l14.5 14l15.5 15c2.66699 2.66699 7 7.5 13 14.5s10.333 12.333 13 16s6 8.83398 10 15.501s7 12.5 9 17.5s3.66699 11 5 18s2 13.833 2 20.5c0 21.333 -8.16699 38.5 -24.5 51.5s-39.166 19.5 -68.499 19.5
c-34 0 -61.667 -11.667 -83 -35s-35.666 -47.333 -42.999 -72zM210.998 1116l-111 118l210 200h138v-721h-166v471z" />
    <glyph glyph-name="threequarters" unicode="&#xbe;" horiz-adv-x="1492" 
d="M280 0l823 1434h199l-823 -1434h-199zM100 835l139.999 73c29.333 -41.333 76.666 -62 141.999 -62c67.333 0 101 27.333 101 82c0 11.333 -2 21 -6 29s-10.667 14.5 -20 19.5s-18.166 8.83301 -26.499 11.5s-20.5 4.5 -36.5 5.5s-29 1.5 -39 1.5
s-24.667 -0.166992 -44 -0.5s-33.333 -0.5 -42 -0.5v154c27.333 0 50.333 0.666992 69 2s39 4.5 61 9.5s38.667 13.333 50 25s17 26.5 17 44.5c0 19.333 -6.66699 36 -20 50s-34.666 21 -63.999 21c-54 0 -94.667 -20.333 -122 -61l-140 73c54 94.667 141.333 142 262 142
c76 0 138.333 -18.833 187 -56.5s73 -86.5 73 -146.5c0 -82 -36.667 -138.333 -110 -169c38 -10.667 68.667 -29.334 92 -56.001s35 -62.667 35 -108c0 -67.333 -24.833 -121.666 -74.5 -162.999s-117.167 -62 -202.5 -62c-80.667 0 -144 14.5 -190 43.5
s-76.667 61.833 -92 98.5zM1290 0h-156v147h-342v112l359 462h139v-430h102v-144h-102v-147zM991.999 291h142v183z" />
    <glyph glyph-name="questiondown" unicode="&#xbf;" horiz-adv-x="999" 
d="M788 -159l211 -116.999c-18 -36 -40.667 -69.333 -68 -100s-60.833 -59.667 -100.5 -87s-87.667 -49 -144 -65s-117.833 -24 -184.5 -24c-85.333 0 -160.666 10.667 -225.999 32s-117.833 50.833 -157.5 88.5s-69.334 80.5 -89.001 128.5s-29.5 100.333 -29.5 157
c0 226 133 359 399 399v257h270v-412c-266 -4.66699 -399 -86 -399 -244c0 -50.667 19.667 -93.334 59 -128.001s97 -52 173 -52c122 0 217.333 55.667 286 167zM683 774.001c0 -41.333 -14.333 -76.5 -43 -105.5s-63.667 -43.5 -105 -43.5s-76.5 14.5 -105.5 43.5
s-43.5 64.167 -43.5 105.5s14.5 76.333 43.5 105s64.167 43 105.5 43s76.333 -14.333 105 -43s43 -63.667 43 -105z" />
    <glyph glyph-name="Agrave" unicode="&#xc0;" horiz-adv-x="1489" 
d="M447 334l-136 -334h-281l604 1434h221l604 -1434h-281l-137 334h-594zM744 1063l-205 -502h410zM603 1846l251 -310h-220l-314 310h283z" />
    <glyph glyph-name="Aacute" unicode="&#xc1;" horiz-adv-x="1489" 
d="M447 334l-136 -334h-281l604 1434h221l604 -1434h-281l-137 334h-594zM744 1063l-205 -502h410zM647 1536l251 310h283l-314 -310h-220z" />
    <glyph glyph-name="Acircumflex" unicode="&#xc2;" horiz-adv-x="1489" 
d="M447 334l-136 -334h-281l604 1434h221l604 -1434h-281l-137 334h-594zM744 1063l-205 -502h410zM817 1827l281 -291h-208l-146 129l-146 -129h-208l281 291h146z" />
    <glyph glyph-name="Atilde" unicode="&#xc3;" horiz-adv-x="1489" 
d="M447 334l-136 -334h-281l604 1434h221l604 -1434h-281l-137 334h-594zM744 1063l-205 -502h410zM706 1600c-1.33301 1.33301 -5.16602 4.16699 -11.499 8.5l-15 10l-14 8.5c-5.66699 3.33301 -11.167 5.66602 -16.5 6.99902s-10.666 2 -15.999 2
c-23.333 0 -39.666 -13 -48.999 -39c-4 -12 -6 -25 -6 -39h-185c1.33301 47.333 10 88.666 26 123.999c36 83.333 105.667 125 209 125c50 0 101.667 -21.333 155 -64c1.33301 -1.33301 5.16602 -4.16602 11.499 -8.49902l15 -10l14 -8.5
c5.66699 -3.33301 11.167 -5.66602 16.5 -6.99902s10.666 -2 15.999 -2c23.333 0 39.666 13 48.999 39c4 10.667 6 23.667 6 39h185c-1.33301 -48 -10 -89.667 -26 -125c-40 -82.667 -109.667 -124 -209 -124c-50 0 -101.667 21.333 -155 64z" />
    <glyph glyph-name="Adieresis" unicode="&#xc4;" horiz-adv-x="1489" 
d="M447 334l-136 -334h-281l604 1434h221l604 -1434h-281l-137 334h-594zM744 1063l-205 -502h410zM375 1683c0 40.667 14.333 75.334 43 104.001s63.334 43 104.001 43s75.334 -14.333 104.001 -43s43 -63.334 43 -104.001s-14.333 -75.334 -43 -104.001
s-63.334 -43 -104.001 -43s-75.334 14.333 -104.001 43s-43 63.334 -43 104.001zM819 1683c0 40.667 14.333 75.334 43 104.001s63.334 43 104.001 43s75.334 -14.333 104.001 -43s43 -63.334 43 -104.001s-14.333 -75.334 -43 -104.001s-63.334 -43 -104.001 -43
s-75.334 14.333 -104.001 43s-43 63.334 -43 104.001z" />
    <glyph glyph-name="Aring" unicode="&#xc5;" horiz-adv-x="1489" 
d="M447 334l-136 -334h-281l604 1434h221l604 -1434h-281l-137 334h-594zM744 1063l-205 -502h410zM517 1763c0 62.667 22.167 116.167 66.5 160.5s97.833 66.5 160.5 66.5s116.167 -22.167 160.5 -66.5s66.5 -97.833 66.5 -160.5s-22.167 -116.167 -66.5 -160.5
s-97.833 -66.5 -160.5 -66.5s-116.167 22.167 -160.5 66.5s-66.5 97.833 -66.5 160.5zM666 1763c0 -21.333 7.66699 -39.666 23 -54.999s33.666 -23 54.999 -23s39.666 7.66699 54.999 23s23 33.666 23 54.999s-7.66699 39.666 -23 54.999s-33.666 23 -54.999 23
s-39.666 -7.66699 -54.999 -23s-23 -33.666 -23 -54.999z" />
    <glyph glyph-name="AE" unicode="&#xc6;" horiz-adv-x="2107" 
d="M1250 844h713v-226h-713v-392h757v-226h-1027v324h-426l-214 -324h-310l944 1434h1023v-226h-747v-364zM980 971l-277 -420h277v420z" />
    <glyph glyph-name="Ccedilla" unicode="&#xc7;" horiz-adv-x="1436" 
d="M583 -459l46 117.002c21.333 -7.33301 44.5 -13.666 69.5 -18.999s52.667 -8.83301 83 -10.5s56.166 3.66602 77.499 15.999s33.333 32.166 36 59.499c2.66699 20.667 -2.16602 36.834 -14.499 48.501s-31.5 18.5 -57.5 20.5s-52.333 1.83301 -79 -0.5
s-59 -6.5 -97 -12.5l70 218c-202 23.333 -358.667 102 -470 236s-167 301.667 -167 503c0 108.667 16.833 208.5 50.5 299.5s82.167 169.667 145.5 236s143.333 118.166 240 155.499s205.334 56 326.001 56c228 0 406 -55.333 534 -166l-129 -178
c-118.667 78.667 -253.667 118 -405 118c-81.333 0 -153.333 -13 -216 -39s-113.667 -62.5 -153 -109.5s-69 -101.833 -89 -164.5s-30 -132 -30 -208s10 -145.333 30 -208s49.667 -117.5 89 -164.5s90.333 -83.5 153 -109.5s134.667 -39 216 -39
c151.333 0 286.333 39.333 405 118l129 -178c-123.333 -106.667 -293.333 -162 -510 -166l-27 -82c63.333 0 115.5 -15.5 156.5 -46.5s58.5 -79.167 52.5 -144.5c-4.66699 -52 -22.834 -94 -54.501 -126s-70.5 -52.333 -116.5 -61s-94.5 -10.334 -145.5 -5.00098
s-100.5 17.333 -148.5 36z" />
    <glyph glyph-name="Egrave" unicode="&#xc8;" horiz-adv-x="1247" 
d="M390 844h713v-226h-713v-392h757v-226h-1027v1434h1017v-226h-747v-364zM514 1846l251 -310h-220l-314 310h283z" />
    <glyph glyph-name="Eacute" unicode="&#xc9;" horiz-adv-x="1247" 
d="M390 844h713v-226h-713v-392h757v-226h-1027v1434h1017v-226h-747v-364zM509 1536l251 310h283l-314 -310h-220z" />
    <glyph glyph-name="Ecircumflex" unicode="&#xca;" horiz-adv-x="1247" 
d="M390 844h713v-226h-713v-392h757v-226h-1027v1434h1017v-226h-747v-364zM706 1827l281 -291h-208l-146 129l-146 -129h-208l281 291h146z" />
    <glyph glyph-name="Edieresis" unicode="&#xcb;" horiz-adv-x="1247" 
d="M390 844h713v-226h-713v-392h757v-226h-1027v1434h1017v-226h-747v-364zM264 1683c0 40.667 14.333 75.334 43 104.001s63.334 43 104.001 43s75.334 -14.333 104.001 -43s43 -63.334 43 -104.001s-14.333 -75.334 -43 -104.001s-63.334 -43 -104.001 -43
s-75.334 14.333 -104.001 43s-43 63.334 -43 104.001zM708 1683c0 40.667 14.333 75.334 43 104.001s63.334 43 104.001 43s75.334 -14.333 104.001 -43s43 -63.334 43 -104.001s-14.333 -75.334 -43 -104.001s-63.334 -43 -104.001 -43s-75.334 14.333 -104.001 43
s-43 63.334 -43 104.001z" />
    <glyph glyph-name="Igrave" unicode="&#xcc;" horiz-adv-x="496" 
d="M106 0v1434h270v-1434h-270zM103 1846l251 -310h-220l-314 310h283z" />
    <glyph glyph-name="Iacute" unicode="&#xcd;" horiz-adv-x="533" 
d="M120 0v1434h270v-1434h-270zM149 1536l251 310h283l-314 -310h-220z" />
    <glyph glyph-name="Icircumflex" unicode="&#xce;" horiz-adv-x="648" 
d="M189 0v1434h270v-1434h-270zM397 1827l281 -291h-208l-146 129l-146 -129h-208l281 291h146z" />
    <glyph glyph-name="Idieresis" unicode="&#xcf;" horiz-adv-x="798" 
d="M264 0v1434h270v-1434h-270zM30 1703c0 40.667 14.333 75.334 43 104.001s63.334 43 104.001 43s75.334 -14.333 104.001 -43s43 -63.334 43 -104.001s-14.333 -75.334 -43 -104.001s-63.334 -43 -104.001 -43s-75.334 14.333 -104.001 43s-43 63.334 -43 104.001z
M474 1703c0 40.667 14.333 75.334 43 104.001s63.334 43 104.001 43s75.334 -14.333 104.001 -43s43 -63.334 43 -104.001s-14.333 -75.334 -43 -104.001s-63.334 -43 -104.001 -43s-75.334 14.333 -104.001 43s-43 63.334 -43 104.001z" />
    <glyph glyph-name="Eth" unicode="&#xd0;" horiz-adv-x="1610" 
d="M30 604l0.000976562 226.001h228v604h565c117.333 0 221.666 -18.333 312.999 -55s165.333 -87.667 222 -153s99.5 -140.833 128.5 -226.5s43.5 -179.834 43.5 -282.501s-14.5 -197 -43.5 -283s-71.833 -161.5 -128.5 -226.5s-130.5 -115.833 -221.5 -152.5
s-195.5 -55 -313.5 -55h-565v604h-228zM528.001 604.001v-377.998h295c74.667 0 140.667 13.333 198 40s102.666 63.167 135.999 109.5s58.333 98.166 75 155.499s25 119.333 25 186s-8.33301 128.667 -25 186s-41.667 109.166 -75 155.499s-78.666 82.833 -135.999 109.5
s-123.333 40 -198 40h-295v-378h302v-226h-302z" />
    <glyph glyph-name="Ntilde" unicode="&#xd1;" horiz-adv-x="1497" 
d="M120 0v1434h344l643 -1059v1059h270v-1434h-344l-643 1059v-1059h-270zM710 1600c-1.33301 1.33301 -5.16602 4.16699 -11.499 8.5l-15 10l-14 8.5c-5.66699 3.33301 -11.167 5.66602 -16.5 6.99902s-10.666 2 -15.999 2c-23.333 0 -39.666 -13 -48.999 -39
c-4 -12 -6 -25 -6 -39h-185c1.33301 47.333 10 88.666 26 123.999c36 83.333 105.667 125 209 125c50 0 101.667 -21.333 155 -64c1.33301 -1.33301 5.16602 -4.16602 11.499 -8.49902l15 -10l14 -8.5c5.66699 -3.33301 11.167 -5.66602 16.5 -6.99902s10.666 -2 15.999 -2
c23.333 0 39.666 13 48.999 39c4 10.667 6 23.667 6 39h185c-1.33301 -48 -10 -89.667 -26 -125c-40 -82.667 -109.667 -124 -209 -124c-50 0 -101.667 21.333 -155 64z" />
    <glyph glyph-name="Ograve" unicode="&#xd2;" horiz-adv-x="1684" 
d="M842 -30c-120.667 0 -229.334 18.667 -326.001 56s-176.667 89.166 -240 155.499s-111.833 145 -145.5 236s-50.5 190.833 -50.5 299.5c0 108 16.833 207.5 50.5 298.5s82.167 169.833 145.5 236.5s143.333 118.667 240 156s205.334 56 326.001 56
s229.334 -18.667 326.001 -56s176.667 -89.333 240 -156s111.833 -145.5 145.5 -236.5s50.5 -190.5 50.5 -298.5c0 -108.667 -16.833 -208.5 -50.5 -299.5s-82.167 -169.667 -145.5 -236s-143.333 -118.166 -240 -155.499s-205.334 -56 -326.001 -56zM842 196
c81.333 0 153.333 13 216 39s113.667 62.5 153 109.5s69 101.833 89 164.5s30 132 30 208s-10 145.333 -30 208s-49.667 117.5 -89 164.5s-90.333 83.5 -153 109.5s-134.667 39 -216 39s-153.333 -13 -216 -39s-113.667 -62.5 -153 -109.5s-69 -101.833 -89 -164.5
s-30 -132 -30 -208s10 -145.333 30 -208s49.667 -117.5 89 -164.5s90.333 -83.5 153 -109.5s134.667 -39 216 -39zM722 1846l251 -310h-220l-314 310h283z" />
    <glyph glyph-name="Oacute" unicode="&#xd3;" horiz-adv-x="1684" 
d="M842 -30c-120.667 0 -229.334 18.667 -326.001 56s-176.667 89.166 -240 155.499s-111.833 145 -145.5 236s-50.5 190.833 -50.5 299.5c0 108 16.833 207.5 50.5 298.5s82.167 169.833 145.5 236.5s143.333 118.667 240 156s205.334 56 326.001 56
s229.334 -18.667 326.001 -56s176.667 -89.333 240 -156s111.833 -145.5 145.5 -236.5s50.5 -190.5 50.5 -298.5c0 -108.667 -16.833 -208.5 -50.5 -299.5s-82.167 -169.667 -145.5 -236s-143.333 -118.166 -240 -155.499s-205.334 -56 -326.001 -56zM842 196
c81.333 0 153.333 13 216 39s113.667 62.5 153 109.5s69 101.833 89 164.5s30 132 30 208s-10 145.333 -30 208s-49.667 117.5 -89 164.5s-90.333 83.5 -153 109.5s-134.667 39 -216 39s-153.333 -13 -216 -39s-113.667 -62.5 -153 -109.5s-69 -101.833 -89 -164.5
s-30 -132 -30 -208s10 -145.333 30 -208s49.667 -117.5 89 -164.5s90.333 -83.5 153 -109.5s134.667 -39 216 -39zM738 1536l251 310h283l-314 -310h-220z" />
    <glyph glyph-name="Ocircumflex" unicode="&#xd4;" horiz-adv-x="1684" 
d="M842 -30c-120.667 0 -229.334 18.667 -326.001 56s-176.667 89.166 -240 155.499s-111.833 145 -145.5 236s-50.5 190.833 -50.5 299.5c0 108 16.833 207.5 50.5 298.5s82.167 169.833 145.5 236.5s143.333 118.667 240 156s205.334 56 326.001 56
s229.334 -18.667 326.001 -56s176.667 -89.333 240 -156s111.833 -145.5 145.5 -236.5s50.5 -190.5 50.5 -298.5c0 -108.667 -16.833 -208.5 -50.5 -299.5s-82.167 -169.667 -145.5 -236s-143.333 -118.166 -240 -155.499s-205.334 -56 -326.001 -56zM842 196
c81.333 0 153.333 13 216 39s113.667 62.5 153 109.5s69 101.833 89 164.5s30 132 30 208s-10 145.333 -30 208s-49.667 117.5 -89 164.5s-90.333 83.5 -153 109.5s-134.667 39 -216 39s-153.333 -13 -216 -39s-113.667 -62.5 -153 -109.5s-69 -101.833 -89 -164.5
s-30 -132 -30 -208s10 -145.333 30 -208s49.667 -117.5 89 -164.5s90.333 -83.5 153 -109.5s134.667 -39 216 -39zM924 1827l281 -291h-208l-146 129l-146 -129h-208l281 291h146z" />
    <glyph glyph-name="Otilde" unicode="&#xd5;" horiz-adv-x="1684" 
d="M842 -30c-120.667 0 -229.334 18.667 -326.001 56s-176.667 89.166 -240 155.499s-111.833 145 -145.5 236s-50.5 190.833 -50.5 299.5c0 108 16.833 207.5 50.5 298.5s82.167 169.833 145.5 236.5s143.333 118.667 240 156s205.334 56 326.001 56
s229.334 -18.667 326.001 -56s176.667 -89.333 240 -156s111.833 -145.5 145.5 -236.5s50.5 -190.5 50.5 -298.5c0 -108.667 -16.833 -208.5 -50.5 -299.5s-82.167 -169.667 -145.5 -236s-143.333 -118.166 -240 -155.499s-205.334 -56 -326.001 -56zM842 196
c81.333 0 153.333 13 216 39s113.667 62.5 153 109.5s69 101.833 89 164.5s30 132 30 208s-10 145.333 -30 208s-49.667 117.5 -89 164.5s-90.333 83.5 -153 109.5s-134.667 39 -216 39s-153.333 -13 -216 -39s-113.667 -62.5 -153 -109.5s-69 -101.833 -89 -164.5
s-30 -132 -30 -208s10 -145.333 30 -208s49.667 -117.5 89 -164.5s90.333 -83.5 153 -109.5s134.667 -39 216 -39zM812 1600c-1.33301 1.33301 -5.16602 4.16699 -11.499 8.5l-15 10l-14 8.5c-5.66699 3.33301 -11.167 5.66602 -16.5 6.99902s-10.666 2 -15.999 2
c-23.333 0 -39.666 -13 -48.999 -39c-4 -12 -6 -25 -6 -39h-185c1.33301 47.333 10 88.666 26 123.999c36 83.333 105.667 125 209 125c50 0 101.667 -21.333 155 -64c1.33301 -1.33301 5.16602 -4.16602 11.499 -8.49902l15 -10l14 -8.5
c5.66699 -3.33301 11.167 -5.66602 16.5 -6.99902s10.666 -2 15.999 -2c23.333 0 39.666 13 48.999 39c4 10.667 6 23.667 6 39h185c-1.33301 -48 -10 -89.667 -26 -125c-40 -82.667 -109.667 -124 -209 -124c-50 0 -101.667 21.333 -155 64z" />
    <glyph glyph-name="Odieresis" unicode="&#xd6;" horiz-adv-x="1684" 
d="M842 -30c-120.667 0 -229.334 18.667 -326.001 56s-176.667 89.166 -240 155.499s-111.833 145 -145.5 236s-50.5 190.833 -50.5 299.5c0 108 16.833 207.5 50.5 298.5s82.167 169.833 145.5 236.5s143.333 118.667 240 156s205.334 56 326.001 56
s229.334 -18.667 326.001 -56s176.667 -89.333 240 -156s111.833 -145.5 145.5 -236.5s50.5 -190.5 50.5 -298.5c0 -108.667 -16.833 -208.5 -50.5 -299.5s-82.167 -169.667 -145.5 -236s-143.333 -118.166 -240 -155.499s-205.334 -56 -326.001 -56zM842 196
c81.333 0 153.333 13 216 39s113.667 62.5 153 109.5s69 101.833 89 164.5s30 132 30 208s-10 145.333 -30 208s-49.667 117.5 -89 164.5s-90.333 83.5 -153 109.5s-134.667 39 -216 39s-153.333 -13 -216 -39s-113.667 -62.5 -153 -109.5s-69 -101.833 -89 -164.5
s-30 -132 -30 -208s10 -145.333 30 -208s49.667 -117.5 89 -164.5s90.333 -83.5 153 -109.5s134.667 -39 216 -39zM482 1683c0 40.667 14.333 75.334 43 104.001s63.334 43 104.001 43s75.334 -14.333 104.001 -43s43 -63.334 43 -104.001s-14.333 -75.334 -43 -104.001
s-63.334 -43 -104.001 -43s-75.334 14.333 -104.001 43s-43 63.334 -43 104.001zM926 1683c0 40.667 14.333 75.334 43 104.001s63.334 43 104.001 43s75.334 -14.333 104.001 -43s43 -63.334 43 -104.001s-14.333 -75.334 -43 -104.001s-63.334 -43 -104.001 -43
s-75.334 14.333 -104.001 43s-43 63.334 -43 104.001z" />
    <glyph glyph-name="multiply" unicode="&#xd7;" horiz-adv-x="1089" 
d="M989 380l-161 -161l-284 283l-283 -283l-161 161l283 283l-283 284l161 161l283 -283l284 283l161 -161l-283 -284z" />
    <glyph glyph-name="Oslash" unicode="&#xd8;" horiz-adv-x="1644" 
d="M822 -30c-70.667 0 -140.667 7.99707 -210 23.9971l-26 -55h-287l76 157c-95.333 65.333 -168.333 151.333 -219 258s-76 227.667 -76 363c0 144.667 28.667 272.834 86 384.501s142.5 200 255.5 265s246.5 97.5 400.5 97.5c74 0 142.333 -7.33301 205 -22l26 53h287
l-75 -155c96.667 -65.333 170.667 -151.666 222 -258.999s77 -228.666 77 -363.999c0 -144.667 -28.667 -273 -86 -385s-142.5 -200.333 -255.5 -265s-246.5 -97 -400.5 -97zM822 195.997c100.667 0 186.832 22.833 258.499 68.5s124.5 107 158.5 184s51 166.5 51 268.5
c0 170 -45.667 301 -137 393l-438 -905c32.667 -6 68.334 -9 107.001 -9zM821.998 1238c-100.667 0 -186.833 -22.833 -258.5 -68.5s-124.5 -107 -158.5 -184s-51 -166.5 -51 -268.5c0 -167.333 44.333 -297.333 133 -390l437 902c-38.667 6 -72.667 9 -102 9z" />
    <glyph glyph-name="Ugrave" unicode="&#xd9;" horiz-adv-x="1495" 
d="M747 196c128.667 0 220.499 37.167 275.499 111.5s82.5 182.166 82.5 323.499v803h270v-803c0 -211.333 -51.5 -374.333 -154.5 -489s-260.833 -172 -473.5 -172c-212 0 -369.5 57.333 -472.5 172s-154.5 277.667 -154.5 489v803h270v-803
c0 -141.333 27.333 -249.166 82 -323.499s146.334 -111.5 275.001 -111.5zM634.999 1846l251 -310h-220l-314 310h283z" />
    <glyph glyph-name="Uacute" unicode="&#xda;" horiz-adv-x="1495" 
d="M747 196c128.667 0 220.499 37.167 275.499 111.5s82.5 182.166 82.5 323.499v803h270v-803c0 -211.333 -51.5 -374.333 -154.5 -489s-260.833 -172 -473.5 -172c-212 0 -369.5 57.333 -472.5 172s-154.5 277.667 -154.5 489v803h270v-803
c0 -141.333 27.333 -249.166 82 -323.499s146.334 -111.5 275.001 -111.5zM606.999 1536l251 310h283l-314 -310h-220z" />
    <glyph glyph-name="Ucircumflex" unicode="&#xdb;" horiz-adv-x="1495" 
d="M747 196c128.667 0 220.499 37.167 275.499 111.5s82.5 182.166 82.5 323.499v803h270v-803c0 -211.333 -51.5 -374.333 -154.5 -489s-260.833 -172 -473.5 -172c-212 0 -369.5 57.333 -472.5 172s-154.5 277.667 -154.5 489v803h270v-803
c0 -141.333 27.333 -249.166 82 -323.499s146.334 -111.5 275.001 -111.5zM819.999 1827l281 -291h-208l-146 129l-146 -129h-208l281 291h146z" />
    <glyph glyph-name="Udieresis" unicode="&#xdc;" horiz-adv-x="1495" 
d="M747 196c128.667 0 220.499 37.167 275.499 111.5s82.5 182.166 82.5 323.499v803h270v-803c0 -211.333 -51.5 -374.333 -154.5 -489s-260.833 -172 -473.5 -172c-212 0 -369.5 57.333 -472.5 172s-154.5 277.667 -154.5 489v803h270v-803
c0 -141.333 27.333 -249.166 82 -323.499s146.334 -111.5 275.001 -111.5zM377.999 1683c0 40.667 14.333 75.334 43 104.001s63.334 43 104.001 43s75.334 -14.333 104.001 -43s43 -63.334 43 -104.001s-14.333 -75.334 -43 -104.001s-63.334 -43 -104.001 -43
s-75.334 14.333 -104.001 43s-43 63.334 -43 104.001zM821.999 1683c0 40.667 14.333 75.334 43 104.001s63.334 43 104.001 43s75.334 -14.333 104.001 -43s43 -63.334 43 -104.001s-14.333 -75.334 -43 -104.001s-63.334 -43 -104.001 -43s-75.334 14.333 -104.001 43
s-43 63.334 -43 104.001z" />
    <glyph glyph-name="Yacute" unicode="&#xdd;" horiz-adv-x="1424" 
d="M322 1434l390 -606l390 606h292l-547 -837v-597h-270v598l-547 836h292zM579 1536l251 310h283l-314 -310h-220z" />
    <glyph glyph-name="Thorn" unicode="&#xde;" horiz-adv-x="1133" 
d="M120 0v1434h270v-282h235c86.667 0 163 -20.333 229 -61s115.667 -93.334 149 -158.001s50 -135.667 50 -213c0 -76 -16.667 -146.333 -50 -211s-83 -117.334 -149 -158.001s-142.333 -61 -229 -61h-235v-290h-270zM625 925.002l-235 0.000976562v-409h235
c51.333 0 90.5 19.667 117.5 59s40.5 87.666 40.5 144.999c0 58.667 -13.5 107.5 -40.5 146.5s-66.167 58.5 -117.5 58.5z" />
    <glyph glyph-name="germandbls" unicode="&#xdf;" horiz-adv-x="1298" 
d="M371 861l-0.00292969 -861h-251v861c0 61.333 4 117.833 12 169.5s18.667 96.5 32 134.5s30 72.333 50 103s40.667 56.167 62 76.5s45.5 38.166 72.5 53.499s52.333 27 76 35s49.834 14.5 78.501 19.5s53.667 8.16699 75 9.5s44.333 2 69 2
c158.667 0 285.334 -38.167 380.001 -114.5s142 -175.833 142 -298.5c0 -72.667 -20 -138.167 -60 -196.5s-89.333 -96.833 -148 -115.5c76 -27.333 137.833 -70.666 185.5 -129.999s71.5 -132.666 71.5 -219.999c0 -125.333 -41.667 -224.166 -125 -296.499
s-204.333 -108.5 -363 -108.5c-102 0 -185.667 16 -251 48v207c76 -30.667 159.667 -46 251 -46c78.667 0 137.834 18.333 177.501 55s59.5 83.667 59.5 141c0 36.667 -5 69.334 -15 98.001s-23.167 52.167 -39.5 70.5s-36 33.5 -59 45.5s-46.5 20.5 -70.5 25.5
s-49.333 7.5 -76 7.5h-165v209h161c69.333 1.33301 122.5 20.166 159.5 56.499s55.5 86.166 55.5 149.499c0 65.333 -22.667 115.666 -68 150.999s-113 53 -203 53c-41.333 0 -77.5 -5.66699 -108.5 -17s-59.667 -30.833 -86 -58.5s-46.5 -68.167 -60.5 -121.5
s-21 -119 -21 -197z" />
    <glyph glyph-name="agrave" unicode="&#xe0;" horiz-adv-x="1177" 
d="M603 833c-122.667 0 -235.668 -24.0039 -339.001 -72.0039l-95 179c116.667 68 261.334 102 434.001 102c90 0 164.333 -8.5 223 -25.5s105 -45.167 139 -84.5s57.833 -86.666 71.5 -141.999s20.5 -125.333 20.5 -210v-580h-251l-1 161
c-52.667 -120.667 -163 -181 -331 -181c-76.667 0 -143.667 11.167 -201 33.5s-103.833 59.333 -139.5 111s-53.5 115.834 -53.5 192.501c0 50.667 9.5 96.334 28.5 137.001s45.5 74.334 79.5 101.001s74 49.5 120 68.5s95.833 32 149.5 39s110.167 11.333 169.5 13
s119 -1.5 179 -9.5c0 64 -14.333 107.833 -43 131.5s-82 35.5 -160 35.5zM331.999 326.996c0 -92 60.668 -137.998 182.001 -137.998c87.333 0 158.166 21 212.499 63s80.833 91.333 79.5 148v104c-28.667 0 -62.5 1 -101.5 3s-80.333 -0.166992 -124 -6.5
s-84 -14.833 -121 -25.5s-67.5 -28.834 -91.5 -54.501s-36 -56.834 -36 -93.501zM471 1434l251 -310h-220l-314 310h283z" />
    <glyph glyph-name="aacute" unicode="&#xe1;" horiz-adv-x="1177" 
d="M603 833c-122.667 0 -235.668 -24.0039 -339.001 -72.0039l-95 179c116.667 68 261.334 102 434.001 102c90 0 164.333 -8.5 223 -25.5s105 -45.167 139 -84.5s57.833 -86.666 71.5 -141.999s20.5 -125.333 20.5 -210v-580h-251l-1 161
c-52.667 -120.667 -163 -181 -331 -181c-76.667 0 -143.667 11.167 -201 33.5s-103.833 59.333 -139.5 111s-53.5 115.834 -53.5 192.501c0 50.667 9.5 96.334 28.5 137.001s45.5 74.334 79.5 101.001s74 49.5 120 68.5s95.833 32 149.5 39s110.167 11.333 169.5 13
s119 -1.5 179 -9.5c0 64 -14.333 107.833 -43 131.5s-82 35.5 -160 35.5zM331.999 326.996c0 -92 60.668 -137.998 182.001 -137.998c87.333 0 158.166 21 212.499 63s80.833 91.333 79.5 148v104c-28.667 0 -62.5 1 -101.5 3s-80.333 -0.166992 -124 -6.5
s-84 -14.833 -121 -25.5s-67.5 -28.834 -91.5 -54.501s-36 -56.834 -36 -93.501zM465 1124l251 310h283l-314 -310h-220z" />
    <glyph glyph-name="acircumflex" unicode="&#xe2;" horiz-adv-x="1177" 
d="M603 833c-122.667 0 -235.668 -24.0039 -339.001 -72.0039l-95 179c116.667 68 261.334 102 434.001 102c90 0 164.333 -8.5 223 -25.5s105 -45.167 139 -84.5s57.833 -86.666 71.5 -141.999s20.5 -125.333 20.5 -210v-580h-251l-1 161
c-52.667 -120.667 -163 -181 -331 -181c-76.667 0 -143.667 11.167 -201 33.5s-103.833 59.333 -139.5 111s-53.5 115.834 -53.5 192.501c0 50.667 9.5 96.334 28.5 137.001s45.5 74.334 79.5 101.001s74 49.5 120 68.5s95.833 32 149.5 39s110.167 11.333 169.5 13
s119 -1.5 179 -9.5c0 64 -14.333 107.833 -43 131.5s-82 35.5 -160 35.5zM331.999 326.996c0 -92 60.668 -137.998 182.001 -137.998c87.333 0 158.166 21 212.499 63s80.833 91.333 79.5 148v104c-28.667 0 -62.5 1 -101.5 3s-80.333 -0.166992 -124 -6.5
s-84 -14.833 -121 -25.5s-67.5 -28.834 -91.5 -54.501s-36 -56.834 -36 -93.501zM687 1434l281 -291h-208l-146 129l-146 -129h-208l281 291h146z" />
    <glyph glyph-name="atilde" unicode="&#xe3;" horiz-adv-x="1177" 
d="M603 833c-122.667 0 -235.668 -24.0039 -339.001 -72.0039l-95 179c116.667 68 261.334 102 434.001 102c90 0 164.333 -8.5 223 -25.5s105 -45.167 139 -84.5s57.833 -86.666 71.5 -141.999s20.5 -125.333 20.5 -210v-580h-251l-1 161
c-52.667 -120.667 -163 -181 -331 -181c-76.667 0 -143.667 11.167 -201 33.5s-103.833 59.333 -139.5 111s-53.5 115.834 -53.5 192.501c0 50.667 9.5 96.334 28.5 137.001s45.5 74.334 79.5 101.001s74 49.5 120 68.5s95.833 32 149.5 39s110.167 11.333 169.5 13
s119 -1.5 179 -9.5c0 64 -14.333 107.833 -43 131.5s-82 35.5 -160 35.5zM331.999 326.996c0 -92 60.668 -137.998 182.001 -137.998c87.333 0 158.166 21 212.499 63s80.833 91.333 79.5 148v104c-28.667 0 -62.5 1 -101.5 3s-80.333 -0.166992 -124 -6.5
s-84 -14.833 -121 -25.5s-67.5 -28.834 -91.5 -54.501s-36 -56.834 -36 -93.501zM583 1247c-1.33301 1.33301 -5.16602 4.16699 -11.499 8.5l-15 10l-14 8.5c-5.66699 3.33301 -11.167 5.66602 -16.5 6.99902s-10.666 2 -15.999 2c-23.333 0 -39.666 -13 -48.999 -39
c-4 -12 -6 -25 -6 -39h-185c1.33301 47.333 10 88.666 26 123.999c36 83.333 105.667 125 209 125c50 0 101.667 -21.333 155 -64c1.33301 -1.33301 5.16602 -4.16602 11.499 -8.49902l15 -10l14 -8.5c5.66699 -3.33301 11.167 -5.66602 16.5 -6.99902s10.666 -2 15.999 -2
c23.333 0 39.666 13 48.999 39c4 11.333 6 24.333 6 39h185c-1.33301 -48 -10 -89.667 -26 -125c-40 -82.667 -109.667 -124 -209 -124c-50 0 -101.667 21.333 -155 64z" />
    <glyph glyph-name="adieresis" unicode="&#xe4;" horiz-adv-x="1177" 
d="M603 833c-122.667 0 -235.668 -24.0039 -339.001 -72.0039l-95 179c116.667 68 261.334 102 434.001 102c90 0 164.333 -8.5 223 -25.5s105 -45.167 139 -84.5s57.833 -86.666 71.5 -141.999s20.5 -125.333 20.5 -210v-580h-251l-1 161
c-52.667 -120.667 -163 -181 -331 -181c-76.667 0 -143.667 11.167 -201 33.5s-103.833 59.333 -139.5 111s-53.5 115.834 -53.5 192.501c0 50.667 9.5 96.334 28.5 137.001s45.5 74.334 79.5 101.001s74 49.5 120 68.5s95.833 32 149.5 39s110.167 11.333 169.5 13
s119 -1.5 179 -9.5c0 64 -14.333 107.833 -43 131.5s-82 35.5 -160 35.5zM331.999 326.996c0 -92 60.668 -137.998 182.001 -137.998c87.333 0 158.166 21 212.499 63s80.833 91.333 79.5 148v104c-28.667 0 -62.5 1 -101.5 3s-80.333 -0.166992 -124 -6.5
s-84 -14.833 -121 -25.5s-67.5 -28.834 -91.5 -54.501s-36 -56.834 -36 -93.501zM244 1327c0 40.667 14.333 75.334 43 104.001s63.334 43 104.001 43s75.334 -14.333 104.001 -43s43 -63.334 43 -104.001s-14.333 -75.334 -43 -104.001s-63.334 -43 -104.001 -43
s-75.334 14.333 -104.001 43s-43 63.334 -43 104.001zM688 1327c0 40.667 14.333 75.334 43 104.001s63.334 43 104.001 43s75.334 -14.333 104.001 -43s43 -63.334 43 -104.001s-14.333 -75.334 -43 -104.001s-63.334 -43 -104.001 -43s-75.334 14.333 -104.001 43
s-43 63.334 -43 104.001z" />
    <glyph glyph-name="aring" unicode="&#xe5;" horiz-adv-x="1177" 
d="M603 833c-122.667 0 -235.668 -24.0039 -339.001 -72.0039l-95 179c116.667 68 261.334 102 434.001 102c90 0 164.333 -8.5 223 -25.5s105 -45.167 139 -84.5s57.833 -86.666 71.5 -141.999s20.5 -125.333 20.5 -210v-580h-251l-1 161
c-52.667 -120.667 -163 -181 -331 -181c-76.667 0 -143.667 11.167 -201 33.5s-103.833 59.333 -139.5 111s-53.5 115.834 -53.5 192.501c0 50.667 9.5 96.334 28.5 137.001s45.5 74.334 79.5 101.001s74 49.5 120 68.5s95.833 32 149.5 39s110.167 11.333 169.5 13
s119 -1.5 179 -9.5c0 64 -14.333 107.833 -43 131.5s-82 35.5 -160 35.5zM331.999 326.996c0 -92 60.668 -137.998 182.001 -137.998c87.333 0 158.166 21 212.499 63s80.833 91.333 79.5 148v104c-28.667 0 -62.5 1 -101.5 3s-80.333 -0.166992 -124 -6.5
s-84 -14.833 -121 -25.5s-67.5 -28.834 -91.5 -54.501s-36 -56.834 -36 -93.501zM375 1390c0 62.667 22.167 116.167 66.5 160.5s97.833 66.5 160.5 66.5s116.167 -22.167 160.5 -66.5s66.5 -97.833 66.5 -160.5s-22.167 -116.167 -66.5 -160.5s-97.833 -66.5 -160.5 -66.5
s-116.167 22.167 -160.5 66.5s-66.5 97.833 -66.5 160.5zM524 1390c0 -21.333 7.66699 -39.666 23 -54.999s33.666 -23 54.999 -23s39.666 7.66699 54.999 23s23 33.666 23 54.999s-7.66699 39.666 -23 54.999s-33.666 23 -54.999 23s-39.666 -7.66699 -54.999 -23
s-23 -33.666 -23 -54.999z" />
    <glyph glyph-name="ae" unicode="&#xe6;" horiz-adv-x="1968" 
d="M603 833c-122.667 0 -235.666 -24.002 -338.999 -72.002l-95 179c116.667 68 261.334 102 434.001 102c95.333 0 172.833 -9.83301 232.5 -29.5s106.5 -50.5 140.5 -92.5c95.333 81.333 218.666 122 369.999 122c178.667 0 315.667 -54.333 411 -163
s138.333 -264 129 -466h-809c0 -16 2.66699 -33.167 8 -51.5s14.666 -37.833 27.999 -58.5s29.833 -39.334 49.5 -56.001s45.5 -30.5 77.5 -41.5s67.333 -16.5 106 -16.5c126.667 0 232.667 35.667 318 107l152 -151c-112 -110 -268.667 -165 -470 -165
c-176 0 -313 53.667 -411 161c-64 -60.667 -134 -102.667 -210 -126s-159.667 -35 -251 -35c-76.667 0 -143.667 11.167 -201 33.5s-103.833 59.333 -139.5 111s-53.5 115.834 -53.5 192.501c0 50.667 9.5 96.334 28.5 137.001s45.5 74.334 79.5 101.001s74 49.5 120 68.5
s95.833 32 149.5 39s110.167 11.333 169.5 13s119 -1.5 179 -9.5c0 64 -14.333 107.833 -43 131.5s-82 35.5 -160 35.5zM332.001 326.998c0 -92 60.668 -137.998 182.001 -137.998c87.333 0 158.166 21 212.499 63s80.833 91.333 79.5 148v104c-28.667 0 -62.5 1 -101.5 3
s-80.333 -0.166992 -124 -6.5s-84 -14.833 -121 -25.5s-67.5 -28.834 -91.5 -54.501s-36 -56.834 -36 -93.501zM1077 610h538c0 20.667 -4.66699 42.834 -14 66.501s-23.5 47.667 -42.5 72s-47 44.5 -84 60.5s-79.833 24 -128.5 24s-91.5 -8 -128.5 -24
s-65 -36.167 -84 -60.5s-33.167 -48.333 -42.5 -72s-14 -45.834 -14 -66.501z" />
    <glyph glyph-name="ccedilla" unicode="&#xe7;" horiz-adv-x="1132" 
d="M401 -459l45.998 117.001c21.333 -7.33301 44.5 -13.666 69.5 -18.999s52.667 -8.83301 83 -10.5s56.166 3.66602 77.499 15.999s33.333 32.166 36 59.499c2.66699 20.667 -2.16602 36.834 -14.499 48.501s-31.5 18.5 -57.5 20.5s-52.333 1.83301 -79 -0.5
s-59 -6.5 -97 -12.5l73 229c-140 21.333 -251.333 79.833 -334 175.5s-124 211.167 -124 346.5c0 74.667 13.5 144.5 40.5 209.5s64.833 121.333 113.5 169s108.834 85 180.501 112s150.167 40.5 235.5 40.5c182.667 0 323.334 -49 422.001 -147l-130 -159
c-81.333 64.667 -178.666 97 -291.999 97c-52.667 0 -99.5 -8.83301 -140.5 -26.5s-73.833 -41.667 -98.5 -72s-43.167 -64.333 -55.5 -102s-18.5 -78.167 -18.5 -121.5s6.16699 -83.833 18.5 -121.5s30.833 -71.667 55.5 -102s57.5 -54.333 98.5 -72
s87.833 -26.5 140.5 -26.5c113.333 0 211.333 33 294 99l128 -161c-92.667 -92 -220.667 -140.667 -384 -146l-31 -93c63.333 0 115.5 -15.5 156.5 -46.5s58.5 -79.167 52.5 -144.5c-4.66699 -52 -22.834 -94 -54.501 -126s-70.5 -52.333 -116.5 -61
s-94.5 -10.334 -145.5 -5.00098s-100.5 17.333 -148.5 36z" />
    <glyph glyph-name="egrave" unicode="&#xe8;" horiz-adv-x="1242" 
d="M620 189c126.667 0 232.669 35.667 318.002 107l152 -151c-112 -110 -268.667 -165 -470 -165c-170.667 0 -303.334 49.333 -398.001 148s-142 226.334 -142 383.001c0 102 20.167 192.5 60.5 271.5s101.833 142 184.5 189s181 70.5 295 70.5
c178.667 0 315.667 -54.333 411 -163s138.333 -264 129 -466h-809c0 -16 2.66699 -33.167 8 -51.5s14.666 -37.833 27.999 -58.5s29.833 -39.334 49.5 -56.001s45.5 -30.5 77.5 -41.5s67.333 -16.5 106 -16.5zM351.002 610h538c0 20.667 -4.66699 42.834 -14 66.501
s-23.5 47.667 -42.5 72s-47 44.5 -84 60.5s-79.833 24 -128.5 24s-91.5 -8 -128.5 -24s-65 -36.167 -84 -60.5s-33.167 -48.333 -42.5 -72s-14 -45.834 -14 -66.501zM498.002 1434l251 -310h-220l-314 310h283z" />
    <glyph glyph-name="eacute" unicode="&#xe9;" horiz-adv-x="1242" 
d="M620 189c126.667 0 232.669 35.667 318.002 107l152 -151c-112 -110 -268.667 -165 -470 -165c-170.667 0 -303.334 49.333 -398.001 148s-142 226.334 -142 383.001c0 102 20.167 192.5 60.5 271.5s101.833 142 184.5 189s181 70.5 295 70.5
c178.667 0 315.667 -54.333 411 -163s138.333 -264 129 -466h-809c0 -16 2.66699 -33.167 8 -51.5s14.666 -37.833 27.999 -58.5s29.833 -39.334 49.5 -56.001s45.5 -30.5 77.5 -41.5s67.333 -16.5 106 -16.5zM351.002 610h538c0 20.667 -4.66699 42.834 -14 66.501
s-23.5 47.667 -42.5 72s-47 44.5 -84 60.5s-79.833 24 -128.5 24s-91.5 -8 -128.5 -24s-65 -36.167 -84 -60.5s-33.167 -48.333 -42.5 -72s-14 -45.834 -14 -66.501zM500.002 1124l251 310h283l-314 -310h-220z" />
    <glyph glyph-name="ecircumflex" unicode="&#xea;" horiz-adv-x="1242" 
d="M620 189c126.667 0 232.669 35.667 318.002 107l152 -151c-112 -110 -268.667 -165 -470 -165c-170.667 0 -303.334 49.333 -398.001 148s-142 226.334 -142 383.001c0 102 20.167 192.5 60.5 271.5s101.833 142 184.5 189s181 70.5 295 70.5
c178.667 0 315.667 -54.333 411 -163s138.333 -264 129 -466h-809c0 -16 2.66699 -33.167 8 -51.5s14.666 -37.833 27.999 -58.5s29.833 -39.334 49.5 -56.001s45.5 -30.5 77.5 -41.5s67.333 -16.5 106 -16.5zM351.002 610h538c0 20.667 -4.66699 42.834 -14 66.501
s-23.5 47.667 -42.5 72s-47 44.5 -84 60.5s-79.833 24 -128.5 24s-91.5 -8 -128.5 -24s-65 -36.167 -84 -60.5s-33.167 -48.333 -42.5 -72s-14 -45.834 -14 -66.501zM693.002 1434l281 -291h-208l-146 129l-146 -129h-208l281 291h146z" />
    <glyph glyph-name="edieresis" unicode="&#xeb;" horiz-adv-x="1242" 
d="M620 189c126.667 0 232.669 35.667 318.002 107l152 -151c-112 -110 -268.667 -165 -470 -165c-170.667 0 -303.334 49.333 -398.001 148s-142 226.334 -142 383.001c0 102 20.167 192.5 60.5 271.5s101.833 142 184.5 189s181 70.5 295 70.5
c178.667 0 315.667 -54.333 411 -163s138.333 -264 129 -466h-809c0 -16 2.66699 -33.167 8 -51.5s14.666 -37.833 27.999 -58.5s29.833 -39.334 49.5 -56.001s45.5 -30.5 77.5 -41.5s67.333 -16.5 106 -16.5zM351.002 610h538c0 20.667 -4.66699 42.834 -14 66.501
s-23.5 47.667 -42.5 72s-47 44.5 -84 60.5s-79.833 24 -128.5 24s-91.5 -8 -128.5 -24s-65 -36.167 -84 -60.5s-33.167 -48.333 -42.5 -72s-14 -45.834 -14 -66.501zM251.002 1327c0 40.667 14.333 75.334 43 104.001s63.334 43 104.001 43s75.334 -14.333 104.001 -43
s43 -63.334 43 -104.001s-14.333 -75.334 -43 -104.001s-63.334 -43 -104.001 -43s-75.334 14.333 -104.001 43s-43 63.334 -43 104.001zM695.002 1327c0 40.667 14.333 75.334 43 104.001s63.334 43 104.001 43s75.334 -14.333 104.001 -43s43 -63.334 43 -104.001
s-14.333 -75.334 -43 -104.001s-63.334 -43 -104.001 -43s-75.334 14.333 -104.001 43s-43 63.334 -43 104.001z" />
    <glyph glyph-name="igrave" unicode="&#xec;" horiz-adv-x="608" 
d="M237 0v1022h251v-1022h-251zM223 1434l251 -310h-220l-314 310h283z" />
    <glyph glyph-name="iacute" unicode="&#xed;" horiz-adv-x="698" 
d="M120 0v1022h251v-1022h-251zM134 1124l251 310h283l-314 -310h-220z" />
    <glyph glyph-name="icircumflex" unicode="&#xee;" horiz-adv-x="648" 
d="M200 0v1022h251v-1022h-251zM397 1434l281 -291h-208l-146 129l-146 -129h-208l281 291h146z" />
    <glyph glyph-name="idieresis" unicode="&#xef;" horiz-adv-x="738" 
d="M244 0v1022h251v-1022h-251zM0 1327c0 40.667 14.333 75.334 43 104.001s63.334 43 104.001 43s75.334 -14.333 104.001 -43s43 -63.334 43 -104.001s-14.333 -75.334 -43 -104.001s-63.334 -43 -104.001 -43s-75.334 14.333 -104.001 43s-43 63.334 -43 104.001z
M444 1327c0 40.667 14.333 75.334 43 104.001s63.334 43 104.001 43s75.334 -14.333 104.001 -43s43 -63.334 43 -104.001s-14.333 -75.334 -43 -104.001s-63.334 -43 -104.001 -43s-75.334 14.333 -104.001 43s-43 63.334 -43 104.001z" />
    <glyph glyph-name="eth" unicode="&#xf0;" horiz-adv-x="1282" 
d="M621 1086l-125 156.001l96 78c-62 30 -131 55.667 -207 77l73 195c39.333 -8.66699 88.833 -23.834 148.5 -45.501s115.167 -48.834 166.5 -81.501l148 119l126 -156l-114 -91c166 -173.333 249 -397 249 -671c0 -223.333 -48.5 -393.5 -145.5 -510.5
s-238.5 -175.5 -424.5 -175.5c-84.667 0 -160.834 13.5 -228.501 40.5s-123.5 64.333 -167.5 112s-77.667 103.667 -101 168s-35 134.5 -35 210.5c0 100.667 19.5 190.834 58.5 270.501s97 143 174 190s166.833 70.5 269.5 70.5c80.667 0 152.5 -18.167 215.5 -54.5
s110.833 -85.166 143.5 -146.499c-17.333 147.333 -74.666 268.666 -171.999 363.999zM632 190.001c51.333 0 96.666 8.66699 135.999 26s70.5 41.166 93.5 71.499s40.333 64.333 52 102s17.5 78.167 17.5 121.5s-5.83301 83.833 -17.5 121.5s-29 71.667 -52 102
s-54.167 54.166 -93.5 71.499s-84.666 26 -135.999 26c-50.667 0 -95.334 -8.66699 -134.001 -26s-69.5 -41.166 -92.5 -71.499s-40.167 -64.333 -51.5 -102s-17 -78.167 -17 -121.5s5.66699 -83.833 17 -121.5s28.5 -71.667 51.5 -102s53.833 -54.166 92.5 -71.499
s83.334 -26 134.001 -26z" />
    <glyph glyph-name="ntilde" unicode="&#xf1;" 
d="M371 547l-0.000976562 -547h-251v1022h251v-156c20 58.667 57.833 102.667 113.5 132s113.834 44 174.501 44c143.333 0 255.5 -42.5 336.5 -127.5s121.5 -207.5 121.5 -367.5v-547h-251v547c0 90 -21 160.167 -63 210.5s-103.333 75.5 -184 75.5
c-81.333 0 -143 -25.167 -185 -75.5s-63 -120.5 -63 -210.5zM579.999 1247c-1.33301 1.33301 -5.16602 4.16699 -11.499 8.5l-15 10l-14 8.5c-5.66699 3.33301 -11.167 5.66602 -16.5 6.99902s-10.666 2 -15.999 2c-23.333 0 -39.666 -13 -48.999 -39c-4 -12 -6 -25 -6 -39
h-185c1.33301 47.333 10 88.666 26 123.999c36 83.333 105.667 125 209 125c50 0 101.667 -21.333 155 -64c1.33301 -1.33301 5.16602 -4.16602 11.499 -8.49902l15 -10l14 -8.5c5.66699 -3.33301 11.167 -5.66602 16.5 -6.99902s10.666 -2 15.999 -2
c23.333 0 39.666 13 48.999 39c4 11.333 6 24.333 6 39h185c-1.33301 -48 -10 -89.667 -26 -125c-40 -82.667 -109.667 -124 -209 -124c-50 0 -101.667 21.333 -155 64z" />
    <glyph glyph-name="ograve" unicode="&#xf2;" horiz-adv-x="1300" 
d="M1220 511c0 -154 -52.1689 -280.999 -156.502 -380.999s-242.166 -150 -413.499 -150s-309.166 50.167 -413.499 150.5s-156.5 227.166 -156.5 380.499c0 74.667 13.5 144.5 40.5 209.5s64.833 121.333 113.5 169s108.834 85 180.501 112s150.167 40.5 235.5 40.5
c171.333 0 309.166 -50 413.499 -150s156.5 -227 156.5 -381zM962.998 511.001c0 43.333 -6.16699 83.833 -18.5 121.5s-30.833 71.667 -55.5 102s-57.5 54.333 -98.5 72s-87.833 26.5 -140.5 26.5s-99.5 -8.83301 -140.5 -26.5s-73.833 -41.667 -98.5 -72
s-43.167 -64.333 -55.5 -102s-18.5 -78.167 -18.5 -121.5s6.16699 -83.833 18.5 -121.5s30.833 -71.667 55.5 -102s57.5 -54.333 98.5 -72s87.833 -26.5 140.5 -26.5s99.5 8.83301 140.5 26.5s73.833 41.667 98.5 72s43.167 64.333 55.5 102s18.5 78.167 18.5 121.5z
M506.998 1434l251 -310h-220l-314 310h283z" />
    <glyph glyph-name="oacute" unicode="&#xf3;" horiz-adv-x="1300" 
d="M1220 511c0 -154 -52.1689 -280.999 -156.502 -380.999s-242.166 -150 -413.499 -150s-309.166 50.167 -413.499 150.5s-156.5 227.166 -156.5 380.499c0 74.667 13.5 144.5 40.5 209.5s64.833 121.333 113.5 169s108.834 85 180.501 112s150.167 40.5 235.5 40.5
c171.333 0 309.166 -50 413.499 -150s156.5 -227 156.5 -381zM962.998 511.001c0 43.333 -6.16699 83.833 -18.5 121.5s-30.833 71.667 -55.5 102s-57.5 54.333 -98.5 72s-87.833 26.5 -140.5 26.5s-99.5 -8.83301 -140.5 -26.5s-73.833 -41.667 -98.5 -72
s-43.167 -64.333 -55.5 -102s-18.5 -78.167 -18.5 -121.5s6.16699 -83.833 18.5 -121.5s30.833 -71.667 55.5 -102s57.5 -54.333 98.5 -72s87.833 -26.5 140.5 -26.5s99.5 8.83301 140.5 26.5s73.833 41.667 98.5 72s43.167 64.333 55.5 102s18.5 78.167 18.5 121.5z
M534.998 1124l251 310h283l-314 -310h-220z" />
    <glyph glyph-name="ocircumflex" unicode="&#xf4;" horiz-adv-x="1300" 
d="M1220 511c0 -154 -52.1689 -280.999 -156.502 -380.999s-242.166 -150 -413.499 -150s-309.166 50.167 -413.499 150.5s-156.5 227.166 -156.5 380.499c0 74.667 13.5 144.5 40.5 209.5s64.833 121.333 113.5 169s108.834 85 180.501 112s150.167 40.5 235.5 40.5
c171.333 0 309.166 -50 413.499 -150s156.5 -227 156.5 -381zM962.998 511.001c0 43.333 -6.16699 83.833 -18.5 121.5s-30.833 71.667 -55.5 102s-57.5 54.333 -98.5 72s-87.833 26.5 -140.5 26.5s-99.5 -8.83301 -140.5 -26.5s-73.833 -41.667 -98.5 -72
s-43.167 -64.333 -55.5 -102s-18.5 -78.167 -18.5 -121.5s6.16699 -83.833 18.5 -121.5s30.833 -71.667 55.5 -102s57.5 -54.333 98.5 -72s87.833 -26.5 140.5 -26.5s99.5 8.83301 140.5 26.5s73.833 41.667 98.5 72s43.167 64.333 55.5 102s18.5 78.167 18.5 121.5z
M722.998 1434l281 -291h-208l-146 129l-146 -129h-208l281 291h146z" />
    <glyph glyph-name="otilde" unicode="&#xf5;" horiz-adv-x="1300" 
d="M1220 511c0 -154 -52.1689 -280.999 -156.502 -380.999s-242.166 -150 -413.499 -150s-309.166 50.167 -413.499 150.5s-156.5 227.166 -156.5 380.499c0 74.667 13.5 144.5 40.5 209.5s64.833 121.333 113.5 169s108.834 85 180.501 112s150.167 40.5 235.5 40.5
c171.333 0 309.166 -50 413.499 -150s156.5 -227 156.5 -381zM962.998 511.001c0 43.333 -6.16699 83.833 -18.5 121.5s-30.833 71.667 -55.5 102s-57.5 54.333 -98.5 72s-87.833 26.5 -140.5 26.5s-99.5 -8.83301 -140.5 -26.5s-73.833 -41.667 -98.5 -72
s-43.167 -64.333 -55.5 -102s-18.5 -78.167 -18.5 -121.5s6.16699 -83.833 18.5 -121.5s30.833 -71.667 55.5 -102s57.5 -54.333 98.5 -72s87.833 -26.5 140.5 -26.5s99.5 8.83301 140.5 26.5s73.833 41.667 98.5 72s43.167 64.333 55.5 102s18.5 78.167 18.5 121.5z
M611.998 1247c-1.33301 1.33301 -5.16602 4.16699 -11.499 8.5l-15 10l-14 8.5c-5.66699 3.33301 -11.167 5.66602 -16.5 6.99902s-10.666 2 -15.999 2c-23.333 0 -39.666 -13 -48.999 -39c-4 -12 -6 -25 -6 -39h-185c1.33301 47.333 10 88.666 26 123.999
c36 83.333 105.667 125 209 125c50 0 101.667 -21.333 155 -64c1.33301 -1.33301 5.16602 -4.16602 11.499 -8.49902l15 -10l14 -8.5c5.66699 -3.33301 11.167 -5.66602 16.5 -6.99902s10.666 -2 15.999 -2c23.333 0 39.666 13 48.999 39c4 11.333 6 24.333 6 39h185
c-1.33301 -48 -10 -89.667 -26 -125c-40 -82.667 -109.667 -124 -209 -124c-50 0 -101.667 21.333 -155 64z" />
    <glyph glyph-name="odieresis" unicode="&#xf6;" horiz-adv-x="1300" 
d="M1220 511c0 -154 -52.1689 -280.999 -156.502 -380.999s-242.166 -150 -413.499 -150s-309.166 50.167 -413.499 150.5s-156.5 227.166 -156.5 380.499c0 74.667 13.5 144.5 40.5 209.5s64.833 121.333 113.5 169s108.834 85 180.501 112s150.167 40.5 235.5 40.5
c171.333 0 309.166 -50 413.499 -150s156.5 -227 156.5 -381zM962.998 511.001c0 43.333 -6.16699 83.833 -18.5 121.5s-30.833 71.667 -55.5 102s-57.5 54.333 -98.5 72s-87.833 26.5 -140.5 26.5s-99.5 -8.83301 -140.5 -26.5s-73.833 -41.667 -98.5 -72
s-43.167 -64.333 -55.5 -102s-18.5 -78.167 -18.5 -121.5s6.16699 -83.833 18.5 -121.5s30.833 -71.667 55.5 -102s57.5 -54.333 98.5 -72s87.833 -26.5 140.5 -26.5s99.5 8.83301 140.5 26.5s73.833 41.667 98.5 72s43.167 64.333 55.5 102s18.5 78.167 18.5 121.5z
M280.998 1327c0 40.667 14.333 75.334 43 104.001s63.334 43 104.001 43s75.334 -14.333 104.001 -43s43 -63.334 43 -104.001s-14.333 -75.334 -43 -104.001s-63.334 -43 -104.001 -43s-75.334 14.333 -104.001 43s-43 63.334 -43 104.001zM724.998 1327
c0 40.667 14.333 75.334 43 104.001s63.334 43 104.001 43s75.334 -14.333 104.001 -43s43 -63.334 43 -104.001s-14.333 -75.334 -43 -104.001s-63.334 -43 -104.001 -43s-75.334 14.333 -104.001 43s-43 63.334 -43 104.001z" />
    <glyph glyph-name="divide" unicode="&#xf7;" horiz-adv-x="1039" 
d="M100 565v229h839v-229h-839zM371 1022c0 41.333 14.333 76.5 43 105.5s63.667 43.5 105 43.5c40.667 0 75.667 -14.5 105 -43.5s44 -64.167 44 -105.5s-14.5 -76.333 -43.5 -105s-64.167 -43 -105.5 -43s-76.333 14.333 -105 43s-43 63.667 -43 105zM371 336
c0 41.333 14.333 76.5 43 105.5s63.667 43.5 105 43.5c40.667 0 75.667 -14.5 105 -43.5s44 -64.167 44 -105.5s-14.5 -76.333 -43.5 -105s-64.167 -43 -105.5 -43s-76.333 14.333 -105 43s-43 63.667 -43 105z" />
    <glyph glyph-name="oslash" unicode="&#xf8;" horiz-adv-x="1300" 
d="M1220 511c0 -154 -52.1699 -281 -156.503 -381s-242.166 -150 -413.499 -150c-41.333 0 -80.666 3.33301 -117.999 10l-24 -51h-271l67 138c-72 48 -127.333 109.333 -166 184s-58 158 -58 250c0 74.667 13.5 144.5 40.5 209.5s64.833 121.333 113.5 169
s108.834 85 180.501 112s150.167 40.5 235.5 40.5c42.667 0 81.667 -3.33301 117 -10l25 51h272l-67 -138c71.333 -48.667 126.333 -110.167 165 -184.5s58 -157.5 58 -249.5zM336.997 511c0 -88.667 23.668 -162 71.001 -220l262 541
c-4.66699 0.666992 -11.334 1 -20.001 1c-52.667 0 -99.5 -8.83301 -140.5 -26.5s-73.833 -41.667 -98.5 -72s-43.167 -64.333 -55.5 -102s-18.5 -78.167 -18.5 -121.5zM962.998 511c0 86.667 -23.667 159.667 -71 219l-262 -541h20c52.667 0 99.5 8.83301 140.5 26.5
s73.833 41.667 98.5 72s43.167 64.333 55.5 102s18.5 78.167 18.5 121.5z" />
    <glyph glyph-name="ugrave" unicode="&#xf9;" 
d="M866 475l0.000976562 547h251v-1022h-251v156c-14 -40.667 -37.5 -74.667 -70.5 -102s-67.833 -46.5 -104.5 -57.5s-74.334 -16.5 -113.001 -16.5c-143.333 0 -255.5 42.5 -336.5 127.5s-121.5 207.5 -121.5 367.5v547h251v-547c0 -90 21 -160.167 63 -210.5
s103.333 -75.5 184 -75.5c81.333 0 143 25.167 185 75.5s63 120.5 63 210.5zM485.001 1434l251 -310h-220l-314 310h283z" />
    <glyph glyph-name="uacute" unicode="&#xfa;" 
d="M866 475l0.000976562 547h251v-1022h-251v156c-14 -40.667 -37.5 -74.667 -70.5 -102s-67.833 -46.5 -104.5 -57.5s-74.334 -16.5 -113.001 -16.5c-143.333 0 -255.5 42.5 -336.5 127.5s-121.5 207.5 -121.5 367.5v547h251v-547c0 -90 21 -160.167 63 -210.5
s103.333 -75.5 184 -75.5c81.333 0 143 25.167 185 75.5s63 120.5 63 210.5zM491.001 1124l251 310h283l-314 -310h-220z" />
    <glyph glyph-name="ucircumflex" unicode="&#xfb;" 
d="M866 475l0.000976562 547h251v-1022h-251v156c-14 -40.667 -37.5 -74.667 -70.5 -102s-67.833 -46.5 -104.5 -57.5s-74.334 -16.5 -113.001 -16.5c-143.333 0 -255.5 42.5 -336.5 127.5s-121.5 207.5 -121.5 367.5v547h251v-547c0 -90 21 -160.167 63 -210.5
s103.333 -75.5 184 -75.5c81.333 0 143 25.167 185 75.5s63 120.5 63 210.5zM691.001 1434l281 -291h-208l-146 129l-146 -129h-208l281 291h146z" />
    <glyph glyph-name="udieresis" unicode="&#xfc;" 
d="M866 475l0.000976562 547h251v-1022h-251v156c-14 -40.667 -37.5 -74.667 -70.5 -102s-67.833 -46.5 -104.5 -57.5s-74.334 -16.5 -113.001 -16.5c-143.333 0 -255.5 42.5 -336.5 127.5s-121.5 207.5 -121.5 367.5v547h251v-547c0 -90 21 -160.167 63 -210.5
s103.333 -75.5 184 -75.5c81.333 0 143 25.167 185 75.5s63 120.5 63 210.5zM250.001 1327c0 40.667 14.333 75.334 43 104.001s63.334 43 104.001 43s75.334 -14.333 104.001 -43s43 -63.334 43 -104.001s-14.333 -75.334 -43 -104.001s-63.334 -43 -104.001 -43
s-75.334 14.333 -104.001 43s-43 63.334 -43 104.001zM694.001 1327c0 40.667 14.333 75.334 43 104.001s63.334 43 104.001 43s75.334 -14.333 104.001 -43s43 -63.334 43 -104.001s-14.333 -75.334 -43 -104.001s-63.334 -43 -104.001 -43s-75.334 14.333 -104.001 43
s-43 63.334 -43 104.001z" />
    <glyph glyph-name="yacute" unicode="&#xfd;" horiz-adv-x="1177" 
d="M467 0l-437 1022h267l291 -727l292 727h267l-565 -1317l-20 -41.5c-4 -8.33301 -10.5 -21 -19.5 -38s-16.667 -29.667 -23 -38l-25.5 -32.5c-10.667 -13.333 -21 -23.333 -31 -30s-22.167 -14.334 -36.5 -23.001s-29.166 -15 -44.499 -19s-32.833 -7.5 -52.5 -10.5
s-40.834 -4.5 -63.501 -4.5c-79.333 0 -150 16.333 -212 49l85 188c40 -18.667 76.667 -28 110 -28c12 0 22.833 0.833008 32.5 2.5s18.5 5.33398 26.5 11.001l19.5 13.5c5 3.33301 10.667 10.5 17 21.5l13.5 23c2.66699 4.33301 7.5 14.333 14.5 30
s11.833 25.834 14.5 30.501zM467 1124l251 310h283l-314 -310h-220z" />
    <glyph glyph-name="thorn" unicode="&#xfe;" horiz-adv-x="1302" 
d="M120 -532v2048h251v-665c30 60.667 78.5 107.667 145.5 141s134.833 50 203.5 50c102.667 0 192.5 -23.5 269.5 -70.5s135 -110.333 174 -190s58.5 -169.834 58.5 -270.501c0 -101.333 -19.5 -191.833 -58.5 -271.5s-97 -142.834 -174 -189.501s-166.833 -70 -269.5 -70
c-68.667 0 -136.5 16.667 -203.5 50s-115.5 80.333 -145.5 141v-703h-251zM668 190.002c99.333 0 173.666 30.5 222.999 91.5s74 137.5 74 229.5s-24.667 168.5 -74 229.5s-123.666 91.5 -222.999 91.5s-173.666 -30.5 -222.999 -91.5s-74 -137.5 -74 -229.5
s24.667 -168.5 74 -229.5s123.666 -91.5 222.999 -91.5z" />
    <glyph glyph-name="ydieresis" unicode="&#xff;" horiz-adv-x="1177" 
d="M467 0l-437 1022h267l291 -727l292 727h267l-565 -1317l-20 -41.5c-4 -8.33301 -10.5 -21 -19.5 -38s-16.667 -29.667 -23 -38l-25.5 -32.5c-10.667 -13.333 -21 -23.333 -31 -30s-22.167 -14.334 -36.5 -23.001s-29.166 -15 -44.499 -19s-32.833 -7.5 -52.5 -10.5
s-40.834 -4.5 -63.501 -4.5c-79.333 0 -150 16.333 -212 49l85 188c40 -18.667 76.667 -28 110 -28c12 0 22.833 0.833008 32.5 2.5s18.5 5.33398 26.5 11.001l19.5 13.5c5 3.33301 10.667 10.5 17 21.5l13.5 23c2.66699 4.33301 7.5 14.333 14.5 30
s11.833 25.834 14.5 30.501zM219 1327c0 40.667 14.333 75.334 43 104.001s63.334 43 104.001 43s75.334 -14.333 104.001 -43s43 -63.334 43 -104.001s-14.333 -75.334 -43 -104.001s-63.334 -43 -104.001 -43s-75.334 14.333 -104.001 43s-43 63.334 -43 104.001z
M663 1327c0 40.667 14.333 75.334 43 104.001s63.334 43 104.001 43s75.334 -14.333 104.001 -43s43 -63.334 43 -104.001s-14.333 -75.334 -43 -104.001s-63.334 -43 -104.001 -43s-75.334 14.333 -104.001 43s-43 63.334 -43 104.001z" />
    <glyph glyph-name="Amacron" unicode="&#x100;" horiz-adv-x="1489" 
d="M447 334l-136 -334h-281l604 1434h221l604 -1434h-281l-137 334h-594zM744 1063l-205 -502h410zM347 1535v189h794v-189h-794z" />
    <glyph glyph-name="amacron" unicode="&#x101;" horiz-adv-x="1177" 
d="M603 833c-122.667 0 -235.668 -24.0039 -339.001 -72.0039l-95 179c116.667 68 261.334 102 434.001 102c90 0 164.333 -8.5 223 -25.5s105 -45.167 139 -84.5s57.833 -86.666 71.5 -141.999s20.5 -125.333 20.5 -210v-580h-251l-1 161
c-52.667 -120.667 -163 -181 -331 -181c-76.667 0 -143.667 11.167 -201 33.5s-103.833 59.333 -139.5 111s-53.5 115.834 -53.5 192.501c0 50.667 9.5 96.334 28.5 137.001s45.5 74.334 79.5 101.001s74 49.5 120 68.5s95.833 32 149.5 39s110.167 11.333 169.5 13
s119 -1.5 179 -9.5c0 64 -14.333 107.833 -43 131.5s-82 35.5 -160 35.5zM331.999 326.996c0 -92 60.668 -137.998 182.001 -137.998c87.333 0 158.166 21 212.499 63s80.833 91.333 79.5 148v104c-28.667 0 -62.5 1 -101.5 3s-80.333 -0.166992 -124 -6.5
s-84 -14.833 -121 -25.5s-67.5 -28.834 -91.5 -54.501s-36 -56.834 -36 -93.501zM186 1245v189h794v-189h-794z" />
    <glyph glyph-name="Abreve" unicode="&#x102;" horiz-adv-x="1489" 
d="M447 334l-136 -334h-281l604 1434h221l604 -1434h-281l-137 334h-594zM744 1063l-205 -502h410zM744 1536c-56 0 -107 8.33301 -153 25s-83 38 -111 64s-50.167 52.333 -66.5 79s-27.5 52.667 -33.5 78h182c36 -61.333 96.667 -92 182 -92s146 30.667 182 92h182
c-6 -25.333 -17.167 -51.333 -33.5 -78s-38.5 -53 -66.5 -79s-65 -47.333 -111 -64s-97 -25 -153 -25z" />
    <glyph glyph-name="abreve" unicode="&#x103;" horiz-adv-x="1177" 
d="M603 833c-122.667 0 -235.668 -24.0039 -339.001 -72.0039l-95 179c116.667 68 261.334 102 434.001 102c90 0 164.333 -8.5 223 -25.5s105 -45.167 139 -84.5s57.833 -86.666 71.5 -141.999s20.5 -125.333 20.5 -210v-580h-251l-1 161
c-52.667 -120.667 -163 -181 -331 -181c-76.667 0 -143.667 11.167 -201 33.5s-103.833 59.333 -139.5 111s-53.5 115.834 -53.5 192.501c0 50.667 9.5 96.334 28.5 137.001s45.5 74.334 79.5 101.001s74 49.5 120 68.5s95.833 32 149.5 39s110.167 11.333 169.5 13
s119 -1.5 179 -9.5c0 64 -14.333 107.833 -43 131.5s-82 35.5 -160 35.5zM331.999 326.996c0 -92 60.668 -137.998 182.001 -137.998c87.333 0 158.166 21 212.499 63s80.833 91.333 79.5 148v104c-28.667 0 -62.5 1 -101.5 3s-80.333 -0.166992 -124 -6.5
s-84 -14.833 -121 -25.5s-67.5 -28.834 -91.5 -54.501s-36 -56.834 -36 -93.501zM618 1188c-56 0 -107 8.33301 -153 25s-83 38 -111 64s-50.167 52.333 -66.5 79s-27.5 52.667 -33.5 78h182c36 -61.333 96.667 -92 182 -92s146 30.667 182 92h182
c-6 -25.333 -17.167 -51.333 -33.5 -78s-38.5 -53 -66.5 -79s-65 -47.333 -111 -64s-97 -25 -153 -25z" />
    <glyph glyph-name="Aogonek" unicode="&#x104;" horiz-adv-x="1541" 
d="M855 1434l603.999 -1434c-24 -6.66699 -45.667 -16.667 -65 -30c-43.333 -30 -65 -67 -65 -111c0 -45.333 30.333 -77.333 91 -96c28 -8.66699 58.333 -13.334 91 -14.001v-207c-20.667 -2.66699 -44.334 -2.66699 -71.001 0s-54 6 -82 10s-55.667 12.333 -83 25
s-51.666 27.834 -72.999 45.501s-38.666 41.167 -51.999 70.5s-20 62.666 -20 99.999c0 28.667 4.66699 55.167 14 79.5s19.5 43.333 30.5 57s24.833 26.5 41.5 38.5s28.167 19.333 34.5 22s13.833 5.66699 22.5 9l2 1h-97l-137 334h-594l-136 -334h-281l604 1434h221z
M743.999 1063l-205 -502h410z" />
    <glyph glyph-name="aogonek" unicode="&#x105;" horiz-adv-x="1229" 
d="M1057 580l-0.00195312 -580.003c-24 -6.66699 -45.667 -16.667 -65 -30c-43.333 -30 -65 -67 -65 -111c0 -45.333 30.333 -77.333 91 -96c28 -8.66699 58.333 -13.334 91 -14.001v-207c-20.667 -2.66699 -44.334 -2.66699 -71.001 0s-54 6 -82 10s-55.667 12.333 -83 25
s-51.666 27.834 -72.999 45.501s-38.666 41.167 -51.999 70.5s-20 62.666 -20 99.999c0 28.667 4.66699 55.167 14 79.5s19.5 43.333 30.5 57s24.833 26.5 41.5 38.5s28.167 19.333 34.5 22s13.833 5.66699 22.5 9l2 1h-67l-1 161c-52.667 -120.667 -163 -181 -331 -181
c-76.667 0 -143.667 11.167 -201 33.5s-103.833 59.333 -139.5 111s-53.5 115.834 -53.5 192.501c0 50.667 9.5 96.334 28.5 137.001s45.5 74.334 79.5 101.001s74 49.5 120 68.5s95.833 32 149.5 39s110.167 11.333 169.5 13s119 -1.5 179 -9.5
c0 64 -14.333 107.833 -43 131.5s-82 35.5 -160 35.5c-122.667 0 -235.667 -24 -339 -72l-95 179c116.667 68 261.334 102 434.001 102c90 0 164.333 -8.5 223 -25.5s105 -45.167 139 -84.5s57.833 -86.666 71.5 -141.999s20.5 -125.333 20.5 -210zM331.998 326.997
c0 -92 60.668 -137.998 182.001 -137.998c87.333 0 158.166 21 212.499 63s80.833 91.333 79.5 148v104c-28.667 0 -62.5 1 -101.5 3s-80.333 -0.166992 -124 -6.5s-84 -14.833 -121 -25.5s-67.5 -28.834 -91.5 -54.501s-36 -56.834 -36 -93.501z" />
    <glyph glyph-name="Cacute" unicode="&#x106;" horiz-adv-x="1436" 
d="M354 717c0 -76 10 -145.331 30 -207.998s49.667 -117.5 89 -164.5s90.333 -83.5 153 -109.5s134.667 -39 216 -39c151.333 0 286.333 39.333 405 118l129 -178c-128 -110.667 -306 -166 -534 -166c-120.667 0 -229.334 18.667 -326.001 56s-176.667 89.166 -240 155.499
s-111.833 145 -145.5 236s-50.5 190.833 -50.5 299.5s16.833 208.5 50.5 299.5s82.167 169.667 145.5 236s143.333 118.166 240 155.499s205.334 56 326.001 56c228 0 406 -55.333 534 -166l-129 -178c-118.667 78.667 -253.667 118 -405 118
c-81.333 0 -153.333 -13 -216 -39s-113.667 -62.5 -153 -109.5s-69 -101.833 -89 -164.5s-30 -132 -30 -208zM730 1536l251 310h283l-314 -310h-220z" />
    <glyph glyph-name="cacute" unicode="&#x107;" horiz-adv-x="1132" 
d="M337 511c0 -43.333 6.16406 -83.832 18.4971 -121.499s30.833 -71.667 55.5 -102s57.5 -54.333 98.5 -72s87.833 -26.5 140.5 -26.5c113.333 0 211.333 33 294 99l128 -161c-98.667 -98 -239.334 -147 -422.001 -147c-171.333 0 -309.166 50.167 -413.499 150.5
s-156.5 227.166 -156.5 380.499c0 74.667 13.5 144.5 40.5 209.5s64.833 121.333 113.5 169s108.834 85 180.501 112s150.167 40.5 235.5 40.5c182.667 0 323.334 -49 422.001 -147l-130 -159c-81.333 64.667 -178.666 97 -291.999 97
c-52.667 0 -99.5 -8.83301 -140.5 -26.5s-73.833 -41.667 -98.5 -72s-43.167 -64.333 -55.5 -102s-18.5 -78.167 -18.5 -121.5zM531.997 1124l251 310h283l-314 -310h-220z" />
    <glyph glyph-name="Ccircumflex" unicode="&#x108;" horiz-adv-x="1436" 
d="M901 1827l281 -291h-208l-146 129l-146 -129h-208l281 291h146zM354 717c0 -76 10 -145.331 30 -207.998s49.667 -117.5 89 -164.5s90.333 -83.5 153 -109.5s134.667 -39 216 -39c151.333 0 286.333 39.333 405 118l129 -178c-128 -110.667 -306 -166 -534 -166
c-120.667 0 -229.334 18.667 -326.001 56s-176.667 89.166 -240 155.499s-111.833 145 -145.5 236s-50.5 190.833 -50.5 299.5s16.833 208.5 50.5 299.5s82.167 169.667 145.5 236s143.333 118.166 240 155.499s205.334 56 326.001 56c228 0 406 -55.333 534 -166l-129 -178
c-118.667 78.667 -253.667 118 -405 118c-81.333 0 -153.333 -13 -216 -39s-113.667 -62.5 -153 -109.5s-69 -101.833 -89 -164.5s-30 -132 -30 -208z" />
    <glyph glyph-name="ccircumflex" unicode="&#x109;" horiz-adv-x="1132" 
d="M337 511c0 -43.333 6.16406 -83.832 18.4971 -121.499s30.833 -71.667 55.5 -102s57.5 -54.333 98.5 -72s87.833 -26.5 140.5 -26.5c113.333 0 211.333 33 294 99l128 -161c-98.667 -98 -239.334 -147 -422.001 -147c-171.333 0 -309.166 50.167 -413.499 150.5
s-156.5 227.166 -156.5 380.499c0 74.667 13.5 144.5 40.5 209.5s64.833 121.333 113.5 169s108.834 85 180.501 112s150.167 40.5 235.5 40.5c182.667 0 323.334 -49 422.001 -147l-130 -159c-81.333 64.667 -178.666 97 -291.999 97
c-52.667 0 -99.5 -8.83301 -140.5 -26.5s-73.833 -41.667 -98.5 -72s-43.167 -64.333 -55.5 -102s-18.5 -78.167 -18.5 -121.5zM697.997 1434l281 -291h-208l-146 129l-146 -129h-208l281 291h146z" />
    <glyph glyph-name="Cdotaccent" unicode="&#x10a;" horiz-adv-x="1436" 
d="M354 717c0 -76 10 -145.331 30 -207.998s49.667 -117.5 89 -164.5s90.333 -83.5 153 -109.5s134.667 -39 216 -39c151.333 0 286.333 39.333 405 118l129 -178c-128 -110.667 -306 -166 -534 -166c-120.667 0 -229.334 18.667 -326.001 56s-176.667 89.166 -240 155.499
s-111.833 145 -145.5 236s-50.5 190.833 -50.5 299.5s16.833 208.5 50.5 299.5s82.167 169.667 145.5 236s143.333 118.166 240 155.499s205.334 56 326.001 56c228 0 406 -55.333 534 -166l-129 -178c-118.667 78.667 -253.667 118 -405 118
c-81.333 0 -153.333 -13 -216 -39s-113.667 -62.5 -153 -109.5s-69 -101.833 -89 -164.5s-30 -132 -30 -208zM686 1703c0 40.667 14.333 75.334 43 104.001s63.334 43 104.001 43s75.334 -14.333 104.001 -43s43 -63.334 43 -104.001s-14.333 -75.334 -43 -104.001
s-63.334 -43 -104.001 -43s-75.334 14.333 -104.001 43s-43 63.334 -43 104.001z" />
    <glyph glyph-name="cdotaccent" unicode="&#x10b;" horiz-adv-x="1132" 
d="M337 511c0 -43.333 6.16406 -83.832 18.4971 -121.499s30.833 -71.667 55.5 -102s57.5 -54.333 98.5 -72s87.833 -26.5 140.5 -26.5c113.333 0 211.333 33 294 99l128 -161c-98.667 -98 -239.334 -147 -422.001 -147c-171.333 0 -309.166 50.167 -413.499 150.5
s-156.5 227.166 -156.5 380.499c0 74.667 13.5 144.5 40.5 209.5s64.833 121.333 113.5 169s108.834 85 180.501 112s150.167 40.5 235.5 40.5c182.667 0 323.334 -49 422.001 -147l-130 -159c-81.333 64.667 -178.666 97 -291.999 97
c-52.667 0 -99.5 -8.83301 -140.5 -26.5s-73.833 -41.667 -98.5 -72s-43.167 -64.333 -55.5 -102s-18.5 -78.167 -18.5 -121.5zM482.997 1327c0 40.667 14.333 75.334 43 104.001s63.334 43 104.001 43s75.334 -14.333 104.001 -43s43 -63.334 43 -104.001
s-14.333 -75.334 -43 -104.001s-63.334 -43 -104.001 -43s-75.334 14.333 -104.001 43s-43 63.334 -43 104.001z" />
    <glyph glyph-name="Ccaron" unicode="&#x10c;" horiz-adv-x="1436" 
d="M354 717c0 -76 10 -145.331 30 -207.998s49.667 -117.5 89 -164.5s90.333 -83.5 153 -109.5s134.667 -39 216 -39c151.333 0 286.333 39.333 405 118l129 -178c-128 -110.667 -306 -166 -534 -166c-120.667 0 -229.334 18.667 -326.001 56s-176.667 89.166 -240 155.499
s-111.833 145 -145.5 236s-50.5 190.833 -50.5 299.5s16.833 208.5 50.5 299.5s82.167 169.667 145.5 236s143.333 118.166 240 155.499s205.334 56 326.001 56c228 0 406 -55.333 534 -166l-129 -178c-118.667 78.667 -253.667 118 -405 118
c-81.333 0 -153.333 -13 -216 -39s-113.667 -62.5 -153 -109.5s-69 -101.833 -89 -164.5s-30 -132 -30 -208zM1180 1827l-281 -291h-146l-281 291h208l146 -129l146 129h208z" />
    <glyph glyph-name="ccaron" unicode="&#x10d;" horiz-adv-x="1132" 
d="M337 511c0 -43.333 6.16406 -83.832 18.4971 -121.499s30.833 -71.667 55.5 -102s57.5 -54.333 98.5 -72s87.833 -26.5 140.5 -26.5c113.333 0 211.333 33 294 99l128 -161c-98.667 -98 -239.334 -147 -422.001 -147c-171.333 0 -309.166 50.167 -413.499 150.5
s-156.5 227.166 -156.5 380.499c0 74.667 13.5 144.5 40.5 209.5s64.833 121.333 113.5 169s108.834 85 180.501 112s150.167 40.5 235.5 40.5c182.667 0 323.334 -49 422.001 -147l-130 -159c-81.333 64.667 -178.666 97 -291.999 97
c-52.667 0 -99.5 -8.83301 -140.5 -26.5s-73.833 -41.667 -98.5 -72s-43.167 -64.333 -55.5 -102s-18.5 -78.167 -18.5 -121.5zM989.997 1434l-281 -291h-146l-281 291h208l146 -129l146 129h208z" />
    <glyph glyph-name="Dcaron" unicode="&#x10e;" horiz-adv-x="1472" 
d="M1392 717c0 -102.667 -14.499 -196.999 -43.499 -282.999s-71.833 -161.5 -128.5 -226.5s-130.5 -115.833 -221.5 -152.5s-195.5 -55 -313.5 -55h-565v1434h565c117.333 0 221.666 -18.333 312.999 -55s165.333 -87.667 222 -153s99.5 -140.833 128.5 -226.5
s43.5 -179.834 43.5 -282.501zM390.001 1208v-981.998h295c74.667 0 140.667 13.333 198 40s102.666 63.167 135.999 109.5s58.333 98.166 75 155.499s25 119.333 25 186s-8.33301 128.667 -25 186s-41.667 109.166 -75 155.499s-78.666 82.833 -135.999 109.5
s-123.333 40 -198 40h-295zM948.001 1827l-281 -291h-146l-281 291h208l146 -129l146 129h208z" />
    <glyph glyph-name="dcaron" unicode="&#x10f;" horiz-adv-x="1397" 
d="M1182 1516v-1516h-251v171c-30 -60.667 -78.5 -107.667 -145.5 -141s-134.833 -50 -203.5 -50c-102.667 0 -192.5 23.333 -269.5 70s-135 109.834 -174 189.501s-58.5 170.167 -58.5 271.5c0 100.667 19.5 190.834 58.5 270.501s97 143 174 190s166.833 70.5 269.5 70.5
c68.667 0 136.5 -16.667 203.5 -50s115.5 -80.333 145.5 -141v665h251zM634 189.998c99.333 0 173.666 30.5 222.999 91.5s74 137.5 74 229.5s-24.667 168.5 -74 229.5s-123.666 91.5 -222.999 91.5s-173.666 -30.5 -222.999 -91.5s-74 -137.5 -74 -229.5
s24.667 -168.5 74 -229.5s123.666 -91.5 222.999 -91.5zM1227 1054l151 462h269l-189 -462h-231z" />
    <glyph glyph-name="Dcroat" unicode="&#x110;" horiz-adv-x="1610" 
d="M30 604l0.000976562 226.001h228v604h565c117.333 0 221.666 -18.333 312.999 -55s165.333 -87.667 222 -153s99.5 -140.833 128.5 -226.5s43.5 -179.834 43.5 -282.501s-14.5 -197 -43.5 -283s-71.833 -161.5 -128.5 -226.5s-130.5 -115.833 -221.5 -152.5
s-195.5 -55 -313.5 -55h-565v604h-228zM528.001 604.001v-377.998h295c74.667 0 140.667 13.333 198 40s102.666 63.167 135.999 109.5s58.333 98.166 75 155.499s25 119.333 25 186s-8.33301 128.667 -25 186s-41.667 109.166 -75 155.499s-78.666 82.833 -135.999 109.5
s-123.333 40 -198 40h-295v-378h302v-226h-302z" />
    <glyph glyph-name="dslash" unicode="&#x111;" horiz-adv-x="1372" 
d="M1182 1141v-1141h-251v171c-30 -60.667 -78.5 -107.667 -145.5 -141s-134.833 -50 -203.5 -50c-102.667 0 -192.5 23.333 -269.5 70s-135 109.834 -174 189.501s-58.5 170.167 -58.5 271.5c0 100.667 19.5 190.834 58.5 270.501s97 143 174 190s166.833 70.5 269.5 70.5
c68.667 0 136.5 -16.667 203.5 -50s115.5 -80.333 145.5 -141v290h-282v200h282v175h251v-175h190v-200h-190zM634 189.998c99.333 0 173.666 30.5 222.999 91.5s74 137.5 74 229.5s-24.667 168.5 -74 229.5s-123.666 91.5 -222.999 91.5s-173.666 -30.5 -222.999 -91.5
s-74 -137.5 -74 -229.5s24.667 -168.5 74 -229.5s123.666 -91.5 222.999 -91.5z" />
    <glyph glyph-name="Emacron" unicode="&#x112;" horiz-adv-x="1247" 
d="M390 844h713v-226h-713v-392h757v-226h-1027v1434h1017v-226h-747v-364zM237 1536v189h794v-189h-794z" />
    <glyph glyph-name="emacron" unicode="&#x113;" horiz-adv-x="1242" 
d="M620 189c126.667 0 232.669 35.667 318.002 107l152 -151c-112 -110 -268.667 -165 -470 -165c-170.667 0 -303.334 49.333 -398.001 148s-142 226.334 -142 383.001c0 102 20.167 192.5 60.5 271.5s101.833 142 184.5 189s181 70.5 295 70.5
c178.667 0 315.667 -54.333 411 -163s138.333 -264 129 -466h-809c0 -16 2.66699 -33.167 8 -51.5s14.666 -37.833 27.999 -58.5s29.833 -39.334 49.5 -56.001s45.5 -30.5 77.5 -41.5s67.333 -16.5 106 -16.5zM351.002 610h538c0 20.667 -4.66699 42.834 -14 66.501
s-23.5 47.667 -42.5 72s-47 44.5 -84 60.5s-79.833 24 -128.5 24s-91.5 -8 -128.5 -24s-65 -36.167 -84 -60.5s-33.167 -48.333 -42.5 -72s-14 -45.834 -14 -66.501zM223.002 1245v189h794v-189h-794z" />
    <glyph glyph-name="Ebreve" unicode="&#x114;" horiz-adv-x="1247" 
d="M390 844h713v-226h-713v-392h757v-226h-1027v1434h1017v-226h-747v-364zM633 1556c-56 0 -107 8.33301 -153 25s-83 38 -111 64s-50.167 52.333 -66.5 79s-27.5 52.667 -33.5 78h182c36 -61.333 96.667 -92 182 -92s146 30.667 182 92h182
c-6 -25.333 -17.167 -51.333 -33.5 -78s-38.5 -53 -66.5 -79s-65 -47.333 -111 -64s-97 -25 -153 -25z" />
    <glyph glyph-name="ebreve" unicode="&#x115;" horiz-adv-x="1242" 
d="M620 189c126.667 0 232.669 35.667 318.002 107l152 -151c-112 -110 -268.667 -165 -470 -165c-170.667 0 -303.334 49.333 -398.001 148s-142 226.334 -142 383.001c0 102 20.167 192.5 60.5 271.5s101.833 142 184.5 189s181 70.5 295 70.5
c178.667 0 315.667 -54.333 411 -163s138.333 -264 129 -466h-809c0 -16 2.66699 -33.167 8 -51.5s14.666 -37.833 27.999 -58.5s29.833 -39.334 49.5 -56.001s45.5 -30.5 77.5 -41.5s67.333 -16.5 106 -16.5zM351.002 610h538c0 20.667 -4.66699 42.834 -14 66.501
s-23.5 47.667 -42.5 72s-47 44.5 -84 60.5s-79.833 24 -128.5 24s-91.5 -8 -128.5 -24s-65 -36.167 -84 -60.5s-33.167 -48.333 -42.5 -72s-14 -45.834 -14 -66.501zM620.002 1188c-56 0 -107 8.33301 -153 25s-83 38 -111 64s-50.167 52.333 -66.5 79
s-27.5 52.667 -33.5 78h182c36 -61.333 96.667 -92 182 -92s146 30.667 182 92h182c-6 -25.333 -17.167 -51.333 -33.5 -78s-38.5 -53 -66.5 -79s-65 -47.333 -111 -64s-97 -25 -153 -25z" />
    <glyph glyph-name="Edotaccent" unicode="&#x116;" horiz-adv-x="1247" 
d="M390 844h713v-226h-713v-392h757v-226h-1027v1434h1017v-226h-747v-364zM486 1683c0 40.667 14.333 75.334 43 104.001s63.334 43 104.001 43s75.334 -14.333 104.001 -43s43 -63.334 43 -104.001s-14.333 -75.334 -43 -104.001s-63.334 -43 -104.001 -43
s-75.334 14.333 -104.001 43s-43 63.334 -43 104.001z" />
    <glyph glyph-name="edotaccent" unicode="&#x117;" horiz-adv-x="1242" 
d="M620 189c126.667 0 232.669 35.667 318.002 107l152 -151c-112 -110 -268.667 -165 -470 -165c-170.667 0 -303.334 49.333 -398.001 148s-142 226.334 -142 383.001c0 102 20.167 192.5 60.5 271.5s101.833 142 184.5 189s181 70.5 295 70.5
c178.667 0 315.667 -54.333 411 -163s138.333 -264 129 -466h-809c0 -16 2.66699 -33.167 8 -51.5s14.666 -37.833 27.999 -58.5s29.833 -39.334 49.5 -56.001s45.5 -30.5 77.5 -41.5s67.333 -16.5 106 -16.5zM351.002 610h538c0 20.667 -4.66699 42.834 -14 66.501
s-23.5 47.667 -42.5 72s-47 44.5 -84 60.5s-79.833 24 -128.5 24s-91.5 -8 -128.5 -24s-65 -36.167 -84 -60.5s-33.167 -48.333 -42.5 -72s-14 -45.834 -14 -66.501zM473.002 1327c0 40.667 14.333 75.334 43 104.001s63.334 43 104.001 43s75.334 -14.333 104.001 -43
s43 -63.334 43 -104.001s-14.333 -75.334 -43 -104.001s-63.334 -43 -104.001 -43s-75.334 14.333 -104.001 43s-43 63.334 -43 104.001z" />
    <glyph glyph-name="Eogonek" unicode="&#x118;" horiz-adv-x="1299" 
d="M1147 226v-225.999c-24 -6.66699 -45.667 -16.667 -65 -30c-43.333 -30 -65 -67 -65 -111c0 -45.333 30.333 -77.333 91 -96c28 -8.66699 58.333 -13.334 91 -14.001v-207c-28 -2 -57 -2 -87 0s-63.167 8 -99.5 18s-68.333 23.833 -96 41.5s-51 43 -70 76
s-28.5 71.5 -28.5 115.5c0 28.667 4.66699 55.167 14 79.5s19.5 43.333 30.5 57s24.833 26.5 41.5 38.5s28.167 19.333 34.5 22s13.833 5.66699 22.5 9l2 1h-843v1434h1017v-226h-747v-364h713v-226h-713v-392h757z" />
    <glyph glyph-name="eogonek" unicode="&#x119;" horiz-adv-x="1242" 
d="M620 189c126.667 0 232.667 35.6689 318 107.002l152 -151c-76 -74 -168 -122.667 -276 -146c-8.66699 -2 -18.667 -5.83301 -30 -11.5s-24.833 -13.834 -40.5 -24.501s-28.834 -25.167 -39.501 -43.5s-16 -38.5 -16 -60.5c0 -45.333 30.333 -77.333 91 -96
c28 -8.66699 58.333 -13.334 91 -14.001v-207c-28 -2 -57 -2 -87 0s-63.167 8 -99.5 18s-68.333 23.833 -96 41.5s-51 43 -70 76s-28.5 71.5 -28.5 115.5c0 81.333 35 144 105 188c-109.333 3.33301 -203.166 28.833 -281.499 76.5s-136.666 110.334 -174.999 188.001
s-57.5 166.167 -57.5 265.5c0 102 20.167 192.5 60.5 271.5s101.833 142 184.5 189s181 70.5 295 70.5c178.667 0 315.667 -54.333 411 -163s138.333 -264 129 -466h-809c0 -16 2.66699 -33.167 8 -51.5s14.666 -37.833 27.999 -58.5s29.833 -39.334 49.5 -56.001
s45.5 -30.5 77.5 -41.5s67.333 -16.5 106 -16.5zM351 610.002h538c0 20.667 -4.66699 42.834 -14 66.501s-23.5 47.667 -42.5 72s-47 44.5 -84 60.5s-79.833 24 -128.5 24s-91.5 -8 -128.5 -24s-65 -36.167 -84 -60.5s-33.167 -48.333 -42.5 -72s-14 -45.834 -14 -66.501z
" />
    <glyph glyph-name="Ecaron" unicode="&#x11a;" horiz-adv-x="1247" 
d="M390 844h713v-226h-713v-392h757v-226h-1027v1434h1017v-226h-747v-364zM987 1827l-281 -291h-146l-281 291h208l146 -129l146 129h208z" />
    <glyph glyph-name="ecaron" unicode="&#x11b;" horiz-adv-x="1242" 
d="M620 189c126.667 0 232.669 35.667 318.002 107l152 -151c-112 -110 -268.667 -165 -470 -165c-170.667 0 -303.334 49.333 -398.001 148s-142 226.334 -142 383.001c0 102 20.167 192.5 60.5 271.5s101.833 142 184.5 189s181 70.5 295 70.5
c178.667 0 315.667 -54.333 411 -163s138.333 -264 129 -466h-809c0 -16 2.66699 -33.167 8 -51.5s14.666 -37.833 27.999 -58.5s29.833 -39.334 49.5 -56.001s45.5 -30.5 77.5 -41.5s67.333 -16.5 106 -16.5zM351.002 610h538c0 20.667 -4.66699 42.834 -14 66.501
s-23.5 47.667 -42.5 72s-47 44.5 -84 60.5s-79.833 24 -128.5 24s-91.5 -8 -128.5 -24s-65 -36.167 -84 -60.5s-33.167 -48.333 -42.5 -72s-14 -45.834 -14 -66.501zM974.002 1434l-281 -291h-146l-281 291h208l146 -129l146 129h208z" />
    <glyph glyph-name="Gcircumflex" unicode="&#x11c;" horiz-adv-x="1527" 
d="M842 -30c-120.667 0 -229.333 18.668 -326 56.001s-176.667 89.166 -240 155.499s-111.833 145 -145.5 236s-50.5 190.833 -50.5 299.5c0 108 16.833 207.5 50.5 298.5s82.167 169.833 145.5 236.5s143.333 118.667 240 156s205.334 56 326.001 56
c240 0 433.667 -60.667 581 -182l-131 -174c-128.667 86.667 -278.667 130 -450 130c-81.333 0 -153.333 -13 -216 -39s-113.667 -62.5 -153 -109.5s-69 -101.833 -89 -164.5s-30 -132 -30 -208s10 -145.333 30 -208s49.667 -117.5 89 -164.5s90.333 -83.5 153 -109.5
s134.667 -39 216 -39c66.667 0 130.167 6.33301 190.5 19s107.166 30 140.499 52v329h-311v226h565v-683c-67.333 -61.333 -153.5 -104.833 -258.5 -130.5s-213.833 -38.5 -326.5 -38.5zM905.001 1827l281 -291h-208l-146 129l-146 -129h-208l281 291h146z" />
    <glyph glyph-name="gcircumflex" unicode="&#x11d;" horiz-adv-x="1302" 
d="M931 1022l250.999 -0.00195312v-1022c0 -354.667 -188.667 -532 -566 -532c-193.333 0 -352 44.333 -476 133l129 168c99.333 -60.667 215 -91 347 -91c102.667 0 180.834 23.833 234.501 71.5s80.5 131.167 80.5 250.5v171c-30 -60.667 -78.5 -107.667 -145.5 -141
s-134.833 -50 -203.5 -50c-102.667 0 -192.5 23.333 -269.5 70s-135 109.834 -174 189.501s-58.5 170.167 -58.5 271.5c0 100.667 19.5 190.834 58.5 270.501s97 143 174 190s166.833 70.5 269.5 70.5c68.667 0 136.5 -16.667 203.5 -50s115.5 -80.333 145.5 -141v171z
M633.999 189.998c99.333 0 173.666 30.5 222.999 91.5s74 137.5 74 229.5s-24.667 168.5 -74 229.5s-123.666 91.5 -222.999 91.5s-173.666 -30.5 -222.999 -91.5s-74 -137.5 -74 -229.5s24.667 -168.5 74 -229.5s123.666 -91.5 222.999 -91.5zM703.999 1434l281 -291h-208
l-146 129l-146 -129h-208l281 291h146z" />
    <glyph glyph-name="Gbreve" unicode="&#x11e;" horiz-adv-x="1527" 
d="M842 -30c-120.667 0 -229.333 18.668 -326 56.001s-176.667 89.166 -240 155.499s-111.833 145 -145.5 236s-50.5 190.833 -50.5 299.5c0 108 16.833 207.5 50.5 298.5s82.167 169.833 145.5 236.5s143.333 118.667 240 156s205.334 56 326.001 56
c240 0 433.667 -60.667 581 -182l-131 -174c-128.667 86.667 -278.667 130 -450 130c-81.333 0 -153.333 -13 -216 -39s-113.667 -62.5 -153 -109.5s-69 -101.833 -89 -164.5s-30 -132 -30 -208s10 -145.333 30 -208s49.667 -117.5 89 -164.5s90.333 -83.5 153 -109.5
s134.667 -39 216 -39c66.667 0 130.167 6.33301 190.5 19s107.166 30 140.499 52v329h-311v226h565v-683c-67.333 -61.333 -153.5 -104.833 -258.5 -130.5s-213.833 -38.5 -326.5 -38.5zM829.001 1535c-56 0 -107 8.33301 -153 25s-83 38 -111 64s-50.167 52.333 -66.5 79
s-27.5 52.667 -33.5 78h182c36 -61.333 96.667 -92 182 -92s146 30.667 182 92h182c-6 -25.333 -17.167 -51.333 -33.5 -78s-38.5 -53 -66.5 -79s-65 -47.333 -111 -64s-97 -25 -153 -25z" />
    <glyph glyph-name="gbreve" unicode="&#x11f;" horiz-adv-x="1302" 
d="M931 1022l250.999 -0.00195312v-1022c0 -354.667 -188.667 -532 -566 -532c-193.333 0 -352 44.333 -476 133l129 168c99.333 -60.667 215 -91 347 -91c102.667 0 180.834 23.833 234.501 71.5s80.5 131.167 80.5 250.5v171c-30 -60.667 -78.5 -107.667 -145.5 -141
s-134.833 -50 -203.5 -50c-102.667 0 -192.5 23.333 -269.5 70s-135 109.834 -174 189.501s-58.5 170.167 -58.5 271.5c0 100.667 19.5 190.834 58.5 270.501s97 143 174 190s166.833 70.5 269.5 70.5c68.667 0 136.5 -16.667 203.5 -50s115.5 -80.333 145.5 -141v171z
M633.999 189.998c99.333 0 173.666 30.5 222.999 91.5s74 137.5 74 229.5s-24.667 168.5 -74 229.5s-123.666 91.5 -222.999 91.5s-173.666 -30.5 -222.999 -91.5s-74 -137.5 -74 -229.5s24.667 -168.5 74 -229.5s123.666 -91.5 222.999 -91.5zM629.999 1188
c-56 0 -107 8.33301 -153 25s-83 38 -111 64s-50.167 52.333 -66.5 79s-27.5 52.667 -33.5 78h182c36 -61.333 96.667 -92 182 -92s146 30.667 182 92h182c-6 -25.333 -17.167 -51.333 -33.5 -78s-38.5 -53 -66.5 -79s-65 -47.333 -111 -64s-97 -25 -153 -25z" />
    <glyph glyph-name="Gdotaccent" unicode="&#x120;" horiz-adv-x="1527" 
d="M842 -30c-120.667 0 -229.333 18.668 -326 56.001s-176.667 89.166 -240 155.499s-111.833 145 -145.5 236s-50.5 190.833 -50.5 299.5c0 108 16.833 207.5 50.5 298.5s82.167 169.833 145.5 236.5s143.333 118.667 240 156s205.334 56 326.001 56
c240 0 433.667 -60.667 581 -182l-131 -174c-128.667 86.667 -278.667 130 -450 130c-81.333 0 -153.333 -13 -216 -39s-113.667 -62.5 -153 -109.5s-69 -101.833 -89 -164.5s-30 -132 -30 -208s10 -145.333 30 -208s49.667 -117.5 89 -164.5s90.333 -83.5 153 -109.5
s134.667 -39 216 -39c66.667 0 130.167 6.33301 190.5 19s107.166 30 140.499 52v329h-311v226h565v-683c-67.333 -61.333 -153.5 -104.833 -258.5 -130.5s-213.833 -38.5 -326.5 -38.5zM695.001 1703c0 40.667 14.333 75.334 43 104.001s63.334 43 104.001 43
s75.334 -14.333 104.001 -43s43 -63.334 43 -104.001s-14.333 -75.334 -43 -104.001s-63.334 -43 -104.001 -43s-75.334 14.333 -104.001 43s-43 63.334 -43 104.001z" />
    <glyph glyph-name="gdotaccent" unicode="&#x121;" horiz-adv-x="1302" 
d="M931 1022l250.999 -0.00195312v-1022c0 -354.667 -188.667 -532 -566 -532c-193.333 0 -352 44.333 -476 133l129 168c99.333 -60.667 215 -91 347 -91c102.667 0 180.834 23.833 234.501 71.5s80.5 131.167 80.5 250.5v171c-30 -60.667 -78.5 -107.667 -145.5 -141
s-134.833 -50 -203.5 -50c-102.667 0 -192.5 23.333 -269.5 70s-135 109.834 -174 189.501s-58.5 170.167 -58.5 271.5c0 100.667 19.5 190.834 58.5 270.501s97 143 174 190s166.833 70.5 269.5 70.5c68.667 0 136.5 -16.667 203.5 -50s115.5 -80.333 145.5 -141v171z
M633.999 189.998c99.333 0 173.666 30.5 222.999 91.5s74 137.5 74 229.5s-24.667 168.5 -74 229.5s-123.666 91.5 -222.999 91.5s-173.666 -30.5 -222.999 -91.5s-74 -137.5 -74 -229.5s24.667 -168.5 74 -229.5s123.666 -91.5 222.999 -91.5zM483.999 1327
c0 40.667 14.333 75.334 43 104.001s63.334 43 104.001 43s75.334 -14.333 104.001 -43s43 -63.334 43 -104.001s-14.333 -75.334 -43 -104.001s-63.334 -43 -104.001 -43s-75.334 14.333 -104.001 43s-43 63.334 -43 104.001z" />
    <glyph glyph-name="Gcommaaccent" unicode="&#x122;" horiz-adv-x="1527" 
d="M842 -30c-120.667 0 -229.333 18.668 -326 56.001s-176.667 89.166 -240 155.499s-111.833 145 -145.5 236s-50.5 190.833 -50.5 299.5c0 108 16.833 207.5 50.5 298.5s82.167 169.833 145.5 236.5s143.333 118.667 240 156s205.334 56 326.001 56
c240 0 433.667 -60.667 581 -182l-131 -174c-128.667 86.667 -278.667 130 -450 130c-81.333 0 -153.333 -13 -216 -39s-113.667 -62.5 -153 -109.5s-69 -101.833 -89 -164.5s-30 -132 -30 -208s10 -145.333 30 -208s49.667 -117.5 89 -164.5s90.333 -83.5 153 -109.5
s134.667 -39 216 -39c66.667 0 130.167 6.33301 190.5 19s107.166 30 140.499 52v329h-311v226h565v-683c-67.333 -61.333 -153.5 -104.833 -258.5 -130.5s-213.833 -38.5 -326.5 -38.5zM548.001 -531.999l151 402h269l-189 -402h-231z" />
    <glyph glyph-name="gcommaaccent" unicode="&#x123;" horiz-adv-x="1302" 
d="M931 1022l250.999 -0.00195312v-1022c0 -354.667 -188.667 -532 -566 -532c-193.333 0 -352 44.333 -476 133l129 168c99.333 -60.667 215 -91 347 -91c102.667 0 180.834 23.833 234.501 71.5s80.5 131.167 80.5 250.5v171c-30 -60.667 -78.5 -107.667 -145.5 -141
s-134.833 -50 -203.5 -50c-102.667 0 -192.5 23.333 -269.5 70s-135 109.834 -174 189.501s-58.5 170.167 -58.5 271.5c0 100.667 19.5 190.834 58.5 270.501s97 143 174 190s166.833 70.5 269.5 70.5c68.667 0 136.5 -16.667 203.5 -50s115.5 -80.333 145.5 -141v171z
M633.999 189.998c99.333 0 173.666 30.5 222.999 91.5s74 137.5 74 229.5s-24.667 168.5 -74 229.5s-123.666 91.5 -222.999 91.5s-173.666 -30.5 -222.999 -91.5s-74 -137.5 -74 -229.5s24.667 -168.5 74 -229.5s123.666 -91.5 222.999 -91.5zM884.999 1516l-151 -402h-269
l189 402h231z" />
    <glyph glyph-name="Hcircumflex" unicode="&#x124;" horiz-adv-x="1463" 
d="M1073 844v590h270v-1434h-270v618h-683v-618h-270v1434h270v-590h683zM804 1827l281 -291h-208l-146 129l-146 -129h-208l281 291h146z" />
    <glyph glyph-name="hcircumflex" unicode="&#x125;" 
d="M371 547l-0.000976562 -547h-251v1516h251v-650c20 58.667 57.833 102.667 113.5 132s113.834 44 174.501 44c143.333 0 255.5 -42.5 336.5 -127.5s121.5 -207.5 121.5 -367.5v-547h-251v547c0 90 -21 160.167 -63 210.5s-103.333 75.5 -184 75.5
c-81.333 0 -143 -25.167 -185 -75.5s-63 -120.5 -63 -210.5zM690.999 1827l281 -291h-208l-146 129l-146 -129h-208l281 291h146z" />
    <glyph glyph-name="Hbar" unicode="&#x126;" horiz-adv-x="1779" 
d="M60 1022v208h218v204h270v-204h683v204h270v-204h218v-208h-218v-1022h-270v618h-683v-618h-270v1022h-218zM548 844h683v178h-683v-178z" />
    <glyph glyph-name="hbar" unicode="&#x127;" horiz-adv-x="1307" 
d="M441 547l-0.000976562 -547h-251v1141h-190v200h190v175h251v-175h282v-200h-282v-275c20 58.667 57.833 102.667 113.5 132s113.834 44 174.501 44c143.333 0 255.5 -42.5 336.5 -127.5s121.5 -207.5 121.5 -367.5v-547h-251v547c0 90 -21 160.167 -63 210.5
s-103.333 75.5 -184 75.5c-81.333 0 -143 -25.167 -185 -75.5s-63 -120.5 -63 -210.5z" />
    <glyph glyph-name="Itilde" unicode="&#x128;" horiz-adv-x="585" 
d="M157 0v1434h270v-1434h-270zM254 1600c-1.33301 1.33301 -5.16602 4.16699 -11.499 8.5l-15 10l-14 8.5c-5.66699 3.33301 -11.167 5.66602 -16.5 6.99902s-10.666 2 -15.999 2c-23.333 0 -39.666 -13 -48.999 -39c-4 -12 -6 -25 -6 -39h-185
c1.33301 47.333 10 88.666 26 123.999c36 83.333 105.667 125 209 125c50 0 101.667 -21.333 155 -64c1.33301 -1.33301 5.16602 -4.16602 11.499 -8.49902l15 -10l14 -8.5c5.66699 -3.33301 11.167 -5.66602 16.5 -6.99902s10.666 -2 15.999 -2
c23.333 0 39.666 13 48.999 39c4 10.667 6 23.667 6 39h185c-1.33301 -48 -10 -89.667 -26 -125c-40 -82.667 -109.667 -124 -209 -124c-50 0 -101.667 21.333 -155 64z" />
    <glyph glyph-name="itilde" unicode="&#x129;" horiz-adv-x="605" 
d="M264 1247c-1.33301 1.33301 -5.16602 4.16699 -11.499 8.5l-15 10l-14 8.5c-5.66699 3.33301 -11.167 5.66602 -16.5 6.99902s-10.666 2 -15.999 2c-23.333 0 -39.666 -13 -48.999 -39c-4 -12 -6 -25 -6 -39h-185c1.33301 47.333 10 88.666 26 123.999
c36 83.333 105.667 125 209 125c50 0 101.667 -21.333 155 -64c1.33301 -1.33301 5.16602 -4.16602 11.499 -8.49902l15 -10l14 -8.5c5.66699 -3.33301 11.167 -5.66602 16.5 -6.99902s10.666 -2 15.999 -2c23.333 0 39.666 13 48.999 39c4 11.333 6 24.333 6 39h185
c-1.33301 -48 -10 -89.667 -26 -125c-40 -82.667 -109.667 -124 -209 -124c-50 0 -101.667 21.333 -155 64zM176 0.000976562v1022h251v-1022h-251z" />
    <glyph glyph-name="uni012A" unicode="&#x12a;" horiz-adv-x="734" 
d="M232 0v1434h270v-1434h-270zM-30 1536v189h794v-189h-794z" />
    <glyph glyph-name="imacron" unicode="&#x12b;" horiz-adv-x="634" 
d="M192 0v1022h251v-1022h-251zM-80 1245v189h794v-189h-794z" />
    <glyph glyph-name="Ibreve" unicode="&#x12c;" horiz-adv-x="608" 
d="M169 0v1434h270v-1434h-270zM304 1556c-56 0 -107 8.33301 -153 25s-83 38 -111 64s-50.167 52.333 -66.5 79s-27.5 52.667 -33.5 78h182c36 -61.333 96.667 -92 182 -92s146 30.667 182 92h182c-6 -25.333 -17.167 -51.333 -33.5 -78s-38.5 -53 -66.5 -79
s-65 -47.333 -111 -64s-97 -25 -153 -25z" />
    <glyph glyph-name="uni012D" unicode="&#x12d;" horiz-adv-x="668" 
d="M209 0v1022h251v-1022h-251zM334 1188c-56 0 -107 8.33301 -153 25s-83 38 -111 64s-50.167 52.333 -66.5 79s-27.5 52.667 -33.5 78h182c36 -61.333 96.667 -92 182 -92s146 30.667 182 92h182c-6 -25.333 -17.167 -51.333 -33.5 -78s-38.5 -53 -66.5 -79
s-65 -47.333 -111 -64s-97 -25 -153 -25z" />
    <glyph glyph-name="Iogonek" unicode="&#x12e;" horiz-adv-x="621" 
d="M449 1434v-1434c-24 -6.66699 -45.667 -16.667 -65 -30c-43.333 -30 -65 -67 -65 -111c0 -45.333 30.333 -77.333 91 -96c28 -8.66699 58.333 -13.334 91 -14.001v-207c-28 -2 -57 -2 -87 0s-63.167 8 -99.5 18s-68.333 23.833 -96 41.5s-51 43 -70 76
s-28.5 71.5 -28.5 115.5c0 28.667 4.66699 55.167 14 79.5s19.5 43.333 30.5 57s24.833 26.5 41.5 38.5s28.167 19.333 34.5 22s13.833 5.66699 22.5 9l2 1h-86v1434h270z" />
    <glyph glyph-name="iogonek" unicode="&#x12f;" horiz-adv-x="621" 
d="M449 1022v-1022c-24 -6.66699 -45.667 -16.667 -65 -30c-43.333 -30 -65 -67 -65 -111c0 -45.333 30.333 -77.333 91 -96c28 -8.66699 58.333 -13.334 91 -14.001v-207c-28 -2 -57 -2 -87 0s-63.167 8 -99.5 18s-68.333 23.833 -96 41.5s-51 43 -70 76
s-28.5 71.5 -28.5 115.5c0 28.667 4.66699 55.167 14 79.5s19.5 43.333 30.5 57s24.833 26.5 41.5 38.5s28.167 19.333 34.5 22s13.833 5.66699 22.5 9l2 1h-67v1022h251zM176 1327c0 40.667 14.333 75.334 43 104.001s63.334 43 104.001 43s75.334 -14.333 104.001 -43
s43 -63.334 43 -104.001s-14.333 -75.334 -43 -104.001s-63.334 -43 -104.001 -43s-75.334 14.333 -104.001 43s-43 63.334 -43 104.001z" />
    <glyph glyph-name="Idot" unicode="&#x130;" horiz-adv-x="534" 
d="M132 0v1434h270v-1434h-270zM120 1683c0 40.667 14.333 75.334 43 104.001s63.334 43 104.001 43s75.334 -14.333 104.001 -43s43 -63.334 43 -104.001s-14.333 -75.334 -43 -104.001s-63.334 -43 -104.001 -43s-75.334 14.333 -104.001 43s-43 63.334 -43 104.001z" />
    <glyph glyph-name="dotlessi" unicode="&#x131;" horiz-adv-x="491" 
d="M120 0v1022h251v-1022h-251z" />
    <glyph glyph-name="IJ" unicode="&#x132;" horiz-adv-x="1569" 
d="M120 0v1434h270v-1434h-270zM470 294l248 72c20 -50 47.833 -90.833 83.5 -122.5s85.834 -47.5 150.501 -47.5c82.667 0 141.167 20.5 175.5 61.5s51.5 106.5 51.5 196.5v980h270v-980c0 -322.667 -162.333 -484 -487 -484c-62 0 -118.5 6.16699 -169.5 18.5
s-94 28.5 -129 48.5s-65.833 44.167 -92.5 72.5s-47.834 57.5 -63.501 87.5s-28.167 62.333 -37.5 97z" />
    <glyph glyph-name="ij" unicode="&#x133;" horiz-adv-x="1037" 
d="M142 0v1022h251v-1022h-251zM120 1327c0 40.667 14.333 75.334 43 104.001s63.334 43 104.001 43s75.334 -14.333 104.001 -43s43 -63.334 43 -104.001s-14.333 -75.334 -43 -104.001s-63.334 -43 -104.001 -43s-75.334 14.333 -104.001 43s-43 63.334 -43 104.001z
M298 -485l68.999 191.004c47.333 -19.333 94.333 -29 141 -29c18.667 0 35.167 3.16699 49.5 9.5s26.333 14.166 36 23.499s17.834 22.666 24.501 39.999s11.667 33.666 15 48.999s6 35.666 8 60.999s3.16699 47.333 3.5 66s0.5 43.334 0.5 74.001v1022h251v-1022
c0 -74.667 -3 -138.334 -9 -191.001s-16.833 -101.667 -32.5 -147s-37.167 -81.5 -64.5 -108.5s-62.666 -48 -105.999 -63s-95.333 -22.5 -156 -22.5c-86.667 0 -163.334 15.667 -230.001 47zM622.999 1327c0 40.667 14.333 75.334 43 104.001s63.334 43 104.001 43
s75.334 -14.333 104.001 -43s43 -63.334 43 -104.001s-14.333 -75.334 -43 -104.001s-63.334 -43 -104.001 -43s-75.334 14.333 -104.001 43s-43 63.334 -43 104.001z" />
    <glyph glyph-name="Jcircumflex" unicode="&#x134;" horiz-adv-x="1141" 
d="M60 294l248 72c20 -50 47.833 -90.833 83.5 -122.5s85.834 -47.5 150.501 -47.5c82.667 0 141.167 20.5 175.5 61.5s51.5 106.5 51.5 196.5v980h270v-980c0 -322.667 -162.333 -484 -487 -484c-62 0 -118.5 6.16699 -169.5 18.5s-94 28.5 -129 48.5
s-65.833 44.167 -92.5 72.5s-47.834 57.5 -63.501 87.5s-28.167 62.333 -37.5 97zM980 1827l281 -291h-208l-146 129l-146 -129h-208l281 291h146z" />
    <glyph glyph-name="jcircumflex" unicode="&#x135;" horiz-adv-x="681" 
d="M430 1434l281 -291h-208l-146 129l-146 -129h-208l281 291h146zM-120 -485l68.999 191.004c47.333 -19.333 94.333 -29 141 -29c18.667 0 35.167 3.16699 49.5 9.5s26.333 14.166 36 23.499s17.834 22.666 24.501 39.999s11.667 33.666 15 48.999s6 35.666 8 60.999
s3.16699 47.333 3.5 66s0.5 43.334 0.5 74.001v1022h251v-1022c0 -74.667 -3 -138.334 -9 -191.001s-16.833 -101.667 -32.5 -147s-37.167 -81.5 -64.5 -108.5s-62.666 -48 -105.999 -63s-95.333 -22.5 -156 -22.5c-86.667 0 -163.334 15.667 -230.001 47z" />
    <glyph glyph-name="Kcommaaccent" unicode="&#x136;" horiz-adv-x="1424" 
d="M390 839l636 595h348l-667 -623l687 -811h-328l-542 640l-134 -125v-515h-270v1434h270v-595zM417 -532l151 402h269l-189 -402h-231z" />
    <glyph glyph-name="kcommaaccent" unicode="&#x137;" horiz-adv-x="1170" 
d="M371 625l437 397h332l-477 -433l477 -589h-306l-347 429l-116 -104v-325h-251v1516h251v-891zM294 -532l151 402h269l-189 -402h-231z" />
    <glyph glyph-name="kgreenlandic" unicode="&#x138;" horiz-adv-x="1356" 
d="M1269 1434l-0.00390625 -252.995c-45.333 -0.666992 -89.5 -6.83398 -132.5 -18.501s-80.5 -26 -112.5 -43s-66.167 -39.167 -102.5 -66.5s-66.833 -52.5 -91.5 -75.5l-90.5 -85c-35.667 -33.667 -65.5 -60.5 -89.5 -80.5c46 -26.667 91.833 -56.834 137.5 -90.501
s95.834 -76 150.501 -127s105.167 -104.833 151.5 -161.5s90.833 -122.834 133.5 -198.501s77 -153.834 103 -234.501h-295c-27.333 66.667 -60.666 130.834 -99.999 192.501s-78.833 115.167 -118.5 160.5s-82 87.5 -127 126.5s-85.167 70.667 -120.5 95
s-69.666 45.5 -102.999 63.5l-72 -66v-572h-270v1434h270v-536c36 31.333 79 71.5 129 120.5l127 124.5c34.667 34 76.834 70.667 126.501 110s97.167 71.166 142.5 95.499s98.833 44.666 160.5 60.999s126.167 24.5 193.5 24.5z" />
    <glyph glyph-name="Lacute" unicode="&#x139;" horiz-adv-x="1173" 
d="M390 1434v-1208h703v-226h-973v1434h270zM145 1536l251 310h283l-314 -310h-220z" />
    <glyph glyph-name="lacute" unicode="&#x13a;" horiz-adv-x="518" 
d="M120 360l0.00390625 1156h251v-1152c0 -21.333 0.166992 -37.666 0.5 -48.999s1.66602 -25 3.99902 -41s5.5 -27.833 9.5 -35.5s10 -14.5 18 -20.5s18 -9 30 -9h33v-209h-129c-26.667 0 -50.5 2.66699 -71.5 8s-39 14 -54 26s-27.833 24.167 -38.5 36.5
s-19.334 29 -26.001 50s-11.834 39 -15.501 54s-6.33398 35.667 -8.00098 62s-2.66699 46.666 -3 60.999s-0.5 35.166 -0.5 62.499zM134.004 1596l251 310h283l-314 -310h-220z" />
    <glyph glyph-name="Lcommaaccent" unicode="&#x13b;" horiz-adv-x="1173" 
d="M390 1434v-1208h703v-226h-973v1434h270zM342 -532l151 402h269l-189 -402h-231z" />
    <glyph glyph-name="lcommaaccent" unicode="&#x13c;" horiz-adv-x="628" 
d="M202 360l0.00390625 1156h251v-1152c0 -21.333 0.166992 -37.666 0.5 -48.999s1.66602 -25 3.99902 -41s5.5 -27.833 9.5 -35.5s10 -14.5 18 -20.5s18 -9 30 -9h33v-209h-129c-26.667 0 -50.5 2.66699 -71.5 8s-39 14 -54 26s-27.833 24.167 -38.5 36.5
s-19.334 29 -26.001 50s-11.834 39 -15.501 54s-6.33398 35.667 -8.00098 62s-2.66699 46.666 -3 60.999s-0.5 35.166 -0.5 62.499zM120.004 -531.999l151 402h269l-189 -402h-231z" />
    <glyph glyph-name="Lcaron" unicode="&#x13d;" horiz-adv-x="1173" 
d="M390 1434v-1208h703v-226h-973v1434h270zM452 972l151 462h269l-189 -462h-231z" />
    <glyph glyph-name="lcaron" unicode="&#x13e;" horiz-adv-x="859" 
d="M120 360l0.00390625 1156h251v-1152c0 -21.333 0.166992 -37.666 0.5 -48.999s1.66602 -25 3.99902 -41s5.5 -27.833 9.5 -35.5s10 -14.5 18 -20.5s18 -9 30 -9h33v-209h-129c-26.667 0 -50.5 2.66699 -71.5 8s-39 14 -54 26s-27.833 24.167 -38.5 36.5
s-19.334 29 -26.001 50s-11.834 39 -15.501 54s-6.33398 35.667 -8.00098 62s-2.66699 46.666 -3 60.999s-0.5 35.166 -0.5 62.499zM439.004 1054l151 462h269l-189 -462h-231z" />
    <glyph glyph-name="Ldot" unicode="&#x13f;" horiz-adv-x="1173" 
d="M390 1434v-1208h703v-226h-973v1434h270zM607 726c0 41.333 14.333 76.5 43 105.5s63.667 43.5 105 43.5c40.667 0 75.667 -14.5 105 -43.5s44 -64.167 44 -105.5s-14.5 -76.333 -43.5 -105s-64.167 -43 -105.5 -43s-76.333 14.333 -105 43s-43 63.667 -43 105z" />
    <glyph glyph-name="ldot" unicode="&#x140;" horiz-adv-x="831" 
d="M120 360l0.00390625 1156h251v-1152c0 -21.333 0.166992 -37.666 0.5 -48.999s1.66602 -25 3.99902 -41s5.5 -27.833 9.5 -35.5s10 -14.5 18 -20.5s18 -9 30 -9h33v-209h-129c-26.667 0 -50.5 2.66699 -71.5 8s-39 14 -54 26s-27.833 24.167 -38.5 36.5
s-19.334 29 -26.001 50s-11.834 39 -15.501 54s-6.33398 35.667 -8.00098 62s-2.66699 46.666 -3 60.999s-0.5 35.166 -0.5 62.499zM474.004 726.001c0 41.333 14.333 76.5 43 105.5s63.667 43.5 105 43.5s76.5 -14.5 105.5 -43.5s43.5 -64.167 43.5 -105.5
s-14.5 -76.333 -43.5 -105s-64.167 -43 -105.5 -43s-76.333 14.333 -105 43s-43 63.667 -43 105z" />
    <glyph glyph-name="Lslash" unicode="&#x141;" horiz-adv-x="1296" 
d="M513 687v-461h703v-226h-973v533l-213 -122v263l213 122v638h270v-484l213 122v-263z" />
    <glyph glyph-name="lslash" unicode="&#x142;" horiz-adv-x="696" 
d="M30 439l0.00390625 273.001l193 139v665h251v-485l192 139v-273l-192 -139v-394c0 -21.333 0.166992 -37.666 0.5 -48.999s1.66602 -25 3.99902 -41s5.5 -27.833 9.5 -35.5s10 -14.5 18 -20.5s18 -9 30 -9h33v-209h-129c-26.667 0 -50.5 2.66699 -71.5 8s-39 14 -54 26
s-27.833 24.167 -38.5 36.5s-19.334 29 -26.001 50s-11.834 39 -15.501 54s-6.33398 35.667 -8.00098 62s-2.66699 46.666 -3 60.999s-0.5 35.166 -0.5 62.499v218z" />
    <glyph glyph-name="Nacute" unicode="&#x143;" horiz-adv-x="1557" 
d="M150 0v1434h344l643 -1059v1059h270v-1434h-344l-643 1059v-1059h-270zM650 1536l251 310h283l-314 -310h-220z" />
    <glyph glyph-name="nacute" unicode="&#x144;" 
d="M371 547l-0.000976562 -547h-251v1022h251v-156c20 58.667 57.833 102.667 113.5 132s113.834 44 174.501 44c143.333 0 255.5 -42.5 336.5 -127.5s121.5 -207.5 121.5 -367.5v-547h-251v547c0 90 -21 160.167 -63 210.5s-103.333 75.5 -184 75.5
c-81.333 0 -143 -25.167 -185 -75.5s-63 -120.5 -63 -210.5zM499.999 1124l251 310h283l-314 -310h-220z" />
    <glyph glyph-name="Ncommaaccent" unicode="&#x145;" horiz-adv-x="1497" 
d="M120 0v1434h344l643 -1059v1059h270v-1434h-344l-643 1059v-1059h-270zM466 -532l151 402h269l-189 -402h-231z" />
    <glyph glyph-name="ncommaaccent" unicode="&#x146;" 
d="M371 547l-0.000976562 -547h-251v1022h251v-156c20 58.667 57.833 102.667 113.5 132s113.834 44 174.501 44c143.333 0 255.5 -42.5 336.5 -127.5s121.5 -207.5 121.5 -367.5v-547h-251v547c0 90 -21 160.167 -63 210.5s-103.333 75.5 -184 75.5
c-81.333 0 -143 -25.167 -185 -75.5s-63 -120.5 -63 -210.5zM335.999 -532l151 402h269l-189 -402h-231z" />
    <glyph glyph-name="Ncaron" unicode="&#x147;" horiz-adv-x="1557" 
d="M150 0v1434h344l643 -1059v1059h270v-1434h-344l-643 1059v-1059h-270zM1132 1827l-281 -291h-146l-281 291h208l146 -129l146 129h208z" />
    <glyph glyph-name="ncaron" unicode="&#x148;" 
d="M371 547l-0.000976562 -547h-251v1022h251v-156c20 58.667 57.833 102.667 113.5 132s113.834 44 174.501 44c143.333 0 255.5 -42.5 336.5 -127.5s121.5 -207.5 121.5 -367.5v-547h-251v547c0 90 -21 160.167 -63 210.5s-103.333 75.5 -184 75.5
c-81.333 0 -143 -25.167 -185 -75.5s-63 -120.5 -63 -210.5zM971.999 1434l-281 -291h-146l-281 291h208l146 -129l146 129h208z" />
    <glyph glyph-name="napostrophe" unicode="&#x149;" horiz-adv-x="1508" 
d="M642 547l-0.000976562 -547h-251v1022h251v-156c20 58.667 57.833 102.667 113.5 132s113.834 44 174.501 44c143.333 0 255.5 -42.5 336.5 -127.5s121.5 -207.5 121.5 -367.5v-547h-251v547c0 90 -21 160.167 -63 210.5s-103.333 75.5 -184 75.5
c-81.333 0 -143 -25.167 -185 -75.5s-63 -120.5 -63 -210.5zM119.999 1032l151 402h269l-189 -402h-231z" />
    <glyph glyph-name="Eng" unicode="&#x14a;" horiz-adv-x="1497" 
d="M518 -333l188.002 137.002c56.667 -73.333 128 -110 214 -110c38 0 69.833 6.83301 95.5 20.5s44.834 33.167 57.501 58.5s21.5 52.166 26.5 80.499s7.5 61.166 7.5 98.499v48h-74l-643 1059v-1059h-270v1434h344l643 -1059v1059h270v-1482
c0 -160.667 -37.833 -281.5 -113.5 -362.5s-186.834 -121.5 -333.501 -121.5c-94.667 0 -175.334 15.667 -242.001 47s-123.334 82 -170.001 152z" />
    <glyph glyph-name="eng" unicode="&#x14b;" 
d="M519 -485l68.998 191.004c47.333 -19.333 94.333 -29 141 -29c18.667 0 35.167 3.16699 49.5 9.5s26.333 14.166 36 23.499s17.834 22.666 24.501 39.999s11.667 33.666 15 48.999s6 35.666 8 60.999s3.16699 47.333 3.5 66s0.5 43.334 0.5 74.001v587
c0 74 -22.167 133.5 -66.5 178.5s-104.5 67.5 -180.5 67.5c-76.667 0 -137.167 -22.5 -181.5 -67.5s-66.5 -104.5 -66.5 -178.5v-587h-251v1022h251v-156c20 58.667 57.833 102.667 113.5 132s113.834 44 174.501 44c135.333 0 245.5 -40.167 330.5 -120.5
s127.5 -191.833 127.5 -334.5v-587c0 -74.667 -3 -138.334 -9 -191.001s-16.833 -101.667 -32.5 -147s-37.167 -81.5 -64.5 -108.5s-62.666 -48 -105.999 -63s-95.333 -22.5 -156 -22.5c-86.667 0 -163.334 15.667 -230.001 47z" />
    <glyph glyph-name="Omacron" unicode="&#x14c;" horiz-adv-x="1684" 
d="M842 -30c-120.667 0 -229.334 18.667 -326.001 56s-176.667 89.166 -240 155.499s-111.833 145 -145.5 236s-50.5 190.833 -50.5 299.5c0 108 16.833 207.5 50.5 298.5s82.167 169.833 145.5 236.5s143.333 118.667 240 156s205.334 56 326.001 56
s229.334 -18.667 326.001 -56s176.667 -89.333 240 -156s111.833 -145.5 145.5 -236.5s50.5 -190.5 50.5 -298.5c0 -108.667 -16.833 -208.5 -50.5 -299.5s-82.167 -169.667 -145.5 -236s-143.333 -118.166 -240 -155.499s-205.334 -56 -326.001 -56zM842 196
c81.333 0 153.333 13 216 39s113.667 62.5 153 109.5s69 101.833 89 164.5s30 132 30 208s-10 145.333 -30 208s-49.667 117.5 -89 164.5s-90.333 83.5 -153 109.5s-134.667 39 -216 39s-153.333 -13 -216 -39s-113.667 -62.5 -153 -109.5s-69 -101.833 -89 -164.5
s-30 -132 -30 -208s10 -145.333 30 -208s49.667 -117.5 89 -164.5s90.333 -83.5 153 -109.5s134.667 -39 216 -39zM454 1536v189h794v-189h-794z" />
    <glyph glyph-name="omacron" unicode="&#x14d;" horiz-adv-x="1300" 
d="M1220 511c0 -154 -52.1689 -280.999 -156.502 -380.999s-242.166 -150 -413.499 -150s-309.166 50.167 -413.499 150.5s-156.5 227.166 -156.5 380.499c0 74.667 13.5 144.5 40.5 209.5s64.833 121.333 113.5 169s108.834 85 180.501 112s150.167 40.5 235.5 40.5
c171.333 0 309.166 -50 413.499 -150s156.5 -227 156.5 -381zM962.998 511.001c0 43.333 -6.16699 83.833 -18.5 121.5s-30.833 71.667 -55.5 102s-57.5 54.333 -98.5 72s-87.833 26.5 -140.5 26.5s-99.5 -8.83301 -140.5 -26.5s-73.833 -41.667 -98.5 -72
s-43.167 -64.333 -55.5 -102s-18.5 -78.167 -18.5 -121.5s6.16699 -83.833 18.5 -121.5s30.833 -71.667 55.5 -102s57.5 -54.333 98.5 -72s87.833 -26.5 140.5 -26.5s99.5 8.83301 140.5 26.5s73.833 41.667 98.5 72s43.167 64.333 55.5 102s18.5 78.167 18.5 121.5z
M252.998 1245v189h794v-189h-794z" />
    <glyph glyph-name="Obreve" unicode="&#x14e;" horiz-adv-x="1684" 
d="M842 -30c-120.667 0 -229.334 18.667 -326.001 56s-176.667 89.166 -240 155.499s-111.833 145 -145.5 236s-50.5 190.833 -50.5 299.5c0 108 16.833 207.5 50.5 298.5s82.167 169.833 145.5 236.5s143.333 118.667 240 156s205.334 56 326.001 56
s229.334 -18.667 326.001 -56s176.667 -89.333 240 -156s111.833 -145.5 145.5 -236.5s50.5 -190.5 50.5 -298.5c0 -108.667 -16.833 -208.5 -50.5 -299.5s-82.167 -169.667 -145.5 -236s-143.333 -118.166 -240 -155.499s-205.334 -56 -326.001 -56zM842 196
c81.333 0 153.333 13 216 39s113.667 62.5 153 109.5s69 101.833 89 164.5s30 132 30 208s-10 145.333 -30 208s-49.667 117.5 -89 164.5s-90.333 83.5 -153 109.5s-134.667 39 -216 39s-153.333 -13 -216 -39s-113.667 -62.5 -153 -109.5s-69 -101.833 -89 -164.5
s-30 -132 -30 -208s10 -145.333 30 -208s49.667 -117.5 89 -164.5s90.333 -83.5 153 -109.5s134.667 -39 216 -39zM851 1536c-56 0 -107 8.33301 -153 25s-83 38 -111 64s-50.167 52.333 -66.5 79s-27.5 52.667 -33.5 78h182c36 -61.333 96.667 -92 182 -92
s146 30.667 182 92h182c-6 -25.333 -17.167 -51.333 -33.5 -78s-38.5 -53 -66.5 -79s-65 -47.333 -111 -64s-97 -25 -153 -25z" />
    <glyph glyph-name="obreve" unicode="&#x14f;" horiz-adv-x="1300" 
d="M1220 511c0 -154 -52.1689 -280.999 -156.502 -380.999s-242.166 -150 -413.499 -150s-309.166 50.167 -413.499 150.5s-156.5 227.166 -156.5 380.499c0 74.667 13.5 144.5 40.5 209.5s64.833 121.333 113.5 169s108.834 85 180.501 112s150.167 40.5 235.5 40.5
c171.333 0 309.166 -50 413.499 -150s156.5 -227 156.5 -381zM962.998 511.001c0 43.333 -6.16699 83.833 -18.5 121.5s-30.833 71.667 -55.5 102s-57.5 54.333 -98.5 72s-87.833 26.5 -140.5 26.5s-99.5 -8.83301 -140.5 -26.5s-73.833 -41.667 -98.5 -72
s-43.167 -64.333 -55.5 -102s-18.5 -78.167 -18.5 -121.5s6.16699 -83.833 18.5 -121.5s30.833 -71.667 55.5 -102s57.5 -54.333 98.5 -72s87.833 -26.5 140.5 -26.5s99.5 8.83301 140.5 26.5s73.833 41.667 98.5 72s43.167 64.333 55.5 102s18.5 78.167 18.5 121.5z
M648.998 1188c-56 0 -107 8.33301 -153 25s-83 38 -111 64s-50.167 52.333 -66.5 79s-27.5 52.667 -33.5 78h182c36 -61.333 96.667 -92 182 -92s146 30.667 182 92h182c-6 -25.333 -17.167 -51.333 -33.5 -78s-38.5 -53 -66.5 -79s-65 -47.333 -111 -64s-97 -25 -153 -25z
" />
    <glyph glyph-name="Ohungarumlaut" unicode="&#x150;" horiz-adv-x="1684" 
d="M842 -30c-120.667 0 -229.334 18.667 -326.001 56s-176.667 89.166 -240 155.499s-111.833 145 -145.5 236s-50.5 190.833 -50.5 299.5c0 108 16.833 207.5 50.5 298.5s82.167 169.833 145.5 236.5s143.333 118.667 240 156s205.334 56 326.001 56
s229.334 -18.667 326.001 -56s176.667 -89.333 240 -156s111.833 -145.5 145.5 -236.5s50.5 -190.5 50.5 -298.5c0 -108.667 -16.833 -208.5 -50.5 -299.5s-82.167 -169.667 -145.5 -236s-143.333 -118.166 -240 -155.499s-205.334 -56 -326.001 -56zM842 196
c81.333 0 153.333 13 216 39s113.667 62.5 153 109.5s69 101.833 89 164.5s30 132 30 208s-10 145.333 -30 208s-49.667 117.5 -89 164.5s-90.333 83.5 -153 109.5s-134.667 39 -216 39s-153.333 -13 -216 -39s-113.667 -62.5 -153 -109.5s-69 -101.833 -89 -164.5
s-30 -132 -30 -208s10 -145.333 30 -208s49.667 -117.5 89 -164.5s90.333 -83.5 153 -109.5s134.667 -39 216 -39zM577 1536l91 342h249l-149 -342h-191zM901 1536l91 342h249l-149 -342h-191z" />
    <glyph glyph-name="ohungarumlaut" unicode="&#x151;" horiz-adv-x="1300" 
d="M1220 511c0 -154 -52.1689 -280.999 -156.502 -380.999s-242.166 -150 -413.499 -150s-309.166 50.167 -413.499 150.5s-156.5 227.166 -156.5 380.499c0 74.667 13.5 144.5 40.5 209.5s64.833 121.333 113.5 169s108.834 85 180.501 112s150.167 40.5 235.5 40.5
c171.333 0 309.166 -50 413.499 -150s156.5 -227 156.5 -381zM962.998 511.001c0 43.333 -6.16699 83.833 -18.5 121.5s-30.833 71.667 -55.5 102s-57.5 54.333 -98.5 72s-87.833 26.5 -140.5 26.5s-99.5 -8.83301 -140.5 -26.5s-73.833 -41.667 -98.5 -72
s-43.167 -64.333 -55.5 -102s-18.5 -78.167 -18.5 -121.5s6.16699 -83.833 18.5 -121.5s30.833 -71.667 55.5 -102s57.5 -54.333 98.5 -72s87.833 -26.5 140.5 -26.5s99.5 8.83301 140.5 26.5s73.833 41.667 98.5 72s43.167 64.333 55.5 102s18.5 78.167 18.5 121.5z
M394.998 1174l91 342h249l-149 -342h-191zM718.998 1174l91 342h249l-149 -342h-191z" />
    <glyph glyph-name="OE" unicode="&#x152;" horiz-adv-x="2213" 
d="M1086 1434l1017 0.000976562v-226h-747v-364h713v-226h-713v-392h757v-226h-1026c-78.667 -20 -160.334 -30 -245.001 -30c-120.667 0 -229.334 18.667 -326.001 56s-176.667 89.166 -240 155.499s-111.833 145 -145.5 236s-50.5 190.833 -50.5 299.5
c0 108 16.833 207.5 50.5 298.5s82.167 169.833 145.5 236.5s143.333 118.667 240 156s205.334 56 326.001 56c84 0 165.333 -10 244 -30zM842.001 1238c-81.333 0 -153.332 -13 -215.999 -39s-113.667 -62.5 -153 -109.5s-69 -101.833 -89 -164.5s-30 -132 -30 -208
s10 -145.333 30 -208s49.667 -117.5 89 -164.5s90.333 -83.5 153 -109.5s134.667 -39 216 -39c91.333 0 172.666 17.333 243.999 52v937c-68.667 35.333 -150 53 -244 53z" />
    <glyph glyph-name="oe" unicode="&#x153;" horiz-adv-x="2125" 
d="M1503 189c126.667 0 232.665 35.6689 317.998 107.002l152 -151c-112 -110 -268.667 -165 -470 -165c-181.333 0 -321 57 -419 171c-105.333 -114 -250 -171 -434 -171c-171.333 0 -309.166 50.167 -413.499 150.5s-156.5 227.166 -156.5 380.499
c0 74.667 13.5 144.5 40.5 209.5s64.833 121.333 113.5 169s108.834 85 180.501 112s150.167 40.5 235.5 40.5c182.667 0 327.334 -57 434.001 -171c98 114 237.667 171 419 171c178.667 0 315.667 -54.333 411 -163s138.333 -264 129 -466h-809
c0 -16 2.66699 -33.167 8 -51.5s14.666 -37.833 27.999 -58.5s29.833 -39.334 49.5 -56.001s45.5 -30.5 77.5 -41.5s67.333 -16.5 106 -16.5zM962.998 511.002c0 43.333 -6.16699 83.833 -18.5 121.5s-30.833 71.667 -55.5 102s-57.5 54.333 -98.5 72
s-87.833 26.5 -140.5 26.5s-99.5 -8.83301 -140.5 -26.5s-73.833 -41.667 -98.5 -72s-43.167 -64.333 -55.5 -102s-18.5 -78.167 -18.5 -121.5s6.16699 -83.833 18.5 -121.5s30.833 -71.667 55.5 -102s57.5 -54.333 98.5 -72s87.833 -26.5 140.5 -26.5
s99.5 8.83301 140.5 26.5s73.833 41.667 98.5 72s43.167 64.333 55.5 102s18.5 78.167 18.5 121.5zM1234 610.002h538c0 20.667 -4.66699 42.834 -14 66.501s-23.5 47.667 -42.5 72s-47 44.5 -84 60.5s-79.833 24 -128.5 24s-91.5 -8 -128.5 -24s-65 -36.167 -84 -60.5
s-33.167 -48.333 -42.5 -72s-14 -45.834 -14 -66.501z" />
    <glyph glyph-name="Racute" unicode="&#x154;" horiz-adv-x="1347" 
d="M390 0h-270v1434h607c180.667 0 315.5 -39.667 404.5 -119s133.5 -190.333 133.5 -333c0 -60.667 -8.66699 -115.167 -26 -163.5s-41.5 -88.833 -72.5 -121.5s-65.5 -59.5 -103.5 -80.5s-80.667 -37.833 -128 -50.5l332 -566h-303l-310 530h-264v-530zM727 1208h-337
v-452h337c94 0 161.833 17.833 203.5 53.5s62.5 93.167 62.5 172.5c0 78.667 -21 136 -63 172s-109.667 54 -203 54zM503 1536l251 310h283l-314 -310h-220z" />
    <glyph glyph-name="racute" unicode="&#x155;" horiz-adv-x="920" 
d="M874 1001l-116.001 -201c-36 22 -82.333 33 -139 33c-165.333 0 -248 -95.333 -248 -286v-547h-251v1022h251v-156c20 58.667 57.833 102.667 113.5 132s113.834 44 174.501 44c81.333 0 153 -13.667 215 -41zM355.999 1124l251 310h283l-314 -310h-220z" />
    <glyph glyph-name="Rcommaaccent" unicode="&#x156;" horiz-adv-x="1347" 
d="M390 0h-270v1434h607c180.667 0 315.5 -39.667 404.5 -119s133.5 -190.333 133.5 -333c0 -60.667 -8.66699 -115.167 -26 -163.5s-41.5 -88.833 -72.5 -121.5s-65.5 -59.5 -103.5 -80.5s-80.667 -37.833 -128 -50.5l332 -566h-303l-310 530h-264v-530zM727 1208h-337
v-452h337c94 0 161.833 17.833 203.5 53.5s62.5 93.167 62.5 172.5c0 78.667 -21 136 -63 172s-109.667 54 -203 54zM348 -532l151 402h269l-189 -402h-231z" />
    <glyph glyph-name="rcommaaccent" unicode="&#x157;" horiz-adv-x="938" 
d="M908 1001l-116.001 -201c-36 22 -82.333 33 -139 33c-165.333 0 -248 -95.333 -248 -286v-547h-251v1022h251v-156c20 58.667 57.833 102.667 113.5 132s113.834 44 174.501 44c81.333 0 153 -13.667 215 -41zM-0.000976562 -532l151 402h269l-189 -402h-231z" />
    <glyph glyph-name="Rcaron" unicode="&#x158;" horiz-adv-x="1347" 
d="M390 0h-270v1434h607c180.667 0 315.5 -39.667 404.5 -119s133.5 -190.333 133.5 -333c0 -60.667 -8.66699 -115.167 -26 -163.5s-41.5 -88.833 -72.5 -121.5s-65.5 -59.5 -103.5 -80.5s-80.667 -37.833 -128 -50.5l332 -566h-303l-310 530h-264v-530zM727 1208h-337
v-452h337c94 0 161.833 17.833 203.5 53.5s62.5 93.167 62.5 172.5c0 78.667 -21 136 -63 172s-109.667 54 -203 54zM980 1827l-281 -291h-146l-281 291h208l146 -129l146 129h208z" />
    <glyph glyph-name="rcaron" unicode="&#x159;" horiz-adv-x="904" 
d="M874 1001l-116.001 -201c-36 22 -82.333 33 -139 33c-165.333 0 -248 -95.333 -248 -286v-547h-251v1022h251v-156c20 58.667 57.833 102.667 113.5 132s113.834 44 174.501 44c81.333 0 153 -13.667 215 -41zM840.999 1434l-281 -291h-146l-281 291h208l146 -129
l146 129h208z" />
    <glyph glyph-name="Sacute" unicode="&#x15a;" horiz-adv-x="1282" 
d="M1151 1331l-132.003 -188.999c-107.333 64 -234.666 96 -381.999 96c-175.333 0 -263 -55.667 -263 -167c0 -56.667 24 -101 72 -133s125.667 -59.333 233 -82c184.667 -39.333 321.334 -95.833 410.001 -169.5s133 -171.834 133 -294.501
c0 -73.333 -13.667 -137.5 -41 -192.5s-66 -99 -116 -132s-107.833 -57.5 -173.5 -73.5s-139.167 -24 -220.5 -24c-136 0 -252 13.167 -348 39.5s-183.667 69.166 -263 128.499l132 189c140.667 -87.333 300.334 -131 479.001 -131c96 0 166.5 15.167 211.5 45.5
s67.5 80.5 67.5 150.5c0 55.333 -25 101.5 -75 138.5s-131.667 67.167 -245 90.5c-184 38.667 -318 95.667 -402 171s-126 168.333 -126 279c0 54.667 10.5 105.167 31.5 151.5s52.5 87.833 94.5 124.5s98 65.334 168 86.001s150.333 31 241 31
c112.667 0 209 -10.333 289 -31s155 -54.667 225 -102zM531.997 1536l251 310h283l-314 -310h-220z" />
    <glyph glyph-name="sacute" unicode="&#x15b;" horiz-adv-x="1047" 
d="M938 941l-105.999 -180.999c-94.667 48.667 -198.667 73 -312 73c-58.667 0 -101.667 -7.5 -129 -22.5s-41 -38.5 -41 -70.5c0 -30 16.667 -53.667 50 -71s84.333 -32.666 153 -45.999c49.333 -9.33301 91.833 -18.666 127.5 -27.999s71 -20.5 106 -33.5
s64 -27.5 87 -43.5s43.5 -34.833 61.5 -56.5s31.167 -46.667 39.5 -75s12.5 -60.5 12.5 -96.5c0 -105.333 -39 -183.333 -117 -234s-187.333 -76 -328 -76c-92.667 0 -182.167 11.167 -268.5 33.5s-157.5 51.166 -213.5 86.499l106 181c54 -28 114.5 -50.333 181.5 -67
s131.833 -25 194.5 -25c70 0 119.667 9.16699 149 27.5s44 46.166 44 83.499c0 12 -2.16699 22.5 -6.5 31.5s-12.333 17.167 -24 24.5s-22.334 13.333 -32.001 18s-25.5 9.5 -47.5 14.5s-39.5 8.83301 -52.5 11.5s-34.5 6.66699 -64.5 12
c-145.333 26.667 -249.833 65.667 -313.5 117s-95.5 121.666 -95.5 210.999c0 92.667 33.667 166.167 101 220.5s174 81.5 320 81.5c170 0 309.333 -33.667 418 -101zM412.001 1124l251 310h283l-314 -310h-220z" />
    <glyph glyph-name="Scircumflex" unicode="&#x15c;" horiz-adv-x="1282" 
d="M1151 1331l-132.003 -188.999c-107.333 64 -234.666 96 -381.999 96c-175.333 0 -263 -55.667 -263 -167c0 -56.667 24 -101 72 -133s125.667 -59.333 233 -82c184.667 -39.333 321.334 -95.833 410.001 -169.5s133 -171.834 133 -294.501
c0 -73.333 -13.667 -137.5 -41 -192.5s-66 -99 -116 -132s-107.833 -57.5 -173.5 -73.5s-139.167 -24 -220.5 -24c-136 0 -252 13.167 -348 39.5s-183.667 69.166 -263 128.499l132 189c140.667 -87.333 300.334 -131 479.001 -131c96 0 166.5 15.167 211.5 45.5
s67.5 80.5 67.5 150.5c0 55.333 -25 101.5 -75 138.5s-131.667 67.167 -245 90.5c-184 38.667 -318 95.667 -402 171s-126 168.333 -126 279c0 54.667 10.5 105.167 31.5 151.5s52.5 87.833 94.5 124.5s98 65.334 168 86.001s150.333 31 241 31
c112.667 0 209 -10.333 289 -31s155 -54.667 225 -102zM711.997 1827l281 -291h-208l-146 129l-146 -129h-208l281 291h146z" />
    <glyph glyph-name="scircumflex" unicode="&#x15d;" horiz-adv-x="1047" 
d="M938 941l-105.999 -180.999c-94.667 48.667 -198.667 73 -312 73c-58.667 0 -101.667 -7.5 -129 -22.5s-41 -38.5 -41 -70.5c0 -30 16.667 -53.667 50 -71s84.333 -32.666 153 -45.999c49.333 -9.33301 91.833 -18.666 127.5 -27.999s71 -20.5 106 -33.5
s64 -27.5 87 -43.5s43.5 -34.833 61.5 -56.5s31.167 -46.667 39.5 -75s12.5 -60.5 12.5 -96.5c0 -105.333 -39 -183.333 -117 -234s-187.333 -76 -328 -76c-92.667 0 -182.167 11.167 -268.5 33.5s-157.5 51.166 -213.5 86.499l106 181c54 -28 114.5 -50.333 181.5 -67
s131.833 -25 194.5 -25c70 0 119.667 9.16699 149 27.5s44 46.166 44 83.499c0 12 -2.16699 22.5 -6.5 31.5s-12.333 17.167 -24 24.5s-22.334 13.333 -32.001 18s-25.5 9.5 -47.5 14.5s-39.5 8.83301 -52.5 11.5s-34.5 6.66699 -64.5 12
c-145.333 26.667 -249.833 65.667 -313.5 117s-95.5 121.666 -95.5 210.999c0 92.667 33.667 166.167 101 220.5s174 81.5 320 81.5c170 0 309.333 -33.667 418 -101zM599.001 1434l281 -291h-208l-146 129l-146 -129h-208l281 291h146z" />
    <glyph glyph-name="Scedilla" unicode="&#x15e;" horiz-adv-x="1282" 
d="M416 -459l45.998 117c21.333 -7.33301 44.5 -13.666 69.5 -18.999s52.667 -8.83301 83 -10.5s56.166 3.66602 77.499 15.999s33.333 32.166 36 59.499c2.66699 20.667 -2.16602 36.834 -14.499 48.501s-31.5 18.5 -57.5 20.5s-52.333 1.83301 -79 -0.5
s-59 -6.5 -97 -12.5l69 214c-200.667 12.667 -363.667 67.334 -489 164.001l132 189c140.667 -87.333 300.334 -131 479.001 -131c96 0 166.5 15.167 211.5 45.5s67.5 80.5 67.5 150.5c0 55.333 -25 101.5 -75 138.5s-131.667 67.167 -245 90.5
c-184 38.667 -318 95.667 -402 171s-126 168.333 -126 279c0 54.667 10.5 105.167 31.5 151.5s52.5 87.833 94.5 124.5s98 65.334 168 86.001s150.333 31 241 31c112.667 0 209 -10.333 289 -31s155 -54.667 225 -102l-132 -189c-107.333 64 -234.666 96 -381.999 96
c-175.333 0 -263 -55.667 -263 -167c0 -56.667 24 -101 72 -133s125.667 -59.333 233 -82c184.667 -39.333 321.334 -95.833 410.001 -169.5s133 -171.834 133 -294.501c0 -70.667 -12.833 -133 -38.5 -187s-62.167 -97.5 -109.5 -130.5s-102.333 -58.167 -165 -75.5
s-132.667 -27 -210 -29l-27 -82c63.333 0 115.5 -15.5 156.5 -46.5s58.5 -79.167 52.5 -144.5c-4.66699 -52 -22.834 -94 -54.501 -126s-70.5 -52.333 -116.5 -61s-94.5 -10.334 -145.5 -5.00098s-100.5 17.333 -148.5 36z" />
    <glyph glyph-name="scedilla" unicode="&#x15f;" horiz-adv-x="1047" 
d="M302 -459l46.002 117.001c21.333 -7.33301 44.5 -13.666 69.5 -18.999s52.667 -8.83301 83 -10.5s56.166 3.66602 77.499 15.999s33.333 32.166 36 59.499c2.66699 20.667 -2.16602 36.834 -14.499 48.501s-31.5 18.5 -57.5 20.5s-52.333 1.83301 -79 -0.5
s-59 -6.5 -97 -12.5l72 225c-154 15.333 -280 53.666 -378 114.999l106 181c54 -28 114.5 -50.333 181.5 -67s131.833 -25 194.5 -25c70 0 119.667 9.16699 149 27.5s44 46.166 44 83.499c0 12 -2.16699 22.5 -6.5 31.5s-12.333 17.167 -24 24.5s-22.334 13.333 -32.001 18
s-25.5 9.5 -47.5 14.5s-39.5 8.83301 -52.5 11.5s-34.5 6.66699 -64.5 12c-145.333 26.667 -249.833 65.667 -313.5 117s-95.5 121.666 -95.5 210.999c0 92.667 33.667 166.167 101 220.5s174 81.5 320 81.5c170 0 309.333 -33.667 418 -101l-106 -181
c-94.667 48.667 -198.667 73 -312 73c-58.667 0 -101.667 -7.5 -129 -22.5s-41 -38.5 -41 -70.5c0 -30 16.667 -53.667 50 -71s84.333 -32.666 153 -45.999c49.333 -9.33301 91.833 -18.666 127.5 -27.999s71 -20.5 106 -33.5s64 -27.5 87 -43.5s43.5 -34.833 61.5 -56.5
s31.167 -46.667 39.5 -75s12.5 -60.5 12.5 -96.5c0 -99.333 -34.833 -174.166 -104.5 -224.499s-167.5 -78.5 -293.5 -84.5l-31 -93c63.333 0 115.5 -15.5 156.5 -46.5s58.5 -79.167 52.5 -144.5c-4.66699 -52 -22.834 -94 -54.501 -126s-70.5 -52.333 -116.5 -61
s-94.5 -10.334 -145.5 -5.00098s-100.5 17.333 -148.5 36z" />
    <glyph glyph-name="Scaron" unicode="&#x160;" horiz-adv-x="1282" 
d="M1151 1331l-132.003 -188.999c-107.333 64 -234.666 96 -381.999 96c-175.333 0 -263 -55.667 -263 -167c0 -56.667 24 -101 72 -133s125.667 -59.333 233 -82c184.667 -39.333 321.334 -95.833 410.001 -169.5s133 -171.834 133 -294.501
c0 -73.333 -13.667 -137.5 -41 -192.5s-66 -99 -116 -132s-107.833 -57.5 -173.5 -73.5s-139.167 -24 -220.5 -24c-136 0 -252 13.167 -348 39.5s-183.667 69.166 -263 128.499l132 189c140.667 -87.333 300.334 -131 479.001 -131c96 0 166.5 15.167 211.5 45.5
s67.5 80.5 67.5 150.5c0 55.333 -25 101.5 -75 138.5s-131.667 67.167 -245 90.5c-184 38.667 -318 95.667 -402 171s-126 168.333 -126 279c0 54.667 10.5 105.167 31.5 151.5s52.5 87.833 94.5 124.5s98 65.334 168 86.001s150.333 31 241 31
c112.667 0 209 -10.333 289 -31s155 -54.667 225 -102zM991.997 1827l-281 -291h-146l-281 291h208l146 -129l146 129h208z" />
    <glyph glyph-name="scaron" unicode="&#x161;" horiz-adv-x="1047" 
d="M938 941l-105.999 -180.999c-94.667 48.667 -198.667 73 -312 73c-58.667 0 -101.667 -7.5 -129 -22.5s-41 -38.5 -41 -70.5c0 -30 16.667 -53.667 50 -71s84.333 -32.666 153 -45.999c49.333 -9.33301 91.833 -18.666 127.5 -27.999s71 -20.5 106 -33.5
s64 -27.5 87 -43.5s43.5 -34.833 61.5 -56.5s31.167 -46.667 39.5 -75s12.5 -60.5 12.5 -96.5c0 -105.333 -39 -183.333 -117 -234s-187.333 -76 -328 -76c-92.667 0 -182.167 11.167 -268.5 33.5s-157.5 51.166 -213.5 86.499l106 181c54 -28 114.5 -50.333 181.5 -67
s131.833 -25 194.5 -25c70 0 119.667 9.16699 149 27.5s44 46.166 44 83.499c0 12 -2.16699 22.5 -6.5 31.5s-12.333 17.167 -24 24.5s-22.334 13.333 -32.001 18s-25.5 9.5 -47.5 14.5s-39.5 8.83301 -52.5 11.5s-34.5 6.66699 -64.5 12
c-145.333 26.667 -249.833 65.667 -313.5 117s-95.5 121.666 -95.5 210.999c0 92.667 33.667 166.167 101 220.5s174 81.5 320 81.5c170 0 309.333 -33.667 418 -101zM877.001 1434l-281 -291h-146l-281 291h208l146 -129l146 129h208z" />
    <glyph glyph-name="Tcommaaccent" unicode="&#x162;" horiz-adv-x="1368" 
d="M60 1434h1248v-226h-489v-1208h-270v1208h-489v226zM397 -532l151 402h269l-189 -402h-231z" />
    <glyph glyph-name="tcommaaccent" unicode="&#x163;" horiz-adv-x="908" 
d="M60 813l-0.00390625 209.002h197v299h251v-299h292v-209h-292v-362c0 -34.667 0.833008 -63.834 2.5 -87.501s5.33398 -47.5 11.001 -71.5s13.834 -42.833 24.501 -56.5s25 -24.834 43 -33.501s40 -13 66 -13c50 0 95.667 9.66699 137 29l56 -193
c-68 -30 -145.667 -45 -233 -45c-70.667 0 -129.667 10 -177 30s-84.166 51.167 -110.499 93.5s-44.666 90.833 -54.999 145.5s-15.5 122 -15.5 202v362h-197zM282.996 -531.998l151 402h269l-189 -402h-231z" />
    <glyph glyph-name="Tcaron" unicode="&#x164;" horiz-adv-x="1368" 
d="M60 1434h1248v-226h-489v-1208h-270v1208h-489v226zM1038 1827l-281 -291h-146l-281 291h208l146 -129l146 129h208z" />
    <glyph glyph-name="tcaron" unicode="&#x165;" horiz-adv-x="1328" 
d="M60 813l-0.00390625 209.002h197v299h251v-299h292v-209h-292v-362c0 -34.667 0.833008 -63.834 2.5 -87.501s5.33398 -47.5 11.001 -71.5s13.834 -42.833 24.501 -56.5s25 -24.834 43 -33.501s40 -13 66 -13c50 0 95.667 9.66699 137 29l56 -193
c-68 -30 -145.667 -45 -233 -45c-70.667 0 -129.667 10 -177 30s-84.166 51.167 -110.499 93.5s-44.666 90.833 -54.999 145.5s-15.5 122 -15.5 202v362h-197zM847.996 972.002l151 462h269l-189 -462h-231z" />
    <glyph glyph-name="Tbar" unicode="&#x166;" horiz-adv-x="1368" 
d="M246 796v226h303v186h-489v226h1248v-226h-489v-186h303v-226h-303v-796h-270v796h-303z" />
    <glyph glyph-name="tbar" unicode="&#x167;" horiz-adv-x="908" 
d="M60 452l-0.00390625 209.002h197v152h-197v209h197v299h251v-299h292v-209h-292v-152h292v-209h-292v-1c0 -34.667 0.833008 -63.834 2.5 -87.501s5.33398 -47.5 11.001 -71.5s13.834 -42.833 24.501 -56.5s25 -24.834 43 -33.501s40 -13 66 -13
c50 0 95.667 9.66699 137 29l56 -193c-68 -30 -145.667 -45 -233 -45c-70.667 0 -129.667 10 -177 30s-84.166 51.167 -110.499 93.5s-44.666 90.833 -54.999 145.5s-15.5 122 -15.5 202v1h-197z" />
    <glyph glyph-name="Utilde" unicode="&#x168;" horiz-adv-x="1495" 
d="M747 196c128.667 0 220.499 37.167 275.499 111.5s82.5 182.166 82.5 323.499v803h270v-803c0 -211.333 -51.5 -374.333 -154.5 -489s-260.833 -172 -473.5 -172c-212 0 -369.5 57.333 -472.5 172s-154.5 277.667 -154.5 489v803h270v-803
c0 -141.333 27.333 -249.166 82 -323.499s146.334 -111.5 275.001 -111.5zM708.999 1600c-1.33301 1.33301 -5.16602 4.16699 -11.499 8.5l-15 10l-14 8.5c-5.66699 3.33301 -11.167 5.66602 -16.5 6.99902s-10.666 2 -15.999 2c-23.333 0 -39.666 -13 -48.999 -39
c-4 -12 -6 -25 -6 -39h-185c1.33301 47.333 10 88.666 26 123.999c36 83.333 105.667 125 209 125c50 0 101.667 -21.333 155 -64c1.33301 -1.33301 5.16602 -4.16602 11.499 -8.49902l15 -10l14 -8.5c5.66699 -3.33301 11.167 -5.66602 16.5 -6.99902s10.666 -2 15.999 -2
c23.333 0 39.666 13 48.999 39c4 10.667 6 23.667 6 39h185c-1.33301 -48 -10 -89.667 -26 -125c-40 -82.667 -109.667 -124 -209 -124c-50 0 -101.667 21.333 -155 64z" />
    <glyph glyph-name="utilde" unicode="&#x169;" 
d="M866 475l0.000976562 547h251v-1022h-251v156c-14 -40.667 -37.5 -74.667 -70.5 -102s-67.833 -46.5 -104.5 -57.5s-74.334 -16.5 -113.001 -16.5c-143.333 0 -255.5 42.5 -336.5 127.5s-121.5 207.5 -121.5 367.5v547h251v-547c0 -90 21 -160.167 63 -210.5
s103.333 -75.5 184 -75.5c81.333 0 143 25.167 185 75.5s63 120.5 63 210.5zM580.001 1247c-1.33301 1.33301 -5.16602 4.16699 -11.499 8.5l-15 10l-14 8.5c-5.66699 3.33301 -11.167 5.66602 -16.5 6.99902s-10.666 2 -15.999 2c-23.333 0 -39.666 -13 -48.999 -39
c-4 -12 -6 -25 -6 -39h-185c1.33301 47.333 10 88.666 26 123.999c36 83.333 105.667 125 209 125c50 0 101.667 -21.333 155 -64c1.33301 -1.33301 5.16602 -4.16602 11.499 -8.49902l15 -10l14 -8.5c5.66699 -3.33301 11.167 -5.66602 16.5 -6.99902s10.666 -2 15.999 -2
c23.333 0 39.666 13 48.999 39c4 11.333 6 24.333 6 39h185c-1.33301 -48 -10 -89.667 -26 -125c-40 -82.667 -109.667 -124 -209 -124c-50 0 -101.667 21.333 -155 64z" />
    <glyph glyph-name="Umacron" unicode="&#x16a;" horiz-adv-x="1495" 
d="M747 196c128.667 0 220.499 37.167 275.499 111.5s82.5 182.166 82.5 323.499v803h270v-803c0 -211.333 -51.5 -374.333 -154.5 -489s-260.833 -172 -473.5 -172c-212 0 -369.5 57.333 -472.5 172s-154.5 277.667 -154.5 489v803h270v-803
c0 -141.333 27.333 -249.166 82 -323.499s146.334 -111.5 275.001 -111.5zM349.999 1536v189h794v-189h-794z" />
    <glyph glyph-name="umacron" unicode="&#x16b;" 
d="M866 475l0.000976562 547h251v-1022h-251v156c-14 -40.667 -37.5 -74.667 -70.5 -102s-67.833 -46.5 -104.5 -57.5s-74.334 -16.5 -113.001 -16.5c-143.333 0 -255.5 42.5 -336.5 127.5s-121.5 207.5 -121.5 367.5v547h251v-547c0 -90 21 -160.167 63 -210.5
s103.333 -75.5 184 -75.5c81.333 0 143 25.167 185 75.5s63 120.5 63 210.5zM221.001 1245v189h794v-189h-794z" />
    <glyph glyph-name="Ubreve" unicode="&#x16c;" horiz-adv-x="1495" 
d="M747 196c128.667 0 220.499 37.167 275.499 111.5s82.5 182.166 82.5 323.499v803h270v-803c0 -211.333 -51.5 -374.333 -154.5 -489s-260.833 -172 -473.5 -172c-212 0 -369.5 57.333 -472.5 172s-154.5 277.667 -154.5 489v803h270v-803
c0 -141.333 27.333 -249.166 82 -323.499s146.334 -111.5 275.001 -111.5zM746.999 1536c-56 0 -107 8.33301 -153 25s-83 38 -111 64s-50.167 52.333 -66.5 79s-27.5 52.667 -33.5 78h182c36 -61.333 96.667 -92 182 -92s146 30.667 182 92h182
c-6 -25.333 -17.167 -51.333 -33.5 -78s-38.5 -53 -66.5 -79s-65 -47.333 -111 -64s-97 -25 -153 -25z" />
    <glyph glyph-name="ubreve" unicode="&#x16d;" 
d="M866 475l0.000976562 547h251v-1022h-251v156c-14 -40.667 -37.5 -74.667 -70.5 -102s-67.833 -46.5 -104.5 -57.5s-74.334 -16.5 -113.001 -16.5c-143.333 0 -255.5 42.5 -336.5 127.5s-121.5 207.5 -121.5 367.5v547h251v-547c0 -90 21 -160.167 63 -210.5
s103.333 -75.5 184 -75.5c81.333 0 143 25.167 185 75.5s63 120.5 63 210.5zM618.001 1188c-56 0 -107 8.33301 -153 25s-83 38 -111 64s-50.167 52.333 -66.5 79s-27.5 52.667 -33.5 78h182c36 -61.333 96.667 -92 182 -92s146 30.667 182 92h182
c-6 -25.333 -17.167 -51.333 -33.5 -78s-38.5 -53 -66.5 -79s-65 -47.333 -111 -64s-97 -25 -153 -25z" />
    <glyph glyph-name="Uring" unicode="&#x16e;" horiz-adv-x="1495" 
d="M747 196c128.667 0 220.499 37.167 275.499 111.5s82.5 182.166 82.5 323.499v803h270v-803c0 -211.333 -51.5 -374.333 -154.5 -489s-260.833 -172 -473.5 -172c-212 0 -369.5 57.333 -472.5 172s-154.5 277.667 -154.5 489v803h270v-803
c0 -141.333 27.333 -249.166 82 -323.499s146.334 -111.5 275.001 -111.5zM519.999 1763c0 62.667 22.167 116.167 66.5 160.5s97.833 66.5 160.5 66.5s116.167 -22.167 160.5 -66.5s66.5 -97.833 66.5 -160.5s-22.167 -116.167 -66.5 -160.5s-97.833 -66.5 -160.5 -66.5
s-116.167 22.167 -160.5 66.5s-66.5 97.833 -66.5 160.5zM668.999 1763c0 -21.333 7.66699 -39.666 23 -54.999s33.666 -23 54.999 -23s39.666 7.66699 54.999 23s23 33.666 23 54.999s-7.66699 39.666 -23 54.999s-33.666 23 -54.999 23s-39.666 -7.66699 -54.999 -23
s-23 -33.666 -23 -54.999z" />
    <glyph glyph-name="uring" unicode="&#x16f;" 
d="M866 475l0.000976562 547h251v-1022h-251v156c-14 -40.667 -37.5 -74.667 -70.5 -102s-67.833 -46.5 -104.5 -57.5s-74.334 -16.5 -113.001 -16.5c-143.333 0 -255.5 42.5 -336.5 127.5s-121.5 207.5 -121.5 367.5v547h251v-547c0 -90 21 -160.167 63 -210.5
s103.333 -75.5 184 -75.5c81.333 0 143 25.167 185 75.5s63 120.5 63 210.5zM391.001 1390c0 62.667 22.167 116.167 66.5 160.5s97.833 66.5 160.5 66.5s116.167 -22.167 160.5 -66.5s66.5 -97.833 66.5 -160.5s-22.167 -116.167 -66.5 -160.5s-97.833 -66.5 -160.5 -66.5
s-116.167 22.167 -160.5 66.5s-66.5 97.833 -66.5 160.5zM540.001 1390c0 -21.333 7.66699 -39.666 23 -54.999s33.666 -23 54.999 -23s39.666 7.66699 54.999 23s23 33.666 23 54.999s-7.66699 39.666 -23 54.999s-33.666 23 -54.999 23s-39.666 -7.66699 -54.999 -23
s-23 -33.666 -23 -54.999z" />
    <glyph glyph-name="Uhungarumlaut" unicode="&#x170;" horiz-adv-x="1495" 
d="M747 196c128.667 0 220.499 37.167 275.499 111.5s82.5 182.166 82.5 323.499v803h270v-803c0 -211.333 -51.5 -374.333 -154.5 -489s-260.833 -172 -473.5 -172c-212 0 -369.5 57.333 -472.5 172s-154.5 277.667 -154.5 489v803h270v-803
c0 -141.333 27.333 -249.166 82 -323.499s146.334 -111.5 275.001 -111.5zM462.999 1536l91 342h249l-149 -342h-191zM786.999 1536l91 342h249l-149 -342h-191z" />
    <glyph glyph-name="uhungarumlaut" unicode="&#x171;" 
d="M866 475l0.000976562 547h251v-1022h-251v156c-14 -40.667 -37.5 -74.667 -70.5 -102s-67.833 -46.5 -104.5 -57.5s-74.334 -16.5 -113.001 -16.5c-143.333 0 -255.5 42.5 -336.5 127.5s-121.5 207.5 -121.5 367.5v547h251v-547c0 -90 21 -160.167 63 -210.5
s103.333 -75.5 184 -75.5c81.333 0 143 25.167 185 75.5s63 120.5 63 210.5zM353.001 1174l91 342h249l-149 -342h-191zM677.001 1174l91 342h249l-149 -342h-191z" />
    <glyph glyph-name="Uogonek" unicode="&#x172;" horiz-adv-x="1495" 
d="M747 196c128.667 0 220.499 37.1689 275.499 111.502s82.5 182.166 82.5 323.499v803h270v-803c0 -183.333 -39.167 -330.833 -117.5 -442.5s-197.5 -180.5 -357.5 -206.5c-56.667 -32 -85 -73 -85 -123c0 -45.333 30.333 -77.333 91 -96
c28 -8.66699 58.333 -13.334 91 -14.001v-207c-28 -2 -57 -2 -87 0s-63.167 8 -99.5 18s-68.333 23.833 -96 41.5s-51 43 -70 76s-28.5 71.5 -28.5 115.5c0 75.333 30 134.666 90 177.999c-198 8 -345.167 69 -441.5 183s-144.5 273 -144.5 477v803h270v-803
c0 -141.333 27.333 -249.166 82 -323.499s146.334 -111.5 275.001 -111.5z" />
    <glyph glyph-name="uogonek" unicode="&#x173;" horiz-adv-x="1289" 
d="M1117 1022l0.000976562 -1022c-24 -6.66699 -45.667 -16.667 -65 -30c-43.333 -30 -65 -67 -65 -111c0 -45.333 30.333 -77.333 91 -96c28 -8.66699 58.333 -13.334 91 -14.001v-207c-28 -2 -57 -2 -87 0s-63.167 8 -99.5 18s-68.333 23.833 -96 41.5s-51 43 -70 76
s-28.5 71.5 -28.5 115.5c0 28.667 4.66699 55.167 14 79.5s19.5 43.333 30.5 57s24.833 26.5 41.5 38.5s28.167 19.333 34.5 22s13.833 5.66699 22.5 9l2 1h-67v156c-14 -40.667 -37.5 -74.667 -70.5 -102s-67.833 -46.5 -104.5 -57.5s-74.334 -16.5 -113.001 -16.5
c-143.333 0 -255.5 42.5 -336.5 127.5s-121.5 207.5 -121.5 367.5v547h251v-547c0 -90 21 -160.167 63 -210.5s103.333 -75.5 184 -75.5c81.333 0 143 25.167 185 75.5s63 120.5 63 210.5v547h251z" />
    <glyph glyph-name="Wcircumflex" unicode="&#x174;" horiz-adv-x="2026" 
d="M600 452l266 982h294l266 -982l279 982h291l-441 -1434h-260l-282 1062l-282 -1062h-260l-441 1434h291zM1086 1827l281 -291h-208l-146 129l-146 -129h-208l281 291h146z" />
    <glyph glyph-name="wcircumflex" unicode="&#x175;" horiz-adv-x="1612" 
d="M987 0l-181 671l-181 -671h-266l-329 1022h265l193 -701l191 701h254l191 -701l193 701h265l-329 -1022h-266zM879 1434l281 -291h-208l-146 129l-146 -129h-208l281 291h146z" />
    <glyph glyph-name="Ycircumflex" unicode="&#x176;" horiz-adv-x="1424" 
d="M322 1434l390 -606l390 606h292l-547 -837v-597h-270v598l-547 836h292zM785 1827l281 -291h-208l-146 129l-146 -129h-208l281 291h146z" />
    <glyph glyph-name="ycircumflex" unicode="&#x177;" horiz-adv-x="1177" 
d="M467 0l-437 1022h267l291 -727l292 727h267l-565 -1317l-20 -41.5c-4 -8.33301 -10.5 -21 -19.5 -38s-16.667 -29.667 -23 -38l-25.5 -32.5c-10.667 -13.333 -21 -23.333 -31 -30s-22.167 -14.334 -36.5 -23.001s-29.166 -15 -44.499 -19s-32.833 -7.5 -52.5 -10.5
s-40.834 -4.5 -63.501 -4.5c-79.333 0 -150 16.333 -212 49l85 188c40 -18.667 76.667 -28 110 -28c12 0 22.833 0.833008 32.5 2.5s18.5 5.33398 26.5 11.001l19.5 13.5c5 3.33301 10.667 10.5 17 21.5l13.5 23c2.66699 4.33301 7.5 14.333 14.5 30
s11.833 25.834 14.5 30.501zM661 1434l281 -291h-208l-146 129l-146 -129h-208l281 291h146z" />
    <glyph glyph-name="Ydieresis" unicode="&#x178;" horiz-adv-x="1424" 
d="M322 1434l390 -606l390 606h292l-547 -837v-597h-270v598l-547 836h292zM343 1683c0 40.667 14.333 75.334 43 104.001s63.334 43 104.001 43s75.334 -14.333 104.001 -43s43 -63.334 43 -104.001s-14.333 -75.334 -43 -104.001s-63.334 -43 -104.001 -43
s-75.334 14.333 -104.001 43s-43 63.334 -43 104.001zM787 1683c0 40.667 14.333 75.334 43 104.001s63.334 43 104.001 43s75.334 -14.333 104.001 -43s43 -63.334 43 -104.001s-14.333 -75.334 -43 -104.001s-63.334 -43 -104.001 -43s-75.334 14.333 -104.001 43
s-43 63.334 -43 104.001z" />
    <glyph glyph-name="Zacute" unicode="&#x179;" horiz-adv-x="1357" 
d="M480 226h777v-226h-1157v134l777 1074h-735v226h1115v-134zM560 1536l251 310h283l-314 -310h-220z" />
    <glyph glyph-name="zacute" unicode="&#x17a;" horiz-adv-x="1122" 
d="M100 0v125l545 688h-513v209h890v-125l-545 -688h545v-209h-922zM429 1124l251 310h283l-314 -310h-220z" />
    <glyph glyph-name="Zdotaccent" unicode="&#x17b;" horiz-adv-x="1357" 
d="M480 226h777v-226h-1157v134l777 1074h-735v226h1115v-134zM531 1703c0 40.667 14.333 75.334 43 104.001s63.334 43 104.001 43s75.334 -14.333 104.001 -43s43 -63.334 43 -104.001s-14.333 -75.334 -43 -104.001s-63.334 -43 -104.001 -43s-75.334 14.333 -104.001 43
s-43 63.334 -43 104.001z" />
    <glyph glyph-name="zdotaccent" unicode="&#x17c;" horiz-adv-x="1122" 
d="M100 0v125l545 688h-513v209h890v-125l-545 -688h545v-209h-922zM414 1327c0 40.667 14.333 75.334 43 104.001s63.334 43 104.001 43s75.334 -14.333 104.001 -43s43 -63.334 43 -104.001s-14.333 -75.334 -43 -104.001s-63.334 -43 -104.001 -43
s-75.334 14.333 -104.001 43s-43 63.334 -43 104.001z" />
    <glyph glyph-name="Zcaron" unicode="&#x17d;" horiz-adv-x="1357" 
d="M480 226h777v-226h-1157v134l777 1074h-735v226h1115v-134zM1032 1827l-281 -291h-146l-281 291h208l146 -129l146 129h208z" />
    <glyph glyph-name="zcaron" unicode="&#x17e;" horiz-adv-x="1122" 
d="M100 0v125l545 688h-513v209h890v-125l-545 -688h545v-209h-922zM915 1434l-281 -291h-146l-281 291h208l146 -129l146 129h208z" />
    <glyph glyph-name="longs" unicode="&#x17f;" horiz-adv-x="920" 
d="M673 1327c-20 0 -37.666 -2.66797 -52.999 -8.00098s-28.166 -11.833 -38.499 -19.5s-19 -19.5 -26 -35.5s-12.333 -30.5 -16 -43.5s-6.33398 -32.5 -8.00098 -58.5s-2.66699 -47.5 -3 -64.5s-0.5 -42.167 -0.5 -75.5v-1022h-251v813h-197v209h197
c0.666992 88 6.66699 162 18 222s30.833 112.833 58.5 158.5s66.167 79.334 115.5 101.001s110.666 32.5 183.999 32.5c84.667 0 163.667 -11.667 237 -35l-72 -194c-48.667 13.333 -97 20 -145 20z" />
    <glyph glyph-name="uni0180" unicode="&#x180;" horiz-adv-x="1402" 
d="M220 1341v175.002h251v-175h282v-200h-282v-290c30 60.667 78.5 107.667 145.5 141s134.833 50 203.5 50c102.667 0 192.5 -23.5 269.5 -70.5s135 -110.333 174 -190s58.5 -169.834 58.5 -270.501c0 -101.333 -19.5 -191.833 -58.5 -271.5s-97 -142.834 -174 -189.501
s-166.833 -70 -269.5 -70c-68.667 0 -136.5 16.667 -203.5 50s-115.5 80.333 -145.5 141v-171h-251v1141h-190v200h190zM768 190.002c99.333 0 173.666 30.5 222.999 91.5s74 137.5 74 229.5s-24.667 168.5 -74 229.5s-123.666 91.5 -222.999 91.5
s-173.666 -30.5 -222.999 -91.5s-74 -137.5 -74 -229.5s24.667 -168.5 74 -229.5s123.666 -91.5 222.999 -91.5z" />
    <glyph glyph-name="uni0181" unicode="&#x181;" horiz-adv-x="1773" 
d="M1154 0h-671.999v1208h-63c-12 0 -23.5 -1.83301 -34.5 -5.5s-23.5 -11 -37.5 -22s-25.333 -29.667 -34 -56s-13 -58.5 -13 -96.5h-270c0 55.333 6 105.333 18 150s26.5 80.834 43.5 108.501s39 51.5 66 71.5s51.167 34.667 72.5 44s46.666 16.666 75.999 21.999
s50.666 8.33301 63.999 9s29.666 1 48.999 1h735c88.667 0 165.667 -9.66699 231 -29s116.666 -46.333 153.999 -81s64.833 -74 82.5 -118s26.5 -93 26.5 -147c0 -43.333 -7.16699 -83.333 -21.5 -120s-33.166 -67.167 -56.499 -91.5s-47.666 -44.5 -72.999 -60.5
s-51 -28 -77 -36c84 -21.333 150.5 -60 199.5 -116s73.5 -129.333 73.5 -220c0 -59.333 -10.667 -113.833 -32 -163.5s-53.166 -93.5 -95.499 -131.5s-98.5 -67.5 -168.5 -88.5s-151 -31.5 -243 -31.5zM752.001 226h402c98.667 0 168 16.667 208 50s60 83 60 149
c0 65.333 -20.833 115 -62.5 149s-110.167 51 -205.5 51h-402v-399zM752.001 852h402c148.667 0 223 59.333 223 178s-74.333 178 -223 178h-402v-356z" />
    <glyph glyph-name="uni0182" unicode="&#x182;" horiz-adv-x="1250" 
d="M120 1434l927 -0.000976562v-226h-657v-344h314c158 0 275.167 -39 351.5 -117s114.5 -183 114.5 -315c0 -131.333 -38.167 -236.166 -114.5 -314.499s-193.5 -117.5 -351.5 -117.5h-584v1434zM390 225.999h314c130.667 0 196 68.667 196 206s-65.333 206 -196 206h-314
v-412z" />
    <glyph glyph-name="uni0183" unicode="&#x183;" horiz-adv-x="1302" 
d="M120 0v1434h924v-210h-673v-373c30 60.667 78.5 107.667 145.5 141s134.833 50 203.5 50c102.667 0 192.5 -23.5 269.5 -70.5s135 -110.333 174 -190s58.5 -169.834 58.5 -270.501c0 -101.333 -19.5 -191.833 -58.5 -271.5s-97 -142.834 -174 -189.501
s-166.833 -70 -269.5 -70c-68.667 0 -136.5 16.667 -203.5 50s-115.5 80.333 -145.5 141v-171h-251zM668 832.002c-99.333 0 -173.666 -30.5 -222.999 -91.5s-74 -137.5 -74 -229.5s24.667 -168.5 74 -229.5s123.666 -91.5 222.999 -91.5s173.666 30.5 222.999 91.5
s74 137.5 74 229.5s-24.667 168.5 -74 229.5s-123.666 91.5 -222.999 91.5z" />
    <glyph glyph-name="uni0184" unicode="&#x184;" horiz-adv-x="1250" 
d="M1170 475c0 -51.333 -5.66699 -100.166 -17 -146.499s-30 -91 -56 -134s-58.667 -80.167 -98 -111.5s-89.333 -56.333 -150 -75s-128.667 -28 -204 -28c-78.667 0 -148.667 11.333 -210 34s-111 52 -149 88s-69.667 79 -95 129s-43 99.167 -53 147.5
s-16 99.166 -18 152.499v985h270v-615c27.333 19.333 65 35.166 113 47.499s95.333 18.5 142 18.5c75.333 0 143.333 -9.16699 204 -27.5s110.667 -43 150 -74s72 -67.833 98 -110.5s44.667 -87.167 56 -133.5s17 -95.166 17 -146.499zM900 475
c0 34 -5.16699 66.333 -15.5 97s-25.5 58.834 -45.5 84.501s-46.667 46 -80 61s-71.333 22.5 -114 22.5s-80.667 -7.5 -114 -22.5s-60 -35.333 -80 -61s-35.167 -53.834 -45.5 -84.501s-15.5 -63 -15.5 -97c0 -72.667 22 -135.667 66 -189s107 -80 189 -80
s145 26.667 189 80s66 116.333 66 189z" />
    <glyph glyph-name="uni0185" unicode="&#x185;" horiz-adv-x="1302" 
d="M120 666l-0.00195312 850.002h251v-665c30 60.667 78.5 107.667 145.5 141s134.833 50 203.5 50c102.667 0 192.5 -23.5 269.5 -70.5s135 -110.333 174 -190s58.5 -169.834 58.5 -270.501c0 -76.667 -11.333 -146.834 -34 -210.501s-56.167 -119.667 -100.5 -168
s-102.166 -85.833 -173.499 -112.5s-152.666 -40 -243.999 -40c-182 0 -319.167 59.833 -411.5 179.5s-138.5 288.5 -138.5 506.5zM667.998 832.002c-99.333 0 -173.666 -30.5 -222.999 -91.5s-74 -137.5 -74 -229.5s24.667 -168.5 74 -229.5s123.666 -91.5 222.999 -91.5
s173.666 30.5 222.999 91.5s74 137.5 74 229.5s-24.667 168.5 -74 229.5s-123.666 91.5 -222.999 91.5z" />
    <glyph glyph-name="uni0186" unicode="&#x186;" horiz-adv-x="1436" 
d="M1082 717c0 76 -10 145.331 -30 207.998s-49.667 117.5 -89 164.5s-90.333 83.5 -153 109.5s-134.667 39 -216 39c-152 0 -287 -39.333 -405 -118l-129 178c128 110.667 306 166 534 166c120.667 0 229.334 -18.667 326.001 -56s176.667 -89.166 240 -155.499
s111.833 -145 145.5 -236s50.5 -190.833 50.5 -299.5s-16.833 -208.5 -50.5 -299.5s-82.167 -169.667 -145.5 -236s-143.333 -118.166 -240 -155.499s-205.334 -56 -326.001 -56c-228 0 -406 55.333 -534 166l129 178c118 -78.667 253 -118 405 -118
c81.333 0 153.333 13 216 39s113.667 62.5 153 109.5s69 101.833 89 164.5s30 132 30 208z" />
    <glyph glyph-name="uni0187" unicode="&#x187;" horiz-adv-x="1475" 
d="M354 717c0 -76 10.001 -145.332 30.001 -207.999s49.667 -117.5 89 -164.5s90.333 -83.5 153 -109.5s134.667 -39 216 -39c151.333 0 286.333 39.333 405 118l129 -178c-128 -110.667 -306 -166 -534 -166c-120.667 0 -229.334 18.667 -326.001 56
s-176.667 89.166 -240 155.499s-111.833 145 -145.5 236s-50.5 190.833 -50.5 299.5c0 108 16.833 207.5 50.5 298.5s82 169.833 145 236.5s142.833 118.667 239.5 156s205.334 56 326.001 56c106.667 0 196.334 -14.667 269.001 -44c0 34 2.16699 65.333 6.5 94
s13.166 58.167 26.499 88.5s30.666 55.833 51.999 76.5s50.833 37.667 88.5 51s81.5 20 131.5 20v-228c-16 0 -30 -3 -42 -9c-27.333 -14 -41 -37 -41 -69v-366c-144.667 106.667 -308 160 -490 160c-81.333 0 -153.333 -13 -216 -39s-113.667 -62.5 -153 -109.5
s-69 -101.833 -89 -164.5s-30 -132 -30 -208z" />
    <glyph glyph-name="uni0188" unicode="&#x188;" horiz-adv-x="1192" 
d="M337 511c0 -43.333 6.16895 -83.833 18.502 -121.5s30.833 -71.667 55.5 -102s57.5 -54.333 98.5 -72s87.833 -26.5 140.5 -26.5c113.333 0 211.333 33 294 99l128 -161c-98.667 -98 -239.334 -147 -422.001 -147c-171.333 0 -309.166 50.167 -413.499 150.5
s-156.5 227.166 -156.5 380.499c0 74.667 13.5 144.5 40.5 209.5s64.833 121.333 113.5 169s108.834 85 180.501 112s150.167 40.5 235.5 40.5c57.333 0 109 -5.33301 155 -16c0 41.333 5.66699 78.833 17 112.5s29.166 64.5 53.499 92.5s58.333 49.833 102 65.5
s95.167 23.5 154.5 23.5v-244c-16.667 -0.666992 -33.334 -5 -50.001 -13c-32.667 -19.333 -49 -51.666 -49 -96.999v-240c-118.667 71.333 -246.334 107 -383.001 107c-52.667 0 -99.5 -8.83301 -140.5 -26.5s-73.833 -41.667 -98.5 -72s-43.167 -64.333 -55.5 -102
s-18.5 -78.167 -18.5 -121.5z" />
    <glyph glyph-name="uni0189" unicode="&#x189;" horiz-adv-x="1610" 
d="M30 604l0.000976562 226.001h228v604h565c117.333 0 221.666 -18.333 312.999 -55s165.333 -87.667 222 -153s99.5 -140.833 128.5 -226.5s43.5 -179.834 43.5 -282.501s-14.5 -197 -43.5 -283s-71.833 -161.5 -128.5 -226.5s-130.5 -115.833 -221.5 -152.5
s-195.5 -55 -313.5 -55h-565v604h-228zM528.001 604.001v-377.998h295c74.667 0 140.667 13.333 198 40s102.666 63.167 135.999 109.5s58.333 98.166 75 155.499s25 119.333 25 186s-8.33301 128.667 -25 186s-41.667 109.166 -75 155.499s-78.666 82.833 -135.999 109.5
s-123.333 40 -198 40h-295v-378h302v-226h-302z" />
    <glyph glyph-name="uni018A" unicode="&#x18a;" horiz-adv-x="1834" 
d="M1754 717c0 -102.667 -14.4961 -196.999 -43.4961 -282.999s-71.833 -161.5 -128.5 -226.5s-130.5 -115.833 -221.5 -152.5s-195.5 -55 -313.5 -55h-565v1208h-63c-12 0 -23.5 -1.83301 -34.5 -5.5s-23.5 -11 -37.5 -22s-25.333 -29.667 -34 -56s-13 -58.5 -13 -96.5
h-270c0 55.333 6 105.333 18 150s26.5 80.834 43.5 108.501s39 51.5 66 71.5s51.167 34.667 72.5 44s46.666 16.666 75.999 21.999s50.666 8.33301 63.999 9s29.666 1 48.999 1h628c117.333 0 221.666 -18.333 312.999 -55s165.333 -87.667 222 -153
s99.5 -140.833 128.5 -226.5s43.5 -179.834 43.5 -282.501zM752.004 1208v-981.998h295c74.667 0 140.667 13.333 198 40s102.666 63.167 135.999 109.5s58.333 98.166 75 155.499s25 119.333 25 186s-8.33301 128.667 -25 186s-41.667 109.166 -75 155.499
s-78.666 82.833 -135.999 109.5s-123.333 40 -198 40h-295z" />
    <glyph glyph-name="uni018B" unicode="&#x18b;" horiz-adv-x="1250" 
d="M203 1434l927 0.000976562v-1434h-584c-158 0 -275.167 39.167 -351.5 117.5s-114.5 183.166 -114.5 314.499c0 132 38.167 237 114.5 315s193.5 117 351.5 117h314v344h-657v226zM546 226.001h314v412h-314c-130.667 0 -196 -68.667 -196 -206s65.333 -206 196 -206z
" />
    <glyph glyph-name="uni018C" unicode="&#x18c;" horiz-adv-x="1302" 
d="M1182 1434v-1434h-251v171c-30 -60.667 -78.5 -107.667 -145.5 -141s-134.833 -50 -203.5 -50c-102.667 0 -192.5 23.333 -269.5 70s-135 109.834 -174 189.501s-58.5 170.167 -58.5 271.5c0 100.667 19.5 190.834 58.5 270.501s97 143 174 190s166.833 70.5 269.5 70.5
c68.667 0 136.5 -16.667 203.5 -50s115.5 -80.333 145.5 -141v373h-673v210h924zM634 831.998c-99.333 0 -173.666 -30.5 -222.999 -91.5s-74 -137.5 -74 -229.5s24.667 -168.5 74 -229.5s123.666 -91.5 222.999 -91.5s173.666 30.5 222.999 91.5s74 137.5 74 229.5
s-24.667 168.5 -74 229.5s-123.666 91.5 -222.999 91.5z" />
    <glyph glyph-name="uni018D" unicode="&#x18d;" horiz-adv-x="1300" 
d="M1220 511c0 -142.667 -45.168 -262.5 -135.501 -359.5s-211.166 -152.833 -362.499 -167.5l358 -349v-167h-861v209h483l-459 447c-108.667 115.333 -163 244.333 -163 387c0 74.667 13.5 144.5 40.5 209.5s64.833 121.333 113.5 169s108.834 85 180.501 112
s150.167 40.5 235.5 40.5c171.333 0 309.166 -50 413.499 -150s156.5 -227 156.5 -381zM962.999 511c0 88.667 -28.333 164.5 -85 227.5s-132.667 94.5 -228 94.5s-171.333 -31.5 -228 -94.5s-85 -138.833 -85 -227.5s28.333 -164.5 85 -227.5s132.667 -94.5 228 -94.5
s171.333 31.5 228 94.5s85 138.833 85 227.5z" />
    <glyph glyph-name="uni018E" unicode="&#x18e;" horiz-adv-x="1247" 
d="M144 844h713v364h-747v226h1017v-1434h-1027v226h757v392h-713v226z" />
    <glyph glyph-name="uni018F" unicode="&#x18f;" horiz-adv-x="1535" 
d="M769 1238c-104.667 0 -197.331 -15.4951 -277.998 -46.4951s-145.667 -65.833 -195 -104.5l-132 188c29.333 24 59.666 45.5 90.999 64.5s71.333 38.667 120 59s106.667 36.333 174 48s140.666 17.5 219.999 17.5c89.333 0 171.333 -12 246 -36s139 -58.167 193 -102.5
s99.5 -97.333 136.5 -159s64.667 -130.334 83 -206.001s27.5 -156.834 27.5 -243.501s-9.16699 -167.834 -27.5 -243.501s-46 -144.334 -83 -206.001s-82.5 -114.667 -136.5 -159s-118.333 -78.5 -193 -102.5s-156.667 -36 -246 -36c-226.667 0 -401.167 74.5 -523.5 223.5
s-176.833 362.167 -163.5 639.5h1084c-8 129.333 -45.667 229.166 -113 299.499s-162 105.5 -284 105.5zM1166 606.005h-795c4 -125.333 39.167 -225 105.5 -299s163.833 -111 292.5 -111s226 37 292 111s101 173.667 105 299z" />
    <glyph glyph-name="uni0190" unicode="&#x190;" horiz-adv-x="1240" 
d="M979 332l180.999 -137.002c-14.667 -20 -29.834 -38.167 -45.501 -54.5s-38.5 -35.166 -68.5 -56.499s-62.667 -39 -98 -53s-80 -26 -134 -36s-113 -15 -177 -15c-77.333 0 -149.166 8.83301 -215.499 26.5s-125.166 44 -176.499 79s-91.666 80.833 -120.999 137.5
s-44 121.667 -44 195c0 86.667 24.167 159.5 72.5 218.5s107.166 101.167 176.499 126.5c-59.333 24.667 -110 63.667 -152 117s-63 115 -63 185c0 119.333 48.167 214 144.5 284s222.5 105 378.5 105c56 0 109.5 -5.66699 160.5 -17s93.5 -24.833 127.5 -40.5
s66 -34.334 96 -56.001s52.667 -40.167 68 -55.5s29 -30.666 41 -45.999l-181 -137c-14.667 16.667 -33.167 33.334 -55.5 50.001s-57.333 33.5 -105 50.5s-98.167 25.5 -151.5 25.5c-82 0 -144.667 -14.167 -188 -42.5s-65 -68.5 -65 -120.5
c0 -27.333 4.33301 -51.5 13 -72.5s19.5 -38.5 32.5 -52.5s31.167 -25.833 54.5 -35.5s45.166 -17 65.499 -22s47 -8.83301 80 -11.5s61 -4.33398 84 -5.00098s53.167 -1 90.5 -1v-227c-50.667 0 -92.667 -0.666992 -126 -2s-69.166 -4.33301 -107.499 -9
s-69.333 -12 -93 -22s-46 -22.833 -67 -38.5s-36.333 -36 -46 -61s-14.5 -54.167 -14.5 -87.5c0 -70.667 25.5 -123.667 76.5 -159s121.167 -53 210.5 -53c86.667 0 156.5 11.333 209.5 34s97.167 53.334 132.5 92.001z" />
    <glyph glyph-name="uni0191" unicode="&#x191;" horiz-adv-x="1273" 
d="M426 844l712.999 0.000976562v-226h-713v-769v-34c0 -7.33301 -1.16699 -22.333 -3.5 -45s-5.66602 -41 -9.99902 -55s-11.333 -32.667 -21 -56s-21.334 -42.833 -35.001 -58.5s-31.5 -32.5 -53.5 -50.5s-46.667 -32.5 -74 -43.5s-60.666 -20.167 -99.999 -27.5
s-82.333 -11 -129 -11v227c22 0 41.5 2 58.5 6s31 8.66699 42 14s20.167 13 27.5 23s12.833 18.5 16.5 25.5s6.5 16.667 8.5 29s3 21.166 3 26.499v25v1590h1017v-226h-747v-364z" />
    <glyph glyph-name="florin" unicode="&#x192;" horiz-adv-x="1142" 
d="M685 795l-189.999 -1007c-4 -19.333 -7.66699 -36.166 -11 -50.499s-9.5 -33.5 -18.5 -57.5s-19 -44.667 -30 -62s-26.333 -36 -46 -56s-41.334 -36.333 -65.001 -49s-53 -23.334 -88 -32.001s-73.5 -13 -115.5 -13h-211l31 226h186c22 0 40.667 3.83301 56 11.5
s26.833 19.334 34.5 35.001s12.834 27.834 15.501 36.501s5.66699 21.667 9 39l183 979h-235l43 227h237l17 92c4 19.333 7.66699 36 11 50s9.5 33 18.5 57s19 44.667 30 62s26.167 36.166 45.5 56.499s41 36.833 65 49.5s53.5 23.334 88.5 32.001s73.5 13 115.5 13h211
l-31 -226h-186c-22 0 -40.667 -3.83301 -56 -11.5s-26.833 -19.334 -34.5 -35.001s-12.834 -27.834 -15.501 -36.501s-5.66699 -21.667 -9 -39l-12 -64h243l-43 -227h-243z" />
    <glyph glyph-name="uni0193" unicode="&#x193;" horiz-adv-x="1575" 
d="M842 -30c-120.667 0 -229.336 18.666 -326.003 55.999s-176.667 89.166 -240 155.499s-111.833 145 -145.5 236s-50.5 190.833 -50.5 299.5c0 108 16.833 207.5 50.5 298.5s82.167 169.833 145.5 236.5s143.333 118.667 240 156s205.334 56 326.001 56
c130.667 0 249 -18.667 355 -56c4.66699 30 11.5 58.333 20.5 85s22.833 54.334 41.5 83.001s41.334 53.167 68.001 73.5s61.334 37 104.001 50s90.667 19.5 144 19.5v-227c-21.333 0 -40.166 -2.5 -56.499 -7.5s-29.833 -11 -40.5 -18s-19.667 -16.833 -27 -29.5
s-12.833 -23.667 -16.5 -33s-6.5 -22.166 -8.5 -38.499s-3 -28.5 -3 -36.5v-36v-11l-131 -174c-128.667 86.667 -278.667 130 -450 130c-81.333 0 -153.333 -13 -216 -39s-113.667 -62.5 -153 -109.5s-69 -101.833 -89 -164.5s-30 -132 -30 -208s10 -145.333 30 -208
s49.667 -117.5 89 -164.5s90.333 -83.5 153 -109.5s134.667 -39 216 -39c66.667 0 130.167 6.33301 190.5 19s107.166 30 140.499 52v329h-311v226h565v-683c-67.333 -61.333 -153.5 -104.833 -258.5 -130.5s-213.833 -38.5 -326.5 -38.5z" />
    <glyph glyph-name="uni0194" unicode="&#x194;" horiz-adv-x="1498" 
d="M749 -532c-32.667 0 -63.334 4.83301 -92.001 14.5s-55.167 24.5 -79.5 44.5s-43.666 47.833 -57.999 83.5s-21.5 77.167 -21.5 124.5c0 97.333 39 185.666 117 264.999l-585 1434h270l449 -1158l449 1158h270l-585 -1434c78 -79.333 117 -167.666 117 -264.999
c0 -47.333 -7.16699 -88.833 -21.5 -124.5s-33.666 -63.5 -57.999 -83.5s-50.833 -34.833 -79.5 -44.5s-59.334 -14.5 -92.001 -14.5zM749 -346c36 0 54 27 54 81c0 48.667 -18 90 -54 124c-36 -34 -54 -75.333 -54 -124c0 -54 18 -81 54 -81z" />
    <glyph glyph-name="uni0195" unicode="&#x195;" horiz-adv-x="1962" 
d="M1354 -20c-157.333 0 -278.001 42.167 -362.001 126.5s-126 207.166 -126 368.499v72c0 90 -21 160.167 -63 210.5s-103.333 75.5 -184 75.5c-81.333 0 -143 -25.167 -185 -75.5s-63 -120.5 -63 -210.5v-547h-251v1516h251v-650c20 58.667 57.833 102.667 113.5 132
s113.834 44 174.501 44c143.333 0 255.5 -42.5 336.5 -127.5s121.5 -207.5 121.5 -367.5v-72c0 -90.667 19.5 -161 58.5 -211s98.5 -75 178.5 -75s139.5 25 178.5 75s58.5 120.333 58.5 211v547h251v-547c0 -161.333 -42 -284.166 -126 -368.499
s-204.667 -126.5 -362 -126.5z" />
    <glyph glyph-name="uni0196" unicode="&#x196;" horiz-adv-x="565" 
d="M120 360l-0.00195312 1156h270v-1152c0 -21.333 0.5 -38 1.5 -50s3.16699 -25.833 6.5 -41.5s9.5 -27.334 18.5 -35.001s20.833 -11.5 35.5 -11.5h33v-226h-129c-41.333 0 -77.166 7.66699 -107.499 23s-53.5 34 -69.5 56s-28.667 50.333 -38 85
s-15.166 66.334 -17.499 95.001s-3.5 62.334 -3.5 101.001z" />
    <glyph glyph-name="uni0197" unicode="&#x197;" horiz-adv-x="864" 
d="M297 875v559h270v-559h217v-228h-217v-647h-270v647h-217v228h217z" />
    <glyph glyph-name="uni0198" unicode="&#x198;" horiz-adv-x="1424" 
d="M390 839l636.001 594.999h348l-667 -623l687 -811h-328l-542 640l-134 -125v-515h-270v1083c0 120.667 32.333 209.334 97 266.001s167.667 85 309 85v-226c-24.667 0 -45.834 -2.83301 -63.501 -8.5s-31 -12.5 -40 -20.5s-16.167 -18.167 -21.5 -30.5
s-8.5 -22.833 -9.5 -31.5s-1.5 -18.667 -1.5 -30v-248z" />
    <glyph glyph-name="uni0199" unicode="&#x199;" horiz-adv-x="1170" 
d="M718 1489l-68.999 -191.004c-47.333 19.333 -94.333 29 -141 29c-18.667 0 -35.167 -3.16699 -49.5 -9.5s-26.333 -14.166 -36 -23.499s-17.834 -22.666 -24.501 -39.999s-11.667 -33.666 -15 -48.999s-6 -35.666 -8 -60.999s-3.16699 -47.333 -3.5 -66
s-0.5 -43.334 -0.5 -74.001v-379l437 397h332l-477 -433l477 -589h-306l-347 429l-116 -104v-325h-251v1004c0 74.667 3 138.334 9 191.001s16.833 101.667 32.5 147s37.167 81.5 64.5 108.5s62.666 48 105.999 63s95.333 22.5 156 22.5
c86.667 0 163.334 -15.667 230.001 -47z" />
    <glyph glyph-name="uni019A" unicode="&#x19a;" horiz-adv-x="691" 
d="M30 756l0.00390625 209.001h190v551h251v-551h190v-209h-190v-392c0 -21.333 0.166992 -37.666 0.5 -48.999s1.66602 -25 3.99902 -41s5.5 -27.833 9.5 -35.5s10 -14.5 18 -20.5s18 -9 30 -9h33v-209h-129c-26.667 0 -50.5 2.66699 -71.5 8s-39 14 -54 26
s-27.833 24.167 -38.5 36.5s-19.334 29 -26.001 50s-11.834 39 -15.501 54s-6.33398 35.667 -8.00098 62s-2.66699 46.666 -3 60.999s-0.5 35.166 -0.5 62.499v396h-190z" />
    <glyph glyph-name="uni019B" unicode="&#x19b;" 
d="M60 0l437 1022l-23 53l-179 -99l-102 183l198 110c-13.333 25.333 -28.333 44.333 -45 57s-39 19 -67 19c-33.333 0 -70 -9.33301 -110 -28l-85 188c62 32.667 132.667 49 212 49c41.333 0 77.833 -4.33301 109.5 -13s58.5 -21.834 80.5 -39.501s40 -36 54 -55
s28.333 -42.5 43 -70.5l186 103l102 -183l-202 -112l508 -1184h-267l-292 727l-291 -727h-267z" />
    <glyph glyph-name="uni019C" unicode="&#x19c;" horiz-adv-x="1834" 
d="M1714 1434v-1434h-269v71c-16 -32 -41.333 -56.833 -76 -74.5s-75 -26.5 -121 -26.5c-76 0 -142 17.167 -198 51.5s-100 79.5 -132 135.5c-28.667 -54 -71.667 -98.667 -129 -134s-125 -53 -203 -53c-137.333 0 -249.333 48.5 -336 145.5s-130 230.167 -130 399.5v919
h270v-919c0 -108.667 15.333 -189 46 -241s80.667 -78 150 -78s119.333 26.167 150 78.5s46 132.5 46 240.5v919h270v-919c0 -108.667 15.333 -189 46 -241s80.667 -78 150 -78s119.333 26.167 150 78.5s46 132.5 46 240.5v919h270z" />
    <glyph glyph-name="uni019D" unicode="&#x19d;" horiz-adv-x="1533" 
d="M156 0l269.999 0.000976562v-151v-34c0 -7.33301 -1.16699 -22.333 -3.5 -45s-5.66602 -41 -9.99902 -55s-11.333 -32.667 -21 -56s-21.334 -42.833 -35.001 -58.5s-31.5 -32.5 -53.5 -50.5s-46.667 -32.5 -74 -43.5s-60.666 -20.167 -99.999 -27.5s-82.333 -11 -129 -11
v227c22 0 41.5 2 58.5 6s31 8.66699 42 14s20.167 13 27.5 23s12.833 18.5 16.5 25.5s6.5 16.667 8.5 29s3 21.166 3 26.499v25v156zM155.999 0.000976562v1434h344l643 -1059v1059h270v-1434h-344l-643 1059v-1059h-270z" />
    <glyph glyph-name="uni019E" unicode="&#x19e;" 
d="M371 547l-0.000976562 -547h-251v1022h251v-156c20 58.667 57.833 102.667 113.5 132s113.834 44 174.501 44c143.333 0 255.5 -42.5 336.5 -127.5s121.5 -207.5 121.5 -367.5v-1079h-251v1079c0 90 -21 160.167 -63 210.5s-103.333 75.5 -184 75.5
c-81.333 0 -143 -25.167 -185 -75.5s-63 -120.5 -63 -210.5z" />
    <glyph glyph-name="uni019F" unicode="&#x19f;" horiz-adv-x="1684" 
d="M842 -30c-120.667 0 -229.334 18.667 -326.001 56s-176.667 89.166 -240 155.499s-111.833 145 -145.5 236s-50.5 190.833 -50.5 299.5c0 108 16.833 207.5 50.5 298.5s82.167 169.833 145.5 236.5s143.333 118.667 240 156s205.334 56 326.001 56
s229.334 -18.667 326.001 -56s176.667 -89.333 240 -156s111.833 -145.5 145.5 -236.5s50.5 -190.5 50.5 -298.5c0 -108.667 -16.833 -208.5 -50.5 -299.5s-82.167 -169.667 -145.5 -236s-143.333 -118.166 -240 -155.499s-205.334 -56 -326.001 -56zM842 1238
c-138.667 0 -248.833 -36.8311 -330.5 -110.498s-131.5 -172.834 -149.5 -297.501h960c-19.333 125.333 -69.333 224.666 -150 297.999s-190.667 110 -330 110zM842.001 196.002c139.333 0 249.332 36.6689 329.999 110.002s130.667 172.666 150 297.999h-960
c18 -124.667 67.833 -223.834 149.5 -297.501s191.834 -110.5 330.501 -110.5z" />
    <glyph glyph-name="Ohorn" unicode="&#x1a0;" horiz-adv-x="1713" 
d="M842 -30c-120.667 0 -229.333 18.668 -326 56.001s-176.667 89.166 -240 155.499s-111.833 145 -145.5 236s-50.5 190.833 -50.5 299.5c0 108 16.833 207.5 50.5 298.5s82.167 169.833 145.5 236.5s143.333 118.667 240 156s205.334 56 326.001 56
c131.333 0 249 -22.333 353 -67c16.667 0.666992 33.5 3.66699 50.5 9s35 13.666 54 24.999s34.5 28.833 46.5 52.5s18 51.834 18 84.501h269c0 -164.667 -66.667 -279.334 -200 -344.001c114 -133.333 171 -302.333 171 -507c0 -108.667 -16.833 -208.5 -50.5 -299.5
s-82.167 -169.667 -145.5 -236s-143.333 -118.166 -240 -155.499s-205.334 -56 -326.001 -56zM842.001 196.001c81.333 0 153.333 13 216 39s113.667 62.5 153 109.5s69 101.833 89 164.5s30 132 30 208s-10 145.333 -30 208s-49.667 117.5 -89 164.5
s-90.333 83.5 -153 109.5s-134.667 39 -216 39s-153.333 -13 -216 -39s-113.667 -62.5 -153 -109.5s-69 -101.833 -89 -164.5s-30 -132 -30 -208s10 -145.333 30 -208s49.667 -117.5 89 -164.5s90.333 -83.5 153 -109.5s134.667 -39 216 -39z" />
    </font>
</defs>
</svg>
