<svg width="309" height="257" viewBox="0 0 309 257" fill="none" xmlns="http://www.w3.org/2000/svg">
<path opacity="0.25" d="M264.747 132.915C240.434 128.082 189.782 163.124 167.495 181.249C145.208 163.124 94.5552 128.081 70.242 132.914C58.0854 193.333 112.79 271.875 112.79 271.875C-57.4021 157.083 15.5374 0 15.5374 0C88.4769 12.0833 167.495 108.75 167.495 108.75C167.495 108.75 246.512 12.0833 319.452 0C319.452 0 355.922 48.3333 337.687 120.833C337.687 120.833 349.843 120.833 362 108.75C362 108.75 349.843 211.458 234.356 290C234.356 290 252.591 271.875 282.982 187.292C282.982 187.292 276.904 193.333 258.669 199.375C258.669 199.375 270.826 163.125 264.747 132.915Z" fill="#161623"/>
</svg>
