<svg width="24" height="24" viewBox="0 0 24 24" fill="none" xmlns="http://www.w3.org/2000/svg">
<path d="M8.99175 13.2836C9.34744 13.2836 9.63579 12.9947 9.63579 12.6384C9.63579 12.282 9.34744 11.9931 8.99175 11.9931C8.63606 11.9931 8.34772 12.282 8.34772 12.6384C8.34772 12.9947 8.63606 13.2836 8.99175 13.2836Z" fill="white"/>
<path d="M7.56414 8.69391V9.36607C7.56414 9.40602 7.54832 9.44434 7.52016 9.47261C7.49199 9.50089 7.45377 9.51682 7.4139 9.5169H6.77852V10.1535C6.77852 10.1935 6.76266 10.2319 6.73443 10.2601C6.70619 10.2884 6.6679 10.3043 6.62798 10.3043H5.95779C5.91787 10.3043 5.87957 10.2884 5.85134 10.2601C5.82311 10.2319 5.80725 10.1935 5.80725 10.1535V9.5169H5.17147C5.1517 9.5169 5.13213 9.513 5.11387 9.50541C5.09562 9.49783 5.07903 9.48672 5.06506 9.47271C5.05108 9.45871 5.04 9.44208 5.03245 9.42378C5.0249 9.40548 5.02101 9.38587 5.02103 9.36607V8.69391C5.02101 8.6741 5.0249 8.65449 5.03245 8.63619C5.04 8.61789 5.05108 8.60127 5.06506 8.58726C5.07903 8.57325 5.09562 8.56214 5.11387 8.55456C5.13213 8.54698 5.1517 8.54308 5.17147 8.54308H5.80695V7.90648C5.80695 7.86648 5.82281 7.82811 5.85104 7.79983C5.87928 7.77154 5.91757 7.75565 5.95749 7.75565H6.62768C6.6676 7.75565 6.70589 7.77154 6.73413 7.79983C6.76236 7.82811 6.77822 7.86648 6.77822 7.90648V8.54308H7.4139C7.45377 8.54316 7.49199 8.55908 7.52016 8.58736C7.54832 8.61564 7.56414 8.65395 7.56414 8.69391Z" fill="white"/>
<path fill-rule="evenodd" clip-rule="evenodd" d="M20.5308 6.31944C20.8926 6.47358 21.1775 6.76413 21.3201 7.1306C21.9072 8.63927 23.1636 11.1085 23.5 13C23.8077 14.7299 23 13.7162 22.5 14.3311C21.5546 15.4939 19.9035 16.9908 19 16C17.7456 14.6244 22.2537 12.8481 20.5733 11.561C20.1061 11.2032 19.4769 11.1399 18.8916 11.2017C14.3361 11.6831 14.2203 15.8456 14.2203 15.8456H8.14423C7.20539 15.8456 6.43334 16.3262 5.82183 17.0072C4.85861 18.0795 3.94413 19.0975 3.12948 19.7172C0.576903 21.6606 -0.164672 16.0203 0.173119 14.6442C0.510768 13.2687 1.93314 9.17231 2.5568 7.39663C2.74155 6.87064 3.17094 6.47047 3.70759 6.31944C3.70759 6.31944 3.73485 5.41982 4.11651 5.1472C4.11651 5.1472 6.43374 4.00221 7.52016 4.00221C7.74229 4.00221 8.62551 4.65712 8.81259 4.73828C8.99967 4.81945 9.20137 4.86133 9.40524 4.86134H14.8657C15.0696 4.86135 15.2714 4.81947 15.4585 4.7383C15.6456 4.65714 16.3569 4.02606 16.7027 4.00221C17.4931 3.9477 19.9554 4.91586 20.2281 5.20173C20.4227 5.40588 20.5308 6.31944 20.5308 6.31944ZM18.2422 8.2359C18.656 8.2359 18.9914 7.89986 18.9914 7.48534C18.9914 7.07081 18.656 6.73477 18.2422 6.73477C17.8285 6.73477 17.4931 7.07081 17.4931 7.48534C17.4931 7.89986 17.8285 8.2359 18.2422 8.2359ZM17.4518 9.02782C17.4518 9.44234 17.1164 9.77838 16.7027 9.77838C16.289 9.77838 15.9536 9.44234 15.9536 9.02782C15.9536 8.61329 16.289 8.27725 16.7027 8.27725C17.1164 8.27725 17.4518 8.61329 17.4518 9.02782ZM20.5308 9.02782C20.5308 9.44234 20.1954 9.77838 19.7817 9.77838C19.3679 9.77838 19.0325 9.44234 19.0325 9.02782C19.0325 8.61329 19.3679 8.27725 19.7817 8.27725C20.1954 8.27725 20.5308 8.61329 20.5308 9.02782ZM9.94889 11.6794C10.4775 12.2091 10.4775 13.0677 9.94889 13.5974C9.42028 14.127 8.56323 14.127 8.03462 13.5974C7.50601 13.0677 7.50601 12.2091 8.03462 11.6794C8.56323 11.1498 9.42028 11.1498 9.94889 11.6794ZM8.99175 13.2836C9.34744 13.2836 9.63579 12.9947 9.63579 12.6384C9.63579 12.282 9.34744 11.9931 8.99175 11.9931C8.63606 11.9931 8.34772 12.282 8.34772 12.6384C8.34772 12.9947 8.63606 13.2836 8.99175 13.2836ZM6.25112 10.9329C7.30012 10.9329 8.1505 10.0809 8.1505 9.02994C8.1505 7.97893 7.30012 7.12692 6.25112 7.12692C5.20212 7.12692 4.35174 7.97893 4.35174 9.02994C4.35174 10.0809 5.20212 10.9329 6.25112 10.9329ZM7.56414 8.69391V9.36607C7.56414 9.40602 7.54832 9.44434 7.52016 9.47261C7.49199 9.50089 7.45377 9.51682 7.4139 9.5169H6.77852V10.1535C6.77852 10.1935 6.76266 10.2319 6.73443 10.2601C6.70619 10.2884 6.6679 10.3043 6.62798 10.3043H5.95779C5.91787 10.3043 5.87957 10.2884 5.85134 10.2601C5.82311 10.2319 5.80725 10.1935 5.80725 10.1535V9.5169H5.17147C5.1517 9.5169 5.13213 9.513 5.11387 9.50541C5.09562 9.49783 5.07903 9.48672 5.06506 9.47271C5.05108 9.45871 5.04 9.44208 5.03245 9.42378C5.0249 9.40548 5.02101 9.38587 5.02103 9.36607V8.69391C5.02101 8.6741 5.0249 8.65449 5.03245 8.63619C5.04 8.61789 5.05108 8.60127 5.06506 8.58726C5.07903 8.57325 5.09562 8.56214 5.11387 8.55456C5.13213 8.54698 5.1517 8.54308 5.17147 8.54308H5.80695V7.90648C5.80695 7.86648 5.82281 7.82811 5.85104 7.79983C5.87928 7.77154 5.91757 7.75565 5.95749 7.75565H6.62768C6.6676 7.75565 6.70589 7.77154 6.73413 7.79983C6.76236 7.82811 6.77822 7.86648 6.77822 7.90648V8.54308H7.4139C7.45377 8.54316 7.49199 8.55908 7.52016 8.58736C7.54832 8.61564 7.56414 8.65395 7.56414 8.69391Z" fill="white"/>
<path d="M15.3004 22.7008C14.5682 23.4331 13.381 23.4331 12.6487 22.7008C12.3785 22.4306 12.208 22.0984 12.1372 21.75C12.0329 21.2365 12.1452 20.6876 12.4743 20.25C12.5269 20.18 12.585 20.1129 12.6487 20.0492L15.2252 17.4728C15.0792 17.0504 15 16.597 15 16.125C15 13.8468 16.8468 12 19.125 12C19.3561 12 19.5828 12.019 19.8036 12.0556C20.0799 12.1013 20.1631 12.4351 19.965 12.6332L18.5491 14.0492C17.8169 14.7814 17.8169 15.9686 18.5491 16.7008C19.2813 17.4331 20.4686 17.4331 21.2008 16.7008L22.6167 15.2849C22.8148 15.0869 23.1486 15.17 23.1944 15.4464C23.231 15.6671 23.25 15.8939 23.25 16.125C23.25 18.4032 21.4032 20.25 19.125 20.25C18.7086 20.25 18.3066 20.1883 17.9277 20.0735L15.3004 22.7008Z" fill="white"/>
</svg>
