<svg width="24" height="24" viewBox="0 0 24 24" fill="none" xmlns="http://www.w3.org/2000/svg">
<path d="M15.2947 13.2836C15.6504 13.2836 15.9387 12.9947 15.9387 12.6384C15.9387 12.282 15.6504 11.9931 15.2947 11.9931C14.939 11.9931 14.6507 12.282 14.6507 12.6384C14.6507 12.9947 14.939 13.2836 15.2947 13.2836Z" fill="white"/>
<path d="M8.99175 13.2836C9.34744 13.2836 9.63579 12.9947 9.63579 12.6384C9.63579 12.282 9.34744 11.9931 8.99175 11.9931C8.63606 11.9931 8.34772 12.282 8.34772 12.6384C8.34772 12.9947 8.63606 13.2836 8.99175 13.2836Z" fill="white"/>
<path d="M7.56414 8.69391V9.36607C7.56414 9.44597 7.49365 9.51674 7.4139 9.5169H6.77852V10.1535C6.77852 10.2335 6.70783 10.3043 6.62798 10.3043H5.95779C5.87794 10.3043 5.80725 10.2335 5.80725 10.1535V9.5169H5.17147C5.09241 9.5169 5.02097 9.44528 5.02103 9.36607V8.69391C5.02097 8.6147 5.09241 8.54308 5.17147 8.54308H5.80695V7.90648C5.80695 7.82647 5.87764 7.75565 5.95749 7.75565H6.62768C6.70753 7.75565 6.77822 7.82647 6.77822 7.90648V8.54308H7.4139C7.49365 8.54323 7.56414 8.614 7.56414 8.69391Z" fill="white"/>
<path fill-rule="evenodd" clip-rule="evenodd" d="M20.5308 6.31944C20.8926 6.47358 21.1775 6.76413 21.3201 7.1306C21.9072 8.63927 23.4679 12.7482 23.8044 14.6397C24.0423 15.975 23.6019 21.7619 20.9039 19.7172C19.3019 18.5005 18.0645 15.8456 15.8339 15.8456H8.14423C7.16368 15.8456 6.45411 16.3033 5.82351 17.0053C4.97841 17.9464 4.14121 18.9476 3.12948 19.7172C0.576903 21.6606 -0.164672 16.0203 0.173119 14.6442C0.510768 13.2687 1.93314 9.17231 2.5568 7.39663C2.74155 6.87064 3.17094 6.47047 3.70759 6.31944C3.70759 6.31944 3.73485 5.41982 4.11651 5.1472C4.11651 5.1472 6.43374 4.00221 7.52016 4.00221C7.74229 4.00221 8.62551 4.65712 8.81259 4.73828C8.99967 4.81945 9.20137 4.86133 9.40524 4.86134H14.8657C15.0696 4.86135 15.2714 4.81947 15.4585 4.7383C15.6456 4.65714 16.3569 4.02606 16.7027 4.00221C17.4931 3.9477 19.9554 4.91586 20.2281 5.20173C20.4227 5.40588 20.5308 6.31944 20.5308 6.31944ZM18.2422 8.2359C18.656 8.2359 18.9914 7.89986 18.9914 7.48534C18.9914 7.07081 18.656 6.73477 18.2422 6.73477C17.8285 6.73477 17.4931 7.07081 17.4931 7.48534C17.4931 7.89986 17.8285 8.2359 18.2422 8.2359ZM17.4518 9.02782C17.4518 9.44234 17.1164 9.77838 16.7027 9.77838C16.289 9.77838 15.9536 9.44234 15.9536 9.02782C15.9536 8.61329 16.289 8.27725 16.7027 8.27725C17.1164 8.27725 17.4518 8.61329 17.4518 9.02782ZM18.2422 11.3208C18.656 11.3208 18.9914 10.9847 18.9914 10.5702C18.9914 10.1557 18.656 9.81963 18.2422 9.81963C17.8285 9.81963 17.4931 10.1557 17.4931 10.5702C17.4931 10.9847 17.8285 11.3208 18.2422 11.3208ZM20.5308 9.02782C20.5308 9.44234 20.1954 9.77838 19.7817 9.77838C19.3679 9.77838 19.0325 9.44234 19.0325 9.02782C19.0325 8.61329 19.3679 8.27725 19.7817 8.27725C20.1954 8.27725 20.5308 8.61329 20.5308 9.02782ZM16.2518 13.5974C16.7804 13.0677 16.7804 12.2091 16.2518 11.6794C15.7232 11.1498 14.8662 11.1498 14.3376 11.6794C13.809 12.2091 13.809 13.0677 14.3376 13.5974C14.8662 14.127 15.7232 14.127 16.2518 13.5974ZM15.9387 12.6384C15.9387 12.9947 15.6504 13.2836 15.2947 13.2836C14.939 13.2836 14.6507 12.9947 14.6507 12.6384C14.6507 12.282 14.939 11.9931 15.2947 11.9931C15.6504 11.9931 15.9387 12.282 15.9387 12.6384ZM9.94889 11.6794C10.4775 12.2091 10.4775 13.0677 9.94889 13.5974C9.42028 14.127 8.56323 14.127 8.03462 13.5974C7.50601 13.0677 7.50601 12.2091 8.03462 11.6794C8.56323 11.1498 9.42028 11.1498 9.94889 11.6794ZM8.99175 13.2836C9.34744 13.2836 9.63579 12.9947 9.63579 12.6384C9.63579 12.282 9.34744 11.9931 8.99175 11.9931C8.63606 11.9931 8.34772 12.282 8.34772 12.6384C8.34772 12.9947 8.63606 13.2836 8.99175 13.2836ZM6.25112 10.9329C7.30012 10.9329 8.1505 10.0809 8.1505 9.02994C8.1505 7.97893 7.30012 7.12692 6.25112 7.12692C5.20212 7.12692 4.35174 7.97893 4.35174 9.02994C4.35174 10.0809 5.20212 10.9329 6.25112 10.9329ZM7.56414 8.69391V9.36607C7.56414 9.44597 7.49365 9.51674 7.4139 9.5169H6.77852V10.1535C6.77852 10.2335 6.70783 10.3043 6.62798 10.3043H5.95779C5.87794 10.3043 5.80725 10.2335 5.80725 10.1535V9.5169H5.17147C5.09241 9.5169 5.02097 9.44528 5.02103 9.36607V8.69391C5.02097 8.6147 5.09241 8.54308 5.17147 8.54308H5.80695V7.90648C5.80695 7.82647 5.87764 7.75565 5.95749 7.75565H6.62768C6.70753 7.75565 6.77822 7.82647 6.77822 7.90648V8.54308H7.4139C7.49365 8.54323 7.56414 8.614 7.56414 8.69391Z" fill="white"/>
</svg>
