<svg width="24" height="24" viewBox="0 0 24 24" fill="none" xmlns="http://www.w3.org/2000/svg">
<path d="M22.0962 9.77337C22.3612 10.5527 22.5 11.4262 22.5 12.4015C22.5 16.113 20.3929 18.0477 19.5 18.6861V20.2508C19.5 21.4934 18.4926 22.5008 17.25 22.5008H16.5C15.6715 22.5008 15 21.8291 15 21.0008H12C12 21.8291 11.3285 22.5008 10.5 22.5008H9.75C8.28046 22.5008 7.5 21.2599 7.5 19.9308C5.45615 19.2799 4.03169 17.63 3.33108 15.6435C3.24947 15.4121 3.08595 15.2664 2.92683 15.2214C2.08277 14.9829 1.5 14.2126 1.5 13.3354V12.1445C1.5 11.2807 2.07257 10.5214 2.90312 10.284C3.05816 10.2397 3.22635 10.0882 3.30912 9.83793C3.86581 8.15466 5.1638 6.88375 6.70001 6.05956V3.24321C6.70001 2.25143 7.94687 1.7392 8.65992 2.41287C9.42601 3.13661 10.4494 4.06438 11.5486 4.17583C11.5749 4.17849 8.5 9 12.9466 11.1183L16.5301 12.6023C18.9774 13.6157 21.1825 12.0437 22.0962 9.77337ZM7.125 11.25C7.74632 11.25 8.25 10.7464 8.25 10.125C8.25 9.50373 7.74632 9.00004 7.125 9.00004C6.50368 9.00004 6 9.50373 6 10.125C6 10.7464 6.50368 11.25 7.125 11.25Z" fill="white"/>
<path d="M14.8073 3.37731C17.1033 2.42604 19.7358 3.51618 20.6871 5.8122C21.4755 7.71512 20.8617 9.84914 19.3212 11.0656C18.6968 11.5587 17.8392 11.5209 17.1041 11.2165L13.5205 9.7325C12.7854 9.42807 12.1521 8.8485 12.0592 8.0583C11.8283 6.09674 12.99 4.13028 14.8073 3.37731Z" fill="white"/>
<path d="M12.3454 5.87891L12.1414 6.537C12.173 6.39845 12.2111 6.26159 12.2555 6.12692C12.2831 6.04337 12.3131 5.96066 12.3454 5.87891Z" fill="white"/>
</svg>
