<svg width="24" height="24" viewBox="0 0 24 24" fill="none" xmlns="http://www.w3.org/2000/svg">
<path d="M22.5454 4.54549C22.9848 4.10616 22.9848 3.39384 22.5454 2.9545C22.1061 2.51517 21.3939 2.51517 20.9545 2.9545L18.75 5.15901L18.0454 4.4545C17.6061 4.01517 16.8939 4.01517 16.4545 4.4545C16.0152 4.89384 16.0152 5.60616 16.4545 6.04549L17.9545 7.54549C18.3939 7.98483 19.1061 7.98483 19.5454 7.54549L22.5454 4.54549ZM19.5454 21.0454L22.5454 18.0454C22.9848 17.6061 22.9848 16.8939 22.5454 16.4545C22.1061 16.0152 21.3939 16.0152 20.9545 16.4545L18.75 18.6589L18.0454 17.9545C17.6061 17.5152 16.8939 17.5152 16.4545 17.9545C16.0152 18.3939 16.0152 19.1061 16.4545 19.5454L17.9545 21.0454C18.3939 21.4848 19.1061 21.4848 19.5454 21.0454ZM2.625 4.5C2.00368 4.5 1.5 5.00368 1.5 5.625C1.5 6.24631 2.00368 6.75 2.625 6.75H13.875C14.4963 6.75 15 6.24631 15 5.625C15 5.00368 14.4963 4.5 13.875 4.5H2.625ZM2.625 10.875C2.00368 10.875 1.5 11.3787 1.5 12C1.5 12.6213 2.00368 13.125 2.625 13.125H13.875C14.4963 13.125 15 12.6213 15 12C15 11.3787 14.4963 10.875 13.875 10.875H2.625ZM2.625 17.25C2.00368 17.25 1.5 17.7537 1.5 18.375C1.5 18.9963 2.00368 19.5 2.625 19.5H13.875C14.4963 19.5 15 18.9963 15 18.375C15 17.7537 14.4963 17.25 13.875 17.25H2.625Z" fill="white"/>
</svg>
