<svg width="24" height="24" viewBox="0 0 24 24" fill="none" xmlns="http://www.w3.org/2000/svg">
<path fill-rule="evenodd" clip-rule="evenodd" d="M4 4.25C4 3.00736 5.00736 2 6.25 2H10.5039V6.74753C10.5039 7.99017 11.5113 8.99753 12.7539 8.99753H17.5V17.25C17.5 18.4926 16.4926 19.5 15.25 19.5H6.25C5.00736 19.5 4 18.4926 4 17.25V4.25ZM6.62891 16.5C6.21471 16.5 5.87891 16.8358 5.87891 17.25C5.87891 17.6642 6.21471 18 6.62891 18H15.0234C15.4376 18 15.7734 17.6642 15.7734 17.25C15.7734 16.8358 15.4376 16.5 15.0234 16.5H6.62891ZM12.0039 6.74753V2.46728C13.802 3.85189 15.653 5.70064 17.0338 7.49753H12.7539C12.3397 7.49753 12.0039 7.16174 12.0039 6.74753ZM6.62891 20.5C6.93778 21.3739 7.77121 22 8.75088 22H15.2509C17.8742 22 20.0009 19.8734 20.0009 17.25V11.3689C20.0009 10.7721 19.7638 10.1998 19.3419 9.77788L18.5009 8.93689V17.25C18.5009 19.0449 17.0458 20.5 15.2509 20.5H6.62891ZM7.78418 13.8887L8.52539 11.2988H9.35742L10.0986 13.8887L10.834 11.2988H11.8828L10.6025 15.5H9.65625L8.94141 13.0449L8.22656 15.5H7.28027L6 11.2988H7.04883L7.78418 13.8887ZM12.2051 15.5H13.1807V14.2402H14.0859C14.993 14.2402 15.7734 13.7428 15.7734 12.7695C15.7734 11.7963 14.993 11.2988 14.0859 11.2988H12.2051V15.5ZM14.0859 12.1455H13.1807V13.3936H14.0859C14.5508 13.3936 14.7861 13.1719 14.7861 12.7695C14.7861 12.3672 14.5508 12.1455 14.0859 12.1455Z" fill="white"/>
</svg>
