<svg width="90" height="24" viewBox="0 0 90 24" fill="none" xmlns="http://www.w3.org/2000/svg">
<path d="M65.8401 10.377L64.8645 12.0723C64.5528 11.8717 64.178 11.7715 63.7398 11.7715C63.2249 11.7715 62.8591 11.931 62.6423 12.25C62.4255 12.5645 62.3171 13.0293 62.3171 13.6445V17.2949H60.0948V10.2539H62.3171V10.999C62.7281 10.3656 63.3491 10.0488 64.1802 10.0488C64.8306 10.0488 65.3839 10.1582 65.8401 10.377Z" fill="white"/>
<path d="M66.6396 17.2949V10.2539H68.8618V17.2949H66.6396ZM66.9241 9.00977C66.6983 8.77734 66.5854 8.49935 66.5854 8.17578C66.5854 7.85221 66.6983 7.5765 66.9241 7.34863C67.1545 7.11621 67.43 7 67.7507 7C68.0714 7 68.3446 7.11621 68.5705 7.34863C68.8008 7.5765 68.916 7.85221 68.916 8.17578C68.916 8.49935 68.8008 8.77734 68.5705 9.00977C68.3446 9.23763 68.0714 9.35156 67.7507 9.35156C67.43 9.35156 67.1545 9.23763 66.9241 9.00977Z" fill="white"/>
<path d="M75.3388 13.9043V10.2539H77.561V17.2949H75.3388V16.5498C74.9277 17.1833 74.3067 17.5 73.4756 17.5C72.36 17.5 71.547 17.1924 71.0366 16.5771C70.5262 15.9619 70.271 15.071 70.271 13.9043V10.2539H72.4932V13.9043C72.4932 14.5195 72.6016 14.9867 72.8184 15.3057C73.0352 15.6201 73.4011 15.7773 73.916 15.7773C74.4309 15.7773 74.7967 15.6201 75.0135 15.3057C75.2304 14.9867 75.3388 14.5195 75.3388 13.9043Z" fill="white"/>
<path d="M78.916 17.2949V10.2539H81.1382V10.9785C81.2285 10.7826 81.3369 10.6208 81.4634 10.4932C81.5899 10.361 81.7299 10.2653 81.8835 10.2061C82.037 10.1468 82.1816 10.1058 82.3171 10.083C82.4571 10.0602 82.6107 10.0488 82.7778 10.0488C83.8979 10.0488 84.6861 10.4727 85.1423 11.3203C85.5307 10.4727 86.2195 10.0488 87.2087 10.0488C88.1301 10.0488 88.8257 10.3382 89.2954 10.917C89.7651 11.4912 90 12.2865 90 13.3027V17.2949H87.7778V13.3027C87.7778 12.2819 87.4097 11.7715 86.6734 11.7715C85.9372 11.7715 85.5691 12.2819 85.5691 13.3027V17.2949H83.3469V13.3027C83.3469 12.2819 82.9788 11.7715 82.2425 11.7715C81.5063 11.7715 81.1382 12.2819 81.1382 13.3027V17.2949H78.916Z" fill="white"/>
<path d="M35 15.1143C35 14.7633 35.0632 14.4489 35.1897 14.1709C35.3207 13.8883 35.4968 13.6582 35.7182 13.4805C35.944 13.2982 36.2082 13.1432 36.5108 13.0156C36.818 12.888 37.1477 12.8014 37.5 12.7559C37.8568 12.7103 38.2294 12.6807 38.6179 12.667C39.0063 12.6533 39.3948 12.6693 39.7832 12.7148C39.7832 12.5417 39.7696 12.4004 39.7425 12.291C39.7154 12.1771 39.659 12.0723 39.5732 11.9766C39.4919 11.8809 39.3654 11.8125 39.1938 11.7715C39.0266 11.7259 38.8098 11.7031 38.5434 11.7031C37.7575 11.7031 37.0167 11.8512 36.3211 12.1475L35.5827 10.7119C36.0298 10.484 36.5312 10.3177 37.0867 10.2129C37.6423 10.1035 38.173 10.0488 38.6789 10.0488C39.3248 10.0488 39.8645 10.1104 40.2981 10.2334C40.7317 10.3519 41.0727 10.5387 41.3211 10.7939C41.5741 11.0446 41.7502 11.3431 41.8496 11.6895C41.9535 12.0312 42.0054 12.4528 42.0054 12.9541V17.2949H39.7764V16.3721C39.4512 17.0967 38.7511 17.459 37.6762 17.459C37.3148 17.459 36.9761 17.4134 36.6599 17.3223C36.3482 17.2311 36.0659 17.0944 35.813 16.9121C35.5601 16.7298 35.3613 16.486 35.2168 16.1807C35.0723 15.8708 35 15.5153 35 15.1143ZM37.2222 14.9092C37.2222 15.1644 37.3035 15.3672 37.4661 15.5176C37.6287 15.6634 37.8794 15.7363 38.2182 15.7363C38.6969 15.7363 39.0763 15.6224 39.3564 15.3945C39.6364 15.1667 39.7764 14.891 39.7764 14.5674V13.959C39.6048 13.9544 39.4106 13.9476 39.1938 13.9385C38.9815 13.9294 38.7579 13.943 38.523 13.9795C38.2927 14.016 38.0804 14.0661 37.8862 14.1299C37.692 14.1891 37.5316 14.2871 37.4051 14.4238C37.2832 14.556 37.2222 14.7178 37.2222 14.9092Z" fill="white"/>
<path d="M45.5827 13.6445V17.2949H43.3604V10.2539H45.5827V10.999C45.9937 10.3656 46.6147 10.0488 47.4458 10.0488C48.5614 10.0488 49.3744 10.3564 49.8848 10.9717C50.3952 11.5869 50.6504 12.4779 50.6504 13.6445V17.2949H48.4282V13.6445C48.4282 13.0293 48.3198 12.5645 48.103 12.25C47.8862 11.931 47.5203 11.7715 47.0054 11.7715C46.4905 11.7715 46.1247 11.931 45.9079 12.25C45.6911 12.5645 45.5827 13.0293 45.5827 13.6445Z" fill="white"/>
<path d="M51.7344 15.1143C51.7344 14.7633 51.7976 14.4489 51.9241 14.1709C52.0551 13.8883 52.2313 13.6582 52.4526 13.4805C52.6784 13.2982 52.9426 13.1432 53.2453 13.0156C53.5524 12.888 53.8821 12.8014 54.2344 12.7559C54.5912 12.7103 54.9639 12.6807 55.3523 12.667C55.7407 12.6533 56.1292 12.6693 56.5176 12.7148C56.5176 12.5417 56.5041 12.4004 56.477 12.291C56.4499 12.1771 56.3934 12.0723 56.3076 11.9766C56.2263 11.8809 56.0998 11.8125 55.9282 11.7715C55.7611 11.7259 55.5443 11.7031 55.2778 11.7031C54.4919 11.7031 53.7511 11.8512 53.0556 12.1475L52.3171 10.7119C52.7642 10.484 53.2656 10.3177 53.8211 10.2129C54.3767 10.1035 54.9074 10.0488 55.4133 10.0488C56.0592 10.0488 56.5989 10.1104 57.0325 10.2334C57.4661 10.3519 57.8071 10.5387 58.0556 10.7939C58.3085 11.0446 58.4846 11.3431 58.584 11.6895C58.6879 12.0312 58.7398 12.4528 58.7398 12.9541V17.2949H56.5108V16.3721C56.1856 17.0967 55.4855 17.459 54.4106 17.459C54.0492 17.459 53.7105 17.4134 53.3943 17.3223C53.0827 17.2311 52.8004 17.0944 52.5474 16.9121C52.2945 16.7298 52.0958 16.486 51.9512 16.1807C51.8067 15.8708 51.7344 15.5153 51.7344 15.1143ZM53.9566 14.9092C53.9566 15.1644 54.0379 15.3672 54.2005 15.5176C54.3631 15.6634 54.6138 15.7363 54.9526 15.7363C55.4313 15.7363 55.8107 15.6224 56.0908 15.3945C56.3708 15.1667 56.5108 14.891 56.5108 14.5674V13.959C56.3392 13.9544 56.145 13.9476 55.9282 13.9385C55.7159 13.9294 55.4923 13.943 55.2575 13.9795C55.0271 14.016 54.8148 14.0661 54.6206 14.1299C54.4264 14.1891 54.266 14.2871 54.1396 14.4238C54.0176 14.556 53.9566 14.7178 53.9566 14.9092Z" fill="white"/>
<path d="M21.9404 10.9999C19.9255 10.5999 15.7278 13.4999 13.8808 14.9999C12.0338 13.4999 7.83607 10.5998 5.82116 10.9998C4.81371 16 9.34724 22.5 9.34724 22.5C-4.75708 13 1.28763 0 1.28763 0C7.33234 1 13.8808 9 13.8808 9C13.8808 9 20.4292 1 26.4739 0C26.4739 0 29.4963 4 27.9851 10C27.9851 10 28.9925 10 30 9C30 9 28.9925 17.5 19.4218 24C19.4218 24 20.9329 22.5 23.4516 15.5C23.4516 15.5 22.9478 16 21.4367 16.5C21.4367 16.5 22.4441 13.5 21.9404 10.9999Z" fill="url(#paint0_radial_58_1608)"/>
<defs>
<radialGradient id="paint0_radial_58_1608" cx="0" cy="0" r="1" gradientUnits="userSpaceOnUse" gradientTransform="translate(8.26733 2.18288) rotate(47.7649) scale(15.8135 16.3209)">
<stop stop-color="#86D3FF"/>
<stop offset="1" stop-color="#00A3FF"/>
</radialGradient>
</defs>
</svg>
