<svg width="30" height="24" viewBox="0 0 30 24" fill="none" xmlns="http://www.w3.org/2000/svg">
  <path d="M21.7781 10.9999C19.7781 10.5999 15.6114 13.4999 13.7781 14.9999C11.9448 13.4999 7.77811 10.5998 5.77811 10.9998C4.77811 16 9.27811 22.5 9.27811 22.5C-4.72189 13 1.27811 0 1.27811 0C7.27811 1 13.7781 9 13.7781 9C13.7781 9 20.2781 1 26.2781 0C26.2781 0 29.2781 4 27.7781 10C27.7781 10 28.7781 10 29.7781 9C29.7781 9 28.7781 17.5 19.2781 24C19.2781 24 20.7781 22.5 23.2781 15.5C23.2781 15.5 22.7781 16 21.2781 16.5C21.2781 16.5 22.2781 13.5 21.7781 10.9999Z" fill="white"/>
</svg>
