<svg width="24" height="24" viewBox="0 0 24 24" fill="none" xmlns="http://www.w3.org/2000/svg">
<path d="M12.602 22.8158C15.6143 22.8158 17.8355 21.1821 19.2829 19.0359C20.723 16.9007 21.427 14.2228 21.427 12C21.427 9.66551 20.6757 6.98563 19.2112 4.87733C17.7404 2.76007 15.5203 1.1842 12.602 1.1842L10.6112 1.18421C5.55144 1.18421 1.60522 6.12117 1.60522 12C1.60522 17.8788 5.55144 22.8158 10.6112 22.8158H12.602Z" fill="#00A3FF" stroke="#1E2329"/>
<path d="M13.1449 22.8158C18.2047 22.8158 22.1509 17.8788 22.1509 12C22.1509 6.12117 18.2047 1.1842 13.1449 1.1842C8.08513 1.1842 4.13892 6.12117 4.13892 12C4.13892 17.8788 8.08513 22.8158 13.1449 22.8158Z" fill="#00A3FF" stroke="#1E2329"/>
<path opacity="0.3" d="M7.66064 19.6893C6.15902 18.1205 5.1651 15.9582 4.8553 13.5864C4.5455 11.2145 4.93987 8.78651 5.9684 6.73328C6.99693 4.68006 8.59309 3.13446 10.4736 2.37084C12.354 1.60722 14.3971 1.67497 16.2403 2.56208C12.0809 2.37084 10.1603 3.84846 8.13864 5.70166C6.11698 7.55486 3.79155 15.6471 7.66064 19.6893Z" fill="white"/>
<path opacity="0.15" d="M18.6079 4.34525C20.1095 5.91407 21.1035 8.0763 21.4133 10.4482C21.7231 12.82 21.3287 15.248 20.3002 17.3013C19.2716 19.3545 17.6755 20.9001 15.795 21.6637C13.9145 22.4273 11.8714 22.3596 10.0283 21.4725C14.1877 21.6637 16.1083 20.1861 18.1299 18.3329C20.1516 16.4797 22.477 8.38748 18.6079 4.34525Z" fill="#1E2329"/>
<path d="M19.7031 12C19.7031 16.513 16.6837 20.006 13.145 20.006C9.60626 20.006 6.58679 16.513 6.58679 12C6.58679 7.48705 9.60626 3.99402 13.145 3.99402C16.6837 3.99402 19.7031 7.48705 19.7031 12Z" fill="white" stroke="#1E2329"/>
<path d="M15.5738 12.3675C14.9373 12.2128 13.6112 13.3345 13.0277 13.9147C12.4443 13.3345 11.1182 12.2127 10.4817 12.3675C10.1634 14.3016 11.5956 16.8158 11.5956 16.8158C7.1399 13.1412 9.04947 8.11267 9.04947 8.11267C10.959 8.49948 13.0277 11.5939 13.0277 11.5939C13.0277 11.5939 15.0965 8.49948 17.006 8.11267C17.006 8.11267 17.9608 9.6599 17.4834 11.9807C17.4834 11.9807 17.8017 11.9807 18.1199 11.5939C18.1199 11.5939 17.4834 15.5172 14.7782 17.396C14.7782 17.396 15.8418 15.0752 16.0512 14.1082C16.0512 14.1082 15.8921 14.3016 15.4147 14.495C15.4147 14.495 15.733 13.3346 15.5738 12.3675Z" fill="#00A3FF"/>
</svg>
