<svg width="18" height="14" viewBox="0 0 18 14" fill="none" xmlns="http://www.w3.org/2000/svg">
<path d="M13.1642 6.4166C11.9553 6.18327 9.43666 7.87493 8.32846 8.74993C7.22027 7.87493 4.70164 6.18321 3.4927 6.41655C2.88823 9.33333 5.60835 13.125 5.60835 13.125C-2.85425 7.58333 0.772578 0 0.772578 0C4.3994 0.583333 8.32846 5.25 8.32846 5.25C8.32846 5.25 12.2575 0.583333 15.8844 0C15.8844 0 17.6978 2.33333 16.7911 5.83333C16.7911 5.83333 17.3955 5.83333 18 5.25C18 5.25 17.3955 10.2083 11.6531 14C11.6531 14 12.5598 13.125 14.0709 9.04167C14.0709 9.04167 13.7687 9.33333 12.862 9.625C12.862 9.625 13.4665 7.875 13.1642 6.4166Z" fill="white"/>
</svg>
