<svg width="24" height="14" viewBox="0 0 24 14" fill="none" xmlns="http://www.w3.org/2000/svg">
<path d="M13.54 6.99993C13.5453 8.80168 12.8354 10.5319 11.566 11.8106C10.2967 13.0893 8.57177 13.812 6.77003 13.8199C4.96829 13.812 3.24335 13.0893 1.97402 11.8106C0.704678 10.5319 -0.00528713 8.80168 2.96483e-05 6.99993C-0.00528713 5.19818 0.704678 3.46798 1.97402 2.18926C3.24335 0.91055 4.96829 0.187873 6.77003 0.179932C8.57177 0.187873 10.2967 0.91055 11.566 2.18926C12.8354 3.46798 13.5453 5.19818 13.54 6.99993ZM20.96 6.99993C20.96 10.5399 19.45 13.4199 17.58 13.4199C15.71 13.4199 14.19 10.5399 14.19 6.99993C14.19 3.45993 15.71 0.579932 17.58 0.579932C19.45 0.579932 20.96 3.45993 20.96 6.99993ZM24 6.99993C24 10.1699 23.47 12.7499 22.81 12.7499C22.15 12.7499 21.62 10.1699 21.62 6.99993C21.62 3.82993 22.15 1.24993 22.81 1.24993C23.47 1.24993 24 3.82993 24 6.99993Z" fill="white"/>
</svg>
