<svg width="50" height="50" viewBox="0 0 50 50" fill="none" xmlns="http://www.w3.org/2000/svg">
<rect x="33.9999" y="24.706" width="5.95722" height="5.95722" transform="rotate(-45 33.9999 24.706)" fill="white"/>
<path d="M39.0522 14.7315C36.945 11.7026 33.9331 9.41847 30.448 8.20658C26.9629 6.99468 23.1837 6.91719 19.6519 7.98522C16.12 9.05325 13.017 11.212 10.7875 14.152C8.55794 17.092 7.31639 20.6623 7.24075 24.3513C7.16512 28.0403 8.25928 31.6586 10.3664 34.6875C12.4736 37.7164 15.4855 40.0005 18.9706 41.2124C22.4557 42.4243 26.2349 42.5018 29.7668 41.4337C33.2986 40.3657 36.4016 38.207 38.6311 35.267L24.7093 24.7095L39.0522 14.7315Z" fill="#00A3FF"/>
<path d="M39.0522 14.7315C36.945 11.7026 33.9331 9.41847 30.448 8.20658C26.9629 6.99468 23.1837 6.91719 19.6519 7.98522C16.12 9.05325 13.017 11.212 10.7875 14.152C8.55794 17.092 7.31639 20.6623 7.24075 24.3513C7.16512 28.0403 8.25928 31.6586 10.3664 34.6875C12.4736 37.7164 15.4855 40.0005 18.9706 41.2124C22.4557 42.4243 26.2349 42.5018 29.7668 41.4337C33.2986 40.3657 36.4016 38.207 38.6311 35.267L24.7093 24.7095L39.0522 14.7315Z" fill="url(#paint0_radial_372_13)"/>
<ellipse cx="25.361" cy="16.3611" rx="2.36111" ry="2.36111" fill="#161623"/>
<defs>
<radialGradient id="paint0_radial_372_13" cx="0" cy="0" r="1" gradientUnits="userSpaceOnUse" gradientTransform="translate(10.1086 17.4542) rotate(19.1841) scale(21.0691 20.7753)">
<stop stop-color="#86D3FF"/>
<stop offset="1" stop-color="#00A3FF"/>
</radialGradient>
</defs>
</svg>
