<svg width="20" height="22" viewBox="0 0 20 22" fill="none" xmlns="http://www.w3.org/2000/svg">
<path d="M18.8051 13.9553L18.8053 13.9553L18.8099 13.9426C19.0813 13.19 19.1039 12.2498 18.727 11.613C18.5246 11.271 18.1921 11.0008 17.7319 10.9549C17.2963 10.9114 16.8369 11.0786 16.3742 11.3938L16.2064 11.508L16.1657 11.7069L15.4881 15.0246L15.4424 15.2486L15.5819 15.4298C15.8164 15.7341 16.1239 15.9351 16.4856 15.9836C16.8382 16.031 17.1739 15.9244 17.4596 15.7497C18.02 15.407 18.4974 14.7414 18.8051 13.9553Z" fill="white" stroke="#192543"/>
<path d="M0.720129 13.7533L0.72012 13.7533L0.721078 13.7561C0.876219 14.2203 1.28539 14.9822 1.81013 15.4826C2.07042 15.7308 2.42033 15.9736 2.83494 16.0118C3.29455 16.054 3.7007 15.8361 4.01385 15.4298L4.15341 15.2486L4.10771 15.0246L3.43104 11.7075L3.39045 11.5086L3.22262 11.3942C2.62201 10.9851 1.76823 10.7668 1.12541 11.1977C0.432127 11.6625 0.346715 12.6133 0.720129 13.7533Z" fill="white" stroke="#192543"/>
<path d="M16.8037 7.17597L16.7899 6.69019H16.3039H3.11975H2.61975V7.19019V14.3342C2.61975 18.2968 6.14016 21.0257 9.81379 21.0257C13.4871 21.0257 17.0071 18.2973 17.0071 14.335V14.3279L17.0069 14.3207L16.8037 7.17597Z" fill="white" stroke="#192543"/>
<path d="M16.2504 13.822L16.6372 14.0349L16.8963 13.6774C17.7489 12.501 18.2154 10.832 18.2374 9.1676C18.254 7.91804 18.0205 6.62893 17.4747 5.5173L17.6658 5.55818L18.4817 5.73271L18.2509 4.93093C17.897 3.70152 16.9911 2.72364 15.8618 2.01142C14.7303 1.29788 13.3388 0.826694 11.9332 0.620061C10.5281 0.413514 9.07838 0.46688 7.82811 0.831582C6.93018 1.0935 6.11186 1.52399 5.49853 2.15416C5.41514 1.99693 5.31962 1.86136 5.21343 1.74887C4.9323 1.45107 4.48069 1.24601 4.04601 1.47927C3.63729 1.69859 3.5172 2.16719 3.55038 2.58375C3.55269 2.61281 3.55574 2.6422 3.55951 2.67191C3.30241 2.57699 3.06007 2.51761 2.83546 2.4915C2.28262 2.42721 1.69335 2.56314 1.42513 3.06315C1.15395 3.5687 1.37739 4.1319 1.74639 4.54541C1.98931 4.81763 2.33174 5.07677 2.77409 5.30734C1.93555 6.07845 1.57412 7.23369 1.52951 8.45752C1.47221 10.0293 1.92394 11.8239 2.6669 13.4116L3.04234 14.2139L3.53521 13.4779C4.26757 12.3842 4.66539 11.6322 4.9123 10.7576C5.0672 10.209 5.16021 9.61778 5.25008 8.87787C5.85925 9.49732 6.68011 9.86726 7.63016 9.88785L8.79081 9.91299L8.10019 9.15018C10.2334 10.4417 12.5064 10.7326 14.7621 10.2541C14.7904 10.5565 14.8383 10.9467 14.9191 11.3571C15.0073 11.8052 15.1382 12.2963 15.3357 12.7285C15.5287 13.151 15.8147 13.5823 16.2504 13.822Z" fill="white" stroke="#192543"/>
<path d="M10.6771 17.744C10.6771 17.744 10.3237 17.97 9.40232 17.97C9.20257 17.9837 8.63069 17.9525 7.90796 17.2944C7.90796 17.2944 8.24176 18.2547 9.38061 18.2547C9.3808 18.2524 10.0289 18.3119 10.6771 17.744Z" fill="#192543"/>
<path d="M5.44666 13.4792C5.52406 13.2285 5.70928 13.02 5.93753 12.8781C6.17145 12.7362 6.4407 12.663 6.71445 12.6666C6.9867 12.6686 7.25319 12.745 7.48494 12.8875C7.7115 13.0289 7.89614 13.2317 7.9828 13.4792C7.73491 13.3943 7.52383 13.3264 7.3154 13.2827C7.11622 13.2394 6.91318 13.2161 6.70935 13.2134C6.50639 13.2106 6.30376 13.2304 6.10519 13.2723C5.89921 13.3149 5.69058 13.3843 5.44666 13.4792Z" fill="#192543"/>
<path d="M14.2792 13.4793C14.0355 13.3851 13.8261 13.3149 13.6203 13.2722C13.4217 13.2302 13.2191 13.2105 13.0161 13.2132C12.8123 13.2158 12.6093 13.2388 12.4101 13.2819C12.2024 13.3256 11.9906 13.3936 11.7427 13.4785C11.8291 13.2309 12.0145 13.0281 12.2404 12.8868C12.4722 12.7443 12.7387 12.6679 13.011 12.6659C13.2847 12.6622 13.5539 12.7355 13.7878 12.8773C14.0164 13.0201 14.2014 13.2285 14.2792 13.4793Z" fill="#192543"/>
<path d="M6.96239 16.0906C7.43026 16.0906 7.80954 15.5917 7.80954 14.9762C7.80954 14.3608 7.43026 13.8618 6.96239 13.8618C6.49452 13.8618 6.11523 14.3608 6.11523 14.9762C6.11523 15.5917 6.49452 16.0906 6.96239 16.0906Z" fill="#192543"/>
<path d="M7.17898 15.092C7.32037 15.092 7.43499 14.9244 7.43499 14.7177C7.43499 14.511 7.32037 14.3434 7.17898 14.3434C7.03759 14.3434 6.92297 14.511 6.92297 14.7177C6.92297 14.9244 7.03759 15.092 7.17898 15.092Z" fill="white"/>
<path d="M12.8202 16.0906C13.288 16.0906 13.6673 15.5917 13.6673 14.9762C13.6673 14.3608 13.288 13.8618 12.8202 13.8618C12.3523 13.8618 11.973 14.3608 11.973 14.9762C11.973 15.5917 12.3523 16.0906 12.8202 16.0906Z" fill="#192543"/>
<path d="M12.6035 15.092C12.7449 15.092 12.8596 14.9244 12.8596 14.7177C12.8596 14.511 12.7449 14.3434 12.6035 14.3434C12.4622 14.3434 12.3475 14.511 12.3475 14.7177C12.3475 14.9244 12.4622 15.092 12.6035 15.092Z" fill="white"/>
</svg>
