<svg width="24" height="24" viewBox="0 0 24 24" fill="none" xmlns="http://www.w3.org/2000/svg">
<g clip-path="url(#clip0_1596_2897)">
<path d="M22.3875 15.6221L22.3877 15.6222L22.3922 15.6095C22.6981 14.7614 22.7194 13.7109 22.3032 13.0076C22.0812 12.6324 21.7195 12.3401 21.2203 12.2902C20.7458 12.2428 20.2376 12.4244 19.716 12.7797L19.5482 12.894L19.5075 13.0929L18.7331 16.8845L18.6874 17.1086L18.8269 17.2897C19.0855 17.6254 19.4211 17.8429 19.8126 17.8955C20.195 17.9468 20.5623 17.8316 20.879 17.638C21.5015 17.2573 22.0391 16.5121 22.3875 15.6221Z" fill="white" stroke="#1E2329"/>
<g opacity="0.3">
<path opacity="0.3" d="M21.9914 15.2395C21.9698 15.304 21.9465 15.3716 21.9219 15.4398C21.2713 17.1016 19.9955 17.9872 19.223 16.9845L19.6839 14.7274L19.8565 14.7142C20.3252 16.1757 21.0059 16.3055 21.8986 15.1037C21.8986 15.1037 21.9323 15.1534 21.9914 15.2395Z" fill="#1E2329"/>
</g>
<path d="M1.85325 15.395L1.85324 15.395L1.8542 15.3979C2.02859 15.9196 2.49072 16.7797 3.08038 17.342C3.37314 17.6212 3.75849 17.8859 4.20883 17.9273C4.70418 17.9728 5.14633 17.7396 5.49304 17.2897L5.6326 17.1085L5.5869 16.8845L4.81357 13.0936L4.77298 12.8946L4.60515 12.7803C3.92914 12.3198 2.98743 12.0874 2.28833 12.556C1.53875 13.0585 1.42869 14.0989 1.85325 15.395Z" fill="white" stroke="#1E2329"/>
<g opacity="0.55">
<path opacity="0.55" d="M4.05624 17.38C3.46006 17.1816 2.84511 16.4644 2.45456 15.4673C2.43017 15.3991 2.40687 15.3326 2.38508 15.267C1.56665 12.7684 3.17373 12.3996 4.37925 13.2205L4.38486 13.2487C3.29499 12.8377 2.19563 13.4077 2.90142 15.5639C2.923 15.6285 2.94652 15.6958 2.9709 15.7643C3.24795 16.4728 3.63936 17.0403 4.05624 17.38Z" fill="white"/>
</g>
<path d="M20.0952 7.90241L20.0814 7.41663H19.5954H4.52783H4.02783V7.91663V16.0812C4.02783 20.5622 8.01046 23.6572 12.1782 23.6572C16.3455 23.6572 20.3276 20.5628 20.3276 16.0821V16.075L20.3274 16.0679L20.0952 7.90241Z" fill="white" stroke="#1E2329"/>
<g opacity="0.3">
<path opacity="0.3" d="M19.8276 14.7846V16.0821C19.8276 18.3141 18.7563 20.4308 16.9117 21.6947C16.8854 21.7126 16.859 21.7294 16.8338 21.7472C15.4561 22.6665 13.8358 23.1572 12.1782 23.1572C10.5206 23.1572 8.90026 22.6665 7.52259 21.7472C7.49734 21.7294 7.47102 21.7117 7.44469 21.6939C7.38643 21.6537 7.32854 21.6125 7.271 21.5704C8.58589 22.207 10.0451 22.489 11.5032 22.3885C12.9614 22.288 14.3678 21.8083 15.5823 20.9973C15.6076 20.9795 15.6339 20.9627 15.6602 20.9448C17.5049 19.6809 18.5762 17.5642 18.5762 15.3322L18.6875 13.6969C19.8984 10.2151 18.6588 8.12644 16.5747 6.61548C19.4108 8.01024 21.263 10.6558 19.8276 14.7846Z" fill="#1E2329"/>
</g>
<g opacity="0.3">
<path opacity="0.3" d="M19.8277 14.7845V15.3115C18.9861 14.0757 18.8239 10.7035 18.8239 10.7035C18.0885 11.4997 13.9582 12.4182 11.0595 10.8825C11.0254 10.8645 10.9865 10.8576 10.9482 10.863C10.91 10.8684 10.8745 10.8858 10.8468 10.9126C10.819 10.9394 10.8006 10.9743 10.794 11.0122C10.7874 11.0502 10.793 11.0892 10.8101 11.1237C10.8455 11.195 10.8597 11.2191 10.8597 11.2191C10.4785 11.4545 8.68259 11.2251 7.70838 10.6596C7.43759 10.5023 7.09192 10.6725 7.04359 10.9824C6.82523 12.3713 6.13174 13.3381 4.64852 14.7852C4.61184 14.7075 4.57623 14.6298 4.54236 14.5519C4.61184 13.3685 4.92643 8.05363 4.97714 7.91807C6.65153 3.42178 23.3959 4.52369 19.8277 14.7845Z" fill="#1E2329"/>
</g>
<g opacity="0.55">
<path opacity="0.55" d="M15.3523 22.5345C14.0825 23.0533 12.7043 23.253 11.339 23.1158C9.97363 22.9787 8.66304 22.509 7.52253 21.748C7.49729 21.7301 7.47096 21.7125 7.44464 21.6946C5.59892 20.4316 4.52783 18.3149 4.52783 16.082V14.7845C4.52783 14.7845 4.91924 8.07 4.97664 7.91744C5.32856 6.97282 6.34528 6.27523 7.70011 5.85779C6.68145 6.2819 5.93316 6.89514 5.64122 7.67773C5.58404 7.83137 5.19241 14.5448 5.19241 14.5448V15.8423C5.19241 18.0752 6.26372 20.1921 8.10943 21.4558C8.13704 21.4712 8.16338 21.4887 8.18819 21.5083C10.0149 23.1578 12.9714 23.2805 15.3523 22.5345Z" fill="white"/>
</g>
<path d="M19.5686 15.4333L19.9555 15.6462L20.2145 15.2887C21.1783 13.9589 21.7086 12.0668 21.7337 10.1756C21.7532 8.70569 21.4679 7.19113 20.8025 5.90375L21.1667 5.98166L21.9826 6.15619L21.7518 5.35441C21.3537 3.97141 20.3332 2.86646 19.052 2.05849C17.7686 1.2492 16.1882 0.713579 14.5898 0.478617C12.992 0.24374 11.3459 0.304882 9.92874 0.718256C8.87641 1.02522 7.92553 1.53493 7.22835 2.28376C7.12544 2.07055 7.00449 1.891 6.8686 1.74705C6.55934 1.41945 6.0773 1.20751 5.62012 1.45284C5.1889 1.68424 5.05426 2.18386 5.09111 2.64649C5.09673 2.71707 5.10625 2.78955 5.11976 2.86382C4.78785 2.73121 4.47786 2.65062 4.1946 2.61768C3.57495 2.54563 2.94007 2.70051 2.654 3.23381C2.36496 3.77265 2.5983 4.38346 3.0115 4.8465C3.29884 5.16849 3.71359 5.47663 4.25819 5.74868C3.26345 6.61223 2.83367 7.94268 2.78173 9.36764C2.71676 11.1498 3.22928 13.1895 4.07491 14.9965L4.45035 15.7988L4.94323 15.0628C5.77844 13.8156 6.22843 12.9634 6.50765 11.9743C6.69377 11.3151 6.80122 10.6014 6.90961 9.68575C7.60279 10.4471 8.56333 10.904 9.68406 10.9283L10.8447 10.9534L10.0665 10.0938L10.0662 10.0936L10.0662 10.0935L10.0659 10.0932L10.0657 10.093L10.0624 10.0892C10.0584 10.0846 10.0517 10.0768 10.0426 10.0659C10.0244 10.0442 9.99689 10.0103 9.96337 9.96613C9.94057 9.93604 9.91521 9.90144 9.88824 9.86285C12.4407 11.5423 15.1804 11.9268 17.8971 11.3314C17.9282 11.6851 17.9838 12.1619 18.0828 12.6651C18.1831 13.1744 18.3313 13.7296 18.5538 14.2165C18.7718 14.6936 19.0905 15.1702 19.5686 15.4333Z" fill="#00A3FF" stroke="#1E2329"/>
<g opacity="0.3">
<path opacity="0.3" d="M6.18168 7.62104C6.33802 7.91602 6.4564 8.2295 6.53403 8.55404C6.19311 11.6334 6.11522 12.4132 4.52735 14.7847C4.34135 14.3868 4.17241 13.9795 4.02417 13.5666C5.32765 11.5501 5.47999 10.4112 5.7812 7.69442C5.80472 7.4857 6.08479 7.43362 6.18168 7.62104Z" fill="#1E2329"/>
</g>
<g opacity="0.55">
<path opacity="0.55" d="M5.57642 3.64179C3.50911 2.76838 2.76081 4.27849 4.77461 5.43743C1.86816 4.1737 2.90452 2.11575 5.57642 3.64179Z" fill="white"/>
</g>
<g opacity="0.55">
<path opacity="0.55" d="M5.25549 5.68176L5.26131 5.68434C5.52153 5.79903 5.57655 6.13966 5.35755 6.32083C3.48704 7.8673 3.55824 11.3471 4.79266 14.3811C4.71002 14.5102 4.62177 14.6451 4.52791 14.7845C2.8982 11.3017 2.58749 7.01391 5.25549 5.68176Z" fill="white"/>
</g>
<g opacity="0.55">
<path opacity="0.55" d="M6.06848 4.00414L6.06201 4.0007C4.97128 2.32577 5.96383 1.36113 6.62647 2.13361C6.25966 2.18741 6.04389 2.75203 6.44954 3.64544C6.55764 3.88321 6.29742 4.12894 6.06848 4.00414Z" fill="white"/>
</g>
<g opacity="0.55">
<path opacity="0.55" d="M19.1995 2.96503C17.4008 2.13725 14.9919 1.58404 12.8053 1.57371C12.4682 2.21924 11.3322 2.18696 10.8545 1.72821C9.62458 1.94812 8.58347 2.41246 7.93378 3.18687C7.74779 3.40872 7.38464 3.39366 7.23813 3.14384C7.22972 3.13013 7.2225 3.11574 7.21655 3.1008C9.2528 0.510108 16.1249 0.296656 19.1995 2.96503Z" fill="white"/>
</g>
<g opacity="0.3">
<path opacity="0.3" d="M19.8097 14.9952C18.4484 14.2462 18.3582 10.7035 18.3582 10.7035C15.1363 11.578 11.8757 11.0444 8.91944 8.50443C8.85665 9.50241 9.69493 10.4283 9.69493 10.4283C9.34709 10.4208 9.00176 10.3676 8.66785 10.2702C7.12637 7.73669 7.78318 7.13937 9.99917 7.9183C16.1502 9.89791 20.6283 10.2073 19.7394 5.16406C21.8516 7.85654 21.5887 12.5405 19.8097 14.9952Z" fill="#1E2329"/>
</g>
<g opacity="0.2">
<path opacity="0.2" d="M18.2481 7.50559C18.2481 7.9312 17.4127 8.27613 16.3824 8.27613C15.3521 8.27613 14.5166 7.93185 14.5166 7.50559C14.5166 7.07933 15.3518 7.06921 16.3824 7.06921C17.4129 7.06921 18.2481 7.08019 18.2481 7.50559Z" fill="#FAFAFA"/>
</g>
<path d="M13.1647 19.9782C13.1647 19.9782 12.7608 20.2364 11.7078 20.2364C11.4796 20.2521 10.826 20.2164 10 19.4644C10 19.4644 10.3815 20.5618 11.683 20.5618C11.6832 20.5592 12.424 20.6272 13.1647 19.9782Z" fill="#1E2329"/>
<path d="M7.18726 15.104C7.27572 14.8174 7.48739 14.5792 7.74826 14.417C8.0156 14.2549 8.32331 14.1711 8.63616 14.1753C8.9473 14.1776 9.25187 14.2649 9.51672 14.4277C9.77565 14.5893 9.98667 14.8211 10.0857 15.104C9.8024 15.007 9.56117 14.9293 9.32296 14.8794C9.09533 14.8299 8.86329 14.8033 8.63033 14.8002C8.39839 14.797 8.1668 14.8196 7.93987 14.8675C7.70446 14.9162 7.46603 14.9956 7.18726 15.104Z" fill="#1E2329"/>
<path d="M17.2815 15.1041C17.0029 14.9966 16.7636 14.9163 16.5284 14.8674C16.3015 14.8195 16.0699 14.797 15.838 14.8001C15.605 14.803 15.373 14.8293 15.1453 14.8786C14.908 14.9286 14.6659 15.0062 14.3826 15.1033C14.4814 14.8203 14.6933 14.5886 14.9513 14.427C15.2163 14.2642 15.5209 14.1769 15.8321 14.1746C16.1449 14.1704 16.4526 14.2541 16.7198 14.4162C16.9811 14.5793 17.1926 14.8175 17.2815 15.1041Z" fill="#1E2329"/>
<path d="M8.91947 18.0886C9.45418 18.0886 9.88765 17.5184 9.88765 16.815C9.88765 16.1116 9.45418 15.5414 8.91947 15.5414C8.38476 15.5414 7.95129 16.1116 7.95129 16.815C7.95129 17.5184 8.38476 18.0886 8.91947 18.0886Z" fill="#1E2329"/>
<path d="M9.16697 16.9474C9.32856 16.9474 9.45955 16.7558 9.45955 16.5196C9.45955 16.2833 9.32856 16.0918 9.16697 16.0918C9.00538 16.0918 8.87439 16.2833 8.87439 16.5196C8.87439 16.7558 9.00538 16.9474 9.16697 16.9474Z" fill="white"/>
<path d="M15.614 18.0886C16.1487 18.0886 16.5822 17.5184 16.5822 16.815C16.5822 16.1116 16.1487 15.5414 15.614 15.5414C15.0793 15.5414 14.6459 16.1116 14.6459 16.815C14.6459 17.5184 15.0793 18.0886 15.614 18.0886Z" fill="#1E2329"/>
<path d="M15.3664 16.9474C15.528 16.9474 15.659 16.7558 15.659 16.5196C15.659 16.2833 15.528 16.0918 15.3664 16.0918C15.2049 16.0918 15.0739 16.2833 15.0739 16.5196C15.0739 16.7558 15.2049 16.9474 15.3664 16.9474Z" fill="white"/>
</g>
<defs>
<clipPath id="clip0_1596_2897">
<rect width="24" height="24" fill="white"/>
</clipPath>
</defs>
</svg>
