<svg width="14" height="14" viewBox="0 0 14 14" fill="none" xmlns="http://www.w3.org/2000/svg">
<path d="M7 0.332642C10.6825 0.332642 13.6677 3.31788 13.6677 7.00036C13.6677 10.6828 10.6825 13.668 7 13.668C3.31751 13.668 0.332275 10.6828 0.332275 7.00036C0.332275 3.31788 3.31751 0.332642 7 0.332642ZM6.99747 5.83303C6.65554 5.83323 6.37394 6.09083 6.33567 6.42236L6.3312 6.50016L6.3336 10.1679L6.33814 10.2456C6.37687 10.5772 6.6588 10.8343 7.00074 10.8341C7.3426 10.8339 7.6242 10.5763 7.66254 10.2448L7.66693 10.167L7.66454 6.4993L7.66 6.4215C7.62127 6.08996 7.33933 5.83283 6.99747 5.83303ZM7.00027 3.33333C6.53947 3.33333 6.16594 3.70688 6.16594 4.16768C6.16594 4.62848 6.53947 5.00203 7.00027 5.00203C7.46107 5.00203 7.8346 4.62848 7.8346 4.16768C7.8346 3.70688 7.46107 3.33333 7.00027 3.33333Z" fill="#5E779B"/>
</svg>
