<svg width="9" height="12" viewBox="0 0 9 12" fill="none" xmlns="http://www.w3.org/2000/svg">
<path d="M3.77472 11.8652H1.70929V4.86328H4.80011C5.26886 4.86328 5.69041 4.90885 6.06476 5C6.43911 5.09115 6.77114 5.23438 7.06085 5.42969C7.35057 5.62174 7.57355 5.88053 7.7298 6.20605C7.88605 6.53158 7.96417 6.91569 7.96417 7.3584C7.96417 7.5765 7.93325 7.7832 7.8714 7.97852C7.81281 8.17057 7.73631 8.33496 7.64191 8.47168C7.54751 8.6084 7.43683 8.73372 7.30988 8.84766C7.18618 8.96159 7.06573 9.05273 6.94855 9.12109C6.83462 9.18945 6.71906 9.24642 6.60187 9.29199L8.02765 11.8652H5.80597L4.6048 9.70215H3.77472V11.8652ZM4.80011 6.58691H3.77472V8.12988H4.80011C5.17771 8.12988 5.45115 8.06966 5.62042 7.94922C5.79295 7.82878 5.87921 7.63184 5.87921 7.3584C5.87921 7.08822 5.79295 6.8929 5.62042 6.77246C5.4479 6.64876 5.17446 6.58691 4.80011 6.58691Z" fill="white"/>
<path d="M6.15283 1.73963C6.10983 1.70845 6.05406 1.71092 6.01339 1.74461L4.47716 3.05595L3.39878 0.923631C3.35926 0.84253 3.23609 0.843802 3.19541 0.923631L2.11703 3.05595L0.5808 1.74461C0.540127 1.70968 0.484349 1.70845 0.442515 1.73963C0.399521 1.77083 0.382087 1.82823 0.3972 1.88062L1.3516 5.03243H5.24369L6.19698 1.88062C6.2121 1.82823 6.19467 1.77083 6.15283 1.73963Z" fill="white"/>
</svg>
