<svg width="24" height="25" viewBox="0 0 24 25" fill="none" xmlns="http://www.w3.org/2000/svg">
<path d="M7.12435e-10 12.9981C7.12446e-10 19.5341 5.464 24.9981 12 24.9981C18.536 24.9981 24 19.5341 24 12.9981C24 6.46208 18.536 0.99808 12 0.99808C5.52555 0.982972 -7.03795e-05 6.53462 7.12435e-10 12.9981ZM16.906 8.22208C17.006 8.22008 17.227 8.24508 17.371 8.36208C17.4667 8.44518 17.5277 8.56116 17.542 8.68708C17.558 8.78008 17.578 8.99308 17.562 9.15908C17.382 11.0571 16.6 15.6611 16.202 17.7861C16.034 18.6861 15.703 18.9871 15.382 19.0161C14.686 19.0811 14.157 18.5561 13.482 18.1141C12.426 17.4211 11.829 16.9901 10.804 16.3141C9.619 15.5341 10.387 15.1041 11.062 14.4041C11.239 14.2201 14.309 11.4271 14.369 11.1741C14.376 11.1421 14.383 11.0241 14.313 10.9621C14.243 10.9001 14.139 10.9211 14.064 10.9381C13.958 10.9621 12.271 12.0781 9.003 14.2831C8.523 14.6131 8.09 14.7731 7.701 14.7631C7.273 14.7551 6.449 14.5221 5.836 14.3231C5.084 14.0781 4.487 13.9491 4.539 13.5341C4.566 13.3181 4.864 13.0971 5.432 12.8711C8.93 11.3471 11.262 10.3421 12.43 9.85708C15.762 8.47108 16.455 8.23008 16.906 8.22208Z" fill="white"/>
</svg>
