<svg width="20" height="17" viewBox="0 0 20 17" fill="none" xmlns="http://www.w3.org/2000/svg">
<path d="M18.9945 0.500065L18.9933 0.500089C18.7393 0.504708 18.3698 0.574464 17.3821 0.942175C16.4033 1.30653 14.8698 1.9421 12.3112 3.03377L12.3109 3.03389C10.5232 3.79531 6.94846 5.37545 1.57931 7.77481L1.57183 7.77815L1.56424 7.78125C1.14665 7.95167 0.860027 8.10804 0.681605 8.24387C0.532124 8.35767 0.503855 8.4219 0.500416 8.42921C0.49835 8.44996 0.501056 8.45337 0.510557 8.46532L0.5117 8.46676C0.53807 8.50002 0.605761 8.55892 0.759964 8.63559C0.999499 8.75467 1.31293 8.85605 1.71176 8.98506C1.84885 9.0294 1.99603 9.07701 2.15377 9.12972M18.9945 0.500065L2.15377 9.12972M18.9945 0.500065C19.0297 0.499342 19.109 0.504112 19.196 0.525558C19.2801 0.546329 19.3388 0.574689 19.3718 0.599928M18.9945 0.500065L19.3718 0.599928M2.15377 9.12972C2.15361 9.12967 2.15345 9.12962 2.15329 9.12956L1.99534 9.6039L2.1538 9.12973L2.15377 9.12972ZM19.3718 0.599928C19.4214 0.646983 19.4551 0.712992 19.4633 0.78712L19.4648 0.801041L19.4672 0.814853C19.487 0.933226 19.5125 1.22295 19.4932 1.42835L19.4931 1.4291C19.2192 4.39179 18.0231 11.6186 17.4119 14.9654L17.4119 14.9657C17.1611 16.3435 16.7268 16.4817 16.5992 16.4935L16.5977 16.4936C16.2155 16.5303 15.856 16.4071 15.4334 16.1525C15.2209 16.0244 15.0044 15.8706 14.7663 15.6971C14.7283 15.6694 14.6897 15.6412 14.6505 15.6125C14.4494 15.4655 14.2335 15.3077 14.0083 15.1564C13.202 14.6137 12.5709 14.1735 11.9431 13.7349L11.8627 13.6787C11.2615 13.2586 10.6562 12.8356 9.89976 12.3239L9.89939 12.3237C9.47168 12.0349 9.28643 11.8203 9.2141 11.6783C9.15911 11.5703 9.16062 11.4923 9.2069 11.3841C9.26708 11.2433 9.39857 11.0724 9.62188 10.8394C9.71814 10.739 9.82225 10.6362 9.93589 10.5239C9.9498 10.5101 9.96386 10.4963 9.97806 10.4822C10.1061 10.3557 10.2435 10.2189 10.3799 10.0739L10.3803 10.0735C10.4384 10.0116 10.731 9.73251 11.152 9.33117C11.6402 8.86567 12.301 8.23565 12.9684 7.58908C13.5809 6.99572 14.1914 6.39542 14.6559 5.91701C14.8874 5.67849 15.0875 5.46527 15.2347 5.29603C15.3077 5.21207 15.3735 5.13231 15.425 5.06187C15.4507 5.02683 15.4776 4.98766 15.5012 4.94698C15.5201 4.91437 15.5579 4.84614 15.5779 4.75964L15.578 4.75966L15.5797 4.7513C15.5976 4.66766 15.6047 4.54905 15.5869 4.42622C15.5695 4.30617 15.5167 4.10279 15.341 3.94321C15.1658 3.78406 14.9628 3.74902 14.821 3.74779C14.6893 3.74664 14.5696 3.77451 14.5128 3.78772L14.5096 3.78847L14.5094 3.7885L14.6227 4.27551L19.3718 0.599928Z" fill="#00A3FF" stroke="#00A3FF"/>
</svg>
