<svg width="24" height="20" viewBox="0 0 24 20" fill="none" xmlns="http://www.w3.org/2000/svg">
<path d="M23.953 2.56813C23.0545 2.96374 22.1026 3.22487 21.128 3.34313C22.1541 2.72638 22.9224 1.75918 23.291 0.620134C22.34 1.17513 21.286 1.57913 20.164 1.80413C19.4238 1.01256 18.4429 0.487555 17.3736 0.310635C16.3044 0.133716 15.2067 0.314784 14.2509 0.825725C13.2952 1.33666 12.5349 2.14888 12.0881 3.13626C11.6412 4.12363 11.533 5.2309 11.78 6.28613C7.69 6.09313 4.067 4.12813 1.64 1.16013C1.19879 1.90995 0.968664 2.76516 0.974 3.63513C0.974 5.34513 1.844 6.84813 3.162 7.73113C2.38086 7.70627 1.61697 7.49507 0.934 7.11513V7.17513C0.933557 8.31152 1.32627 9.41307 2.04551 10.2929C2.76474 11.1727 3.76621 11.7766 4.88 12.0021C4.1583 12.1955 3.40241 12.2246 2.668 12.0871C2.98412 13.0651 3.59766 13.9201 4.42301 14.5326C5.24837 15.1452 6.24435 15.4848 7.272 15.5041C5.53153 16.8701 3.38248 17.6114 1.17 17.6091C0.78 17.6091 0.391 17.5861 0 17.5421C2.25571 18.9865 4.87851 19.7531 7.557 19.7511C16.61 19.7511 21.555 12.2551 21.555 5.76613C21.555 5.55613 21.555 5.34613 21.54 5.13613C22.506 4.441 23.3392 3.57795 24 2.58813L23.953 2.56813Z" fill="white"/>
</svg>
