<svg width="25" height="24" viewBox="0 0 25 24" fill="none" xmlns="http://www.w3.org/2000/svg">
<path d="M18.773 14.1712L22.1525 10.7912C24.6178 8.32642 24.6178 4.31496 22.1525 1.85017C19.6874 -0.615422 15.6762 -0.615422 13.2112 1.85017L8.33413 6.72722C5.86881 9.19202 5.86881 13.2035 8.33413 15.6683C8.69813 16.0325 9.09653 16.3413 9.51813 16.5979L12.1291 13.9867C11.6317 13.8677 11.16 13.6168 10.7728 13.2299C9.65226 12.1093 9.65226 10.2859 10.7728 9.16562L15.6498 4.28856C16.7704 3.16803 18.5938 3.16803 19.7141 4.28856C20.8346 5.40909 20.8346 7.23229 19.7141 8.35282L18.2813 9.78588C18.8717 11.1755 19.0349 12.7037 18.773 14.1712Z" fill="white"/>
<path d="M5.22987 9.83097L1.85042 13.2107C-0.615178 15.6758 -0.615178 19.6869 1.85042 22.152C4.31521 24.6173 8.32666 24.6173 10.7917 22.152L15.6685 17.275C18.1338 14.8099 18.1336 10.7987 15.6685 8.33391C15.3048 7.96964 14.9064 7.66085 14.4848 7.40431L11.8739 10.0155C12.3709 10.1347 12.8426 10.3851 13.2301 10.7723C14.3506 11.8928 14.3506 13.716 13.2301 14.8366L8.3528 19.7136C7.23227 20.8341 5.40907 20.8341 4.28854 19.7136C3.16801 18.5931 3.16801 16.7699 4.28854 15.6494L5.7216 14.2166C5.13094 12.827 4.96774 11.2984 5.22987 9.83097Z" fill="white"/>
</svg>
