<svg width="22" height="25" viewBox="0 0 22 25" fill="none" xmlns="http://www.w3.org/2000/svg">
<path d="M11 10.5454C16.3325 10.5454 22 8.79291 22 5.54541C22 2.29791 16.3325 0.54541 11 0.54541C5.6675 0.54541 0 2.29791 0 5.54541C0 8.79291 5.6675 10.5454 11 10.5454Z" fill="white"/>
<path d="M21 15.5454C20.448 15.5454 20 15.9934 20 16.5454C20 17.7684 16.494 19.5454 11 19.5454C5.506 19.5454 2 17.7684 2 16.5454C2 15.9934 1.552 15.5454 1 15.5454C0.448 15.5454 0 15.9934 0 16.5454V19.5454C0 22.7929 5.6675 24.5454 11 24.5454C16.3325 24.5454 22 22.7929 22 19.5454V16.5454C22 15.9934 21.552 15.5454 21 15.5454Z" fill="white"/>
<path d="M21 8.5454C20.448 8.5454 20 8.9934 20 9.5454C20 10.7684 16.494 12.5454 11 12.5454C5.506 12.5454 2 10.7684 2 9.5454C2 8.9934 1.552 8.5454 1 8.5454C0.448 8.5454 0 8.9934 0 9.5454V12.5454C0 15.7929 5.6675 17.5454 11 17.5454C16.3325 17.5454 22 15.7929 22 12.5454V9.5454C22 8.9934 21.552 8.5454 21 8.5454Z" fill="white"/>
</svg>
