<svg width="24" height="24" viewBox="0 0 24 24" fill="none" xmlns="http://www.w3.org/2000/svg">
<path d="M12 0C5.38105 0 0 5.38105 0 12C0 18.6189 5.38105 24 12 24C18.6189 24 24 18.6189 24 12C24 5.38105 18.6189 0 12 0ZM12 20.7158C7.2 20.7158 3.28421 16.8 3.28421 12C3.28421 7.2 7.2 3.28421 12 3.28421C16.8 3.28421 20.7158 7.2 20.7158 12C20.7158 16.8 16.8 20.7158 12 20.7158Z" fill="white"/>
<path d="M14.3495 8.53896L10.9137 11.9747L9.65053 10.7369C9.01895 10.1053 7.98316 10.1053 7.32632 10.7369C6.69474 11.3684 6.69474 12.4042 7.32632 13.0611L9.72632 15.4611C10.0295 15.7642 10.4589 15.9411 10.8884 15.9411C11.3179 15.9411 11.7474 15.7642 12.0505 15.4611L16.6484 10.8632C17.28 10.2316 17.28 9.1958 16.6484 8.53896C16.0168 7.90738 14.9811 7.90738 14.3495 8.53896Z" fill="white"/>
</svg>
